/* XPM */
static const char *collectible[] = {
/* columns rows colors chars-per-pixel */
"64 64 220 2 ",
"   c #35511E",
".  c #3A4F23",
"X  c #384728",
"o  c #365421",
"O  c #3A5526",
"+  c #3F5D25",
"@  c #3F552A",
"#  c #3F5A2A",
"$  c #3F6227",
"%  c #424C28",
"&  c #435C27",
"*  c #435C2A",
"=  c #4A5D2D",
"-  c #445726",
";  c #525F2F",
":  c #485D31",
">  c #455E30",
",  c #446325",
"<  c #44632B",
"1  c #4A642D",
"2  c #466B2C",
"3  c #4C6B2C",
"4  c #476426",
"5  c #50672C",
"6  c #516C2E",
"7  c #4C722D",
"8  c #4E7A2C",
"9  c #53742E",
"0  c #5B762E",
"q  c #567A2E",
"w  c #4B6432",
"e  c #4D6B32",
"r  c #4F693A",
"t  c #4A6734",
"y  c #516633",
"u  c #536D34",
"i  c #5A6D35",
"p  c #556D3A",
"a  c #5B6D3A",
"s  c #566638",
"d  c #4E7233",
"f  c #4F7535",
"g  c #547334",
"h  c #5A7435",
"j  c #547A34",
"k  c #5B7C35",
"l  c #55733A",
"z  c #5B743B",
"x  c #567A39",
"c  c #5D7B3B",
"v  c #616E37",
"b  c #637535",
"n  c #627C35",
"m  c #63743C",
"M  c #6A773D",
"N  c #627C3C",
"B  c #697D3D",
"V  c #6A7F37",
"C  c #717E3D",
"Z  c #586C40",
"A  c #5C7541",
"S  c #5E7C41",
"D  c #577242",
"F  c #637643",
"G  c #687047",
"H  c #647D42",
"J  c #6A7D43",
"K  c #6A7E4A",
"L  c #647A4A",
"P  c #717A45",
"I  c #737B4A",
"U  c #787F4C",
"Y  c #5E852E",
"T  c #558033",
"R  c #5C8335",
"E  c #5E823B",
"W  c #5E893A",
"Q  c #578239",
"!  c #628335",
"~  c #698436",
"^  c #64833C",
"/  c #6A843D",
"(  c #658A3C",
")  c #6A8B3D",
"_  c #658936",
"`  c #72853F",
"'  c #728C3E",
"]  c #79893F",
"[  c #66923D",
"{  c #6C933D",
"}  c #659032",
"|  c #73943C",
" . c #749B3D",
".. c #79983F",
"X. c #5E8142",
"o. c #648343",
"O. c #6B8443",
"+. c #668A43",
"@. c #6B8B44",
"#. c #658349",
"$. c #6C844A",
"%. c #678B49",
"&. c #6C8B4A",
"*. c #728544",
"=. c #728C44",
"-. c #7A8D44",
";. c #72854B",
":. c #7A854D",
">. c #738C4B",
",. c #7A8C4C",
"<. c #679244",
"1. c #6D9243",
"2. c #6F9A44",
"3. c #6E924B",
"4. c #6F9948",
"5. c #739345",
"6. c #7A9445",
"7. c #749A44",
"8. c #7A9B45",
"9. c #73934B",
"0. c #7A934C",
"q. c #759A4B",
"w. c #7B9B4C",
"e. c #6F8D55",
"r. c #738651",
"t. c #738D51",
"y. c #7B8D52",
"u. c #7A8E5C",
"i. c #76895C",
"p. c #6E9153",
"a. c #759352",
"s. c #7B9552",
"d. c #759A52",
"f. c #7C9B53",
"g. c #7C955A",
"h. c #7B9B5A",
"j. c #7CA245",
"k. c #75A24B",
"l. c #7CA34C",
"z. c #77A546",
"x. c #7DA253",
"c. c #7FA854",
"v. c #7EA45B",
"b. c #7FAB58",
"n. c #7B9761",
"m. c #839644",
"M. c #82944D",
"N. c #839C4D",
"B. c #899A48",
"V. c #828A52",
"C. c #848C5B",
"Z. c #829453",
"A. c #8B9354",
"S. c #829C53",
"D. c #899A54",
"F. c #84965B",
"G. c #8B935B",
"H. c #839D5A",
"J. c #8A9D5A",
"K. c #93965D",
"L. c #939C5D",
"P. c #909D56",
"I. c #83A34D",
"U. c #8AA34F",
"Y. c #84A94D",
"T. c #8CA94B",
"R. c #83A354",
"E. c #8BA354",
"W. c #85AA53",
"Q. c #8AA953",
"!. c #84A35B",
"~. c #8BA45C",
"^. c #85AB5B",
"/. c #8BAB5B",
"(. c #91AA55",
"). c #95A359",
"_. c #92AC5D",
"`. c #9EAC5B",
"'. c #8BB254",
"]. c #8CB35A",
"[. c #87B05A",
"{. c #93B45C",
"}. c #95BA5D",
"|. c #97BA5B",
" X c #8C8E61",
".X c #869A67",
"XX c #8A9E65",
"oX c #939A63",
"OX c #969E6C",
"+X c #85A262",
"@X c #8BA563",
"#X c #8CA963",
"$X c #88A767",
"%X c #91A463",
"&X c #92AC63",
"*X c #9AAC62",
"=X c #93A66C",
"-X c #91AA68",
";X c #8EB160",
":X c #8EB56A",
">X c #87B166",
",X c #93B262",
"<X c #9CB667",
"1X c #94BA61",
"2X c #94B06A",
"3X c #9EB969",
"4X c #98AE70",
"5X c #A3A966",
"6X c #A1B46D",
"7X c #A0BE67",
"8X c #A4A877",
"9X c #98C05B",
"0X c #9DC36C",
"qX c #A5C369",
"wX c #A8C47D",
"eX c #AEA482",
"rX c #ADB885",
"tX c #C0B592",
"yX c #B9DD88",
"uX c #C7C99E",
/* pixels */
"^ O.!.3.S Q O.q.+.W.$.N 0 +.9.&.^ ;.9.q.B.=.N z S.H.o.* 2 9 #./.>.s.%X~.J.s.5.u @.g ^ =.p >.@.e j 1.l.<.z f.l.D.N y s.I.M.b oX;.",
"@.0.9.7.q.x.@.u f.x.5.l.=.{ 1.R.h $.w.@.s.+.3 y f.o.c k ^ ) u &.) D.*.O.f.R.8.3X) g Q 7 l d.O.o.x +XyX].h k 4.O.h a.t ) N.B H.,.",
"1.O.@.w.5.R k r p o.+.j.w.d ,Xj.R.O R./.m ;.( #.z O.u o.!.h N q ! N.;.>.z #.$./.h N O.O.g F - w.a.#XF !.$.k R.8.N g g o.@.o.z < ",
"@.7.O.) ^ 9.E 9.9 1.f & l W h.g &. .1.! 0.$.6 c < 2.g O.f.c ;.>.$.) 5.9.c z ^ W.1.d ! | c * / ^ 1.$.f.a.+.f.#X=.f.1.^ 1.R 2 c ( ",
"@.^ 0.0. .J @.o.x.E 2 j @.{ d & 1.8.^ ^ 9.N * g 7 &.N M 0.=.N w u o.9.>.N O.3 ( a.r.y =.J p o.c !.J ) / @.!.9.^ j.O.! w.6.h 8.h ",
"{ N { &.@.q.j g 5.x.^ E ( w.6.o.) 5.!.G.oXa u z H.: N =.k J c & +.$.e / =.O.$.c f.c t @.(.O.s.L.>.O.w.9.g l a.O.w.N @.1./ J w.j ",
"7 0.0.o./.E @.c c +.w.! { w.6.y &.h.rXtXG :.z &.#.D F t.7.&.u J *.N h 9.9.Z.i.+./.c g 9.5.H.H.C.N 9.9X) ^ 7 < d +.o.e g o.n I.O.",
"z #.t.5 g ( W.d.S 1.I.z &.5.j @.+.$..X8Xs.=.z l h 9.,.P k &.F 0.@.~ ^ / S.h N u u E.w.{ B @.^ ) h !.].9.9.7 x #.g R.O.9.x f./.+.",
"+.c 0.5./ ^ a.;X,.M.=.O.z ` ~ z <.# l &.6.Z.p M M.n =.v n ^ r h ~ n 5._.&X0./ w g 9.{.u f.f.( ( w.@.N x #.@./ 5.l 9.R . #.,X@.n ",
"~.=.-.-./ N < 9.].0.=.0.=.@._.:.) c < c ^.k B / 6./ ! h ~ ! z ^ / O.h 9.h ;.N & o.x.5.O.=.Z.f.( x l.T R +.x & h X.=.I.*.2 ~ 5.) ",
"=.N 0.w.I.g O.f.<X) a 9.N.0.A.U a.u c l ( R._.] L.;.5.N c ~ z 2 d &.E k +.+.c a.@.>.J >.5.(.&.q.+.%.9.E l.[ 7.% d.k / R.5.>.N 0.",
"' N c x.'.9.+.1.!.h $.F 8.C :.,.&.' P +.5./ ) / =.F.! c N ~ ^ ( w.) R.n q.c i ,.5.0.m / f.@.R.) ^ +.&.#.3.x.O.u k 9.&.,X5.o.^ @.",
"O.J #.-X2X!.h R N.h N 1 w.@.s.z E =.N 1 d.&.^ >.@.N 5.8.3 c h )  .| ) =./ >.^ 0.@.f.z I.9.a.c ^ O.3.r +.R ! o.g g ! 1.O.S.1.! 5.",
"&.N f.&.!.!.&.H.9.w.N p z Q.0.x @.O.g O.@.g 0.c u O.0.1.+ o.N _.I.6.h ~.D.=.>.z X.g p d.9.h.>XR x +.^ q.q.@.l f.=.8.) g 0.R.{ A ",
"e +.w.r 9.o.9.f.H.s.1 c &.6.$./ !.N g a.&.+.I.) h =.&.o.1.k j 9.7XQ.6.p ) &.w.@ 3 h g &.@.g l o.E E z 2.5.k . o.5.{ 3 9 / H.8.e ",
"g +.w./.~ /.c q.@.F 3.&.@.5.g.5.D.y.D.J p o.R.5.k / $.a.f./.o.+.T.6.N z Z.H.$.x ) / c N R R O.@.3.u a.x.0.w.*.f.g O.z ,.O.9.E.z ",
"H J 2.| | ) =.5.k z $.q.0.a &.6.`.A.B.A.F & 1 &.f.9.n.f.F >.w.w.{.>.6 g c 0.t c @.f./ O.O.$.>./.^ h p ^ c.[ ,.1.^ I.^ u O.0.1.+ ",
"h x {.Y.6.n s.=.s.@.0.@.H.c ^ 0.f.#X9.*X~.H.a / 3 9.^ <.h O.S.>.J c @.1.o.x w.g O.s.k z z z +.o.w.@.#.j.! k t.o.&.w.@.k 0.3.o.W ",
"c k 9.qXQ.n o.=.@.c S l o.#.{.=.-X,.$.E.M.x.@.w.@.) 9.}.E.X d.q.| m o.'.) 2 7 @.O.=.N.0.5 x ^ =.9.v.c.l.q.E $.o.O.q.q.O.O.s.z 9.",
"c H | m.6.B g S.H.+.@ 2 k A !.@.$.<XG.#Xw.3.d.'.S.3 #X7.N 5.8.( 1.^ s.].S.@.8 < g ^ O.3 E m >.d.E +.l J ;.&.w.w.F.y c +.#.,.1.) ",
",.O.w.0.N 2 p S.O.c k =.! 1 1.k Z.Z.i 5 >.&.x x #.Q a.e t }.! 1.x d.@.^ c o.k k S k f.u l N ~ w.j ! g 2 ( J S.-.N.=.c p R.t.) R ",
">.f.E.a @.k z #.o., &.!.N e ! q R.=.s.O.6 @.x d e 1.R l g } 7.&.q.g k.j d h.3 5.^ c 1.= #.s.R.q.r N &.E N k | ~ n 5.0.O.6.' ' >.",
"@.(  .J ,.k =.< q.N h H.( J 9.J O.) >.@.@.5.  j E k l.=.#.9.3.q./ q.d.3.( 7.k 5 S @.8.N * R.5.n ^ O.O./ k O.~.B s.a.5.=.@.z s.t.",
"l d.9.f.J - 7 , ^ h M =.w./ 5 w c N 9.@.J I.9.q.9 1.x.6.3 &.&.+.! ! x &.p.k.9.J #.O.^ w.=.n 1./ H.o.E.5.oXm ' 5.1 z s.}.! l 8 O.",
"o.>.O.>.m u & E z p E.5 O.z p # 5.$., =.0.&.<.f.^ 1.@.E g o.:X+.^ &.S S j 1.@.x j 5.&.{.1.H.^ O.>.*.).0.D.-.,.s 1 c @.6.^ c @.2 ",
"$.>.8X Xm a a.4Xr $.J 5.S.p e :.B n g >.9.c 2.N.c O.N.) k c < +.E +.<.x.q.9.5 o.N Y 9.5.9.<.! ) B c / 5.' y & 9.O.3 _ 3.x x =.h ",
"1 J OXs y.g d < g $.:.@.!.F F J.! / ^ ) /.$.=.0.O./ ;.0.5X$.a.@.3.l l 7.q.6 * q.6...g O.0.{ ^ 5.N @.1.Z.h O d o.,.p o.s.L h w.g ",
"F t.=X~.F.z K / @.5.I b c g y / B n q._.&Xs.s.O.,./ @.5.K.I 9.~.h z h.>.7.5.$.5.@.n g n f.8.x &.N 9.@.Z.&.^ g p / h.!.o.>.e S.y ",
"# z &.w.0.h N =.6.9 5.h ^ c z 7.^ n h f.c ,.S.O.J w.E.B ,.0.>.q.q.h z ( l.=.+.( &.z r.6.$.H.c 2 ^ d.p !.&.t.g 9.n u l 0.g 9.w.,.",
"&.< l ^.E =.-.6.A.^ h k { ^ ^ f N d.^ g $.@.=.h >.z | -.=.9.g f.d.x.^.w.c O.o.o.l.@.g O.w.8.3 g 5.w.a.@.( S.,.S.k w 1 /.E.) ,.0.",
"3 o.l +.@.*X-.M.V.^ f.z O.~ e 7 q.W.7.o.! 1.@.i &.&.R.=.^ c a.a.&.d.2.[.R $.@.d !.( n 0.9.9.+ #.@.{  .R./ ( 3.t.N g 9.5.@.;.9.c ",
"+.r.O.+.N =.9.O.,.N T @.5.@.f.c g wX0X!.g ^ Q./ 1.d ^ 9.d !.>.!.@.l E f.E l.#Xz z q.9.J a.E ) 2 /.Y.' 0 6.5.c i t.f.>.9.t.=.~./ ",
"s.y g g d.x.) 7.5.) 1.+.( J 9.>.9.&.$.s.c 0.s.x.k x & f <.!.j W.1.2.d.^ q.5.!.m =.4 a.g.h.H !.c @.qXQ.b H.,.9.@.,.5.=.a ( U.P.G.",
"*Xz g l p o.3.I.w.@.&.w.0.y 0.=.S.c @.z &.c &.q.z g E 3.R $ * R.w.5.k g S &.9.R.8.=.1.1.( J a.f.8.m.6.;.h ~ @.u @.O.O.^ O.S.6XM.",
"/.&.1.@.j 1.e g 9.g ;.J +.1 9.>.h 7.R @.u.N o.3.5.1.R 9.W.o.^ { N +.( +.l p +.( W.c x 1X_.y w.>.w.=.k g =.H.R.w e d z ^.,.~.0.O.",
"*X=.^ O.5.,.F S N [ g.:.z +.h R.F.=.k @.3.9.&.[ I.O.! 5.Q.n @.S.8./ &.^ ) +.E 2 t E +X1.=.r 5.x./ z 1.l O.=.l g ^ ^ u f.1.;.&XZ.",
"s.5.) u t , @.J S.M.6.5.0.#.J N.6.~ s.!.g.^.O.>.N.N &.5.E J 7.q.o.8.k u l._ o j o.1.2 # c Y.7.R 5.J N +.p 9.e #.!.c p ) k J.Z.;.",
"3 &.R =.u o./ h ' | ~ k 9.R.h @.B ^ -Xo.x 1.w.s./ O.N ` n z @.N /.^ E c >.l.&.E ( 1.3.c Y j.^ N d.J & 3 $ [ N b f./ J +.! E.J >.",
"c g e &.@.c ^ u f.=.N h.a.5.<Xl.o.2 R O.u R.E.*.$.-./ =.).J &.u k W c.^ 3 2.w.k 1.x.6.z 0.f.!.G.F.z u e j #.N m Z.^ p z z ^ w.=.",
"O.=.@.J O.=.&.z N 5.0.= z $./.^ g k E 2 #.w.*.y s.0.S.-.K.;.f.5.z 1.v.^.H f.5.H &.1./ o.3.a.uXeXI P F s.=X* N =.^ O.h 1 z o.9.>.",
"*.O.a.z ~.w.M.G.=.N.u 1 c ^ R.^ E +.@.3 S O.N >.@.! m.b K.;.h 6.h ^ D }.0.,.O.k *.6.3 k o.A XXOX;.>.g e e S K 9.w.z 3 = O.$.2 =.",
"l.=.S.=.M.0.N.*.*.N t.O.g 7 R.@.p ^ ..^ 1 - 5.J b @.0.>.H.J w.R.q.p ^ ;XE.J ,.0.O.0.D.u R e S &.6Xm A N N q.V.m d.J F K.k ! h s.",
"0.^ ,.c *.=.j.~ t O @./ H z O.s.A u =.z > O.@.B N ! z t e x &.1X7.c q.W.6.s >.=.N.M.K.,.s.< u v.^ N v ~ N.j *.b E f z >./ ) ! =.",
"5.) ~ O.+.5.9.9 O d S 0.u.e.f.N 9.1 f.Z.a $.N h / { y c ^ c $X@X;Xz ! d.i #.#.| -.B K.9.y o.e +.^ ~.] 0.M.k N k ) l z 5.) ! R.<X",
"$.w.N O.R q.Z.+.^ x l 5 z E 9.w.u ^ f.M.*.$.5.F o.~ N 3 x ^ &.a.!./ @._.@.&.u &.0.Z.0.@.8.M N ^ k ,.=.M.P 1.O.c ( O.d o.c c =.=.",
"^ a.h 9.&.H.9.9.#Xg o.9./ w < ,Xw.5./ ,.w.,.^ ! / ' N E T S d.g &.d.S.9.0.@X#.x N @.e ( c k l <.R ^ 2.9.H.k j H / g 7 k u ( 9.N ",
"! 2 x ( &.e !.E H.>.s.w.g < g @.{.z !.;.g < ! k c 9 O.R.7.7 e g @.&.z f.@.@.!.s.2XO.e c 9.5.e +.@.E @.k R.q.h 1 9.9.) 1 g N ,.R.",
"M.1 x l.f.!./ R.N w.9.g.o.g 5.R.5.J | -X) +.h.N .X' J >.S.>.& g 9.@.S n !.O.) 2.$.F &.@.! 9.s.H.c g A d.O.8.I.0.q.g @.z r.6.>.w.",
"! * e.h [  . .q.n 5.+.p $.!./ >.>.^ E.P.G.J.z a = m >.9.8.h h @._ ^ H ^ q./ ( 9.h u y.w.f.a N 9.8._ 1 A _ x.k 0.<.( Y.@.u / w.1.",
"+.6 < /.I.| V ' O.O.^ N ,.@.S.u ~ / S.E.Z.-.y.=.! &.J c ( z J g k 5.s./ 0 0.N 9.@.( s.5.R.@.k @.w.d.@.x.l.j c +Xc @.w.=.h =.&.&.",
"@.) h ^ R.I.' c 3.,.9.&.>.&.9.z q.c @.H t 6 ;.,.R.=.S.*.#.O.I.' 6.f.R.' h S.%X*.H.J &.c @.&.@.&.S.v.b.^.l.7.o.$.c 2 9.5.N O.$.&.",
"o.+X^ ! f.|.w.N 2 < o.+.e 2 k / W.O.R =.g o.^ N 8.n c q.S.h 5.N @X>.&.7.6.u R ^ d.u r g g u 9.a.9.+.o.3.H.q.R /.@Xc y c &.+.+X9.",
"F 9.7.N x.W.9.( 7 S x 9.9.N S o.w.) r #.O.c k =.0.N g.9.w.{.@.l T O.l f.N u Z.H.s.s.* x ^ u o.&.^.&.H l c x.w.) /.J J ~ ! d.&.( ",
"u +.k 9.1.+.t a.c q.g +.1.- z <X5./ / c 0.=.y.i ) 5.= z O.I.k j @.< &.@.3 e >.s.c e k 5.^ k N @.q.7.q.1.q.5 3.v.9.9.I.5.) _ R.9.",
"o.&.2.g q.j R 1.2 1 S @.6.0.4 ) w./ !.@.D.=.E.,.M.m y c @.q.@.^ =.k z a 5.x c ;.c < &.R./ z N k ( w.) ^ k A l u p.3.Y.S.e O.].I.",
"5.9.) q.9.3.E z.1.B A 9.c l.5.=.n 9.=.N -.R.8.i 1 &.=.u x &.g.1 6.O.& N k +.z x d.c z g.5.m ,.a.J @.! <.( o.c g 2.2 e &.E +X5.1 ",
"X.@.k ^ j h.&.q.&.c e @.^ &X5.o.^ @.~ o.o./ ) 4 e c f.L l f.c u +.;.Z O.u 2 4 7 R ^ M @.S.N N h O.5.8.N H ) @.&.+.j 2 g ( f o t ",
"v.%.k %.+.l c q.h z h ) ( / f.9.! q.N $.! q.@.E x u h >.@./.N u q.E.N z u w 8 j #.3 J.y w.;.N N w.9._ O.&.g 9.k.k < E +.2.1.o.+.",
"c 3.k k o.o.k.( 1 r N. .) g 0.R._ &.c >.^ H.>.@Xx o.5.B : H I.9.=.=.q.$.S u &.XX: F O.+.) $.h ! 7.9.s.l.+.e 9.5.q.f.j _ 9.{.v o.",
"o.c &.+.l ( N./.; o.q.=.p N J H.q.< j 1.H c f.&.H.s.w.g u g I.9.s.>.x 2 h ;.&.$.u F F +.x @.F ,.@.c R.@.1.^ i k 2.w.^ ( 1.f.h ^ ",
"o.a.s.q a &.+.z.N.5.g 9.z a N 0.N.e c 5.R.5.f.O.5.9.t.o.k 9.5.O.-.~./ 5.t.r e 3 O.^ @.F O.@.N H t.5 j ^ W.3.h.c w.N.h 9.0.( 5 1.",
"<.< q.q.z 1.5.k ;.3.^ I.^ n J 5.) O o.>.7. .) ' @.+.i t.f.>.m =.6.).C.D.s z J =.u ^ k O.N ( l w O.1.@.o.&.:X/.O.Z.=.O.h 0.) n o.",
"1.x s.d.x.^.l.( N +.d f.@.! S.a.E ) , f.W.6.b S.=.a.+.0.9.0.z ^ S.*XZ.).;.N h E.J.' >.f.O.) y o.{ ' ) N l l {.R.0.=.=.=.$.w.5XN ",
"a.&.a.9.+.<.#X! w.-Xz u 9.a.S +X@.#X^ / |.U.6.N =.+.N H l >.&.R.f.H.O.0.Z.c J w.w.h ~.&.c ( O.x d @./.@.h +./.E.=.F ' B w.M.K.K "
};
