/* XPM */
static const char *down2[] = {
/* columns rows colors chars-per-pixel */
"64 64 237 2 ",
"   c #090A14",
".  c #241527",
"X  c #341C27",
"o  c #4D2B32",
"O  c #42551F",
"+  c #4B5729",
"@  c #53592A",
"#  c #595834",
"$  c #5C4C33",
"%  c #675B37",
"&  c #695831",
"*  c #4B6228",
"=  c #55622D",
"-  c #5D6C2B",
";  c #5B6729",
":  c #587129",
">  c #5C6433",
",  c #5C6839",
"<  c #597134",
"1  c #636D2F",
"2  c #65782D",
"3  c #656B34",
"4  c #6A6D35",
"5  c #636C3C",
"6  c #6B6C3B",
"7  c #67653A",
"8  c #736D3C",
"9  c #756A3B",
"0  c #637334",
"q  c #6B7534",
"w  c #64733C",
"e  c #6D743C",
"r  c #6A7C3B",
"t  c #687B36",
"y  c #717D35",
"u  c #73743D",
"i  c #79743E",
"p  c #737B3B",
"a  c #7A7C3D",
"s  c #747137",
"d  c #716F2F",
"f  c #7A4841",
"g  c #705C45",
"h  c #6D6542",
"j  c #6D6C42",
"k  c #666742",
"l  c #746444",
"z  c #736D42",
"x  c #7C6B4C",
"c  c #796848",
"v  c #6C7342",
"b  c #6E7A43",
"n  c #687646",
"m  c #737443",
"M  c #7B7444",
"N  c #757B43",
"B  c #7B7C44",
"V  c #74744A",
"C  c #7D744B",
"Z  c #747D4A",
"A  c #7C7B4B",
"S  c #7C6951",
"D  c #6E7D52",
"F  c #7D7B52",
"G  c #797653",
"H  c #836B4C",
"J  c #827546",
"K  c #827C45",
"L  c #84744D",
"P  c #8A744B",
"I  c #837C4B",
"U  c #8A7E4D",
"Y  c #887646",
"T  c #846C52",
"R  c #896C52",
"E  c #847353",
"W  c #8B7553",
"Q  c #857C53",
"!  c #8B7D54",
"~  c #8C745A",
"^  c #857C5B",
"/  c #8C7C5A",
"(  c #847358",
")  c #937B54",
"_  c #92755D",
"`  c #937C5C",
"'  c #9A7A5C",
"]  c #947755",
"[  c #AD7757",
"{  c #947D62",
"}  c #9B7D63",
"|  c #967967",
" . c #817E61",
".. c #688436",
"X. c #7D833E",
"o. c #77883B",
"O. c #718C32",
"+. c #6C834A",
"@. c #6A8446",
"#. c #748344",
"$. c #7D8344",
"%. c #75844C",
"&. c #7C844B",
"*. c #7D8B4B",
"=. c #778A45",
"-. c #799347",
";. c #7D8252",
":. c #7D8A53",
">. c #7B8758",
",. c #759050",
"<. c #81803E",
"1. c #838344",
"2. c #838B44",
"3. c #83834B",
"4. c #8A834C",
"5. c #848B4C",
"6. c #8B8B4C",
"7. c #8A8246",
"8. c #928C4C",
"9. c #94874D",
"0. c #89934A",
"q. c #94934C",
"w. c #95984E",
"e. c #848454",
"r. c #8C8453",
"t. c #858B53",
"y. c #8C8B53",
"u. c #85845A",
"i. c #8D845B",
"p. c #858C5B",
"a. c #8E8B5B",
"s. c #928454",
"d. c #938B53",
"f. c #9A8B55",
"g. c #93835B",
"h. c #9A845C",
"j. c #948B5C",
"k. c #9B8C5C",
"l. c #988557",
"z. c #8C9354",
"x. c #879358",
"c. c #949353",
"v. c #9A9355",
"b. c #949953",
"n. c #93925A",
"m. c #9C935C",
"M. c #9C9A5B",
"N. c #959A59",
"B. c #A38C5D",
"V. c #A3865A",
"C. c #A2945D",
"Z. c #A39C5C",
"A. c #A69658",
"S. c #97A24D",
"D. c #97A35A",
"F. c #8DA359",
"G. c #A8A55E",
"H. c #8E8262",
"J. c #8C8B63",
"K. c #878A62",
"L. c #948363",
"P. c #9B8463",
"I. c #948B62",
"U. c #9B8B63",
"Y. c #9D846A",
"T. c #9D8B69",
"R. c #958669",
"E. c #8C9264",
"W. c #8B9166",
"Q. c #949363",
"!. c #9C9363",
"~. c #9C946A",
"^. c #9D9A6A",
"/. c #9A9A65",
"(. c #9E8A73",
"). c #9E9571",
"_. c #A18565",
"`. c #A38C64",
"'. c #A98E65",
"]. c #A1846B",
"[. c #A48C6B",
"{. c #AA8D6C",
"}. c #A39364",
"|. c #A99365",
" X c #A39A64",
".X c #AB9C66",
"XX c #A4936B",
"oX c #AB946C",
"OX c #A49B6B",
"+X c #AB9A6C",
"@X c #B2956E",
"#X c #B39A6C",
"$X c #B49869",
"%X c #A58C72",
"&X c #AA8D73",
"*X c #A78D79",
"=X c #A59372",
"-X c #AC9473",
";X c #A59B72",
":X c #AD9B73",
">X c #AC947A",
",X c #AD9B7A",
"<X c #A2997B",
"1X c #B39574",
"2X c #B39B74",
"3X c #B99D75",
"4X c #B2957A",
"5X c #B49B7B",
"6X c #BA9C7C",
"7X c #B6896A",
"8X c #9DA163",
"9X c #A8A268",
"0X c #B2A26D",
"qX c #ADA174",
"wX c #B3A372",
"eX c #BAA374",
"rX c #B5A37B",
"tX c #BCA37C",
"yX c #BCAA7C",
"uX c #AAB274",
"iX c #C2A47C",
"pX c #C5AA7B",
"aX c #BA9D82",
"sX c #B49A84",
"dX c #AD9F81",
"fX c #B5A382",
"gX c #BCA482",
"hX c #BEA689",
"jX c #AAA783",
"kX c #C2A583",
"lX c #C5AB86",
"zX c #C4AA8B",
"xX c #C9A785",
"cX c #C9AC91",
"vX c #D2B48C",
"bX c #E3BD8A",
"nX c #E8C692",
/* pixels */
"I.T.>X' h.4.A ! g.k.m.+X5X2X^.F 6 v 6 e t.s 2 e C ,Xy.5.b.y 2 o...; y b.Z.8.4.( N N.u.<XR.%X} -X2X/ ] {.>X` m B 2XbXnX:XU.gX:X:X",
"XXU.L.oX+X|.2Xk.g.g.{.'.P.iXT.+.F n t.m.6.y.a K j.( Q.n.-.o.2 X...o.*.|.f.M.4.&.> r.%.`.~ `.-XI P.h.{ ].5XoXa.I.) }.bX#X2XQ.:X:X",
"oXgXC.Y pX3X4X{.! [.5X2Xl.I rX).>.+.:.k.#X3.4 6 m.OX~.r.*.t.e o.X.V F.3.u J A - B = @ h P.R.{ j.h `._.[.5Xf.oX#X2X9XtXlXg.L.).~.",
"rXL.h.|.2XtX6X'.xX5X{.>Xg.! i.I.e.p.fXtXtXk.X.B I.`.Y.i.V =.0 q e : 8X..1.4.z 5.C > t :.j.5X-XU.I g.{ { 5X2XoX+X2X:XtXoX2XrX%XtX",
".Xj.U j.`.2X1X'.5XY.{.%XV e.2XP.,XF rX5X6.5Xj.o.v ` T.Q.e.:.w c. Xg.P 3.N B 4 3 3 e.N L =X=X`.-X`.OXP.{.`.:X'.3 2XrX:X2XrXOXv.A.",
".XOXXXy.e.[.j.tX{.U.m.}.Q.a.C.:X-XOX:X XU.].h.u &.+ # w i.o X X X L e.m B 8 B 4.r.e B t.u.R.l.`.XX5X`.}.`.P.!.5.f.oX'.}.Z.}.q.Z.",
"Z.4.r.`.F I.U.XXU.k.v.q.b.2.m.m.rXwXOX3.z.`.}.r.!.A j.o o o o X X X P 6.p 5.`.d k.h.B r g.C !.].E ! 4.XX=X+X6Xq.4..X}.0XpX2Xm.0X",
"eXoXM.k.i.s.f.z.2XeXa 9.2.X.C.C./.!.!.7.k.K h.U.+Xo o o o o X X X X X U.m.r.wX+X}.f.s.&.`.oX! `  X/.~.i.n.6.OX7.$.Z.S.v.eX$XoX+X",
".X.X9.2XoX2.O.N k.f.<.4.7.p K eXM.n.c.$.N y.c.o o o o o o X X o o X X X oXXX3XoX@X8.r.B x }.g | `.qXk.j.1.+X=XOXw.D.y.lXb.9.1XaX",
"U.7.eXxX6X&...6.m.T.<Xi.p - w.:Xm.m.5.m.B o o o o o o o o X o o X X X X X X 5X#X0X3XB Z.m.6X&X_ ~ rX3X.XQ 5X4X5X0Xb.eXvXq.c.`.V ",
"f.6.P } { 4...Z.U 2XN + 2 t.Q P.}.s.y.r.o o o o o o o o o o o o X X X o X X X X j.2XB.6XxX_.L P.L -XgXk.' -X}.rX.X9Xz.B.C.9XY o.",
"j.q.v.s.T.+Xb.|.I 8 s q 2.4.m.XXs.f. Xo o o o o o o o o o o o o o o o X X X X X X . L 2X`._.1.$ ! `.k.XX3X+X:X3XtX2XcXyXs.M.m.6.",
"M 9 i h.!.Y wX'.! r.u M p 1.XX#X'.XXo o o o o o o o f o o o o o o o X X X X X X X . . . . . . e qX9XtXwX$XlX5X1XzXyXhXvX+XeX`.9.",
"f.|.7.9.d.|.C.M M i.4.r.9.r.2X2X3X|.o o o o o f o f f o o o o o o o X o o o o X X X X X . . . . . U.kXtX.X_.4XkX4X`.yX-XwXtX`.q.",
"B.$X$XB.2X+X.XXXz.I g.:X1.:X`.@XXXo o o o o o o f f f o o o f f o o o o f o o o o X X X X . . . . . k.;X@X6XY.6X-Xs.rX1XaX1XI.M.",
"B.B.1X3X2XpX3X2XoX-X! P.h.5X|.-Xo o o o f o o o f f f o o f f f o o o f f o o o X X X X X X X . . . . gX`.].].3X}.tXvX4XN L.u.m.",
"C.k.P.'.2X3XtX5X`.[.g.[.%X2XU./ o o o o f o o o f f o o f f f o o o f f f o o X X o o X . . . . . . . xX].].} [.].`.oX-XL.e.y.I.",
"n.|.r.U.`.kXaX1X|.3X3XoX>X2X2Xo o o o o f f f o f f o f f f o f f f f f o o o o o o X X . 6.k.a . . . 3X3XL.k ~ :X3X3XoXJ.D ;.p.",
"e.I./.n.k.:X2XXXoX5X1X6X1X{.Y.o o o f o f f f f f f o f f f f f f f f o o o o o o X X X K.e.A ..q . . P.! U *.x -XiX3XlXrXW.J.V ",
"p.W.t.%.e.-XT.`.1X5X_.(.[.>Xg.o o o f f o f f f f f f f f f f f f f f f o o o X X X X C ;.#.w + , j I e.e @ ;.k.kXiXgX~.gXa.t.E.",
"[.T.W.n e.L.i.}.iX_.`.-X-X-X^ o o o f f o f f o f f f f f f f f o f f o o o o o X X C a.-XQ.^.+.8Xn.$.r #.7 j.tXtX1Xh.*XtXwXoXi.",
"g.W U., D J.).;X4X`.U.XX,X>X~.o o o o f f f o o f f f o f f f o o f f o f f f o X N.k.y.j.s.r.=.5.I *.A t.u <Xk.~.{._ _.3XkX1X[.",
":X;X2X^.W.J. .fXT.U.oX5XL.>XzXo o o o o f f o f f f o o f f o o f f f f f f o o X }.oXr.g.P.6 3 =.N.w j.q.A H.L.[.{ _.1X4XaX>X>X",
"%X%X:XtXoXgXjX[.2X_.T -X:XiXlXo o o o o f f f f f f o f f f f f f f f o o o o X X k.l / / u.6 N 9Xy.5.r.8.}.=X*Xg._.7XaX-X[.4X4X",
"5X=X^ L.[.oX,X>XH T L l.3XvXbXo o o o o o f f f f f f f f f f f f f f o o o X X X i.I m s.@.z Q J m.m.4.6.gX[.` ` ! iXcXhXaX[.2X",
"` rXXX/ W P.5X,XP.A #.6.l.iXbXnXo o o o o f f o f f f f f f f f f f f f f o o X X # s N D.1 I m 3.n.2Xb.8.h.`.c y.3.L.sXY.aX>X`.",
"! '._.l.Y.` 5X,X`.wXg.[.h.1.yXvXo o o o o o o o f f f f f f f o f f f f o o o X X : 0 r r 2 - - X.b.c.A.2 y.E w y.&.Z ).=X_ / U.",
"t.XX/ '.' ] -X5Xk.k.'.#XtXOXvX2Xo o o o o o o o f f o o f f f o o f f o o o X X 8X$...0 5.q ..: e I 0Xq.G.4.B r j ;.%.XXR R `.-X",
"Q L & l.P.h.T.5XtXoXrXoX2XgXfX2X@X[ o o o o o o f f o f f o f f o f o o X X X X -.2 q 2 o.2 S.S.z.k.s.K +Xn.0 u > = 3 7 / P.Y.-X",
"}.T.A h.Q L.R.5X:XoXh.Q gXgX5XoX3X[ [ [ o o o o o o o o o o f o o o o X X X X X 5.0.1.6 O.o.M a.F.*.4 N M N q 4 B O * * J./ sX5X",
"oX2XU.r.l.P.&X[.{.rXr.< `.rX[.:XgX[ [ o o o o o o o o o o o o o o o o o o o X X X n.#.p X.y * 0 uX: o.4.4.z I 6 x A =.N [.-X5X{.",
"i.} H P.g P.XXP.T.P.j.Z j.XX`._.h.[ [ [ o o o o o o o o f o o o o o f f o X X X X Z -., 5 &.3.j.s.o.0.4 B 1 ..> 4 I &.m W %X%XXX",
"l.W {.i.X.) ] g.i.g.}.a.j.2XoX`.XXtX[ [ f f o o f o o f f o f o o o f o o o o X X e.%.@.6.f.}.E Q N M f.f.q s N z = A C / % %X_.",
"U.!.5XR.P.P.) l.`.}.`.l.s.V.) ! l./ [ f f f o o f f f f o o f o f f f o o o o o X X 3.0.n.! I M j.b i a y y 4 m 4 &.j.P.XXm.[.{.",
"P.} Y.{.R ` _.` `.`.% h.> M P.j.V b [ [ [ f f o o f f f f f f f f f f o o f f o X X i.|.wX!.v A Q j.p p o.; a 0 ; + j T.*X*XP.~ ",
"` ' x H W h.`.P.` l.z U A 6 B.j.e.e [ [ f f [ f f f f f f f f f f f f f f f o o o X X r.-XU./.[.qX5Xv.f.1.m.1...N 9X/.Q.F W E v ",
"` W OXj.g.C g./ '.) j.f.z m h.h.g.v [ [ f [ [ f f f f f f f f f f f f f f f o o o o X X X 6X5X5X=Xi.!. Xz..X8 @ A G j h H.E ) h.",
"l `.! Q &.#.N ! ' _.E y.*.e P P h.:.C [ f [ f f f f f f f f f f f f f f f o o f o o X X . . . *X:XU.:Xt.I 3.7.B y.^.Q.qXrXg.l L.",
"j.l C ~.:XV ;.U s.` ;.@ , Z n.r.i.# A U.[ [ f f f f f f f f f f f f f f f f f f f o o X X . . . tXrXrXz.m.1.$.XXe.=XfX1XL.Q.j.3.",
";.p.;.[.'.W g.7 J W N A + u.f.& J 3.@ # [ [ [ f f f f f f f f f f f f f f f o f o o o o X X X . . 2X+XQ.C.j.p i.!.U.{ R.[.G c h.",
"OXOXXX5X-X;.7 N & l 5 v +.r.N :.r.r.Z :.A [ [ f [ [ [ f f f f f f f f f f f f o o o o o o X X . . . ! #.2X.Xm i.5XzX+XL.T.I z h.",
"T.XXhXR.[.:.%.b j.t.&.#.e 4.$XP l `.Q j j.[ [ [ [ [ f f f f f f f f f f f f o o o o o o o . . . . . . j.}.U h.|.`.| } P.E j.n.m.",
"s.-X>X1X>XuX9X,..XP A m 3.Y |.Q & & I N !.[ [ [ [ f f f f f f f f f f f f o o o o o o . . . I.P.. . . a.`.6.oX' [.} ' 1X[.W 6 i ",
"}.{.>XR._ :XXX6 u.e.j.e.M W # > , s.1...C.#X[ [ [ [ [ [ f f f f f f f f f f o o o o o . t.a.j.[.E . . -X[.{.}.% T } R H U.k.z y.",
"2X5X%X/ g.E h F T.Q n e.;.# 5 e < $.1.z.k.) [ [ [ [ [ f f f f f f f f f f f o o o X o e.~.y.E T.g.` ,X~.! _ / E V H _.{.].J a.2X",
"Y.L.^ -XL.T.u.L.P.L.%.e.!.x.:.&.w j  XU.W B.[ [ [ [ f f f [ f f f f f f o o o o o X X c c OXe.z OX9 | L.}.c x I j.e.S } T.L.&X-X",
"R.E G =X[.} _.R.' }.W.i.E g.yXk.r.+.5 L P $Xh.[ [ [ [ [ [ f f f f f f f f f f o o o X >.g.c R./ OXg.&X>X^ I.z.l W F V { L.Y.} ].",
"R.7 F Y.2X{.{ _ @XB.u.u.v ^ ` oXj.e.5 e.oX'.2XXX[ [ [ [ [ f f f f f f f f f o o o o X X Q.j x T {.R 5XgX/.C p.k W ~.t.H.^ / [.zX",
"S %.^ _ _.] Y.~ [.i.:Xa.x.g./ oXXXu.u.T.[.1XtX-X[ [ [ [ f f [ f f f f f f f f f f f o X X N >.x.% / kXfXj.Z % V T.R.%X=X;.OX5XY.",
"J.x./ / -X{ R.L.{.P.5XU.yX:X;X{.}.T.` :XY.`.-X:XP.[ [ [ [ [ [ [ f f f f f f f f f o o o X X b 5 5.XXcXsXj.b %.%.I./ S { Z _.1XY.",
"# V k k S ~ ` L.2X_.%X5X3XXXXXP.,X>X{ %X-X@X{ ` P.-X[ [ [ [ [ f f f f f f f f f f f o o o X X X r.`.zXzX-XOXA y.C F V u.K.{ { $ ",
"p.u.b A % h P.T ~ XX{.L.h.T.-X>XY.{ >X].} _.W E Y.XX` [ [ [ [ f [ f f f f f f f f f o o o X X X X C.tX-X` H.i.1.1.&.b v u.j l # ",
"3.p.U.Q I V $ x G ( g W &.i._.sXS T Y.W ! `.` P._.}.%X*X[ [ [ [ [ [ f f f f f f f f f f o o X X X X X >Xn A k.R.L.m 5 k g.F V Z ",
"2.3.I e p u A # l I.E U.E.Q.U.P.=XU./ e.C Y.-XT.-X%X(.].[ [ [ [ [ [ f f f f f f f f f o o o X X X X X X 0. XB r.@ y V Q j.P A N ",
"B I s B d.d.s.z.3.!.6.j.s.3.$.$.U.A Q d.8 ^ L.>XY.>X4X5X].[ [ [ [ f f f o f f f f o o o o o X X X . . X .X`.j.8 a a 4.+Xf.d.y.r.",
"e = 3 J J c.A.l.j.oXt.P.P.6 > x.N.,.m G.i fXR.U.` {.&X%XsX! [ [ f f [ [ o X f f f f f f o o X X X X . X m.1.C r.I 1.}.3X#Xi.6 3 ",
"w > M s.N #.B L h.x Q ` u.6 B .Xv.a.d.l.j.gX{.` ` oX[.XX`.m.^.[ [ [ [ [ o X f . . . f f o o X X X . . X oX2X4.g.+Xd.}.@X2X!.m 7 ",
"n %.9 I &.x.n.I r.I i.s.@.B $.8 h.2X`.h.K ' i.L U XXtXj.2.OXj./ r.[ [ f [ o f f f f f f o o X X X . X 3XtX-XgXg.P.{.2X-X2X;Xu.Q ",
"5 7 7 V y.t.p 8.$.X.v.c.t.s.1.B m.'.M 8 9.zXx N m.5.B K i.k.! V &.r < [ f [ [ f f [ f f o o X       `.tXaX[.oX-X{.gXoXh.2XT.D ;.",
"n 3.4.N !.1.m.8.c.X.M..X X8.B 3.p 6.s =.1.u.> < !.5.o.6.I 0.B  XU.Q.p.y.[ [ [ [ [ f [ [ [ [ X X     r.2X-X'.5X1X6X{.{.! U.qX>.V ",
"+.F m.m.d.j.oX<.4.3 2.5Xf.y.f.1.a 3.p I l.e 5.e + v 3.$.) k.+Xs.k.J 5.3.&.e.[ [ `.[._.&XtX2XXX`.T.+.p.R.a.eX-X[.-X>X` C j.u.;X>.",
"jX+XtX}.3.5.oXXXe 2 ! k.}.k.r.z v = 3 I r.&.1 6 #.@ b 5.4.h.L ~ i.3 &.N.:.m.4 R.g.Y.} &X6X4X%XT.`.n n J.;X:X`.g.:X>X>.;.2XP.~.e.",
"rXhXoX6Xo.c.K K 1 a 1.@X`.U.V V 6 > A I B z $.e M m &.&.u C u I @.L C v.d.9.j.>XY.` 7X6X4X5X*X:XXXgX~.W.%X=XU.5X[.=X,XXX+XXX,Xu.",
"rXtXi.5X}..Xs.e.8 1.s.tX@X|.e.e., w j > B % B @ z `.M.*.> > B z.- I N n.0X8.k.`.W C -XcXhX&X2X5Xi.T.{.fXdX[.E P.XXiXzX5X[.,X,X^."
};
