/* XPM */
static const char *exit2[] = {
/* columns rows colors chars-per-pixel */
"64 64 241 2 ",
"   c #090A14",
".  c #241527",
"X  c #341C27",
"o  c #311C32",
"O  c #4D2B32",
"+  c #4B5729",
"@  c #53592D",
"#  c #5C5B34",
"$  c #494C2A",
"%  c #675C3C",
"&  c #755C39",
"*  c #4E6629",
"=  c #59682B",
"-  c #5B722A",
";  c #596633",
":  c #586935",
">  c #5B7439",
",  c #66792D",
"<  c #626433",
"1  c #65643C",
"2  c #656C3C",
"3  c #6B6C3C",
"4  c #686838",
"5  c #73683C",
"6  c #657C35",
"7  c #6E7A36",
"8  c #62723C",
"9  c #6B733C",
"0  c #6A7738",
"q  c #73743D",
"w  c #727B3B",
"e  c #7B773B",
"r  c #666F2F",
"t  c #1F1F74",
"y  c #291F57",
"u  c #5A3D66",
"i  c #7A4841",
"p  c #774744",
"a  c #6B5C44",
"s  c #725D40",
"d  c #5D6F42",
"f  c #6C6C43",
"g  c #6B6746",
"h  c #726C43",
"j  c #7C644B",
"k  c #746D4A",
"l  c #7C6C4C",
"z  c #786645",
"x  c #6C7343",
"c  c #6C7B43",
"v  c #687845",
"b  c #737443",
"n  c #7C7444",
"m  c #737C44",
"M  c #7C7B44",
"N  c #74744B",
"B  c #7C744C",
"V  c #747C4A",
"C  c #7B7C4B",
"Z  c #7B6C53",
"A  c #7C7452",
"S  c #7D7C52",
"D  c #767752",
"F  c #66647A",
"G  c #75756C",
"H  c #535767",
"J  c #82763C",
"K  c #836A4A",
"L  c #837C46",
"P  c #83754C",
"I  c #837B4C",
"U  c #8B7C4C",
"Y  c #847447",
"T  c #846B53",
"R  c #886D52",
"E  c #837353",
"W  c #8B7454",
"Q  c #847C53",
"!  c #8B7C55",
"~  c #8B745C",
"^  c #857C5B",
"/  c #8C7B5B",
"(  c #837259",
")  c #927C55",
"_  c #937C5C",
"`  c #997D5E",
"'  c #947658",
"]  c #90784E",
"[  c #AD7757",
"{  c #8B7C63",
"}  c #947C62",
"|  c #9B7E62",
" . c #977A67",
".. c #887977",
"X. c #A37F65",
"o. c #78853A",
"O. c #708B39",
"+. c #6E8445",
"@. c #748344",
"#. c #7E8444",
"$. c #7C8B45",
"%. c #75834C",
"&. c #7C824B",
"*. c #7A8A4C",
"=. c #738B44",
"-. c #7E8352",
";. c #798856",
":. c #7A9251",
">. c #7A8760",
",. c #84973C",
"<. c #84834C",
"1. c #8A834C",
"2. c #83894C",
"3. c #8C8B4C",
"4. c #858546",
"5. c #92874E",
"6. c #879449",
"7. c #848353",
"8. c #8C8454",
"9. c #848B54",
"0. c #8C8B54",
"q. c #84835A",
"w. c #8C835A",
"e. c #858B59",
"r. c #8D8B5B",
"t. c #938454",
"y. c #938C54",
"u. c #94845B",
"i. c #9A835D",
"p. c #948B5C",
"a. c #9A8B5C",
"s. c #9B8856",
"d. c #8B935B",
"f. c #879254",
"g. c #9B9454",
"h. c #94935D",
"j. c #9B925B",
"k. c #959757",
"l. c #97934D",
"z. c #A3875B",
"x. c #A1935E",
"c. c #A3985B",
"v. c #A0A35D",
"b. c #8B8763",
"n. c #948362",
"m. c #9B8363",
"M. c #958B63",
"N. c #9C8B64",
"B. c #9C856A",
"V. c #9D8B6B",
"C. c #95836B",
"Z. c #8E9362",
"A. c #959262",
"S. c #9C9363",
"D. c #9B9A65",
"F. c #9C946B",
"G. c #9E9B6B",
"H. c #969667",
"J. c #9D8773",
"K. c #9E9574",
"L. c #A18565",
"P. c #A28B65",
"I. c #A98C66",
"U. c #A2856B",
"Y. c #A48C6B",
"T. c #AA8D6C",
"R. c #A39365",
"E. c #AA9366",
"W. c #A49A66",
"Q. c #A4936B",
"!. c #AB936C",
"~. c #A49A6B",
"^. c #AC9A6C",
"/. c #AA9A64",
"(. c #B2946D",
"). c #B29A6D",
"_. c #B59A6B",
"`. c #A48D72",
"'. c #AA8E73",
"]. c #A88D7A",
"[. c #A59373",
"{. c #AC9473",
"}. c #A59B72",
"|. c #AD9A73",
" X c #AD947A",
".X c #AD9C7A",
"XX c #A6977B",
"oX c #B29573",
"OX c #B39B74",
"+X c #BA9C75",
"@X c #B3957B",
"#X c #B49B7B",
"$X c #BA9D7B",
"%X c #9BA270",
"&X c #ACA26E",
"*X c #A4A56D",
"=X c #B3A26E",
"-X c #B9A16E",
";X c #ACA275",
":X c #B4A175",
">X c #B4A17B",
",X c #BAA27B",
"<X c #BCA876",
"1X c #A5B26C",
"2X c #92AA5C",
"3X c #CA9D77",
"4X c #C3A57B",
"5X c #181E89",
"6X c #19229B",
"7X c #1E309D",
"8X c #1728AB",
"9X c #0D23BF",
"0X c #1527B7",
"qX c #1D30AA",
"wX c #2837AA",
"eX c #2533B1",
"rX c #2B34A3",
"tX c #353090",
"yX c #34439A",
"uX c #3741AB",
"iX c #454A85",
"pX c #494B9D",
"aX c #52538C",
"sX c #726C88",
"dX c #5A5E9D",
"fX c #0B21C0",
"gX c #8D7A87",
"hX c #948489",
"jX c #BB9E82",
"kX c #B49C82",
"lX c #AD9E84",
"zX c #B5A283",
"xX c #BCA384",
"cX c #BEA986",
"vX c #AAA281",
"bX c #C2A484",
"nX c #C4AB84",
"mX c #C6AA8A",
"MX c #D4B696",
"NX c #CBB18D",
"BX c #EEC790",
/* pixels */
"1 ; @ 3 w m ^.u.!.R.Y.) V x # 7.P Q h.8 2.8._ z.P./ P.W i.`.V.N.!.m.Z Z I m e.! 3 #.q B M U !.9 - - , $.q q 1 M 0.9.h.'.{.U.n.g ",
"* + r q 0 m B 8.Y.!.Y.Q.2.x 7.8.C P a.$ # b P i.N.! P P T z ' m.} !.R.N.P C 3 3 = m 3 <.L q M 1XO.,.7 @., 7 = # 9 C w.Y.@X[.u.V ",
"2.m ! < <.1 1.1.P.|.).8.2.b z.z Y <.8.8 b m Q.i.P %.m 7.~.D.W _ g L.@XY.n.r.: b 4 r q q o.O.2Xd.n 6.o., - w k.6.3.W.S.u.'.@X{.q.",
"7 7.b ; f.r L P !.P.i.R.O.j.& % R._.M m v 1 & 5 a.B p.H.B L.m.) 8.T A [.8.# 4 9 4 o.U y.8.o.p.6 * o.O.4 4.6 6.4.2.m.{.m.U.V.{ I ",
"E < 1 C 1.7 t.u.i.i.) w.1.1.q @ 1 5 1.q &.9.I &.4 I P.Q.7.z E W z N.n.f <.~.0 7 r = O.L B b B ! e.0 q 9 f.6.e.S.H.V.C.B.B./ b / ",
"^ 7.3 b < w a.Y.+X(.U u.&Xx > c f ! n e.I ! G.c %.Z. X!.r.r.p.8.A.}..XG.w.B 2 O.y.1.#.= #.9.P t.j.0.: =.&.<.0.e.G.T p.!.L.|.|.oX",
"q.h 8 6 1.y.E.{.,XE.R.3 : c &.9.c ; D.N q.7.4 D.*XF.m.kX[.~.u.E A / OX#XF.0.q e /.6.g.g.!.P Q b u.y.=.9.b ; Y.Y.p.;XP.| k m.} `.",
"b F.3 - 1.P._ {.OXP.P.-.-.7.P.:X^.~.w.c Q V.S / #XB.T.#XQ.N.R.3 7.N./ } u.0.p.4.1.P.a.w.[.|.r.*.:XR.j.9.p.:.V. XP.Q.!._ 7.R A w.",
"H.b.0.< u.[.~ _ P.T.{.! ^ Q.OX~ E % M.e./ _ w.N } R `.kX) C U p.w.P <.8.&.D.q L 0.f.&Xu.[.@X@X#X!.s.Q 8.7.: g | g 0.P.P j ) |.n.",
"xXF.u.P.i.m.W i.T.Y.B.[.F.Y.Q./ 9.%.M.y.3X} N._ N.F.B.#X+Xp.M b N.J 5.R.5.p.m h.x.M.,X>X|.].{.}.P.0.r.s.y.d.: + V I l w.a.A.G.#X",
"[.N.M.P.N.u.Y.m.U.R  XB.`.B.|.}.<XF.OXQ Q.' ` L.OX}.^ B.Y.w.w p.R.p.=X!.P.OX! R.D.M !.>XY.U. .B._ |.D.c./.8.8 6 #.C r.t.W ( n.I.",
"M.nXOX0.#.D.}.m.j ' B.T }  XY.R.4XP.`.|._ ~ Q.^./ l n.w.|.!.2.L 3.OX/.+Xn.u.y.t.p.&.[.zXU B :XM.N $X@X:X4XW.* r.N.M.H.P.l h V./ ",
"I. .`.z z N.R.7.V. .B.M.J.! j.a.P.#XP.(.m.B.p.B.&XD.m.Z 5 B.M M ^.<X).,X{.M.[.P.y.A.zXjXC w._ M.}.kXNXxX#X`.e.x N. X!.R.h.h.w.! ",
"X.B.oXoXz.M p.A.A.~.^.|.H.Q <Xc.N.`.u.n.M.t.3.Q a.&XU. .#XP.=XP.^.p.kX,X@Xu.S.M.Y.;X{ L.M.Z.1 q.[.kXjX XMXbX.XA.}. Xa.5 n l B.jX",
"' ` T j ^.Q.N.y.g.@.e R.[ [ [ [ [ [ [ [ [ [ <./.OX,XW B.W I.bXoXY V.U. .{.B.M.M.#Xi.P Y.0.7.x r.H.>XMXB.U.`. .n.{. XQ.j.q 8.a.R ",
"' W B l N.} p.g.s.v.x.[ [ [ i i i [ [ i i [ [ j.OX@X! s w i.t.oXD.`.].J.U.V.b.~ ( Q !.} P D.f.7.% g j ! H. X].B.V.`.,XoXp.U L.L.",
"T q.7.p.L a.s.j.Q.[ i [ i i [ i [ X O [ [ [ [ [ u.=Xu.n O.W.Q m.B w.D. X@XY.>XxXP.A.w.B %XN.C 7.9.: 8 Q B.'.`.U.B.{ } {.'.n.N.B.",
"V Q U ).,Xw ,.y.[ [ [ i i i i i [ X O [ [ [ [ [ :X$Xk.[ [ [ [ [ [ [ Y.B.#XV.B.jXT [.m.} E R P B -.v &.7.OX} } J.^ Z _ P.| N.p.8.",
"f.p.M j.y.4.[ [ i i i i i i i i X O [ [ [ [ [ [ [ [ [ [ [ [ [ [ [ [ [ [ [ [ [ O O O O O q.e.e.S %.> x r.^ E ! {.q.x W ,X~.5./.4.",
"4 L lXV.O X X O O i i y 5X. i i O [ [ [ i [ [ [ [ [ [ [ [ [ [ [ i i i i [ O O O O O O O O O r.{.H.w.3 P S V.R._ ! -.Q w.~.R.j.r ",
"= - =       X O O O i tXfXu i i i i i [ [ i [ [ [ [ [ i i i i [ [ i O O O O O O O O O O O O O mXC.! y.P.Y.).N.p.<.m 2.3.R.W.R.k.",
"j.o.e X   X X X O O i 8XfXrXi i i i i [ [ i i [ i i [ [ i i i O O O O O O O O O O O O O O O O O O n.B w.l M P.3.3.M p.0.p.R.u.n ",
"4.w n X . X X X X O O 8XfXfXu i i i [ [ i i i [ [ i i [ i i i i O O O O O i O O O O i i i O O O O O r.Q 3 5 3.4.$.#.L W./.t.W.R.",
"p.1.S.X . X X X X O O 0XfXfX0Xp i i i i i i [ [ [ i i i i i i i i O O O O i i i O i i i O O O O O O O 2.4.b 7 1.M b P Q ! ).T.,X",
"a.y.a.X . X X X X O O 9XfXfXfXu i i i i i i i [ i i i i i i i O O O O O O O i i i i O O i i i i O O O O t.M 3 # @ 9 b 9 p.).I.oX",
"E.[._ X . . . X X X O fXfXfXfXu i i i i i i i [ i i i i i i i i i i i O O O i i i i i i i i O O O O O O n 1.3 : x ; 1 b y.!.!.OX",
"P.OX{.Y.X X X X X X X 5X6X6Xy i O O i i i i i i i i i i i i i i i O O O O i i i O O i i i i O O O O O O O 5.Y 7.; : A w.G.|.nXm.",
"OXOXY.OX+XX o 6XX X X X X X X O O i i i i i i i i i i i i i i i O O O O i i i i i O O i i O O O O i O O O 4 4 % v m f V C #X!.i.",
"i. XT.{.B.@XdXfXG n.7.d M.X X t o O O O i i i i i i i i i i i O O O O i i i i i i i i i i i i i i O O O O O @ 3 ; 2 q.%.;.>Xp.Q ",
"P B.`.@Xm.sXfXfXsXb.;.v ^.[.gX9Xt X O i i O i i i i i i i i i i O O O O O i i i i i i i i i i i i i O O O O $.1.0.> v ;..XK.w.P ",
"2 b. X#XV.wXfXfXuXb.F.OXmX{ 0XfXeXO O O O i i O i i i i i i i i i i O O O O O i i i O i i i O i i i i O O O O c.u.:.:.%.F.! .XA.",
"r.Q.[.m. XfXfXfX9XvXOX!./ rXfXfXfXhXO O O i O O i i i i i i i i O i O O O O i i i i i O i i O O O O O O O O X X p..XZ.r.[.u.Y.!.",
"Y.bXnXOXhXfXfXfXfX].m.R F fXfXfXfXiX} O O O O i i i i i i i i i O O O O O O i i i i i i i i i O O O O O O X X X nX.X;X^ vX[.:X|.",
"#XMX4X4XG fXfXfXeX{.B.V.wXfXfXfXfXpX} ~ h O O i i O i i i i i i i O O O O i i i i i i i i i i i O i O O O O O X P.cX<X*XQ.zXV.Y.",
"W.BXBX4X{ fXfX0X..Y.| R 9XfX9XfXfXpXu.S + * O O O O i i i i O i i i O O O O i i O i i i i O i i i O O O O O X X F.@XQ.Q.>XcX^.H.",
"c.MX,X<.Y.pXpXb.|.#Xm.|.sX0XfXfXfXgXV.Q.V $.8.O O i i i i i O O O i O O O O i i O O i i i i O i i O O X X O O X {.Y.M.#XN.~.}.E.",
"4X4XnX~.,X+X+X!.xX{.} } B M.G hX..'. XU.Q w b O O O i O O i i O O O O O O O i i i O O i i i O O O O O O X X X X M.M.p.|.|.#X^ / ",
"Y.!.xX#X}.P.N.(.Q.Y.Y.L.i.i.W B.r.Y.`.# / P N O O O i O O O O O O X O O O i i i i i i i i i O O O O O O O X X X P ,XxXQ.u.XX.XN.",
"OX_.|.#X>Xr.: OXOXP.[.Y.z 8.m.W a.Y.B.0.oXB.! O O O O O O O X X X X O O O i i i i i i i i i i O O O O O O X X X ).V.xX).zXB.OXnX",
"OXcX|.Y.>XI -.p.B m.` E ] M  XQ.V.L.P.'.`.[.r.A.. . O O O X X X X O O O X i O O i O O i O i i i O O O X O O X X U n P.=XE.).<XcX",
"P.P.P.P.!.p.r.R.u.Q.) ) _ _ {.} | W f W A q.f A I . O O X X . #XX X O O O O O O i i O O O O i i i O O X X X X X g.1.p.W.E.nXxX^.",
"A.OXP.P.I.a.u.u.i.m._ L._ _ T W m._ w.W n.Y.D.M.0.. . X X . . >X{.X X X X O O O O O O O O O O O O O X X X X X oXs.OXR.}.W.!.xX&X",
"r.N.W ) z.@ B Y N.m.B.P.u.Q u.~.B.K _ z ~.}.oXzXw.p.. X X . . [.zXq.X X X X O O O X O O X O O X O O X X X X x.R.s.P t./.<XP.OXS.",
"Y x %.R.u.2 8.M 8.i.!.w.b C I P R A 8.N.A V.P.} &X}.. X . . @.~.xX$Xr.A.X X X X X X O O X X X X X O X X X j.P.c.u.a.1.,X4Xi.! P ",
"I 9 U w.i.q b 8.E E.W n %.9.Q.A.k r.8.E N V.{ ^.@X`.. . . . A.D. . .Q.w.d.3.e.-.X X X X X X X X X X X X X p.6.c.p.b p.R.|.I f P ",
"r.m q._ ! b V n 7.! s.U M.! L.N.A.G.|.Q L M./ | } #X. . . . Q.Q.n.w.Y.k S.Q u.x %.X X X X X X . X X X X U V.0.8.t.y.k.a.N e.v S.",
"u.V h 8.U h.$ < &.P K 5 h 7. X X XOXp.y.8._ [.| | . . . . ! w..Xm.R.E 7.S.T 7.V.Z.F.E . X . . X X X 3.( ~.S.p.m.!.mXR.N.9.V D.S.",
"R.V f n n x.S 8 2 4 5 *.8 f.M.U.zX.X8.q < p.m.j . . . . T u.F.~ z r.w.V.a M.x F.{.B.. . . . . Q.@XQ.x.x.|.Y._ w.Q.m.s.m.! }.nXOX",
"1 @ 8.0.%.C 2.V @.&.h.d.d.*X>X' `.`.|.=Xb 8.L.oX. . . P 7.A { zXoXY.m.E c p.M.Y.xXmX. . . . W.^.^.) ~.@XOX|  .a !.n.P.i.m.[.|.E.",
"c 9.8.z K OXaXwX0XfX0XwXiXJ.[.T B.'.xX{.,X/ [._ A C / g f.w.D.jXjX% n -.&.f.S.{. X ./ j m.zX#XxXOX+XN.$X_ W B.bXN.R.,XN.! u.N.) ",
"&.% ) K a eXfXfXfXfXfXfXfX0XiXn.V.^ } `.} B.} T C Z./ b C 1 r.>XNXQ.2.2 9 &.%.[.} }.f w.m.oX@XY.).<XOX=X8.% z L.+X:Xi.OXQ.N.i.N.",
"p.c y.n 7X9X9XfXfXfXfXfXfXfXfX0XsXA k U.xXm.Q b.|.'.B.w.g 8 7.zXmX[.8.: c A.n.V.`.m.l m.Q.#XU.bXR.OX#Xk.&X, y._ #Xm.!.}.^.!.!.N.",
"/.=.4.<.9X9X9X9XfXfXfXfXfXfXfXfX9XyXg A '.{.W.c  .Z p.A &.&.OX$XzXC Z.r.;.7.f w.^ N.!.Y.| @XU.L.W.0.8.&X0.,.W.! OX! j.m.Y.|.!.).",
"t.p.y.V 8X9X9X9XfXwXG gXeXfXfXfX9X9X0XF B.T.T.q.M.N k x e.S b.^ >.8.n.u.n.r.-.>X,X,X+X}._ a '.U.bX.XU 4XbX-XR.o.i.M.`.`.i.m.|.m.",
"i.P ! c yXfXfXfXqX;.w.Q Y.aX9XfX9X9XfXfXu j ~ b.S m b c x D B.!.>X>XQ.~.U.$X>X#XF.>X4X[.k f.! +XbX$XW.OX$X$XN._ b D.n. X~ |.m.P.",
"E.a.2 x F fXfXfXG F.#XQ.T.m.F 0XfX9XfXfXG % N V / w.&XY.K.n.m.Y.} m. X{. X XmX(.` P.$XnX8.f h m.(.OXn u.^.n #.k 6 M.}.Y.]._ i.z.",
"E.OXu.S b.wX9XdX+X,XL.U.OXm._ G fXfXfXpXS v # T u.P.y.{.!.m.Y.W / Q.kX{. X@XjX@XU.U.V.Y.D.4 9 <.1.M 0 6 i.1.I p.+.<.U.#X{.i.|.(.",
"$XB.`.n.[.`...[.N.!.[.Y.|.g j z qXeXsX|.M.q.p.u.Q.|.|.#X[.W } u.Y.+X_ |.Y.'.@XjX' } V.M.b.1.*.8 1.V : = V -.n.Y.h.R.N.oXU.!.Y.#X",
"P.I.T.B.`.`.`.|.Q.T.p.M.u.A B 7.-.,XP.P.P.|.w.= i.Q.,X{.n.Y.i.I.n.! i.n.#X XjXNX(.i.B.C.M.e x.@.t.y.;.e.*.e.k 8.~.k.V.[.Y.|.m.[.",
"L.T.} `.} ~ C.N.i.P.u.b 7.d h n Y / i.P.!.).c d.E.#XP.[.m./ a.& B d.{.Q._ [.K.V.Q u.' [.|.l.1.+.h.o.@.p.n.|.7.U S.0 h #XY.P._ E ",
"_ Y._ _ } n.[.N.i.i.i.&.9.;.w.7.%.V Q ) z.j.y.S.m.} L.{.L.t.u.<.u.8. XB.W _ K.v k.8.B | y.1.y.9.k.m < L x.y.y.1.n ! <.Y.R.[.B.W ",
"`.B.j W n.P.:X,X!.m.N.;X^.S.Q.V 4 8.S.a.f h i.R.p.N.` _ W T i.S.|.Q.@XV.! l B v p.- % >X4.3.^.j.5.I 9 ^ } w.!.k.t.1.o.m 8.[.B._ ",
"XXQ N.<.g [.N._ Q.! / |.OX!.R.C 7.i._ U 2 t.Y P L.) ) _ U &._ } Y.P.@XV.A.+ * ; + #.&.4.4.c.j.f.V E 4 *./ Q P P.t.g.o.7 a.P.{.[.",
"A.+.w.: 7 8.j.W.OX|._ P.P.I C # P P W n b 8.-.i.P._ m._ _ m.{.! t.Y.`.@XN.@.- + 0.; c W.y.c.j.6.7 9 r $.M q u.I <.@.1.S.P.(.U.B."
};
