/* XPM */
static const char *ground[] = {
/* columns rows colors chars-per-pixel */
"64 64 250 2 ",
"   c #394820",
".  c #4A5728",
"X  c #545A2C",
"o  c #5B5C32",
"O  c #5A5B36",
"+  c #514D32",
"@  c #6C5C3B",
"#  c #635D3C",
"$  c #765D3A",
"%  c #4E6629",
"&  c #5A642C",
"*  c #58682B",
"=  c #5C752C",
"-  c #5A6633",
";  c #5D6C33",
":  c #576836",
">  c #5B7337",
",  c #646C2E",
"<  c #64772D",
"1  c #626434",
"2  c #65643C",
"3  c #6B653C",
"4  c #656C3C",
"5  c #6B6D3C",
"6  c #676A35",
"7  c #736D3C",
"8  c #74643C",
"9  c #6C7435",
"0  c #657C35",
"q  c #6E7B35",
"w  c #63723C",
"e  c #6B733C",
"r  c #6C7A3C",
"t  c #647536",
"y  c #73743D",
"u  c #727B3C",
"i  c #7A7B3D",
"p  c #787639",
"a  c #6C5C42",
"s  c #725D40",
"d  c #5D6F42",
"f  c #6D6444",
"g  c #6C6C43",
"h  c #676943",
"j  c #726C43",
"k  c #7A6C45",
"l  c #7B644B",
"z  c #746D4A",
"x  c #7C6C4B",
"c  c #776346",
"v  c #657440",
"b  c #6C7342",
"n  c #6C7A42",
"m  c #6A7A48",
"M  c #747443",
"N  c #7B7444",
"B  c #747B44",
"V  c #7C7B44",
"C  c #74744B",
"Z  c #7C744B",
"A  c #747B4B",
"S  c #7C7B4C",
"D  c #7C6E52",
"F  c #7B6552",
"G  c #7C7452",
"H  c #7D7C52",
"J  c #767852",
"K  c #82763C",
"L  c #836A4A",
"P  c #847545",
"I  c #827C45",
"U  c #83754C",
"Y  c #837B4C",
"T  c #8B7C4C",
"R  c #846C52",
"E  c #896E53",
"W  c #826750",
"Q  c #847353",
"!  c #8C7554",
"~  c #847B53",
"^  c #8B7C54",
"/  c #85735A",
"(  c #8C745B",
")  c #857D5B",
"_  c #8C7B5B",
"`  c #927C55",
"'  c #92755B",
"]  c #937C5C",
"[  c #9A7C5E",
"{  c #967556",
"}  c #927A4E",
"|  c #8C7D60",
" . c #8E7664",
".. c #947C62",
"X. c #9B7E62",
"o. c #977A67",
"O. c #A37F65",
"+. c #65892D",
"@. c #6D8339",
"#. c #7B843C",
"$. c #758638",
"%. c #7C9B3D",
"&. c #6D8547",
"*. c #758344",
"=. c #7C8344",
"-. c #7C8B44",
";. c #74834B",
":. c #7C834B",
">. c #7B894C",
",. c #748B45",
"<. c #7F934E",
"1. c #7D8352",
"2. c #798855",
"3. c #7A9251",
"4. c #6E8650",
"5. c #7A8760",
"6. c #83993B",
"7. c #828A3E",
"8. c #848345",
"9. c #838944",
"0. c #84834C",
"q. c #8B844D",
"w. c #838A4C",
"e. c #8C8B4C",
"r. c #8A8247",
"t. c #93854E",
"y. c #928B4E",
"u. c #879449",
"i. c #96964D",
"p. c #848353",
"a. c #8C8354",
"s. c #848B54",
"d. c #8C8B54",
"f. c #84835A",
"g. c #8C835A",
"h. c #858B5A",
"j. c #8D8B5B",
"k. c #938455",
"l. c #9B8555",
"z. c #938C54",
"x. c #9A8C54",
"c. c #94845B",
"v. c #9A835D",
"b. c #948B5C",
"n. c #9A8B5D",
"m. c #849253",
"M. c #8B9254",
"N. c #8C935B",
"B. c #879558",
"V. c #949354",
"C. c #9B9454",
"Z. c #94925C",
"A. c #9C925B",
"S. c #9B9A5D",
"D. c #959B58",
"F. c #A28D5C",
"G. c #A3855C",
"H. c #A1935D",
"J. c #A29C5E",
"K. c #A6965A",
"L. c #A4964E",
"P. c #99A45B",
"I. c #A0A35D",
"U. c #8C8462",
"Y. c #8B8A63",
"T. c #958362",
"R. c #9B8463",
"E. c #948B62",
"W. c #9C8B63",
"Q. c #9C856A",
"!. c #9D8B6B",
"~. c #96866B",
"^. c #8B9362",
"/. c #959263",
"(. c #9C9363",
"). c #9C9965",
"_. c #9C936B",
"`. c #9D9A6B",
"'. c #969668",
"]. c #9D8572",
"[. c #9D9473",
"{. c #A18565",
"}. c #A28B64",
"|. c #A98C65",
" X c #A2856B",
".X c #A48C6B",
"XX c #AA8D6C",
"oX c #A88768",
"OX c #A39364",
"+X c #AB9466",
"@X c #A59A65",
"#X c #AA9A64",
"$X c #A5936B",
"%X c #AB936C",
"&X c #A39A6C",
"*X c #AC9A6C",
"=X c #B2946D",
"-X c #B29B6D",
";X c #B6996C",
":X c #A58C72",
">X c #AA8E73",
",X c #A78B77",
"<X c #A59373",
"1X c #AC9473",
"2X c #A59B72",
"3X c #AC9A73",
"4X c #AD947A",
"5X c #AD9C7A",
"6X c #A49A7A",
"7X c #B29574",
"8X c #B39B74",
"9X c #BA9C75",
"0X c #B2957B",
"qX c #B49B7B",
"wX c #BA9C7C",
"eX c #B9977E",
"rX c #99A56B",
"tX c #ACA26D",
"yX c #A7A368",
"uX c #B2A26D",
"iX c #B9A16E",
"pX c #ACA375",
"aX c #B4A274",
"sX c #BCA375",
"dX c #B4A17B",
"fX c #BAA37B",
"gX c #B9AA79",
"hX c #A5B26C",
"jX c #C79B74",
"kX c #C3A47D",
"lX c #C4A87A",
"zX c #B59B83",
"xX c #BB9D82",
"cX c #B19782",
"vX c #AD9E84",
"bX c #B5A283",
"nX c #BCA384",
"mX c #BDA886",
"MX c #AAA381",
"NX c #C3A484",
"BX c #C4AB84",
"VX c #C1A58A",
"CX c #CAAB8A",
"ZX c #C7AB88",
"AX c #C7B188",
"SX c #C8AB92",
"DX c #CDB193",
"FX c #D3B697",
"GX c #D5B68E",
"HX c #EEC790",
/* pixels */
"f T. X4X>XZ.m.d.V 2 y y -.< = * e *XT V Z y =.5 ^ h.B Y D D R.%XW.!.:Xv.! }._ }.G.] a.0.w Z.p.U p.o e A ` .XOX%Xc.*XB u 7 X - 2 ",
"A c.<X0X.Xg.S e o * q < *.q 7.%.hXV p I 0.5 V & 5 5 S U W.OX%X..R.' c W U U ^ W.v.U M o . n.Y A a.h.b 0.$X}.*X.Xa.Z M t y 6 . % ",
"g.4X0X>Xc.(.@Xe.u.D.u = < $.u.N B.P.+.$.y 7 < 6 M ; j.T..X0X{.2 ] ! _.&Xp.B ;.U v.$XB M v a.q.U c G.z 0.a.-X3XW.q.r.2 8.1 ^ B w.",
"Y | !..XT.1XW.w.9.u.0 9.4 $.$.% 0 b.#.a.z.T #.6 e 5 o a.<XG R a.` R.{.Z (.b.Z n.8 $ 3 m B V ;XOX@ @ n.@.OXc.}.%XU V 6 M.& M h.r ",
"_ M ) Q.Q.~.!.'.(.s.<.m.e y 9 s.^ Z M Z I $.* , r r `.:.g ~.W.c ! Q c p.$X}.Y 3 :.Y w.:.y 0.8 2 X y q.q.a.` v.v.c.k.q q.S 2 1 Q ",
"7X1X1X{.%Xb.Q &Xh.k.0.;.,.; d.A.c.U s.=.& =.r.x.@.4 G g.`.5X&X/.a.b.j.j.%X4XY.;.m `.^ Y s.N ^ g b > b tXc.} =X9X.Xn.u 1 M 5 p.) ",
">X..R.z X.}.pXb..X.X: M s.,.z.c.M ~ U %XC.C.u.#Xp y d._.qX7X_ G Q c.&X<XzXR._.yX).5 p.f.C ).- n s.:.n : 4 &X+XfX3X+Xz.q.0 t j g.",
"g.G R p.] %X$X}.4X!.<.b.s.A.OXaX>.j.3X<Xg.n.}.q.8.b.d.c...) W.p.e OXW.$XqXXXR.qX_ H !.~ m g.$X*XaX}.h.1.1.}.}.8X1X] }.q.= 4 _.M ",
"T.3X` x U }.d.f X.h - p.p.~ n.%XqX0X0X<Xc.tXM.d.T y (.:.a.0.U g.b.T S ` zX>XE ..C g.[ ) h.E.# Q ( 8X$X) _ <XXX}.] ( <Xk.1 d.Y.'.",
"qX`./.n.g.x Y B . : N.z.x.j.d.}.1X1X,X1XdXfXE.H.Z.B b.y.OXt.K W.N V b.8XqX!._.W.] E...jXb.E.;.s.) $X.X_.<XQ.|.XXv.! R.c.}.c._.mX",
"|.T./ Q z.j.S >.t w a.#XH.).3X..Q.o. X.XdX%XV ).OX^ 8X}.%XuXb.OXn.r a..XQ.) 1X8X{.[ ' $X~ qX_.gX2X3XQ.:XQ.4XE }.W.}.c.W.}.E.W.<X",
"( !.j x }.(./.W.j.% @XkXaXqXwXC E.aXZ T nX<X:.b.k.V.c.T.8X+X8Xe.I w.%X3Xg.T.x _ *X$X( [ 4X:X}.kXOX.X4X..R Q.' l R.1X).>.d.8XAXE.",
"_ g.Z.V.OX%X4XW.e h.:XqXnXDXzX2XE.] g.S xXbX/.j.}.<XE.1XfX-XsX#XV V Q.3 F W.(.yXQ.b.Q.Q.=X}.wX}.n.A.^ ].E.Q...!.p.OXW.k k :Xo.|.",
"xXQ.x N 7 n.5X2XZ.5XVXDX4XxXzX<Xf.2 ^.E.{. .dX!.W.(.c.0XfXzXb.*XOXuX}.wXo. XtXn.~ e.z.E.c.c..XW.J.gX~ '.3X*X&XZ./.b.V F.7X7XR.O.",
"E n.a.y A.$X4X<XT...:X XQ.FXdX_.j.b p.d..XU T.qXE.E.Q.1Xo. X!.P 7XNX|.! R.! fX8X+X0.*X<XV.e.e.7.lXlXW.z.OXi *.C.x.W.$X*Xc W [ { ",
"{.{.Y b.7XfX>X!.R.,X4X/._ l f # h.M.).U ..%X~ / ( U.!. X].,X:X_.7Xk.v.u s ^ 0X8XA.4X7X0X-XD.@XgXyXr.+X*XsXOXI.x.C.b...W.L S ! ] ",
"R.W.~.>X<X..| Q..X:X>XQ.~ w : s.p.S W.rXZ g./.|.nXdX.X0X4X_.a.Z W.~ @X%.k c.uXc.+X1XOXdXOXP.H.BXi.z.%X0X@XOXi.$XA.n.n.I b.p.f.R ",
"a.b.W.X.}.] G ) ].....8Xp.;.v 1.S U R Q ..R.<XW xXQ.Q.qXQ..X<X=.p.k.yXi.W.D.wXaX;X*XdX8XsX8XpXA.K.H.l.c.y.x.9XwXz.6.u fX-XT ~ A ",
"8.#Xy.&XfX! b f.1X_ Q ) j.b > ;.H h.h.g.g S N _ cX>X:X1X4Xa.r ; ^ .X+X9XuXgX$X8X#XwXqXeXZXdXFX*Xa.I.i 0.e.T XX7Xp.q 9.z.x.V b.M.",
", A.OX&Xa.~ 1.^ ] OX!.H Q 5 g.'.1Xj.f.b.B m A Y 0XXX1X.XOXV.B.j.z.7 nXwXwXN a.&XqXXXeXnX|.8XDXfXaX%Xx.T C.x.c.Q.y.+.V.n.!.vXY 6 ",
"i.OX@XOXe.w.B 0.b.W.-X.X}.z._ o.VX1X1X/.>.e 4 a.$X%X*X3 P.*X$Xv.0.e.*X%XOXuXxX*XX.oX>XNX^ OX<XqXfXOXC.n.P P n.W.@XV.n.N b.& = * ",
"N c.OXb.d.b.V e.e.}.V x c.Z T.nXnX0X4XA j.E.n.T.Y B 0.Z ~ n.p.G h.z.0.9 P NXCXxX X' NX1X8XFXwX<X%Xb.e.} K.r.F.} l.*Xv.q.6 p $.A.",
"OX*Xk.#X@XY =.-.9.e.7 6 ~ j.%X X!.R.!.!.T.!.8X*X*.#.9.b.p Y g.C :.b > w I =X%X+Xc.a ..Q.}.8XQ.H c.W.H.+X-X|.=XyXOXV y Y N N i 8.",
"fXXX-X^ ~ Y N N T q M 9.w.(.( h g !..X| H ) ~..XS.V C.t.S.T s.3X'.N.: ;.g T g.S ^ &._ dXkXsXW.f.A E.A.F..XsX%XAX-X$Xd.Y k.(.r.b.",
"7X|.-Xb.e M e X o 5 V k.W.<X%XOX^ ^ a.V.aX$Xb.:X$Xn u ^ OX3XV.b.c.d.<.Z.C.r ,.; 2 S $XlX9XlXdX^.J h.Z.OXT.XXfX-X8XwX%X.Xc.n.z.n.",
"8X%X%Xb.M 2 - b ; 5 q.N q.&XW.OX@XJ.n.AXeX}.U g.p.m.d.q.n.x ~ ] U 8 =.*.a.n 2.0.T dXCXNXfX).BXj.).C h.$Xa.v.fXfXDX:XXX^ W.] <X%X",
"R.BX3X`.g.H - - p.P t.P W.<X*Xi.P.u.S.uXF.}.n.(.a.M y M b.M _ E.4 e d.S.&.M C.y '.n.(.XX[ 4XmXZ.Z.^.h.^.M.b.+X8X0X}.%X8X.X1X8X}.",
"v.%XqXJ A g B v # 6 3 T.qX0X8XtXS.*XCXu.t.Q.4XXXA.w.1 X 1 9 9.*.5 ~ a.C.d.a.i.E.!.T.Q.Q.[ XXkXkX1X!.$X'.4.1.$X8X}.%X0X9XwX.X8X8X",
"~ b.dX2.;.f.4 1 5 X . ~ A.3X%XaXi.b.lXC.A.W./ 2Xw.>.u.< < r M.= V M 0.b.A.q.e.ZX.X!.! { >X4XVX>XQ.<X~ E.d p.~.j.}.BX0XR.1XXX4Xc.",
"Y g.[.5X2.b > d.q.-.M.yX3X1XaXkX*XgXC.x.+X-Xf _./.V.u.#.< 0 =.q * < 9.V.#Xy.e.[ _ ] ^ jXSX1X>XzX0X4X<X*Xm 2.Y.<X3X8X%XW.7X:XQ.U ",
"/.5X^ _.;.2.3.c.J.q.tXb.0X7XVXgXVXFX$Xc.%Xn.*XE.p.g.<.-.$.q u q +.< B S.K.9.i >Xg d.Y Q.VXzXzX.X7X:X~.ZX8X_.Y.>X<XT.W.!.qX4XY.4 ",
"%X.Xc.<Xh.Y.5Xb.sXOXn..X>XwXwX1XfXDXfXaX*XW.aX%X!.a.m.m.6 u $.V.m.P.c.%X0.yXq.M ; A.n [.6X!.qX4XW.5Xg.( %X8XMX<X3X{.%XqXQ.<X$Xj.",
"1XaX<XMX) dX5XBX8X3XW.XX XwX7Xz.*X>XqXlXW.C ( wXQ.2 A -.t i #.% e P.>.9 V (.:.u e 2 n ^.!...Q c.v.8X8X] E R.4X<X! ] Q 8X8XBXVX.X",
".X!.bX$XpXgXmX}.+XwXR.>XQ.wXOX3XDXwXqX1X0.b x g./.>.S P.> b >.r *.P.= =.I V e ; 8.* - j ) ..Q.4XZ W.}.c.!.R.4X5Xc.y q.}.kXlXGXqX",
"(.*XmXdX$X$X0X_.2XnX>X:X,X{..XQ.BX>Xe _ d.e   X % C d.n ,.x.Z.W.U q.9.*.T M S =.Z X % . H c.:X.Xp.^ ~ }.R [ .X.XgXp.a.b.lXHXHX@X",
"%X2X&XW.qXE..X1X4X[ W.0.f W..X9X*X.XW.~ d.s.> 0.A.&XS OXA.OXj Y ~ M Z w.n., @.& 5 a.-.A $X!.qX8XW.k k T.1XT.qX1Xn.G.%X.X8.fXGXK.",
"_ ) qX3X3Xb.E.E..Xk.%Xb.h T.BXkXsX3Xh.;.4 r r C.C.x.(.Y *X2X;.Y c.*.i 8.p #.7 B g M u ~  X4X>XW.dXD.n.Z T...4XnX*X8X9XfX&XBXlXkX",
"W.5X6Xc.$XnXfXU A.w.1 S p.1XkX9XfXBX&Xj.N.j.!.fXaX@Xh.z.%X3X&XW._.%Xq @.q & X Y ; C U _ # :X.Xj.R.! v.v.{..X.X$X=XW.}.1XqXnX%X.X",
"BX8XQ.bX-XmX!.uXV w.3 b.tX8X9X*X).mX$XT.~.qXVXxXnX4XnX.X<X%X0X7X.XQ.y.q.t.e.e < - ^ Q.7Xd.Q.|.n.! R.a.k .X<X{.8X8X; j.dXqX3X;X8X",
"mXgX-X%XuX}.N T A.q.7 dXr.-.L.i..X1XQ. XQ.>XCXmXmXqX4Xa o.] 4X4XOXW.A.S.yXi = e /.j.:X:X>X}.{.!.$X4XV } Q [ T.Z b.1.Y dX.X1XmX8X",
"*XnXBX%X@Xb.r.C.*X8.E.n.i P.z.W.n.! Q.>XzX~.~.,XnXzX3XZ.3XQ.:XwXqX2Xm.q.d.P & Y G g g.G ! g Q X...<X[ ] ` ` $Xc.OXj.b.*X}.}.}.}.",
"tXnX%X*X2XOX8Xl.7XF.yXgX+Xk.J.%XH.V...( >X!.~  XAX6X_.g.T.U ^ 4XdX8Xj.V.8.q.b.d.E._.!.T.! a.] R.Q W ] ] {.] W.v.c.c.n.|..X}.8X/.",
"(.8X}.sX+Xz.U l.OXH.7XwXJ.C.-XCXOX0.~ ( 8X~ C f D E.f.C g.A g.nX<Xq.d.A.k.N b.g.bX7X6X2Xx _ L R.yXc.~ c.}.Q.R.W.U Z o G.` ! W.j.",
"Y ^ v.lXfXq.n.c.H.}.A.n.H.t.%XXXq.@XZ.D _./.n : v A p.b /.j.wXnX&X*.).*Xp.:.1XtX..}.!.G W.p.G E U Y A M g.%Xv.a.V a.4 c.OX;.m P ",
"Y h Y 3XOXb.M b.J.u.b.aXuXz.k.V.Y !.Z.A Z :.% 1.1.s.w.N.a.$XX.o.)./.n.I l.c.:X0X*X| !.C Q a.j.z /.$Xs.;.N ! +XQ a.M y v.g.Y e Y ",
"(.m p.C n.V.z.k.a.d.!.T .XZ.0.b.W..Xa j.e b 4.;.b c.~ (.z .Xg.T.$X$X.XA.W.{.wX..X._ E.I ~ 3X`./.W.{._ E.T n._ h.N B M ^ ] f.B j.",
"(.).A s.W.OXAX%XT.b.(.&X/ e.OX}.0Xb.# b b.Q _.^.!.) R (.p.Q OXR.5Xg.^ }.] a ( X.X.<X] a.z.b.8X5X4X4Xp.j 7 L U :.1 + Z.Y a.j A v.",
"8XBX2X_ T.l.R.OXg.] .X3XH.H.$X0X$X(.S j.) Q.Q.1X_.b E.a !.g.j.f ( _.c.W G S ( { l T.b.1 y a.5XnX{.E.m.w >.8 3 2 w H F.N N j A OX",
"+X3X<XT.v.}.T.%Xa o.X.8X0X@X` *X*X*X3XE.%XwXZXnX.XW.Z.m Q R..X7XnX| Q p.Z a.) ..7X{.^ y uX*X:X:X' dXtXB.B.Z.:.*.A w.V ;.d.a.X 2 ",
"` W.c._ W.fXOXW.NXR.! [ wXW.9X8XnXwXbXR.l ( X.4X7X(.m.:.1.k @ xXnX).g.m.f ] A D ] <X( wX4XnX>X!.R <X1XM U U S M M k.;XL c a.s.n ",
"W.v.W.$X8Xv.aX9X{.x @ a.uX8XgX-X.X0X7XT.g.g 2X..<X;.:.e 4 w.$XCXdXj.2 H M _ ^.S R ..R...:X..) !.W.x f A (.p.E.1.z.$ b.@ L { 2 :.",
"W.%X%X*X%X%XR.wX] V.< tXD.qX8XOXNX XwX$XQ.D Q.:X!.T./.n : a.<XSXbXp.w h g.Q.>X3XU.~ R.nX Xz G 1X}.!.j.[ !.H v E.3 O 3 O N z.n b.",
"-X%X3X.XR.A.^ 8X^ @X6.d.tXa.d.*X{. X0XX..X%XW.) g.g p.2.j.^.J nXeX8X;.:.G b.D X.m *X4X>XG b H }.|.oX}.] ' B.s.(.B w n ; 0.0.,.#X",
"W.3XT.c.>X:XE.v.#.(.iXlXkXT 5XNX X>Xa [ 2X9XfXsXdX1.j.T.c.T.a.5.) U.H h.b z C E.f.XXXX!.h.A ( X.G. XE {.jXj.E.Q W.pXh.w A z.b.k.",
"}.W.1X( 4XT.).M ] W.wXwX7X@XwXVX9X^ m.z <XlXdX_.qXfXwX X$X$XdXdX%XQ.J b m M B H U./ F + m f.Q 1XR.]./ .X~ g.p.m D .XOX1.n ^ U l.",
"G.W._ ,X.X2XE.0 z =.N *Xc.N 7X=XR.j g a.CXfX}.[ =XCX4X4X1X4XR....XW.T.[..XtXg._ A C # H H h : l ( / Q.%X$XqX_.N.Q 1X3Xj.b 4 n.+X",
"=X1Xv.1XqX.X8.&.b.Y e.v.0 9 V q.0.e 3 )..X_.oX X0XxX0X4X1XzX$X_ ! .XR.%X1Xz.}.c.R O m H _.b.C o R [ Q.8X X{.fX8X&X%X%XU.H c.8X+X",
"qX.X%X.X7XW.OXZ..XT.1.A * : A 0.w >.p.U.E.!. .{ xX0X>X.X1X] 9X.Xc...! <XqX3X1X$Xc.b.f.E.3XXXW.j c l f 1X.X<X%XW.<X}.$X<XT.:XQ.wX",
"<XR.1X.X<X!.S.&Xp.z h.>.h.2.z.z.*.A.i E.~.!.v.=XDXxX4XeXT.v.^ T.|.v..XT.1XfX$Xv.* g.3X}.}.}.gX1.p.Z H c.E.b..X$X1X>X:X:XQ.XX|.}.",
"Q ] }.|.qXj 9 (.Y p.3XT.b.*.@.Z.&.q.i.3X<X' c.~ !.[.<X] $X<XN.Z @ n._ Q.<X}.8X%XN.n -X%X}.v._ U N j d h.M c.W.v.W.~.( ..:X..XXQ.",
"! Q.<XOX.X8.^ N r.z.z.H.T 1 B S.s.z.r.z.X.Z p.S.n [.' ! Q.4Xa.c.0.c.k.{.4X{...T.(.b.A.G.` ~ A :.p.g.2.s.;.v.v.v.W.<X~...] ] .X] ",
"[ R.<Xa.B #.q.k.V.%Xa...) e Y t.A.*Xe.r.dX@ ; b.v Z z ^ !.0X$X1X(.v.W ! [ [ W.b.OXc.j g n.(.a.5 A OX(.*XdXW.W.%XfXaX}.T.Q l Q.:X",
"<X<X}.n.q $.C.k.}.U ~ _ >.5 Q V M.x.L.-.0.:.>.. & % . /.!.qX.X.X..] :.T ` ` ` {.U P k.4 T ] v.p.S OX%X8X1X_ ^ $X] W.<Xf 0.W.~ 6X",
"R. X7X}.(.0.*.q.Y c.y V -., e q u.A.J.z.@Xn & d.. = *.W.0X:X.Xk.^ 4XR.[ [ W.] }.v.1.a.M N ! U U O S Y }.}.] 3X8X*XA.p.r ; g.n E."
};
