/* XPM */
static const char *left2[] = {
/* columns rows colors chars-per-pixel */
"64 64 239 2 ",
"   c #090A14",
".  c #241527",
"X  c #341C27",
"o  c #4D2B32",
"O  c #5A4F2E",
"+  c #4C5728",
"@  c #525E2B",
"#  c #54592A",
"$  c #585837",
"%  c #5A4837",
"&  c #645C3B",
"*  c #635A35",
"=  c #58662C",
"-  c #5D6533",
";  c #596737",
":  c #597337",
">  c #506B2F",
",  c #656F2F",
"<  c #65782D",
"1  c #646B34",
"2  c #65633B",
"3  c #646D3C",
"4  c #6A6C3B",
"5  c #686934",
"6  c #736D3C",
"7  c #74693A",
"8  c #64733B",
"9  c #6D743C",
"0  c #677937",
"q  c #73733D",
"w  c #79723D",
"e  c #737B3B",
"r  c #7A7B3D",
"t  c #737836",
"y  c #716F2F",
"u  c #7A4841",
"i  c #6A5B45",
"p  c #735D41",
"a  c #6D6443",
"s  c #666B41",
"d  c #6C6C44",
"f  c #666343",
"g  c #736344",
"h  c #746E42",
"j  c #7C6B4D",
"k  c #796948",
"l  c #657541",
"z  c #6C7342",
"x  c #6D7943",
"c  c #687748",
"v  c #737443",
"b  c #7B7444",
"n  c #747B43",
"m  c #7B7B44",
"M  c #74744A",
"N  c #7D744B",
"B  c #747C4C",
"V  c #7C7B4B",
"C  c #7D6C52",
"Z  c #7B6650",
"A  c #6E7D52",
"S  c #7C7453",
"D  c #7D7B52",
"F  c #757B52",
"G  c #836B4E",
"H  c #84694C",
"J  c #827546",
"K  c #827B45",
"L  c #83744D",
"P  c #847B4B",
"I  c #8A7E4C",
"U  c #8A7848",
"Y  c #866C52",
"T  c #847453",
"R  c #8B7554",
"E  c #857C52",
"W  c #8C7D54",
"Q  c #8C755A",
"!  c #857C5A",
"~  c #8C7C5A",
"^  c #86755A",
"/  c #927A54",
"(  c #92755E",
")  c #937C5C",
"_  c #9A7B5D",
"`  c #927657",
"'  c #917F4E",
"]  c #AD7757",
"[  c #947C62",
"{  c #9B7E63",
"}  c #967A67",
"|  c #817E61",
" . c #6A8536",
".. c #7C833E",
"X. c #76883C",
"o. c #718E31",
"O. c #6C834A",
"+. c #6D8547",
"@. c #7D8344",
"#. c #74834C",
"$. c #7C844B",
"%. c #7D8B4B",
"&. c #768443",
"*. c #7D8253",
"=. c #7D8A53",
"-. c #7B855A",
";. c #758A55",
":. c #799255",
">. c #728D4C",
",. c #81803E",
"<. c #838344",
"1. c #848C44",
"2. c #84834B",
"3. c #8B844D",
"4. c #848B4C",
"5. c #8B8C4B",
"6. c #8C8745",
"7. c #93854D",
"8. c #928B4D",
"9. c #988B4E",
"0. c #88944A",
"q. c #94924C",
"w. c #97964D",
"e. c #838454",
"r. c #8C8453",
"t. c #848B54",
"y. c #8C8B54",
"u. c #85835A",
"i. c #8D835B",
"p. c #858B5B",
"a. c #8D8B5B",
"s. c #928553",
"d. c #998555",
"f. c #938A54",
"g. c #9A8B55",
"h. c #93835B",
"j. c #9A845C",
"k. c #938B5C",
"l. c #9B8C5C",
"z. c #8D9354",
"x. c #859257",
"c. c #959253",
"v. c #9B9355",
"b. c #939953",
"n. c #95935B",
"m. c #9B935C",
"M. c #9C9A5B",
"N. c #959A59",
"B. c #A48C5D",
"V. c #A38D56",
"C. c #A3935C",
"Z. c #A39C5C",
"A. c #A7955A",
"S. c #99A659",
"D. c #94A14D",
"F. c #AAA35D",
"G. c #8C8B63",
"H. c #8B8361",
"J. c #948363",
"K. c #9B8463",
"L. c #938B62",
"P. c #9B8B63",
"I. c #9D856A",
"U. c #968C69",
"Y. c #9D8C6A",
"T. c #96836A",
"R. c #8B9264",
"E. c #959364",
"W. c #9C9363",
"Q. c #9C946A",
"!. c #9C9A6B",
"~. c #999A65",
"^. c #9E8972",
"/. c #9E9672",
"(. c #A18565",
"). c #A38C64",
"_. c #A98E65",
"`. c #A1846B",
"'. c #A48B6B",
"]. c #AA8D6D",
"[. c #A49365",
"{. c #AA9364",
"}. c #A39A64",
"|. c #AB9B66",
" X c #A4936B",
".X c #AB946C",
"XX c #A49B6B",
"oX c #AB9A6C",
"OX c #B2966D",
"+X c #B49A6C",
"@X c #B49868",
"#X c #A48C72",
"$X c #A98D73",
"%X c #A58C78",
"&X c #A59372",
"*X c #AC9373",
"=X c #A59A73",
"-X c #AC9B73",
";X c #AC947A",
":X c #AD9B7A",
">X c #A1977B",
",X c #B29575",
"<X c #B39B74",
"1X c #B99C75",
"2X c #B2957A",
"3X c #B39B7B",
"4X c #BA9C7C",
"5X c #B89670",
"6X c #B6896A",
"7X c #9DA164",
"8X c #A9A269",
"9X c #B1A26D",
"0X c #ABA274",
"qX c #B3A372",
"wX c #BAA374",
"eX c #B5A37B",
"rX c #BCA37C",
"tX c #BEAA7D",
"yX c #B9A877",
"uX c #C09E79",
"iX c #C2A47D",
"pX c #C4AA7A",
"aX c #C5B27F",
"sX c #BA9D82",
"dX c #B49983",
"fX c #AD9F81",
"gX c #B4A382",
"hX c #BCA383",
"jX c #BEA38B",
"kX c #BBA985",
"lX c #AAA783",
"zX c #C3A583",
"xX c #C4AB85",
"cX c #C4AA8A",
"vX c #C9A887",
"bX c #C9AC91",
"nX c #D3B48F",
"mX c #E3BF8D",
"MX c #EBC794",
/* pixels */
"L.Y.;X_ j.3.V W h.l.m.oX3X<X!.D 4 z 4 9 t.t < 9 N :Xy.4.b.< < X.e = e b.Z.q.3.^ n N.p.>XT.#X{ *X<X~ ` ].;X) v m <XmXMX-XP.hX-X-X",
" XP.J..XoX{.<Xl.h.h.]._.K.iXY.O.D l t.m.5.y.r K k.T E.n.>.X.< ..t X.%. Xd.M.3.$.- y.$.).Q ).*XP K.j.[ `.3X.Xa.L./ [.nX+X+XE.-X-X",
".XhXC.K pX1X2X].W '.3X<Xj.P eX/.-.O.=.l.+X2.5 4 m.XXQ.r.%.t.9 X...M S.<.q b $.= n = @ a K.I.[ k.a ).(.'.3Xk..XOX<X8XrXxXh.J./.Q.",
"eXJ.j.{.<XrX4X_.vX3X].;Xh.W i.U.e.p.gXrXrXl...m P.).I.i.M $.8 9 9 = 7X .<.3.6 4.N - 0 =.k.3X*XP.P h.[ [ 3X1X.XoX<X-XrX.X<XeX#XrX",
"|.k.I k.).<X,X_.3XI.].#XM e.<XK.:XD eX3X5.3Xl.X.z ) Y.E.e.=.0 c.}.h.P 2.n m 5 1 5 e.n L &X&X).*X).XXK.].).-X_.1 <XeX-X<XeXXXv.A.",
"|.XX Xy.e.'.k.rX_.P.m.[.E.a.C.-X*XXX-X}.P.`.j.q @.+ @ 8 a.y.z.l.b J e.v m 6 m 3.r.9 V t.u.T.d.)..X3X).{.).K.W.4.d..X_.{.Z.{.c.Z.",
"Z.2.r.).D U.P. XP.l.v.q.b.1.m.m.eXqX}.2.z.).[.r.W.V k.d.l.W {.XX$.V P 5.e 4.).y l.j.m 0 h.N W.).T W 3. X&XoX1Xq.3.|.[.9XaX<Xm.9X",
"wX.XM.l.a.s.d.z.<XwXr 7.1...C.C.~.W.W.3.l.K j.P.oX).).s.c.t.l.*XeX*X:XP.m.r.qXoX[.g.s.$.)..XW ) }.~.Q.i.n.5.}.3.@.Z.D.v.wX@X.XoX",
"|.|.9.<X.X1.o.n l.g.,.3.3.e <.yXM.n.c.@.n y.f.{.P L J [.3XrXK.;X;X;X-X X.X XwX.XOX8.r.m j [.i } ).0Xl.l.<.oX=XXXw.S.y.xXb.7.5XsX",
"P.6.wXvX4X$. .5.m.Y.>Xi.e = b.-Xm.m.4.m.m 5.t 3.3.5 9 P.cX2XN Y.{ $X;X&Xy.W.3XOX9X1Xm Z.M.4X$X( Q eX1X|.E 3X2X3X9XN.wXnXq.c.).M ",
"d.8.U { [ 3. .Z.I <Xn + < t.E K.[.s.y.s.m 0.@.<.t &.1.n.3X3Xk.oXN K.jX:Xh.^.xXcXl.<XB.4XvX(.L K.L *XhXl.) *X[.eX|.8Xz.B.C.8XJ e ",
"k.w.v.s.Y.oXb.{.P 7 w t 1.3.m. Xs.g.}.r.r.b q v 9 b d.K.=XH.u.! n  X^.oXk.2XdX#X#Xm.L 1X).(.<.O W ).l. X1XoX-X1XrX<XbXrXs.M.m.5.",
"b 7 w j.W.U qX_.W r.q b e <. XOX_. XP v 1 v @ @ 1 b J 4 ; D n e.P.].#XW.^ 3XQ } %X'.L.].a.h.0.9 0X8XrX9XOXxX3X,XcXrXjXnXoXyX).7.",
"g.{.6.9.f.{.C.b b i.3.r.8.r.<X5X1X{.k.3 h 3 z = q K 3.l t.y.t.a.P.K.K.Y.>XI.#X%X Xr.N ) r P.S.s.y.P.zXrX|.(.2XzX,X).tX*XqXrX).q.",
"B.@X@XB.<XoX|. Xz.P h.-X<.-X).OX.X+Xk.2.V ; 8 x L b 8 l z j.T ~.R  X) %X;X%XsX`.:X=Xt.q K. X@XrXpX}.l.=XOX4XI.4X*Xs.eX,XsX,XL.M.",
"B.B.*X+X<XaX1X1X.X.XW K.j.:X{.*XrX.X!.i.E 4 x B O 5 T E.U.p.~ T h.k.h I.*X].*Xo o o o o o o o zX4Xr.) hX).`.`.4X[.rXnX2Xn J.r.m.",
"C.l.K._.1X1XrX3X).'.h.'.#X1XP.~ iXkXL.c p.z 3 $ v 3 i.;X:Xp.W.d T (.(.sXo o o o o o o o o o o o o oXcXvX`.`.{ '.`.)..X*XJ.e.y.L.",
"n.{.r.P.).zXsX,X{.1X1X.X;X<X<Xj.W -XQ.O.F B l V r.e r.eX,X<Xa.$.] ] ] ] o o o o o o o o o o o o o o vX4X1XJ.f Q -X1X1X.XH.A *.p.",
"e.L.~.n.l.-X<X.X.X2X5X4X,X].I.W W P.:X:X-.x > t.{.M.m.] ] ] ] ] ] ] ] o o o o o o o o u u u o o o o o o W I %.j *XiX1XxXeXR.G.M ",
"p.R.t.#.e.*XY.).<X3X(.^.'.;Xh.T W i.E /.V :.0Xa.l.+X] ] ] ] u ] ] o ] o o o o o o o u u u o o o o o o o o # *.l.xXiXhXW.kXa.t.R.",
"'.Y.R.c e.J.i.[.iX).).*X*X*X! 3 Q.3XY.L.W.u.gXoX] ] u u u ] u u o o o o o o o o u u u o o u u u u o o o o o k.rXrX,Xj.%XrXqX.Xi.",
"h.R P.; A G./.=X2X).P. X2X;XQ.p. X<Xj.=X=X] ] ] ] ] ] ] u u u u o o o o o o u u u u u u u u u o o o o o o o o l.Q.].( ).4XzX,X'.",
"-X=X<X!.R.G.| gXY.P..X3XK.=XcX*X).<X] ] ] ] ] ] ] u u ] ] u o o o o o o o o u u u o o u u u u o o o o o o o o J.'.[ (.,X2XsX;X;X",
"#X#X;XrX.XhXlX'.<X(.Y *X-XiXxXhX;X] ] ] ] ] ] u u u u u u o o o o o o o o o o u u u o o u u o o o o u o o o o o h.(.6XsX*X'.2X2X",
"3X=XT J.'..X:X;XG G L d.1XvXmX] ] ] ] ] ] ] ] ] u u u u u o u u o o o u u u u u u u u u u u u u u u o o o o o o ) W iXbXjXsX'.1X",
") eX.X~ R K.3X:XK.V &.5.j.pX] ] ] ] ] ] ] u ] ] u u u u u u u o o o o u u u u u u u u u u u u u u u u o o o o o o 2.J.dXI.sX;X).",
"W _.(.d.I.) 3X:X).qXh.'.j.] ] ] ] ] u ] ] u u ] u u u u u u u o o o o o o u u u o o u u u o o o u u u u o o o o o $.F >X&X( ~ P.",
"t. X~ _.) ` *X2Xl.l._.OX] ] ] ] ] ] u u ] u u u u u u u u u u u o o o u o u u u u o o u u u u o o o o o o o o o o o #. XY Y ).*X",
"E N * j.K.j.Y.2XrX.X] ] ] ] ] u ] ] u u u u u u u u u u u u o u u o o u u u u u u u u u u u u u o o o o o o o o o o 1 2 ~ K.I.*X",
"[.Y.V j.E J.T.2X;X] ] ] ] ] ] u u u ] u u u u u u u u u u u o o o o o o u u u u u u u u u u u u u o o o o o X X o o o @ G.W dX2X",
".X<XP.r.j.K.$X'.] ] ] ] ] ] ] ] u u u u u u u u u u u u u u u u o o u u u u u u u o u u u u o u u u o o o o o X X o X n '.*X3X].",
"a.{ H K.p K..X] ] ] ] ] u u ] u u u u u u u u u u u u u u u o o o o o u o o u u u o o u u u u o u u o o o o o o X X X v R #X#X X",
"s.R ].a.../ ` ] u ] ] ] ] u u u u u u u u u u u u u u u u u u o o o o o o u u u u u o o u u u o o o o o o X X o X X X N ~ & #X(.",
"P.W.3XT.K.K.] ] u u ] ] u u u u u u u u u u u u u u u u u u u o o o o u u u u u u u u u u u u o o o o o o X X X X X k.K..Xm.'._.",
"K.{ I.].Y ) ] ] ] u u u u u u u u u u u u u u u u u u u u u u u u o o o u u u u u u u u u u u u o o X X o X X X X + d Y.%X%XK.Q ",
") _ j H R ] u ] ] u u u u u u u u u u u u u u u u u u u u o o o u o X o o u u o o u o o u o u u u o o X X o X X n 8X~.W.D R T z ",
") R XXl.] u ] o o o u u u u u u u u o u u u u u u u u u u o o o o o X X o o u o o u u o o o o u u u o X X X X @ V S d a H.^ / j.",
"g ).W E ] ] o X X u u u u u u u u u o u u o u u u u o u u u o o X o X X o o o o o u u o o o o o o o o X X X X m y.!.E.0XeXh.g J.",
"k.g N ] ] ] u u u u u u u u u u o u o o o o o u o u o o o u o o X X X X X o o X o o u o o o o o o o o X X X <. Xe.=XgX5XJ.E.k.2.",
"*.p.*.] ] u u . u u u u u u u u o o o o o o o o u u u o o o o X X X X X X X X X X o o o X o o X o o X X X X e a.W.P.[ K.'.S Z h.",
"XXXX X3X] u u . u u u u u u u u o o o o o o o o o u o o o X X X X X vX'.;XX X X X X X X X o o X X o X X X |.v i.3XcXoXJ.Y.P h j.",
"Y..XjXT.u ] u . u o u u u u o u o o X X o o o o o o o o X X X 1.3./ [ #XdX:XG.Z dX=X!.X X X o o X X X . . I j.{.).[ { K.T k.n.m.",
"r.&X;X,X] u u u u o u u o o o o X X X o o o o o o o X X X <.4.m.6.m.P.Q T.I.E M & i j E X X X o X X X . ).5..X_ '.{ _ ,X'.R 4 w ",
"{.].;XT.] u u u u o o u o o o X X s.<. .. . o o o X X X [.l.' b w b k.i.) [.M l > $.B n.x.X X X X X X . '.].[.& Y { Y H P.l.h y.",
"1X3X$X~ ] o o o o o o o o o X X : @.<.z.l.. o o X X . X tXC.w.C.B.I f.i.C L.E.3 c E.v e.Q.y.. . X X . . W ( ~ T M G (.].(.L a.<X",
"I.J.! *X] o o o o o o o X X X $.8 s }.P.R . . X X . . rX,Xl.q.d.@X{.{.a.B M z : 0 #.J.k k XXe.. X . . . [.k k P k.e.Z { Y.K.$X*X",
"K.T S &XX X X X X X X X X X tXl.r.O.3 L U @X. X X . . a.W r.}.{.B.{.1X^ i.x 6 i.a.p.U.-.h.k T.. X . . . ! L.z.g R D M [ K.K.{ (.",
"T.2 F I.X   X X X X X X X X ) .Xl.e.3 e..X_.. . . . h.V m 3.k.s.h.'.).a k 3 [.~ I.=XQ.v E.d C . . . . hX~.N p.s E Q.t.H.! ~ '.cX",
"S #.! (     X X X X X X X h.~ .X.Xu.u.Y.'.. . . . {..Xl.8.h.j.&.P E d.9 e.B ~ &XhXcX.X Xk.n . . . . . gXk.B & v Y.T.$X&X*.XX2XI.",
"G.x.~ ~     . . X . X X tX-X=X].[.U.) ;X. . . . K.wX<X<X+XOX5.m '..Xi.z.i.L..X3XjX,X4X Xp.. . . . . bXdXk.x #.#.U.~ C [ B ).,XI.",
"$ c f f Z Q X . . . X X 1X X XK.:X;X} #X. . . ) K.*X-X XOXwX|.2.3.<X'.1XhXK.T j P.K.].L.t.. . . . ).cXcX*XXXV y.N S M u.H.[ [ % ",
"t.p.x V & a K.X X X X J.j.Y.*X;XI.[ ;X`.{ (.R T I. X) 2XhXJ.l.,XzXj.'.*X;X$Xt.U.S  Xn.-XJ.i.O.: i.C.rX*X) H.a.<.<.@.x z p.d g $ ",
"2.p.P.E P k O k S T i ^ $.i.(.dXZ Y I.R ~ ).) K.(.[.#X%X[ #Xs.].l..X$ ~ ).Y.{. Xi.[.9XXXr.n.z $.m.s.,X;Xl V l.U.L.v 3 s h.D M B ",
"1.4.P 9 e e V - g L.T P.R.E.P.K.&XP.~ e.N I.*XY.*X#X^.`.%X#Xa.K.~ M.t }.qX<XOXrX*XzXeXbXW.r.e.r.g.q.J.&X0.}.m r.@ t v E l.P V n ",
"m P t m f.f.s.z.<.W.5.k.s.2.@.@.P.V E f.6 ! J.;XI.;X2X3X`.=XE.v l.|.oX|.l.1X|.(.4XsX*XxX<XaX[.V.s.K ).s.|.).k.7 r r 3.oXd.f.y.r.",
"9 = 1 J J c.V.d.k..Xt.K.K.4 - x.N.:.v F.w kXT.P.` ].$X#XdXW 0 v E ,XzX1XL =Xj.].,X<Xs.1XsX,Xk.5.{.d.B.A.m.<.N r.P <.[.1X+Xi.4 1 ",
"8 - b s.n &.m L j.j E ` u.4 m |.v.a.f.j.k.hX].) ) .X'..X).m.!.E @.).{.{.rXvX{ { 4X*X;X4XV ) W.[.B.5X[.xX.X<X3.h.oXf.[.OX<XW.v 2 ",
"l #.7 P $.x.n.P r.P i.s.+.m @.6 j.<X).j.K _ i.L I  XrXk.1.XXl.~ r.d.< w uX4X.X! Z  X1X-Xh.*.a.W.[.'.OX1XrX*XhXh.K.].<X*X<XXXu.E ",
"3 2 5 M y.t.e 8.@...v.c.t.s.<.m n._.b 6 f.cXj n m.4.m K a.l.W M @.0 : = s.i.b t.S 2X5XiX=X-.D *..Xr.).rXsX'..X*X].hX.Xj.<XU.A *.",
"l 2.3.v W.<.m.8.c...M.|.}.8.m 2.e 4.6 &.<.r.- : W.4.X.5.P 0.m }.P.E.p.y.2.+.4 M oXbXzX}.rXe.E.t.R.x.r.<X*X_.2X,X4X].].W P.eX-.M ",
"O.D m.m.f.k..X,.3.5 1.3Xk.y.k.<.r <.e P d.9 4.9 + z 2.@./ l.oXs.l.J 4.<.$.e.4.i.).'.(.$XrX<X X).U.O.p.T.a.wX*X'.*X;X) N k.u.=X;.",
"lXoXrX[.4.4..X X9 < W l.[.l.r.h z = 1 I r.$., 4 &.@ x 4.2.j.L Q H.1 $.N.=.m.5 U.h.I.K.].4X2X#XY.).c c G.=X;X).h.;X;X-.*.<XK.Q.e.",
"eXjX.X4XX.c.K K , r <.+X).P.M M 4 - V P m h @.9 M v $.@.q N q P O.L N v.f.7.k.=XI.) 6X4X2X3X$X;X XkXQ.R.#X&XP.<X'.=X:X XoX X:Xu.",
"eXrXa.<X{.|.h.E 6 <.s.rXOX{.e.e.; 8 d * m * @.@ h ).M.%.- = m z.= P n n.9X8.l.).R N *XbXjX$X1X3Xi.Y.].gXfX'.T K. XiXcX2X'.:X:X!."
};
