/* XPM */
static const char *player_left1[] = {
/* columns rows colors chars-per-pixel */
"64 64 234 2 ",
"   c #090A14",
".  c #241527",
"X  c #341C27",
"o  c #4D2B32",
"O  c #4B5828",
"+  c #52592C",
"@  c #5B5D32",
"#  c #5B5B37",
"$  c #514D32",
"%  c #635E3D",
"&  c #6B5B3A",
"*  c #755C39",
"=  c #4E6529",
"-  c #5B642C",
";  c #596A2B",
":  c #5B722A",
">  c #596633",
",  c #5B6C33",
"<  c #576737",
"1  c #5A7236",
"2  c #666F2F",
"3  c #66792D",
"4  c #6A6B35",
"5  c #65643C",
"6  c #6C643D",
"7  c #646C3C",
"8  c #6B6C3C",
"9  c #636833",
"0  c #74693C",
"q  c #657C35",
"w  c #6D7B36",
"e  c #64733C",
"r  c #6C723C",
"t  c #6C7A3B",
"y  c #677636",
"u  c #73743D",
"i  c #727B3B",
"p  c #7A773B",
"a  c #7A4841",
"s  c #6D5B42",
"d  c #725D40",
"f  c #5C6F42",
"g  c #6D6545",
"h  c #6C6D43",
"j  c #676944",
"k  c #7A6444",
"l  c #726D43",
"z  c #7C644B",
"x  c #746C4A",
"c  c #7D6C4C",
"v  c #776746",
"b  c #6C7342",
"n  c #6C7B43",
"m  c #697946",
"M  c #737443",
"N  c #7B7444",
"B  c #747C43",
"V  c #7C7B43",
"C  c #74734B",
"Z  c #7C744C",
"A  c #747C4B",
"S  c #7C7C4C",
"D  c #7C6E53",
"F  c #7B6552",
"G  c #7D7452",
"H  c #7D7C52",
"J  c #777653",
"K  c #82763C",
"L  c #836A4A",
"P  c #837C46",
"I  c #83744C",
"U  c #837B4C",
"Y  c #8B7C4C",
"T  c #837545",
"R  c #836C53",
"E  c #886D53",
"W  c #837353",
"Q  c #8B7554",
"!  c #847C53",
"~  c #8B7C54",
"^  c #8C745B",
"/  c #857C5B",
"(  c #8C7B5B",
")  c #837259",
"_  c #927B55",
"`  c #92755B",
"'  c #927C5C",
"]  c #987859",
"[  c #937D4E",
"{  c #AD7757",
"}  c #8B7E60",
"|  c #8E7664",
" . c #947C62",
".. c #9A7E62",
"X. c #987B68",
"o. c #A37F65",
"O. c #62872D",
"+. c #6C843A",
"@. c #7A843C",
"#. c #768839",
"$. c #7C9B3D",
"%. c #6E8445",
"&. c #7C8444",
"*. c #7D8B43",
"=. c #74834C",
"-. c #7C824C",
";. c #7A8A4B",
":. c #748543",
">. c #7E8252",
",. c #7A8B55",
"<. c #7F9250",
"1. c #83993B",
"2. c #828A3E",
"3. c #858446",
"4. c #8A8247",
"5. c #828944",
"6. c #84834C",
"7. c #8A844C",
"8. c #838A4B",
"9. c #8C8C4B",
"0. c #93874E",
"q. c #879449",
"w. c #95934D",
"e. c #848353",
"r. c #8C8354",
"t. c #848B54",
"y. c #8C8B54",
"u. c #84835A",
"i. c #8C835A",
"p. c #858B5A",
"a. c #8D8B5B",
"s. c #938454",
"d. c #9B8555",
"f. c #928C54",
"g. c #9A8C55",
"h. c #94845B",
"j. c #9A835D",
"k. c #948B5C",
"l. c #9A8B5D",
"z. c #839053",
"x. c #8C945C",
"c. c #8B9356",
"v. c #949255",
"b. c #9C9453",
"n. c #94925D",
"m. c #9C925B",
"M. c #9A9A5D",
"N. c #969B56",
"B. c #A28D5B",
"V. c #A3835D",
"C. c #A1935D",
"Z. c #A4985B",
"A. c #99A45B",
"S. c #A0A35D",
"D. c #8C8462",
"F. c #8C8962",
"G. c #948362",
"H. c #9B8364",
"J. c #958B63",
"K. c #9C8B63",
"L. c #9C856A",
"P. c #9D8B6B",
"I. c #95836B",
"U. c #8D9561",
"Y. c #959263",
"T. c #9C9363",
"R. c #9B9A65",
"E. c #9C936B",
"W. c #9D9B6B",
"Q. c #969667",
"!. c #9D8572",
"~. c #9E9374",
"^. c #A18565",
"/. c #A28B64",
"(. c #A98C65",
"). c #A2856B",
"_. c #A38C6B",
"`. c #AA8C6C",
"'. c #A39364",
"]. c #AB9466",
"[. c #A59A65",
"{. c #AA9A64",
"}. c #A5936B",
"|. c #AB936C",
" X c #A39A6C",
".X c #AC9A6C",
"XX c #B2946D",
"oX c #B29B6D",
"OX c #B4976A",
"+X c #A58D72",
"@X c #A98E73",
"#X c #A78C78",
"$X c #A59373",
"%X c #AC9473",
"&X c #AD9A72",
"*X c #AC947A",
"=X c #AE9D7A",
"-X c #A49A76",
";X c #B29574",
":X c #B39B74",
">X c #BA9D75",
",X c #B2957B",
"<X c #B49B7B",
"1X c #BA9C7B",
"2X c #B9977E",
"3X c #9BA270",
"4X c #ACA26D",
"5X c #A8A266",
"6X c #B2A26D",
"7X c #B9A16E",
"8X c #ADA376",
"9X c #B4A275",
"0X c #BCA475",
"qX c #B4A17B",
"wX c #BAA27B",
"eX c #BAAA78",
"rX c #A5B26C",
"tX c #CA9D77",
"yX c #C4A67C",
"uX c #BA9D82",
"iX c #B39B82",
"pX c #AD9E84",
"aX c #B7A183",
"sX c #BDA384",
"dX c #BCA883",
"fX c #C3A484",
"gX c #C4AB84",
"hX c #C9AA85",
"jX c #C6AA8A",
"kX c #C7B189",
"lX c #CDB296",
"zX c #D4B696",
"xX c #D1B390",
"cX c #EAC794",
/* pixels */
"g G.).*X@Xn.z.y.V 5 u u *.3 : ; r .XY V Z u &.8 ~ p.V U D D ..|.K.P.+Xj.Q /.( /.V.' r.6.e n.e.I e.@ r A _ `.'.|.h.{.B i 8 + > 5 ",
"A h.$X,X_.i.S y @ ; w 3 :.w 2.$.rXV u P 6.8 V - 8 8 S I K.'.|. .H.` k L I I ~ K.j.I M @ $ l.I S r.p.b 6.}./..X`.r.Z M y u 9 O = ",
"i.*X,X@Xh.T.[.9.q.N.i : 3 #.q.N x.A.O.@.u u 2 4 M , a.G._.,X^.5 ' Q E. Xe.B =.I l.}.B M m r.6.I k V.N 6.r.oX&XK.7.7.5 6.9 ~ B 8.",
"U } P._.G.%XK.8.5.q.q 5.7 #.#.= q k.$.r.f.Y @.4 r 8 @ r.$XG E r._ H.^.Z T.k.Z K.0 * 6 m B V OX'.& & b.+.'.h./.|.I P 4 c.- M p.t ",
"( M / L.L.I.P.Q.T.t.z.z.y u y t.~ Z M Z P #.- 2 t t W.-.h G.K.k Q W k e.}./.U 6 -.U 8.-.u 6.0 5 + u 7.7.r._ j.j.s.s.w 7.S 5 9 W ",
";X%X%X^.|.k.W  Xp.s.6.=.:., y.m.h.I t.&.- &.4.f.+.7 G i.W.=X XY.r.k.a.a.|.*XF.;.m W.~ U t.N ~ h n 1 b 4Xh.Y OX>X_.l.i 9 M 8 e./ ",
"@X .H.x ../.8Xk.`._.< M t.%.f.s.M ! I |.N.b.q.{.p u y.E.<X;X( G W h.W.$XiXH.E.5XR.8 e.u.C R.> n t.-.n < 8 '.].wX*X'.f.7.q y l i.",
"i.G R e.' |.}._.,XP.<.k.t.m.'.9X;.a.&X$Xi.l./.6.3.k.y.h. ./ K.e.r '.K.}.<X`.H.<X( H P.! m i.}..X9X/.p.>.>._./.:X%X` /.7.: 8 E.M ",
"h.&X_ z I /.y.g ..j > e.e.! l.|.<X,X,X$Xh.4Xc.y.P u '.6.r.6.I i.k.Y V _ iX@XE  .C i.' / p.J.% W ^ :X}./ ( $X`./.` ^ $Xs.9 y.F.Q.",
"<XW.Y.l.i.c U B O < x.f.g.a.y./.%X%X#X%XqXwXJ.C.n.B k.0.'.0.K K.N V k.:X<XP.E.K.' K. .tXk.J.=.t./ }.`.E.$XP.(.`.j.Q H.h./.h.E.dX",
"(.G.) Q f.a.S ;.y e r.{.C.R.&X` L. .).`.qX|.V R.'.~ :X/.}.6Xk.'.k.t r.`.P./ %X:X^.] ` }.H <XE.eX&X&XL.+XP.*XE _.K._.s.K./.J.K.$X",
"( P.l c /.T.Y.K.a.= [.yX9X,X1XJ J.9XZ Y sX$X-.k.s.v.h.G.:X].:X9.P 8.|.&Xi.G.c ( .X}.^ ' %X+X_.yX'.`.*X .R L.` z H.%XR.-.y.:XkXJ.",
"( i.n.v.'.|.*XK.r p.+X<XsXlXiX-XJ.' i.S uXaXY.a./.$XJ.%XwXoX0X{.N V L.6 F K.E.5XL.k.L.H.XX/.1X_.l.n.~ !.K.L. .P.e.'.K.v v +XX.(.",
"uXL.c N 0 l.=X&Xn.=XfXxX*XuXiX$Xu.5 U.J.^.| 8XP.K.T.h.,XwXiXk..X/.7X/.1XX.).4Xl.! 9.f.J.h.h._.K.Z.eX! Q.&X.X Xn.Y.k.V B.;X;XL.o.",
"E l.r.u m.}.*X$XG. .+X).L.zXqXE.a.b e.y._.I G.<XJ.J.P.%XX.).P.T ;XfX(.Q H.Q wX:X].6..X$Xv.9.9.2.yXyXK.f.'.p :.b.g.K.}..Xk R ] Q ",
"^.^.U k.;XwX@XP.H.#X*XY.( F g % p.c.R.I  .|.! ) ^ D.L.).!.#X+XE.;Xs.j.i d ~ ,X:Xm.*X:X,XoXN.[.eX5X4.]..X0XC.S.g.b.k. .K.L Z Q ] ",
"H.K.I.@X$X .} L._.+X@XL.! e < t.e.S K.3XZ i.Y.(.sXqX_.,X*XE.r.Z K.! [.$.N h.6Xh.].%X'.qX'.A.Z.hXw.f.|.,X[.'.w.}.m.l.l.P k.e.u.R ",
"r.k.K..._.` G / !. . .&Xe.=.m >.Z I R W  .H.$XL uXL.L.,XX._.$X&.e.s.5Xw.K.N.1X9XoX.XqX:X0X:X8Xm.Z.C.g.s.0.g.>X1Xf.1.i wXoXY ! A ",
"3.{.0. XwXQ b u.%X( W / a.b 1 =.H p.p.i.h S N ( iX@X+X%X*Xr.t , ~ _.].>X6XeX`.:X{.1X<X2XjXqXlX.Xr.S.p 6.9.Y `.;Xe.w 5.f.g.V k.c.",
"2 m.'. Xr.! >.~ ' '.P.H I 8 i.Q.%Xa.u.k.B A A U ,X`.%X_.'.v.x.a.f.0 sX1X1XN r. X<X`.2XsX(.:XlXwX9X|.g.Y b.f.h.H.0.O.v.l.P.pXU 4 ",
"w.'.[.'.9.8.B 8.k.K.oX`./.f.( I.jX%X%XY.;.e 7 r.}.|..X6 A..X}.j.6.9..X|.'.6XuX.X..).@XfX~ '.$X<XeX'.b.l.T P l.K.[.v.l.N k.- : ; ",
"N h.'.k.y.k.V 9.9./.N c h.Z G.sXsX,X*XA a.J.l.G.U B 3.Z e.l.e.G p.f.6.w T fXjXuX).` fX%X:XzX1X$X|.k.9.[ B.4.B.[ d..Xl.7.4 p #.m.",
"'..Xs.{.[.U &.*.5.9.0 4 ! a.|.).P.H.P.P.G.P.:X.X&.#.5.k.p U i.C -.b 1 e P XX|.].h.s  .o o o o o o o o ].oX(.XX5X'.V u U N N i 3.",
"wX`.oX~ ! U N N Y w M 5.8.T.^ j h L._.} H / I._.M.V b.0.M.Y t.&XQ.x.> =.h P i.S o o o o o o o o o o o o o 0X|.hXoX}.y.U s.T.4.k.",
";X(.oXk.r M r + @ 8 { { { { { { { { { { 9X}.k.+X}.n i ~ '.&Xv.k.h.y.<.n.{ { { { o o o o o o o o o o o o o o wXoX:X1X|._.h.l.f.l.",
":X|.|.k.M 5 > b , { { { a a a { { a a { { { I i.e.z.y.6.l.z ! { { { { { { { { o o o o o o o a a a o o o o o o o xX+X|.~ K.' $X|.",
"H.gX&XW.i.H > { a { a a { a { X o { { { { { { { r.M u { { { { { { { a { { o { o o o o o o a a a o o o o o o o o o /.|.:X`.%X:X/.",
"j.|.<XA A h { { { a a a a a { X o { { { { { { { { { { { { { a a a { a a o o o o o o o a a a o o a a a a o o o o o o ,X>X1X`.:X:X",
"! k.qX,.{ { a a a a a a a a X o { { { { { { { { { { { { { { { { a a a a o o o o o a a a a a a a a a o o o o o o o o o H.%X`.*Xh.",
"I i.o X X o o a a . . . a a o { { { a { { { { { { { { a a a a { { a o o o o o o o a a a o o a a a a o o o o o o o o o K.;X+XL.I ",
"Y.      X o o o a a a a a a a a a { { a { { { { a a { { a a a a a o o o o o o o o o a a a o o a a o o o o a o o o o o o <X*XJ.7 ",
"|.X   X X X o o a o o a a a a a a { { a a a a { { a a { a a a a a o a a o o a a a a a a a a a a a a a a a o o o o o o o G.$X}.a.",
"%XX . X X X X o o o a a a a a a { { a a a a { { { a a a a a a a a a a o o o a a a a a a a a a a a a a a a a o o o o o o o gXfX`.",
"_.X . X X X X o o o a a a a a a a a a a a a a { a a a a a a a a a a a o o o o o a a a o o a a a o o o a a a a o o o o o o yXxX<X",
"T.X . X X X X o o a a o a a a a a a a a a a a { a a a a a a a a a a a a o o a o a a a a o o a a a a o o o o o o o o o o o o cX[.",
"|.X . . . X X X o o o o a a a a a a a a a a a a a a a a a a a a a a o a o o a a a a a a a a a a a a a o o o o o o o o o o o xXZ.",
"( / X X X X X X X X o o o a o o a a a a a a a a a a a a a a a a a a o o o o o a a a a a a a a a a a a a o o o o o o X X o o o yX",
"K.=X-XX X X X X X X X X X o o a a a a a a a a a a a a a a a a a a a a a o a a a a a a a o a a a a o a a a o o o o o o X X o X `.",
"gX:XL.aXoXdXP.oXV 8.6 X X X X o o a o a a a a a a a a a a a a a a a o o o o a o o a a a o o a a a a o a a o o o o o o o X X X :X",
"dXeXoX|.6X/.N U m.7.8 8X3.*.X X o o o a a a a a a a a a a a a a a o o o o o o o a a a a a o o a a a o o o o o o o X X o X X X :X",
".XdXgX|.[.k.4.b..X3.J.l.p A.f.X o o a a o a a a a a a a a a a a a o o o o o a a a a a a a a a a a a o o o o o o o X X X X X /./.",
"4XdX|..X&X'.:Xd.;XB.5XeX].s.Z.|.o o o o a a o a a a a a a a a o a a a o o o o a a a a a a a a a a a a o o o X X o X X X X /.:XY.",
"T.:X/.0X].f.I d.'.C.;X1XZ.b.oXhX'.o o o a o o a o a a a a a a o o o a o X X X o a a o o a o o a o a a a o o o X X o X X _ Q K.a.",
"U ~ j.yXwX7.l.h.Z./.m.l.C.0.|.`.7.[.o o o o a o o a a a o a a a o o o X X X X X o a o o a a o o o o a a a o o X X X X h.'.=.m T ",
"U j U &X'.k.M k.Z.q.k.9X6Xf.s.v.U P.n.A o o a o a a a a o o o a o o X X X X X X o o o o a a o o o o o o o o o X X X X l.i.U r U ",
"T.m e.C n.v.f.s.r.y.P.Y _.n.6.k.K._.s a.r o o o o o o a a o o a o X X X K.^.X X X o o X o o o o o o o o o o o X X X M ~ ] u.B a.",
"T.R.A t.K.'.kX|.G.k.T. X) 9.'._.,Xk.% b k.W E.o o a o o o o X X X X ~ _.] s ^ X X X X X X o o o X o o X o o X X X X n.U r.l A h.",
":XgX X~ G.d.H.}.i.` _.&XC.C.}.,X}.T.S a./ L.o o o o o o X X X X ^ E.h.R G S ^ Q z X X X X X X X X o o X X o X X   H B.N N l B '.",
"].&X$XG.j./.G.|.s X...:X,X[._ .X.X.X&XJ.|.o o o o o o X X X     sX} W e.Z r.!  .;X^.~ u oX.X+X. . X o o X X X       S =.y.r.+ 5 ",
"_ K.h.~ K.wX'.K.fXH.Q ' 1XK.>X:XsX1XaXH.. o o o X X X X         sXR.i.z.g ' A D ' $X( wX*XsX@XL.. . X X X X .         L k r.t.n ",
"K.j.K.}.:Xj.9X>X^.c & r.6X:XeXoX_.,X;X. o o X X X X X           qXa.5 S M ( U.S R  .H. .+X ./ P.K.. X X X .             L ] % -.",
"K.|.|..X|.|.H.1X] v.y 4XM.<X:X'.fX).1X. X X X X . G.Y.          aXe.7 j i.P.@X&XD.! H.sX).x G %X_.. X X . H             N f.n k.",
"oX|.&X_.H.m.~ :X~ [.1.y.4Xr.y..X^.).. . X . . . i.h e.,.        2X:X=.-.G J.D ..m .X*X@XG b H _.(.. X . . p.t.E.          3.;.{.",
"K.&XG.h.@X+XJ.j.@.T.7XfXyXY =XfX).. . . . . . 0XqX>.a.G.          D.H p.b x C J.u.`.`.L.p.A ^ ..V.. . . . a.J.W K.        f.k.s.",
"/.K.%X^ *XG.R.M ' K.1X1X;X[.1XfX>X. . . . . qXE.<XwX1X).}.        L.J b m M B H D.^ z $ m u.W %X. . . . ! i.e.m D         ~ I d.",
"V.K.( #X`.&XJ.q x &.N .Xh.N ;XXX. . . . hXwX/.] XXjX*X*X%X*X      K.G.~._.4Xi.( A C % >.>.j < . . . . . }.<XE.x.W %X      7 l.].",
"XX%Xj.%X<X_.6.:.k.U 4.l.q y V 7.. . . . /.E.).).,XuX,X*X%XiX      _.H.|.%Xf./.h.R # m H E.k.C . . . . :X).^.wX:X X|.|.D.H h.:X].",
"<X`.|._.;XK.'.n.`.G.>.A ; < A 6.e ,.e.D.J.P.| ] uX,X@X_.%X' >X`.h. .Q $X<X&X%X}.h.k.u.J.&X`.K.l v z g %X`.$X|.K.$X_.}.$XG.+XL.1X",
"$XH.%X_.$XP.M. Xe.x e.;.p.,.f.f.:.C.p J.I.P.j.XXxXuX*X2XG.j.~ G.(.j.`.G.%XwX}.j.; i.&X/././.eX>.e.Z H h.J.k.`.}.%X@X+X+XP.`.(./.",
"W ' /.(.<Xl y T.U e.&XG.k.:.+.n.%.7.w.=X$X` s.! P.$X%X` }.$Xx.Z & l.( H.$X/.:X|.x.n oX|./.j.( I N l f p.M s./.j.K.I.^  .+X .`.L.",
"Q L.$X'.`.6.~ N 7.y.f.C.P 9 B M.t.f.7.f...Z e.M.m 3X` Q L.*Xr.h.6.h.s.^.*X^. .G.T.k.m.V.] ! A =.e.i.,.t.=.j.j.j.K.$XG. .` ' `.' ",
"' H.$Xr.B @.7.s.v.|.r. .! r U 0.n.{.9.4.qX& , k.b Z x ~ P.,X}.%XT.j.L Q ' ] K.k.}.h.l h l.T.r.8 A }.T..X8XK.K.|.wX9X_.G.Q z L.+X",
"$X$X/.l.w +.b.s./.I ~ ( ;.8 W V c.g.C.*.3.&.-.+ > = O Y.P.,X`._. .' -.Y ' _ _ ^.I T s.7 Y ] j.e.S /.|.:X%X( ~ }.] K.$Xg 6.K.! -X",
"H.).;X_.T.6.:.6.U h.u V *.2 r w q.m.Z.f.[.n - y.O , :.K.,X+X_.s.~ *XH.' ' K.' /.j.>.r.M N Q I I @ S U /./.' &X:X.Xm.e.t , i.n Y."
};
