/* XPM */
static const char *right2[] = {
/* columns rows colors chars-per-pixel */
"64 64 240 2 ",
"   c #090A14",
".  c #241527",
"X  c #341C27",
"o  c #4D2B32",
"O  c #42551F",
"+  c #4A5628",
"@  c #545C2B",
"#  c #585837",
"$  c #5C4C33",
"%  c #665D37",
"&  c #496227",
"*  c #55622E",
"=  c #5C692A",
"-  c #5C6433",
";  c #576537",
":  c #5A7336",
">  c #587029",
",  c #656F2F",
"<  c #65772D",
"1  c #656535",
"2  c #646B34",
"3  c #65643B",
"4  c #646D3C",
"5  c #6B6C3B",
"6  c #6A6A37",
"7  c #736D3C",
"8  c #74693A",
"9  c #647434",
"0  c #63723B",
"q  c #6D743C",
"w  c #697A39",
"e  c #73733D",
"r  c #79733D",
"t  c #747B3B",
"y  c #7A7B3D",
"u  c #737836",
"i  c #716F2F",
"p  c #7A4841",
"a  c #6F5B47",
"s  c #735D41",
"d  c #6C6442",
"f  c #6C6C43",
"g  c #666642",
"h  c #736444",
"j  c #746D43",
"k  c #7C6B4C",
"l  c #796A48",
"z  c #667541",
"x  c #6C7343",
"c  c #6C7A44",
"v  c #697748",
"b  c #737443",
"n  c #7B7444",
"m  c #757B43",
"M  c #7B7B44",
"N  c #74744A",
"B  c #7D744B",
"V  c #747C4B",
"C  c #7C7B4B",
"Z  c #7C6951",
"A  c #6E7D52",
"S  c #7C7553",
"D  c #7D7B52",
"F  c #747C52",
"G  c #836B4A",
"H  c #827546",
"J  c #827B45",
"K  c #83744D",
"L  c #847C4B",
"P  c #8A7E4C",
"I  c #8A7848",
"U  c #846C52",
"Y  c #896D53",
"T  c #847354",
"R  c #8B7553",
"E  c #857C53",
"W  c #8C7D54",
"Q  c #8C755A",
"!  c #867C5B",
"~  c #8C7C5A",
"^  c #86755A",
"/  c #92755C",
"(  c #937C5C",
")  c #997A5C",
"_  c #927854",
"`  c #917F4E",
"'  c #AD7757",
"]  c #957C62",
"[  c #9B7E64",
"{  c #997C6A",
"}  c #817E61",
"|  c #688537",
" . c #7C833E",
".. c #76883C",
"X. c #718E31",
"o. c #6C834A",
"O. c #6D8547",
"+. c #758245",
"@. c #7C8344",
"#. c #74854C",
"$. c #7D844B",
"%. c #7C8C4B",
"&. c #788A43",
"*. c #7D8253",
"=. c #7C8A54",
"-. c #7A8758",
";. c #75924A",
":. c #81803E",
">. c #838345",
",. c #848C44",
"<. c #84834B",
"1. c #8B844D",
"2. c #848B4C",
"3. c #8C8B4B",
"4. c #8C8745",
"5. c #93844D",
"6. c #928B4C",
"7. c #988B4E",
"8. c #88944A",
"9. c #94924D",
"0. c #97964D",
"q. c #848454",
"w. c #8C8453",
"e. c #858B53",
"r. c #8C8B53",
"t. c #85835A",
"y. c #8D845B",
"u. c #858B5B",
"i. c #8E8B5B",
"p. c #928554",
"a. c #998655",
"s. c #938A54",
"d. c #9A8B55",
"f. c #93835B",
"g. c #9A845C",
"h. c #938B5C",
"j. c #9B8C5C",
"k. c #849254",
"l. c #8E9354",
"z. c #88925B",
"x. c #959353",
"c. c #9B9355",
"v. c #939953",
"b. c #94935B",
"n. c #9C935C",
"m. c #9C9A5B",
"M. c #959A59",
"N. c #A38C5D",
"B. c #A28A58",
"V. c #A3935D",
"C. c #A39C5C",
"Z. c #A79659",
"A. c #9AA558",
"S. c #94A14D",
"D. c #A8A55E",
"F. c #8C8B63",
"G. c #8B8663",
"H. c #948363",
"J. c #9B8463",
"K. c #948B62",
"L. c #9C8B63",
"P. c #9D846A",
"I. c #968C69",
"U. c #9D8C69",
"Y. c #968269",
"T. c #8C9264",
"R. c #899165",
"E. c #949463",
"W. c #9C9363",
"Q. c #9C9369",
"!. c #9D9A6A",
"~. c #999A65",
"^. c #9F8A72",
"/. c #9E9571",
"(. c #A18565",
"). c #A38C64",
"_. c #A98E65",
"`. c #A1846B",
"'. c #A48C6B",
"]. c #A98D6D",
"[. c #A39364",
"{. c #AA9364",
"}. c #A39A64",
"|. c #AB9B66",
" X c #A4936B",
".X c #AB946C",
"XX c #A49B6B",
"oX c #AB9A6C",
"OX c #B2966D",
"+X c #B49A6C",
"@X c #B39768",
"#X c #A48C72",
"$X c #A98D74",
"%X c #A48C79",
"&X c #A78C77",
"*X c #A59372",
"=X c #AC9373",
"-X c #A59A72",
";X c #AC9B73",
":X c #AD947A",
">X c #AD9B7A",
",X c #A1997B",
"<X c #B29575",
"1X c #B39B74",
"2X c #B99C74",
"3X c #B2957A",
"4X c #B49B7C",
"5X c #BB9C7C",
"6X c #B89670",
"7X c #B6896A",
"8X c #9EA164",
"9X c #A9A267",
"0X c #B1A26D",
"qX c #ADA273",
"wX c #B3A372",
"eX c #BBA374",
"rX c #B5A37B",
"tX c #BCA37C",
"yX c #BCA97A",
"uX c #B2B27E",
"iX c #C09E79",
"pX c #C2A47C",
"aX c #C4AB7C",
"sX c #C5B27F",
"dX c #BA9D82",
"fX c #B49A84",
"gX c #AD9F81",
"hX c #B5A383",
"jX c #BCA383",
"kX c #BDA38C",
"lX c #BDA986",
"zX c #AAA783",
"xX c #C3A583",
"cX c #C4AB85",
"vX c #C4AA8B",
"bX c #C9A887",
"nX c #C9AC91",
"mX c #D3B492",
"MX c #E5BF8D",
"NX c #EBC794",
/* pixels */
"K.U.:X) g.1.C W f.j.n.oX4X1X!.D 5 x 5 q e.u < q B >Xr.2.v.< < ..t = t v.C.3.1.^ m M.t.,XP.#X[ =X1X~ _ ].:X( n M 1XMXNX;XL.jX;X;X",
" XK.H..XoX{.1Xj.f.f.]._.J.pXU.o.D z e.n.3.r.y M h.T E.b.;...<  .u ..%. Xa.m.1.$.- r.#.).Q ).=XL J.g.] `.4X.Xi.K._ [.mX+X+XE.;X;X",
".XjXV.J aX2X3X].W '.4X1Xg.L rX/.-.o.=.j.+X<.6 5 n.XXQ.w.%.e.q .. .N A.>.e n $.= M * @ d P.P.] h.d ).J.'.4Xh..XOX4X9XyXcXf.H./.Q.",
"rXH.g.{.1XtX5X_.bX4X].:Xf.W y.I.q.u.hXyXtXj. .M K.).P.y.N #.0 q q > 8X| >.1.7 2.B - w =.f.4X=XL.L f.] ] 4X2X.XoX1X;XtX.X1XrX#XyX",
"|.h.P h.).1X<X_.4XP.].#XN q.1XJ.>XD rX4X3.4Xj...x ( U.E.q.=.w x.}.f.L <.m M 6 2 1 q.m K *X*X).=X).XXJ.].).;X_.2 1XrX;X1XrXXXc.Z.",
"|.XX Xr.q.'.h.tX_.L.n.[.E.i.V.;X=XXX;X}.L.`.g.e @.+ @ 0 i.r.l.j.n H q.b M 7 M 1.w.q M e.t.P.f.). X4X).[.).J.W.2.a..X_.[.C.[.x.C.",
"C.<.w.).D I.L. XL.j.c.9.v.,.n.n.rXwXXX<.l.).[.w.W.C f.a.j.W {.XX$.C L 3.t 2.).i j.g.M w f.B W.).T W 1. X*XoX2X9.1.|.[.0XaX4Xn.0X",
"eX.Xm.j.i.p.a.l.1XeXy 5.,. .V.V.~.W.W.1.j.J g.L.oX).).p.x.e.j.=XrX=X>XL.n.w.wXoX[.d.p.$.)..XW ( }.~.Q.y.b.3.XX1.@.C.S.c.eX@X.XoX",
"|.|.7.1X.X,.X.t j.d.:.1.1.t >.yXm.b.x.@.m r.x.{.L K H [.4XtXP.:X3X:X>X X.X XeX.XOX6.w.M k [.a { ).qXj.j.>.oX*XXX0.A.r.cXv.5.6XdX",
"L.4.eXbX5X$.| 3.n.U.,Xy.t = v.;Xn.n.2.n.M 3.u 3.1.1 q L.vX3XB U.{ $X=X*Xr.W.4XOX0X2XM C.m.5X$X/ Q rX2X|.E 4X3X4X0XM.eXmX9.x.).N ",
"a.3.I [ ] 1.| C.P 1Xm + < e.E J.[.p.s.w.M 8.&.>.u &.,.b.4X4Xh.oXK J.kX>Xf.^.cXvXj.1XN.5XbX(.K J.K =XjXj.) =X[.rX|.9Xl.N.V.9XH t ",
"h.0.c.p.U.oXv.{.L 8 7 u ,.1.n. Xp.d.}.w.w.n e b q n a.J.-XG.t.! V  X^.oXh.3XfX#X#Xn.K 2X).(.>.$ W ).j. X2XoX;X2XtX1XnXtXp.m.n.3.",
"n 8 r g.W.I wX_.W w.e n t >. XOX_. XL b 2 b @ @ 2 n H 5 ; D m q.K.].#XW.^ 4XQ { %X'.K.].i.g.8.q qX9XtXwXOXbX4X<XvXtXkXmXoXyX).5.",
"d.{.1.7.d.{.V.n n y.1.w.6.w.1X6X2X{.f.4 j 6 b * e J 1.z e.r.e.i.L.P.P.U.,XP.`.&X Xw.B ( y L.A.s.r.K.xXtX|.(.3XxX<X).yX=XwXyX).9.",
"N.+X@XN.1XoX|. Xl.L f.;X>.;X).OX X+Xh.<.C * 0 c K n 0 z v g.T ~.R  X( %X&X&XdX`.>X>Xe.e J. X+XtXpX}.j.-XOX5XP.5X=Xw.rX<XdX<XK.m.",
"N.N.=X+X1XaX2X2X.X=XW J.g.>X{.=XtXo o o o o o o o 1 T E.I.u.~ T f.h.j P.=X].=XfXY.b : 1 w.] 5XxX5Xw.( jX).`.`.2X[.tXmX3Xm H.w.n.",
"V.j.J._.2X2XtX4X).'.f.'.#X2XL.o o o o o o o o o o o o o >Xu.W.f T (.(.dX#X&X=XP.1X2.%.K.r.t ;X{.).oXvXbX`.`.[ '.`.)..X=XH.q.r.K.",
"b.{.w.L.).xXdX<X{.2X2X.X:X1Xo o o o o o o o o o o o o o ' ' ' ' c N L.vX*X&X'.U.L.x.;XJ.1.3.j.y r ).bX2X2XH.g Q ;X2X2X.XG.A *.u.",
"q.I.~.b.j.;X4X X.X4X<X5Xo o o o o o p p p o o o o o o o o ' ' ' ' ' ' ' ' jX}.3 A.oXw.B R.q.C | w P B.J.W P %.k =XpX2XcXrXR.F.N ",
"u.R.e.#.q..XU.).1X4X(.o o o o o o o o p p p o o o o o o o ' o ' ' p ' ' ' ' s.B B n.W B *.+.w + : f L q.q @ *.j.cXpXjXQ.lXi.e.T.",
"'.U.R.z q.H.y.[.pX(.o o o o o p p p p o o p p p o o o o o o o o p p ' p p p ' ' M >.B i.=XE.!.o.8Xb.&.w +.5 h.tXtX<Xg.&XtXwX.Xy.",
"f.R K.; A F./.-X3Xo o o o o o o o p p p p p p p p p o o o o o o p p p p ' ' ' ' ' ' ' r.h.p.w.&.2.L %.C e.e ,Xj.Q.]./ (.2XxX<X'.",
";X-X1X!.T.F.} hXU.o o o o o o o o p p p p o o p p p o o o o o o o o p ' ' p p ' ' ' ' ' ' ' 5 1 %.b.0 h.9.C H.H.'.] (.<X3XdX:X:X",
"#X#X:XtX.XjXzX'.o o o o o p o o o o p p o o p p p o o o o o o o o o o p p p p p p ' ' ' ' ' ' n 9Xr.2.w.6.[.*X&Xf.(.7XdX=X'.3X3X",
"4X*XE H.'..X>X:Xo o o o o o p p p p p p p p p p p p p p p o o o p p o p p p p p ' ' ' ' ' ' ' ' ' n.n.1.3.jX'.( ( W pXnXkXdX'.2X",
"( tX X~ R J.4Xo o o o o o p p p p p p p p p p p p p p p p o o o o p p p p p p p ' ' p ' ' ' ' ' ' ' 1Xv.6.g.).l s.<.H.fXP.dX:X).",
"W _.(.f.P.( 4Xo o o o o p p p p o o o p p p o o p p p o o o o o o p p p p p p p ' p p ' ' p ' ' ' ' ' Z., r.T 0 r.$.F /.*X/ ~ L.",
"e. X~ _.) _ o o o o o o o o o o o p p p p o o p p p p o p o o o p p p p p p p p p p p ' p p ' ' ' ' ' ' D.1.M w f *.#. XY Y ).=X",
"E B % g.J.g.o o o o o o o o o o p p p p p p p p p p p p p o o p p o p p p p p p p p p p p p ' ' p ' ' ' ' ' 9 e - * 2 3 ~ P.P.=X",
"[.U.C g.E o o o X X o o o o o p p p p p p p p p p p p p o o o o o o p p p p p p p p p p p ' p p p ' ' ' ' ' ' 6 m O & & F.~ fX4X",
".X1XL.w.g.X o X X o o o o o p p p o p p p p o p p p p p p p o o p p p p p p p p p p p p p p p p ' ' ' ' ' ' ' ' l C &.m '.=X4X].",
"i.[ G J.s X X X o o o o o o p p o p p p p o o p p p o o p o o o o o p p p p p p p p p p p p p p p ' p p ' ' ' ' ' L @.n R #X#X X",
"f.R ].w. .X X X o X X o o o o o o p p p o o p p p p p o o o o o o p p p p p p p p p p p p p p p p p p ' ' ' ' p ' * C B ~ % #X(.",
"L.W.4XJ.J.J.X X X X X o o o o o o p p p p p p p p p p p p o o o o p p p p p p p p p p p p p p p p p p p ' ' p p ' ' h.J. Xn.'._.",
"J.[ P.].Y ( (.X X X X o X X o o p p p p p p p p p p p p o o o p p p p p p p p p p p p p p p p p p p p p p p p ' ' ' f U.&X&XJ.Q ",
"( ) k G R g.).P.X X o X X o o p p p o p o o p o o p p o o X o p o o o p p p p p p p p p p p p p p p p p p p p ' ' p ' E.D R K b ",
"( R XXj.f.n f.~ _.X X X X o p p p o o o o p p o o p o o X X o o o o o p p p p p p p p p p o p p p p p p p p o o o ' p ' G.T _ g.",
"h '.W E $.+.m ~ g.X X X X o o o o o o o o p p o o o o o X X o X o o p p p o p p p p o p p o p p p p p p p p p X X o ' ' rXf.h H.",
"f.h B W.;XN *.P p.( X X X o o o o o o o o p o o X o o X X X X X o o p o o o p o p o o o o o p o p p p p p p p p p p ' ' ' E.h.<.",
"*.u.*.'._.R f.6 G R X X X X o o X o o X o o o X X X X X X X X X X o o o o p p p o o o o o o o o p p p p p p p p . p p ' ' S Z f.",
"XXXX X4X=X*.6 m % h 4 X X X o X X o o X X X X X X X X ,.N.L.X X X X X o o o p o o o o o o o o o p p p p p p p p . p p ' L.L j g.",
"U. XkXP.'.=.#.c h.e.$.. . X X X o o X X X J..X).1X'.eX}.` 6.6.,.1.X X X o o o o o o o o X X o o p o p p p p o p . p ' p T f.b.n.",
"y.*X:X<X:XuX9X;.|.K C n . X X X o X X X E.[._.tX=XJ.n.a.A.>.2.n.4.n.L.X X X o o o o o o o X X X o o o o p p o p p p p ' '.R 6 r ",
"[.].:XP./ ;X X5 w.q.h.q.. X X X X X X | V.+X1X'.~ [..Xj.[.j.` n r n f.y.X X X o o o . . k.i.h.X X o o o p o o p p p p ' L.j.j r.",
"2X4X#X~ f.T d D U.E z q.. . X X . . >.z.j._ =X1XW.L.5XeXyXV.0.V.N.P d.y.X . X X o o . q.Q.r.T U.X X o o o o o o o o o ' `.K i.1X",
"P.H.! =XH.I.t.H.J.H.#.q.. . . X . f }.L.R N._ J.~ [.$XtX<Xj.9.a.+X{.{.i.V . . X X . . l l XXq.j XXX X X o o o o o o o ' U.Y.$X=X",
"P.T S *X'.[ (.P.) [.R.y.. . . X . o.4 K I @Xg.L.f.1X<Xi.W w.}.{.N.{.2X^ y.. . X X . I.-.f.l Y.~ oXf.X X X X X X X X X X Y.P.[ (.",
"P.3 F P.2X].] / OXN.t.t.x . . . . q.4 q..X_.6X X).tXf.M M 1.h.s.i.).).d l 4 . . . . Q.b E.f k U ].Y X X X X X X X X   X ! ~ '.vX",
"S #.! / (._ P./ '.i.;Xi.k.. . . . . t.U.'.<XtX=XoX{..Xj.6.f.g.+.C E f.q q.V ~ . . . .  Xh.b =.z.3 ~ xXX X X X X X X     *.XX4XP.",
"F.z.~ ~ =X] { Y.].J.4XL.yX;X. . . . . :XP.).=X:XJ.eX1X1X+XOX3.M U..Xy.l.y.K..X4X. . . . u.2.c 4 2. XnXfXX X . X . .     V (.<XP.",
"# v g g Z Q ( H.1X(.$X4X2X X X. . . . #X=XOX] ( J.=X;X XOXeX|.<.1.1X'.2XjXP.T k L.. . . q.m 0 * w.).vXvXX X . . . X N t.G.] ] $ ",
"u.t.c C % d J.U Q  X].H.g.U.=X:XP.] :X`.[ (.R T P. X( 4XjXH.j.<XxXg.'.=X:X$Xe.I.S  Xb.;XH.y.o.: y.V.jX=X( X X X X @.c x t.f h # ",
"<.u.L.E L l $ l S T a ^ $.y.(.fXZ U P.R W ).( J.(.[.#X&X] #Xs.].j..X# W ).U.{. Xy.[.0XXXw.n.x $.n.p.<X:Xz C j.I.K.b 4 g f.D N V ",
",.2.L q t t C - h K.T L.T.E.L.J.*XL.~ q.B P.=XU.=X#X^.`.%X#Xi.J.~ m.u }.wX1XOXtX=XxXrXnXW.w.w.w.d.9.H.*X8.}.M w.@ u b E j.L C m ",
"M L u M s.s.p.l.>.W.2.h.p.<.@.@.K.C E d.7 ! H.:XP.:X3X4X`.-XE.b j.|.oX|.j.2X|.(.5XdX=XcX1XsX[.B.p.J ).s.|.).h.8 y y 1.oXa.s.r.w.",
"q * 2 H H x.B.a.h..Xe.J.J.5 - k.M.;.n D.r hXY.L._ ].$X#XfXW 9 b E <XxX2XK -Xg.].<X1Xs.2XdX<Xh.3.{.a.N.Z.n.>.B w.L >.[.2X6Xy.5 2 ",
"0 - n p.m +.M K g.k E ( t.5 M |.c.i.s.g.h.jX].( ( .X'. X).n.!.T @.).{. XyXbX[ [ 5X=X:X5XC f.W.[.N.6X[.cX.X1X1.f.oXs.[.OX1XW.b 3 ",
"z #.8 L $.k.b.L w.L y.p.O.M @.7 g.1X).g.J ) y.K P  XtXh.,.XXj.~ w.f.9 r iX5X.X! Z  X2X;Xy.*.i.n.[.'.OX2XtX=XjXf.J.].1X=X1X-Xt.E ",
"4 3 1 N r.e.t 6.@. .c.x.e.p.>.M b._.n 7 d.vXk m n.2.M J i.j.W N @.w : * p.y.n e.S 4X6XpX;X-.D *. Xw.).tXdX'..X=X].jX.Xg.4XU.v *.",
"z <.1.b W.>.n.6.x. .m.|.}.6.M <.t 3.7 &.>.w.- > W.2...3.L 8.M }.L.E.u.r.<.+.5 N oXnXxXXXtXq.E.q.R.k.w.1X=X_.4X<X5X].].W K.qX=.N ",
"o.D n.n.s.h..X:.1.2 ,.4Xh.r.h.>.y >.t L a.q 2.q + x <.@.` j.oXs.j.H 2.>.$.q.2.y.).'.(.$XtX1X X).U.o.u.P.i.eX=X'.=X:X( B h.t.-X-.",
"zXoXyX[.2.2..X*Xq < W j.[.j.w.j x * 2 P w.$., 6 +.@ c 2.<.g.K Q y.2 $.M.=.n.6 I.f.P.[ ].5X3X#XU.).v v F.-X:X).f.:X:X-.*.1XJ.Q.q.",
"rXkX.X5X..x.J J , y >.+X).L.N N 5 - C L M j @.q N b $.@.e B e L O.K B c.s.5.h.>XP.( 7X5X3X4X&X:X XlXQ.T.#X*XL.1X'.*X>X XoX X>Xt.",
"rXtXi.4X[.|.p.E 7 >.p.tXOX{.q.q.; 0 f % M % @.@ j ).m.%.- - M l.= L m b.0X6.j.).R B =XnXkX$X2X4Xy.U.].hXgX'.T J. XpXvX4X'.>X>X!."
};
