/* XPM */
static const char *up2[] = {
/* columns rows colors chars-per-pixel */
"64 64 238 2 ",
"   c #090A14",
".  c #241527",
"X  c #341C27",
"o  c #4D2B32",
"O  c #42551F",
"+  c #4B5729",
"@  c #53592A",
"#  c #5A5735",
"$  c #5C4C33",
"%  c #675B37",
"&  c #695831",
"*  c #4B6228",
"=  c #55622D",
"-  c #5C692A",
";  c #587129",
":  c #5C6433",
">  c #5A6737",
",  c #5B7334",
"<  c #636D2F",
"1  c #65782E",
"2  c #656B34",
"3  c #6A6D35",
"4  c #65643B",
"5  c #636B3C",
"6  c #6B6C3B",
"7  c #696638",
"8  c #736D3C",
"9  c #756A3B",
"0  c #63733B",
"q  c #6D743C",
"w  c #677837",
"e  c #73733D",
"r  c #79743E",
"t  c #747C3A",
"y  c #7A7C3D",
"u  c #727836",
"i  c #716F2F",
"p  c #7A4841",
"a  c #705C45",
"s  c #6D6542",
"d  c #6C6C43",
"f  c #666742",
"g  c #736344",
"h  c #736D43",
"j  c #7C6B4D",
"k  c #786848",
"l  c #657541",
"z  c #6C7343",
"x  c #6E7944",
"c  c #697749",
"v  c #737443",
"b  c #7B7444",
"n  c #757B43",
"m  c #7B7B44",
"M  c #74744A",
"N  c #7D744B",
"B  c #747D4A",
"V  c #7C7B4B",
"C  c #7D6852",
"Z  c #6E7D52",
"A  c #7C7453",
"S  c #7D7B52",
"D  c #757B52",
"F  c #836B4C",
"G  c #827546",
"H  c #827C46",
"J  c #84744D",
"K  c #837C4B",
"L  c #8A7E4D",
"P  c #89754A",
"I  c #846C52",
"U  c #896C52",
"Y  c #847453",
"T  c #8B7553",
"R  c #847C53",
"E  c #8B7D54",
"W  c #8C755A",
"Q  c #867C5B",
"!  c #8C7C5A",
"~  c #847358",
"^  c #937B54",
"/  c #92755D",
"(  c #937C5C",
")  c #9A7A5C",
"_  c #947755",
"`  c #AD7757",
"'  c #947D62",
"]  c #9B7D63",
"[  c #967A68",
"{  c #817E61",
"}  c #688436",
"|  c #7C823E",
" . c #78883C",
".. c #738F33",
"X. c #6C834A",
"o. c #6D8447",
"O. c #748345",
"+. c #7D8344",
"@. c #75844C",
"#. c #7C844C",
"$. c #7D8B4C",
"%. c #778B44",
"&. c #7D8252",
"*. c #7D8A53",
"=. c #7A8659",
"-. c #7A9154",
";. c #728D4C",
":. c #81803E",
">. c #838344",
",. c #838B44",
"<. c #83834B",
"1. c #8A834D",
"2. c #848B4C",
"3. c #8B8B4C",
"4. c #8A8246",
"5. c #918C4C",
"6. c #94874D",
"7. c #899549",
"8. c #94934D",
"9. c #98934D",
"0. c #848454",
"q. c #8B8453",
"w. c #848B54",
"e. c #8C8B53",
"r. c #86845A",
"t. c #8D845B",
"y. c #858C5B",
"u. c #8D8B5B",
"i. c #928454",
"p. c #938B53",
"a. c #998B55",
"s. c #93835B",
"d. c #9A845C",
"f. c #938B5C",
"g. c #9B8C5C",
"h. c #998655",
"j. c #8C9353",
"k. c #859257",
"l. c #949354",
"z. c #9A9355",
"x. c #949953",
"c. c #93925B",
"v. c #9C935C",
"b. c #9C9A5B",
"n. c #959A59",
"m. c #A38C5D",
"M. c #A28959",
"N. c #A3955E",
"B. c #A39C5C",
"V. c #A79659",
"C. c #97A24D",
"Z. c #98A558",
"A. c #8DA359",
"S. c #A8A55E",
"D. c #8E8262",
"F. c #8C8B63",
"G. c #878A62",
"H. c #948362",
"J. c #9B8463",
"K. c #938B63",
"L. c #9B8B63",
"P. c #9D846A",
"I. c #9D8B6A",
"U. c #958669",
"Y. c #8C9264",
"T. c #899165",
"R. c #959463",
"E. c #9C9363",
"W. c #9B946A",
"Q. c #9C996B",
"!. c #9A9B66",
"~. c #9E8771",
"^. c #9E9672",
"/. c #A18564",
"(. c #A38C64",
"). c #A98E66",
"_. c #A1836A",
"`. c #A48C6B",
"'. c #AA8D6C",
"]. c #A39364",
"[. c #A99365",
"{. c #A39A64",
"}. c #AB9C66",
"|. c #A4936B",
" X c #AB946C",
".X c #A59B6B",
"XX c #AB9B6B",
"oX c #B3956E",
"OX c #B39A6C",
"+X c #B39768",
"@X c #A58C72",
"#X c #AA8D73",
"$X c #A48A77",
"%X c #A59372",
"&X c #AC9473",
"*X c #A49A73",
"=X c #AC9B73",
"-X c #AD947A",
";X c #AD9B7A",
":X c #A2997B",
">X c #B29574",
",X c #B39B74",
"<X c #B99D75",
"1X c #B2957A",
"2X c #B39B7B",
"3X c #BA9C7C",
"4X c #B89670",
"5X c #B6896A",
"6X c #9EA164",
"7X c #A8A268",
"8X c #B2A26D",
"9X c #ADA174",
"0X c #B4A371",
"qX c #BAA273",
"wX c #B4A27B",
"eX c #BCA37C",
"rX c #BDAA7D",
"tX c #B9A877",
"yX c #AAB274",
"uX c #C2A47C",
"iX c #C4AA7A",
"pX c #C5B27F",
"aX c #BA9D82",
"sX c #B49B84",
"dX c #AD9F81",
"fX c #B5A382",
"gX c #BCA482",
"hX c #BEA689",
"jX c #AAA783",
"kX c #C2A583",
"lX c #C4AB84",
"zX c #C4AA8B",
"xX c #CAA886",
"cX c #CBB387",
"vX c #C9AC91",
"bX c #D3B48E",
"nX c #E3BD8A",
"mX c #E8C692",
/* pixels */
"K.I.-X) d.1.V E s.g.v.XX2X,XQ.S 6 z 6 q w.u 1 q N ;Xe.2.x.1 1  .t - t x.B.5.1.~ n n.r.:XU.@X] &X,X! _ '.-X( v m <XnXmX=XL.gX=X=X",
"|.L.H. XXX[.,Xg.s.s.'.).J.uXI.X.S l w.v.3.e.y H f.~ R.c.%. .1 | u ..$.[.h.b.1.#.: w.@./.W /.&XK J.d.' _.3X Xu.K.^ ].nXOXOXR.=X=X",
" XgXN.H iX<X1X'.E `.2X,Xd.K wX^.=.X.*.g.OX<.3 6 v..XW.q.$.w.q  .| M A.<.e N V - m = @ s J.P.' f.s (./.`.3Xf. XOX2X7XeXlXs.H.^.W.",
"wXH.d.[.,XeX3X).xX2X'.-Xs.E t.K.0.y.fXeXeXg.| m ` ` P.t.M @.0 3 q ; 6X} >.1.8 2.N : w *.s.2X&XL.K s.' ' 3X<X XXX,X=XeX X,XwX@XeX",
"}.g.L f.(.,X>X).2XP.'.@XM 0.    X X ` ` ` ` p ` ` ` ` ` 0.*.0 l.{.s.K <.n m 3 2 7 0.n J %X%X(.&X(..XJ.'./.=X).2 ,XwX=X,XwX.Xz.V.",
"}..X|.e.0.`.f.eX).L.v.|.R.u.      X o o p p ` p p ` ` p ` e.j.g.b G 0.v m 8 m 1.q.q m e.r.U.h./. X2X/.].(.J.E.2.h. X).].B.].l.B.",
"B.1.q.(.S K.L.|.L.g.z.9.x.X . X X X o o p p p p p p o ` p ` ` .X#.V K 3.t 7.(.i g.d.m w s.N E./.Y E 1.|.%XXX<X8.1.}.].8XpX2Xv.8X",
"qX Xb.g.u.i.h.j.,XqXy 6.X . . X X X o o p p . . . p X o ` ` ` ` ` &X;XL.v.q.0XXX].a.h.#.(. XE ( {.!.W.t.c.3.Q.4.+.B.C.z.qX+X X}.",
"}.}.6.,X X,...y g.a.:.1.X . X X X X o o p p p p p p X o ` ` p p ` ` =X X X X<X XoX5.q.m j ].a [ (.9Xg.g.>.XX%X.X8.Z.e.lXx.6.4XaX",
"L.4.qXxX3X#.} 3.v.I.:Xt.X . . X X X o o o o o p p p p o p p p ` ` ` ` %Xe.E.1XOX8X<Xm B.b.3X#X/ W wX<X}.R 2X1X2X8Xx.qXbX8.l.(.M ",
"h.3.P ] ' 1.} B.L ,Xn + X X X X X X o o o p p p p p p p p p ` ` ` ` ` ` s.~.lXzXg.,Xm.3XxX/.J J.J &XgXg.( &X].wX}.7Xj.m.V.7XG t ",
"f.9.z.i.I.XXx.[.K 8 8 u ,.X X X X X o o p p p p p p p p p p ` ` ` ` ` ` f.1XsX@X@Xv.J <X(./.>.$ E (.g.|.<XXX=X<XeX,XvXeXi.b.v.2.",
"b 9 r d.E.H 0X).E q.e b t >. XX X X X o o o p p p p p p p p p ` p ` ` ` ` 2XW [ $X`.K.'.u.s.7.q 9X7XeX0X+XlX2X>XzXeXhXbXXXtX(.6.",
"a.[.4.6.a.V.N.b b t.1.q.6.q.,X4XX X X o o o p p p p p p p p p p p ` ` ` ` ` $X$X|.q.N ( y L.Z.p.e.L.kXeX}./.1XkX1X(.rX&X0XeX(.9.",
"m.OX+Xm.,XXX}. Xj.K s.=X>.=X(.oX XOXX X o o o p p p p p p p p p ` ` ` ` ` ` ` _.;X-Xw.e J.|.OXeXiX{.g.*XoX3XP.3X&Xi.wX>XaX>XK.b.",
"m.m.&X4X,XpX<X<X X XE J.d.;X[.&XeX XQ.X X o p p p p p p p p p p p ` p p ` ` ` ` H.v , 7 q.' 3XkX3Xq.( gX(._._.<X].eXbX1Xn H.q.v.",
"N.g.J.).4X<XeX2X/.`.s.`.@X<XL.! uXgXK.c X X o o o o p p p p p p p p p ` ` ` ` ` <X2.$.K.e.t ,X[.(.XXzXxX_.`.] `._.(. X&XH.0.w.K.",
"c.[.q.L.(.kXaX>X[.<X<X X-X,X,Xd.E =XW.X.D X o o o p p p p p p p p p p ` ` ` ` ` ` l.=XJ.1.3.g.y r (.xX<X<XH.f W =X<X<X XF.Z &.y.",
"0.K.!.c.g.=X2X X X1X4X3X>X'.P.E E L.;X;X=.X X o o o o o p p p p p p ` p p p ` ` ` ` q.N G.0.V } w L M.J.E L $.j &XuX<XlXwXT.F.M ",
"y.T.w.@.0. XI.(.,X3X/.~.`.-Xs.Y E t.R ^.V o X o o o p p p p p p p p p p p ` ` ` ` ` E N &.O.0 + > d K 0.q @ &.g.lXuXgXW.gXu.w.Y.",
"`.I.T.l 0.H.t.|.uX(.(.&X&X. . 5 W.2XI.K.. o o o o o p p p p p p p p p p ` ` ` ` ` ` N u.&XR.Q.X.6Xc.+.w O.7 f.eXeX>Xd.#XeX0X Xt.",
"s.T L.> Z F.^.*X1X(.L.|.1X. . . |.,X. . . o o o o o o p p p p p p p p p p p p ` ` ` ` e.f.i.q.%.2.K $.V w.e :Xa.W.'./ (.<XkX>X`.",
"=X*X,XQ.Y.F.{ fXI.L. X2XJ.. . . . . . o o o o o o o p p p p p p p p p p p p ` ` ` ` ` q.s.J.6 2 $.c.0 f.5.V D.H.`.' /.>X1XaX-X-X",
"@X@X=XeX XgXjX`.,X/.I &X=XuX. . . X X o o o o o o p p p p p p p p p p p p ` ` ` p ` ` ! ! r.6 n 7Xe.2.e.5.|.%X$Xs./.5XaX&X`.1X1X",
"3X%XR H.`. X;X-XF I J h.<XcXnX. . X X X o o o o p o p p p p p p p p p p p p p p p ` ` ` i.o.h R G v.v.1.3.gX`.( ( E uXvXhXaX`.<X",
"( wX X! T J.2X;XJ.V O.3.d.iXnXmX. . . X X o o p p p p p p p p p p p p p p p p p p p ` ` Z.< K v <.c.<Xx.5.s./.k e.<.H.sXP.aX-X/.",
"E )./.h.P.( 2X;X(.0Xs.`.d.>.rXcXlX. . . X X o o p o o p p p p p p p p p p p p p p p ` p ` 1 - -  .x.l.V.1 e.Y 0 e.#.D ^.%X/ ! L.",
"w.|.! ).( _ &X1Xg.g.).OXeX.XcX4X,X|.s.X X X o o o o p p p p p p p p p p p p p p p ` ` p ` ` } ; q K XX8.S.1.m w d &.@.|.U U (.&X",
"R N & d.J.d.I.1XeX XwX X,XgXfX,XOX,XeX,X] X X o o o p p p p p p p p p p p p p p p ` p p ` ` C.C.j.g.i.H XXc.0 e : = 2 4 ! P.P.&X",
"].I.V s.R H.U.1X=X Xs.R gXgX2X X<X>XlXrXcX[.X X o p p o o p p p p p p p p p p o o p p ` ` ` b y.A.$.3 n b n 3 3 m O * * F.! sX1X",
" X,XL.q.d.J.#X`.).wXq., (.wX`.=XgX X`.wXbX<XX X o o o o o p p p o p o o p p p p o o p p p ` * 0 yX; ..1.1.h K 6 j V %.n `.&X2X'.",
"u.] F J.a J. XJ.I.J.f.B f.|.(./.d. XE.rX<X[.8XX X o o o o p o o o p o p p o o p o o p p ` ` <.f.h. .7.3 m < } : 3 K +.v T @X@X|.",
"h.T '.u.| ^ _ s.t.s.].u.f.,X XL. XrXR. X=X(.qXX X X X o p p o o o o o p o o o o o o o o ` ` ` Y R n b a.a.w u n h = N N ! % @X/.",
"L.E.2XU.J.J.^ s.(.].].h.p.M.^ E d.( c.v.H.s.iXX X X o o o o o o o o o o o o o o o o o o o ` ` b f.x r y u u 3 v 3 #.f.J. Xv.`.).",
"J.] P.'.U ( /.( (.(.% d.: b J.f.v x 8 b v d ^ =XX X X X X o o o o p o o o o o o o o o o ` ` ` V R f.t t  .- y w - @ d I.#X#XJ.W ",
"( ) j F T s.(.J.( d.h L V 6 m.f.0.q V K c c V h X X X X o o p o p p o p p o p p o o o o o o ` `.9X2Xz.a.>.v.,.} n 7X!.R.S T Y z ",
"( T .Xg.s.N s.! ).^ f.g.h v s.s.s.z #.{.R.-.x c.X X o o o p p o o p p p o o p p o o o o o o o o %Xt.E.{.j.}.8 @ V A d s D.Y ^ d.",
"g /.E R #.O.B E d.(.Y e.$.q P P s.*.N  XXXXXW.X X o o o p p p p o p p p p p p p o o o o o o o o =XL.=Xe.K <.4.m e.Q.R.9XwXs.g H.",
"s.g N W.=XM &.L h.( &.@ > M c.q.t.# V L.[.3X,XX X o o p p p p p p p p p p p p p o p p o o o o o eXwXwXj.v.>.,.|.0.*XfX4XH.R.K.<.",
"&.y.&.`.).T s.7 G T n V @ q.h.& G <.@ # d. XJ.X X X o o o p p p p p p p p p p p p p p o o o o o o ,XXXR.N.f.t u.E.L.' J.`.A k s.",
".X.X|.2X&X&.7 n & g 5 z o.q.n *.q.q.B *.V ( s.X X o o o o p p p p p p p p o p p p p p p o o o o o 2XE O.,X}.v t.3XzXXXH.I.K h d.",
"I. XhXU.`.*.@.c f.w.#.O.q 1.+XP g (.R d f.J. XX o o p p p p p p o o p p o o p p p o p p o o o o o wXw.f.].L s.[./.[ ] J.Y s.c.v.",
"i.&X-X>X-XyX7X;.}.J V v <.P [.R & & K n E.].).X o p p p o p p o o p p p o p p p o o p p p o o o o #XE.u.(.2. X) `.] ) >X`.T 6 r ",
"].'.-XU./ =X`.6 q.0.f.0.b T # : : i.>.} N.OXX X o o o o o p p o p p p p p p p p o p p o p p o o o |.|.&X`.'.[.% I ] U F L.g.h e.",
"<X2X@X! s.Y s S I.R l 0.&.# 5 q , +.>.j.g.X X X X o o o p p p p p p p p p p p p p p p o p p o o o ( ;XW.E / ! Y M F /.'._.G u.,X",
"P.H.Q &XH.I.r.H.J.H.@.0.E.. . #.0 d {.L.X X X o o o o o o p p p p p p p p o p p p p p p o p o o o 9 [ H.|.k j K f.0.C ] I.H.#X&X",
"U.Y A %X`.] (.U.) [.T.t.Y . . . q.X.5 . X X o o o o o o p p p p p o p p p o p p o p p p o o o o o s.#X:XQ K.j.g T S M ' H.P.] _.",
"U.4 D P.<X'.' / oXm.r.r.z . . . . . . . X o o X X o o p p p o o o p p p o o p p o o o p o o o o '.U 2XgX!.N y.f R W.w.D.Q ! `.zX",
"A @.Q / /._ P./ `.u.=Xu.k.. . . . X X X X X X X o o o p p o o o p p p o o p p p o o o p o o o o % ! kXfXf.B % v I.U.@X%X&..X1XP.",
"F.k.! ! >X' [ H.'.J.2XL.rX=X. . . . . X X X X o o o o p o o o o p p o o o p p p o o o o o o o 5 2. XvXsXf.x @.@.K.! C ' B (.>XP.",
"# c f f C W ( H.<X(.@X3X<X|.|.. . . . . X X X X X o o o o X o o o o o o o p p o p o o o o o 0 = q.(.zXzX&X.XV w.N S M r.G.' ' $ ",
"w.r.x V % s J.I W  X'.H.d.I.&X-XP.. . . . . . X X X X X X X o o o o o o o p o o o o o o o o X., t.N.gX&X( D.u.>.,.+.x z r.d g # ",
"<.y.L.R K M $ j A ~ a T #.t./.sXC I P.T E /.. X X X X X X o o o o o o o o o o o o o o o o v.z #.v.i.>X-Xl V L.U.K.v 5 f s.S M B ",
",.<.K q t e V : g K.Y L.Y.R.L.J.%XL.! 0.N P.&XI.X X X X o X X X o o o o o o o o o o o o E.q.q.q.a.8.H.|.7.{.m q.@ u v R g.K V n ",
"m K u m p.p.h.j.<.E.3.f.i.<.+.+.L.V R p.8 Q H.-XP.-XX X X X X X o o X o o o o o o o o lX,XpX].M.i.H (.p.}.(.f.8 y r 1.XXh.p.e.q.",
"q = 2 G G l.V.h.f. Xe.J.J.6 : k.n.-.v S.r fXH.L.( '.#X@XX X X o o X X o o o o o o ,Xp.<XaX>Xf.3.[.h.m.V.v.>.N q.K >.|.<X4Xt.6 2 ",
"0 : b i.n O.m J d.j R ( r.6 m }.z.u.p.d.f.gX'.( (  X`. X(.X X X X X o o o o o ] 3X&X=X3XV ( E.].m.4X[.lX X,X1.s.XXp.|.oX,XE.v 4 ",
"l @.9 K #.k.c.K q.K t.i.o.m +.8 s.,X(.d.H ) t.J L |.eXf.,..XX X X o o o o 3X XQ C |.<X=Xt.&.u.E.].`.oX<XeX&XgXs.J.'.,X&X,X*Xr.R ",
"6 4 7 M w.w.t 5.+.| z.l.w.i.>.m c.).b 8 6.zXj n v.2.m H u.g.E X X X o = i.t.b w.A 1X4XuX*X=.S &. Xq.(.eXaX`. X&X'.gX Xd.2XI.c &.",
"l <.1.n E.>.v.5.l. .b.}.{.5.m 1.t 2.8 %.,.q.: , E.2. .3.K 7.m {.L.R.y.e.<.O.6 M XXvXkX.XeX0.R.w.T.k.q.,X&X).1X>X3X'.'.E L.wX=.c ",
"X.S v.v.p.f. X:.1.2 ,.2Xf.w.f.>.y <.e K h.q 2.q + z <.+.^ g.XXp.g.G 2.<.#.0.<.t.(.`./.#XeX,X|.(.I.X.y.U.u.qX&X`.&X-X( N f.r.*X=.",
"jXXXeX].<.2. X|.q 1 E g.].g.q.h z = 2 L q.#.< 6 O.+ x 2.1.d.J W t.2 #.n.*.v.3 U.s.P.J.'.3X1X@XI.(.c c F.*X=X(.s.=X-X=.&.,XJ.W.0.",
"wXhX X3X .l.H H 3 y >.OX(.L.M M 6 : V K m h +.q b v #.+.e N e K o.J N z.p.6.f.-XP.( 5X3X1X2X#X=X|.gXW.Y.@X%XL.1X`.%X;X|.XX|.;Xr.",
"wXeXu.2X].}.i.0.8 >.i.eXoX[.0.0.> 0 d : m % m @ h (.b.$.: : m j.- K B c.8X5.g.(.T N &XvXhX#X<X2Xt.I.'.fXdX`.Y J.|.iXzX1X`.;X;XQ."
};
