/* XPM */
static const char *_[] = {
/* columns rows colors chars-per-pixel */
"64 64 135 2 ",
"   c #F60606",
".  c #F80101",
"X  c #F50808",
"o  c #F80C0C",
"O  c #EF1616",
"+  c #ED1D1E",
"@  c #F11314",
"#  c #F91212",
"$  c #F21919",
"%  c #F91A1A",
"&  c #EB2323",
"*  c #E62E2E",
"=  c #EC2B2C",
"-  c #F12121",
";  c #F92424",
":  c #F52929",
">  c #F92B2B",
",  c #E52F30",
"<  c #EB2F30",
"1  c #E43434",
"2  c #E23A3B",
"3  c #ED3C3C",
"4  c #F73131",
"5  c #F93636",
"6  c #FA3838",
"7  c #DE4242",
"8  c #DB4A4B",
"9  c #CF5555",
"0  c #CB5C5C",
"q  c #D65353",
"w  c #D85050",
"e  c #D55758",
"r  c #D45C5C",
"t  c #DC5C5C",
"y  c #E24546",
"u  c #EE4A4A",
"i  c #FA4242",
"p  c #F44949",
"a  c #FA4B4B",
"s  c #F35050",
"d  c #FA5252",
"f  c #F55E5E",
"g  c #FA5C5C",
"h  c #C96767",
"j  c #C36B6B",
"k  c #CD6D6E",
"l  c #D16465",
"z  c #D76E6E",
"x  c #D86A6A",
"c  c #CA7374",
"v  c #C97778",
"b  c #C77C7D",
"n  c #D47879",
"m  c #F56767",
"M  c #FB6464",
"N  c #FB6D6D",
"B  c #E47F7F",
"V  c #EF7D7D",
"C  c #F17777",
"Z  c #FB7373",
"A  c #F67A7A",
"S  c #FA7C7C",
"D  c #AE9797",
"F  c #B09292",
"G  c #BE9293",
"H  c #BB9B9C",
"J  c #B6A6A7",
"K  c #B8A2A3",
"L  c #B4A9AA",
"P  c #A1B1B1",
"I  c #A6B8B9",
"U  c #A9BBBC",
"Y  c #C48484",
"T  c #C28A8B",
"R  c #C19191",
"E  c #F58686",
"W  c #FC8686",
"Q  c #F38B8B",
"!  c #FC8B8B",
"~  c #EC9191",
"^  c #EA9798",
"/  c #EF9B9C",
"(  c #FC9494",
")  c #FC9C9C",
"_  c #C3B0B1",
"`  c #EAA1A1",
"'  c #FDA6A6",
"]  c #FDAAAA",
"[  c #FDB4B4",
"{  c #FDBBBB",
"}  c #ABBFC0",
"|  c #ACC0C1",
" . c #B2C5C6",
".. c #B5C7C8",
"X. c #B8C8C9",
"o. c #B9C9CA",
"O. c #BACBCC",
"+. c #BBCBCC",
"@. c #FDC0C0",
"#. c #FDC1C1",
"$. c #FDC4C4",
"%. c #FDC5C5",
"&. c #FECBCB",
"*. c #FECCCC",
"=. c #FECECE",
"-. c #FECFCF",
";. c #FED0D0",
":. c #FED1D1",
">. c #FED2D2",
",. c #FED3D3",
"<. c #FED4D4",
"1. c #FED6D6",
"2. c #FED7D7",
"3. c #FED8D8",
"4. c #FED9D9",
"5. c #FEDADA",
"6. c #FEDCDC",
"7. c #FEDDDD",
"8. c #FEDFDF",
"9. c #FEE2E2",
"0. c #FEE4E4",
"q. c #FEE5E5",
"w. c #FEE6E6",
"e. c #FEE8E8",
"r. c #FEEBEB",
"t. c #FEECEC",
"y. c #FFEEEE",
"u. c #FFF0F0",
"i. c #FFF3F3",
"p. c #FFF4F4",
"a. c #FFF5F5",
"s. c #FFF7F7",
"d. c #FFF9F9",
"f. c #FFFBFB",
"g. c white",
/* pixels */
"| | | | | | | | | | | | | | | | | | | | | | | | | | | | | | | | | | | | | | | | | | | | | | | | | | | | | | | | | | | | | | | | ",
"| | | | | | | | | | | | | | | | | | | | | | | | | | | | | | | | | | | | | | | | | | | | | | | | | | | | | | | | | | | | | | | | ",
"| | | | | | | | | | | | | | | | | | | | | | | | | | | | | | | | | | | | | | | | | | | | | | | | | | | | | | | | | | | | | | | | ",
"| | | | | | | | | | | | | | | | | | | | | | | | | | | b * + @ . X + * 8 H | | | | | | | | | | | | | | | | | | | | | | | | | | | ",
"| | | | | | | | | | | | | | | | | | | | | | | | Y 1 % S #.1.e.g.i.8.#.) ^ 5 + k | | | | | | | | | | | | | | | | | | | | | | | | ",
"| | | | | | | | | | | | | | | | | | | | | | c & d { g.g.g.g.g.g.g.g.g.g.g.g.5.E - l | | | | | | | | | | | | | | | | | | | | | | ",
"| | | | | | | | | | | | | | | | | | | | Y 1 d :.g.g.g.g.g.g.g.g.g.g.g.g.g.g.g.g.0.f 7 G | | | | | | | | | | | | | | | | | | | | ",
"| | | | | | | | | | | | | | | | | | | k = { g.g.g.g.g.g.g.g.g.g.g.g.g.g.g.g.g.g.g.g.' 8 c | | | | | | | | | | | | | | | | | | | ",
"| | | | | | | | | | | | | | | | | | r : 1.g.g.g.g.g.g.g.g.g.g.g.g.g.g.g.g.g.g.g.g.g.g.=.3 k | | | | | | | | | | | | | | | | | | ",
"| | | | | | | | | | | | | | | | | c 3 e.g.g.g.g.g.g.g.g.g.g.g.g.g.g.g.g.g.g.g.g.g.g.g.g.5.= T | | | | | | | | | | | | | | | | | ",
"| | | | | | | | | | | | | | | | R y :.g.g.g.g.g.g.g.g.g.g.g.g.g.g.g.g.g.g.g.g.g.g.g.g.g.g.[ 2 | | | | | | | | | | | | | | | | | ",
"| | | | |  .+.+.+.+.+.+.+.+.+.+.y ] g.g.g.g.g.g.g.g.g.g.g.g.g.g.g.g.g.g.g.g.g.g.g.g.g.g.g.g.S e | | | | | | | | | | | | | | | | ",
"| | | | | ..+.+.+.+.+.+.+.+.+.z m g.g.g.g.g.g.g.g.g.g.g.g.g.g.g.g.g.g.g.g.g.g.g.g.g.g.g.g.g.f.: b | | | | | | | | | | | | | | | ",
"| | | | | ..+.+.+.+.+.+.+.+.+.$ 8.g.g.g.g.g.g.g.g.g.g.g.g.g.g.g.g.g.g.g.g.g.g.g.g.g.g.g.g.g.g.$.* | | | | | | | | | | | | | | | ",
"| | | | | ..+.+.+.+.+.+.+.+.x S g.g.g.g.g.g.g.g.g.g.g.g.g.g.g.g.g.g.g.g.g.g.g.g.g.g.g.g.g.g.g.g.6 G | | | | | | | | | | | | | | ",
"| | | | | ..+.+.+.+.+.+.+.+.@ 0.g.g.g.g.g.g.g.g.g.g.g.g.0.A i # % a W g.g.g.g.g.g.g.g.g.g.g.g.g.' 7 | | | | | | | | | | | | | | ",
"| | | | | ..+.+.+.+.+.+.+._ B g.g.g.g.g.g.g.g.g.g.g.g.( w 0 P P P L r ; =.g.g.g.g.g.g.g.g.g.g.g.a.  | | | | | | | | | | | | | | ",
"| | | | | ..+.+.+.+.+.+.+.t ! g.g.g.g.g.g.g.g.g.g.g.W 9 F P P P I | | c * =.g.g.g.g.g.g.g.g.g.g.g.6 | | | | | | | | | | | | | | ",
"| | | | | ..+.+.+.+.+.+.+.& =.g.g.g.g.g.g.g.g.g.g.1.& L U U U U | | | | c u g.g.g.g.g.g.g.g.g.g.g.Z H | | | | | | | | | | | | | ",
"| | | | | ..+.+.+.+.+.+.+.@ 0.g.g.g.g.g.g.g.g.g.g.M c | | | | | | | | | | 1 { g.g.g.g.g.g.g.g.g.g.) 8 | | | | | | | | | | | | | ",
"| | | | | ..+.+.+.+.+.+.+.. g.g.g.g.g.g.g.g.g.g.g.# | | | | | | | | | | | Y Q g.g.g.g.g.g.g.g.g.g.[ 2 | | | | | | | | | | | | | ",
"| | | | | ..+.+.+.+.+.+.+.# g.g.g.g.g.g.g.g.g.g.g.. | | | | | | | | | | | | i g.g.g.g.g.g.g.g.g.g.=.& | | | | | | | | | | | | | ",
"| | | | | ..+.+.+.+.+.+.+.% g.g.g.g.g.g.g.g.g.g.a.X | | | | | | | | | | | | 6 g.g.g.g.g.g.g.g.g.g.5.+ | | | | | | | | | | | | | ",
"| | | | | ..+.+.+.+.+.+.+.% g.g.g.g.g.g.g.g.g.g.a.X | | | | | | | | | | | | 6 g.g.g.g.g.g.g.g.g.g.5.+ | | | | | | | | | | | | | ",
"| | | | |  .+.+.+.+.+.+.+.% g.g.g.g.g.g.g.g.g.g.a.X | | | | | | | | | | | | 6 g.g.g.g.g.g.g.g.g.g.5.+ | | | | | | | | | | | | | ",
"| | | | | |  . . . . . . .% g.g.g.g.g.g.g.g.g.g.a.X | | | | | | | | | | | | 6 g.g.g.g.g.g.g.g.g.g.5.+ | | | | | | | | | | | | | ",
"| | | | | | | | | | | | | % g.g.g.g.g.g.g.g.g.g.a.X | | | | | | | | | | | | 6 g.g.g.g.g.g.g.g.g.g.5.+ | | | | | | | | | | | | | ",
"| | | | | | | | | | | | | % g.g.g.g.g.g.g.g.g.g.a.X | | | | | | | | | | | | 6 g.g.g.g.g.g.g.g.g.g.5.+ | | | | | | | | | | | | | ",
"| | | | | | | | | | | | | % g.g.g.g.g.g.g.g.g.g.a.X | | | | | | | | | | | | 6 g.g.g.g.g.g.g.g.g.g.5.+ | | | | | | | | | | | | | ",
"| | | | | | | | | | | | | % g.g.g.g.g.g.g.g.g.g.a.X | | | | | | | | | | | | 6 g.g.g.g.g.g.g.g.g.g.5.+ | | | | | | | | | | | | | ",
"| | | | | | | | | | | | | % g.g.g.g.g.g.g.g.g.g.a.X | | | | | | | | | | | | 6 g.g.g.g.g.g.g.g.g.g.5.+ | | | | | | | | | | | | | ",
"| | | | | | | | | | | | | % g.g.g.g.g.g.g.g.g.g.a.X | | | | | | | | | | | | 6 g.g.g.g.g.g.g.g.g.g.5.+ | | | | | | | | | | | | | ",
"| | | | | | | | | | | | | % g.g.g.g.g.g.g.g.g.g.a.X | | | | | | | | | | | | 6 g.g.g.g.g.g.g.g.g.g.5.+ | | | | | | | | | | | | | ",
"| | | | | | | | | | | | | % g.g.g.g.g.g.g.g.g.g.a.X | | | | | | | | | | | | 6 g.g.g.g.g.g.g.g.g.g.5.+ | | | | | | | | | | | | | ",
"| | | | | | | | | | | | | % g.g.g.g.g.g.g.g.g.g.a.X | | | | | | | | | | | | 6 g.g.g.g.g.g.g.g.g.g.5.+  . . . .| | | | | | | | | ",
"| | | | | | | | | | | | | % g.g.g.g.g.g.g.g.g.g.a.X | | | | | | | | | | | | 6 g.g.g.g.g.g.g.g.g.g.5.+ +.+.+.+.+. .| | | | | | | ",
"| | | | | | | | | | | | | % g.g.g.g.g.g.g.g.g.g.a.X | | | | | | | | | | | | 6 g.g.g.g.g.g.g.g.g.g.5.+ +.+.+.+.+...| | | | | | | ",
"| | | | | | | | | | | | | % g.g.g.g.g.g.g.g.g.g.a.X | | | | | | | | | | | | 6 g.g.g.g.g.g.g.g.g.g.5.+ +.+.+.+.+...| | | | | | | ",
"| | | | | | | | | | | | | % g.g.g.g.g.g.g.g.g.g.a.X | | | | | | | | | | | ..6 g.g.g.g.g.g.g.g.g.g.5.+ +.+.+.+.+...| | | | | | | ",
"| | | | | | | | | | | | | % g.g.g.g.g.g.g.g.g.g.a.X | | | | | | | | | |  .+.6 g.g.g.g.g.g.g.g.g.g.5.+ +.+.+.+.+...| | | | | | | ",
"| | | | | | | | | | | | | % g.g.g.g.g.g.g.g.g.g.a.X | | | | | | | | | |  .+.6 g.g.g.g.g.g.g.g.g.g.5.+ +.+.+.+.+...| | | | | | | ",
"| | | | | | | | | | | | | % g.g.g.g.g.g.g.g.g.g.a.X | | | | | | | | | |  .+.6 g.g.g.g.g.g.g.g.g.g.5.+ +.+.+.+.+...| | | | | | | ",
"| | | | | | | | | | | | | % g.g.g.g.g.g.g.g.g.g.a.X | | | | | | | | | |  .+.6 g.g.g.g.g.g.g.g.g.g.1.& +.+.+.+.+. .| | | | | | | ",
"| | | | | | | | | | | | |   g.g.g.g.g.g.g.g.g.g.g.. | | | | | | | | | |  .+.a g.g.g.g.g.g.g.g.g.g.$.* o.o.o.o.o.| | | | | | | | ",
"| | | | | | | | | | | | | X i.g.g.g.g.g.g.g.g.g.g.> | | | | | | | | | |  .n Q g.g.g.g.g.g.g.g.g.g.] 7 | | | | | | | | | | | | | ",
"| | | | | | | | | | | | | + 8.g.g.g.g.g.g.g.g.g.g.S r | | | | | | | | |  .& :.g.g.g.g.g.g.g.g.g.g.! w U U U U U U } | | | | | | ",
"| | | | | | | | | | | | | 7 ] g.g.g.g.g.g.g.g.g.g.t.$ Y | | | | | | | | r g g.g.g.g.g.g.g.g.g.g.g.Z D P P P P P P P U | | | | | ",
"| | | | | | | | | | | | | G ~ g.g.g.g.g.g.g.g.g.g.g.[ 1 c | | | | | | w > i.g.g.g.g.g.g.g.g.g.g.g.; P P P P P P P P I | | | | | ",
"| | | | | | | | | | | | | | > g.g.g.g.g.g.g.g.g.g.g.g.=.u 2 T | J e & M g.g.g.g.g.g.g.g.g.g.g.g.=.& P P P P P P P P U | | | | | ",
"| | | | | | | | | | | | | | & &.g.g.g.g.g.g.g.g.g.g.g.g.g.[ / d g ! =.g.g.g.g.g.g.g.g.g.g.g.g.g.S j P P P P P P P P U | | | | | ",
"| | | | | | | | | | | | | | v C g.g.g.g.g.g.g.g.g.g.g.g.g.g.g.g.g.g.g.g.g.g.g.g.g.g.g.g.g.g.g.t.$ P P P P P P P P P U | | | | | ",
"| | | | | | | | | | | | | | | O 9.g.g.g.g.g.g.g.g.g.g.g.g.g.g.g.g.g.g.g.g.g.g.g.g.g.g.g.g.g.g.N 9 P P P P P P P P P U | | | | | ",
"| | | | | | | | | | | | | | | l s g.g.g.g.g.g.g.g.g.g.g.g.g.g.g.g.g.g.g.g.g.g.g.g.g.g.g.g.g.5.+ P P P P P P P P P P U | | | | | ",
"| | | | | | | | | | | | | | | | r W g.g.g.g.g.g.g.g.g.g.g.g.g.g.g.g.g.g.g.g.g.g.g.g.g.g.g.a.4 h P P P P P P P P P P U | | | | | ",
"| | | | | | | | | | | | | | | | L r { g.g.g.g.g.g.g.g.g.g.g.g.g.g.g.g.g.g.g.g.g.g.g.g.g.g.a e I P P P P P P P P P P U | | | | | ",
"| | | | | | | | | | | | | | | | | Y 2 :.g.g.g.g.g.g.g.g.g.g.g.g.g.g.g.g.g.g.g.g.g.g.g.g.Z w | I P P P P P P P P P P U | | | | | ",
"| | | | | | | | | | | | | | | | | | c < { g.g.g.g.g.g.g.g.g.g.g.g.g.g.g.g.g.g.g.g.g.f.g w | | | I I I I I I I I I I | | | | | | ",
"| | | | | | | | | | | | | | | | | | | Y 1 S g.g.g.g.g.g.g.g.g.g.g.g.g.g.g.g.g.g.g.0.p w | | | | | | | | | | | | | | | | | | | | ",
"| | | | | | | | | | | | | | | | | | | | | w ; $.g.g.g.g.g.g.g.g.g.g.g.g.g.g.g.0.A $ l | | | | | | | | | | | | | | | | | | | | | ",
"| | | | | | | | | | | | | | | | | | | | | | b * a ' g.g.g.g.g.g.g.g.g.g.g.{ V @ l | | | | | | | | | | | | | | | | | | | | | | | ",
"| | | | | | | | | | | | | | | | | | | | | | | | G 7 o a W { #.#.[ ' ( ` % 1 Y | | | | | | | | | | | | | | | | | | | | | | | | | ",
"| | | | | | | | | | | | | | | | | | | | | | | | | | | L r 1 , , 1 7 w K | | | | | | | | | | | | | | | | | | | | | | | | | | | | ",
"| | | | | | | | | | | | | | | | | | | | | | | | | | | | | | | | | | | | | | | | | | | | | | | | | | | | | | | | | | | | | | | | ",
"| | | | | | | | | | | | | | | | | | | | | | | | | | | | | | | | | | | | | | | | | | | | | | | | | | | | | | | | | | | | | | | | "
};
