/* XPM */
static const char *_[] = {
/* columns rows colors chars-per-pixel */
"64 64 97 2 ",
"   c #ACC0C1",
".  c #D85050",
"X  c #FA4040",
"o  c #F91F1F",
"O  c white",
"+  c #F80505",
"@  c #FA3939",
"#  c #A7B9BA",
"$  c #A4B5B6",
"%  c #A3B4B4",
"&  c #C17474",
"*  c #F08888",
"=  c #AABEBF",
"-  c #A1B1B1",
";  c #E42929",
":  c #FDC4C4",
">  c #AABDBE",
",  c #BA7E7E",
"<  c #E45959",
"1  c #ADC1C2",
"2  c #AEC1C2",
"3  c #DE3434",
"4  c #FDB4B4",
"5  c #B0C3C4",
"6  c #BACBCC",
"7  c #BBCBCC",
"8  c #B7C8C9",
"9  c #D44A4A",
"0  c #FB6262",
"q  c #B5C7C8",
"w  c #D34A4A",
"e  c #FA5A5A",
"r  c #F80000",
"t  c #BB7C7C",
"y  c #DF3232",
"u  c #FB6464",
"i  c #FFFEFE",
"p  c #C6A8A9",
"a  c #D94F50",
"s  c #EC1C1C",
"d  c #F92D2D",
"f  c #FDB7B7",
"g  c #DF5455",
"h  c #FA5252",
"j  c #FB7070",
"k  c #FC9696",
"l  c #FED9D9",
"z  c #F91A1A",
"x  c #B3C5C6",
"c  c #FDB8B8",
"v  c #E96465",
"b  c #B1C4C5",
"n  c #B2C4C5",
"m  c #F91919",
"M  c #FFF1F1",
"N  c #FC9494",
"B  c #E07373",
"V  c #E33536",
"C  c #F80909",
"Z  c #E73E3F",
"A  c #FDC0C0",
"S  c #FCA3A3",
"D  c #ED9C9C",
"F  c #FA4646",
"G  c #F40B0B",
"H  c #D85151",
"J  c #B9A0A1",
"K  c #A6B8B9",
"L  c #A5B6B6",
"P  c #C07879",
"I  c #E32D2D",
"U  c #DA4142",
"Y  c #B88E8F",
"T  c #ABBEBF",
"R  c #F80B0B",
"E  c #A7BABB",
"W  c #A5B6B7",
"Q  c #A8BBBC",
"!  c #A5B7B8",
"~  c #B2C5C6",
"^  c #A8BABB",
"/  c #ABBFC0",
"(  c #B4C6C7",
")  c #B6C7C8",
"_  c #B8C8C9",
"`  c #B9C9CA",
"'  c #A9BCBD",
"]  c #A5B7B7",
"[  c #A7BABA",
"{  c #B8A2A3",
"}  c #D85252",
"|  c #D65757",
" . c #B6A6A7",
".. c #FC9292",
"X. c #FC8C8C",
"o. c #A9BBBC",
"O. c #A6B8B8",
/* pixels */
"                                                                                                                                ",
"                                                                                                                                ",
"                                                                                                                                ",
"                                                                                                                                ",
"                                                        . X X X X X X X X X X X .                                               ",
"                                                        o O O O O O O O O O O O +                                               ",
"                                                        @ O O O O O O O O O O O +                                               ",
"                                            # $ % % % & * O O O O O O O O O O O +                                               ",
"                                          = - - - - - ; : O O O O O O O O O O O +                                               ",
"                                          > - - - - , < O O O O O O O O O O O O +                                               ",
"              1 2 2 2 2 2 2 2 2 2 2       = - - - - 3 4 O O O O O O O O O O O O +                                               ",
"          5 6 7 7 7 7 7 7 7 7 7 7 7 7 8   = - - - 9 0 O O O O O O O O O O O O O +                                               ",
"          q 7 7 7 7 7 7 7 7 7 7 7 7 7 7 1 = - - w e O O O O O O O O O O O O O O r                                               ",
"          q 7 7 7 7 7 7 7 7 7 7 7 7 7 7 1 = t y u i O O O O O O O O O O O O O O +                                               ",
"          q 7 7 7 7 7 7 7 7 7 7 7 7 7 p a s d f O O O O O O O O O O O O O O O O +                                               ",
"          q 7 7 7 7 7 7 7 7 7 7 7 g h j k l O O O O O O O O O O O O O O O O O O r                                               ",
"          q 7 7 7 7 7 7 7 7 7 7 7 z O O O O O O O O O O O O O O O O O O O O O O +                                               ",
"          q 7 7 7 7 7 7 7 7 7 7 7 z O O O O O O O O O O O O O O O O O O O O O O +                                               ",
"          q 7 7 7 7 7 7 7 7 7 7 7 z O O O O O O O O O O O O O O O O O O O O O O +                                               ",
"          q 7 7 7 7 7 7 7 7 7 7 7 z O O O O O O O O O O O O O O O O O O O O O O +                                               ",
"          q 7 7 7 7 7 7 7 7 7 7 7 z O O O O O O O O O O O O O O O O O O O O O O +                                               ",
"          q 7 7 7 7 7 7 7 7 7 7 7 z O O O O O O O O O O O O O O O O O O O O O O +                                               ",
"          q 7 7 7 7 7 7 7 7 7 7 7 z O O O O O O O O O O O O O O O O O O O O O O +                                               ",
"          q 7 7 7 7 7 7 7 7 7 7 7 z O O O O O O O O O O O O O O O O O O O O O O +                                               ",
"          x 7 7 7 7 7 7 7 7 7 7 7 z O O O O O O O O O c v O O O O O O O O O O O r                                               ",
"            b n n n n n n n n n n m O O O O O O M N B V C O O O O O O O O O O O r                                               ",
"                                  Z A A A S D F G H J   C O O O O O O O O O O O r                                               ",
"                              K L P I I I U Y T         R O O O O O O O O O O O +                                               ",
"                            E - - - - - - - - W         R O O O O O O O O O O O +                                               ",
"                            # - - - - - - - - $         R O O O O O O O O O O O +                                               ",
"                            # - - - - - - - - $         R O O O O O O O O O O O +                                               ",
"                            # - - - - - - - - $         R O O O O O O O O O O O +                                               ",
"                            # - - - - - - - - $         R O O O O O O O O O O O +                                               ",
"                            # - - - - - - - - $         R O O O O O O O O O O O +                                               ",
"                            # - - - - - - - - $         R O O O O O O O O O O O +               1 5 5 5 5 5 5 1                 ",
"                            Q - - - - - - - - !         R O O O O O O O O O O O +             ~ 7 7 7 7 7 7 7 7 b               ",
"                              Q ^ ^ ^ ^ ^ ^ ^ /         R O O O O O O O O O O O +             q 7 7 7 7 7 7 7 7 (               ",
"                                                        R O O O O O O O O O O O +             q 7 7 7 7 7 7 7 7 (               ",
"                                                        R O O O O O O O O O O O + ) ) ) ( 1   q 7 7 7 7 7 7 7 7 (               ",
"                                                        R O O O O O O O O O O O + 7 7 7 7 x   q 7 7 7 7 7 7 7 7 (               ",
"                                                        R O O O O O O O O O O O + 7 7 7 7 )   q 7 7 7 7 7 7 7 7 (               ",
"                                                        R O O O O O O O O O O O + 7 7 7 7 )   q 7 7 7 7 7 7 7 7 (               ",
"                                                        R O O O O O O O O O O O + 7 7 7 7 )   ( 7 7 7 7 7 7 7 7 x               ",
"                                                        R O O O O O O O O O O O + 7 7 7 7 )   2 _ ` ` ` ` ` ` _ 2               ",
"                                                        R O O O O O O O O O O O + 7 7 7 7 )                                     ",
"                                                        R O O O O O O O O O O O + 7 7 7 7 )     / ' Q Q Q Q Q Q ' /             ",
"                                                        R O O O O O O O O O O O + 7 7 7 7 (   ^ - - - - - - - - - - '           ",
"                                                        R O O O O O O O O O O O + n n n n 1   ] - - - - - - - - - - [           ",
"                                            { } r r r r R O O O O O O O O O O O + r r r r |  .] - - - - - - - - - - ^           ",
"                                            } ..O O O O O O O O O O O O O O O O O O O O O X.| ] - - - - - - - - - - ^           ",
"                                            } ..O O O O O O O O O O O O O O O O O O O O O X.| ] - - - - - - - - - - ^           ",
"                                            } ..O O O O O O O O O O O O O O O O O O O O O X.| ] - - - - - - - - - - ^           ",
"                                            } ..O O O O O O O O O O O O O O O O O O O O O X.| ] - - - - - - - - - - ^           ",
"                                            } ..O O O O O O O O O O O O O O O O O O O O O X.| ] - - - - - - - - - - ^           ",
"                                            } ..O O O O O O O O O O O O O O O O O O O O O X.| ] - - - - - - - - - - ^           ",
"                                            } ..O O O O O O O O O O O O O O O O O O O O O X.| # - - - - - - - - - - o.          ",
"                                            } ..O O O O O O O O O O O O O O O O O O O O O X.|   # O.O.O.O.O.O.O.O.[             ",
"                                            } ..O O O O O O O O O O O O O O O O O O O O O X.|                                   ",
"                                            } ..O O O O O O O O O O O O O O O O O O O O O X.|                                   ",
"                                            } ..O O O O O O O O O O O O O O O O O O O O O X.|                                   ",
"                                            { } r r r r r r r r r r r r r r r r r r r r r |  .                                  ",
"                                                                                                                                ",
"                                                                                                                                ",
"                                                                                                                                "
};
