/* XPM */
static const char *_[] = {
/* columns rows colors chars-per-pixel */
"64 64 129 2 ",
"   c #F70303",
".  c #F80000",
"X  c #F50B0B",
"o  c #F80909",
"O  c #EC1C1C",
"+  c #F21414",
"@  c #F91414",
"#  c #F21A1A",
"$  c #F91A1A",
"%  c #EB2324",
"&  c #E72D2D",
"*  c #EA2B2B",
"=  c #F32626",
"-  c #F92222",
";  c #F62C2C",
":  c #F82F2F",
">  c #E33535",
",  c #E83031",
"<  c #E1393A",
"1  c #ED3A3B",
"2  c #F73131",
"3  c #F93B3B",
"4  c #DD4444",
"5  c #D44A4A",
"6  c #DB4A4A",
"7  c #CC5A5A",
"8  c #D75556",
"9  c #DB5253",
"0  c #D55758",
"q  c #D45C5C",
"w  c #DE5A5A",
"e  c #E34343",
"r  c #F74343",
"t  c #FA4141",
"y  c #FA4F4F",
"u  c #F45151",
"i  c #FA5353",
"p  c #FA5B5B",
"a  c #CD6D6E",
"s  c #D26364",
"d  c #DA6364",
"f  c #CC6F70",
"g  c #CA7575",
"h  c #C97778",
"j  c #DE7B7B",
"k  c #FB6262",
"l  c #F66F6F",
"z  c #FB6868",
"x  c #F67777",
"c  c #FB7272",
"v  c #FA7B7B",
"b  c #B38C8C",
"n  c #BD9495",
"m  c #BB9B9C",
"M  c #B6A6A7",
"N  c #B8A1A2",
"B  c #B6A7A8",
"V  c #B5A9AA",
"C  c #A1B1B1",
"Z  c #A5B7B8",
"A  c #A6B9B9",
"S  c #A8BBBC",
"D  c #C48485",
"F  c #C18A8A",
"G  c #D08686",
"H  c #E68081",
"J  c #F78181",
"K  c #FB8181",
"L  c #FC8A8A",
"P  c #F59090",
"I  c #FC9393",
"U  c #FC9C9C",
"Y  c #C5AAAA",
"T  c #FCA2A2",
"R  c #FDABAB",
"E  c #FDB4B4",
"W  c #FDBBBB",
"Q  c #ABBFC0",
"!  c #ACC0C1",
"~  c #B4C6C7",
"^  c #B2C4C5",
"/  c #B5C7C8",
"(  c #B6C7C8",
")  c #B8C8C9",
"_  c #B9C9CA",
"`  c #BACACB",
"'  c #BACBCC",
"]  c #BBCBCC",
"[  c #FDC1C1",
"{  c #FDC2C2",
"}  c #FDC5C5",
"|  c #FECBCB",
" . c #FECCCC",
".. c #FECDCD",
"X. c #FECECE",
"o. c #FECFCF",
"O. c #FED3D3",
"+. c #FED4D4",
"@. c #FED5D5",
"#. c #FED6D6",
"$. c #FED8D8",
"%. c #FEDADA",
"&. c #FEDBDB",
"*. c #FEDEDE",
"=. c #FEE2E2",
"-. c #FEE3E3",
";. c #FEE4E4",
":. c #FEE5E5",
">. c #FEE6E6",
",. c #FEE7E7",
"<. c #FEE9E9",
"1. c #FEEAEA",
"2. c #FEEBEB",
"3. c #FEECEC",
"4. c #FFEDED",
"5. c #FFEEEE",
"6. c #FFEFEF",
"7. c #FFF0F0",
"8. c #FFF1F1",
"9. c #FFF4F4",
"0. c #FFF5F5",
"q. c #FFF7F7",
"w. c #FFF9F9",
"e. c #FFFBFB",
"r. c #FFFCFC",
"t. c #FFFDFD",
"y. c #FFFEFE",
"u. c white",
"i. c white",
/* pixels */
"! ! ! ! ! ! ! ! ! ! ! ! ! ! ! ! ! ! ! ! ! ! ! ! ! ! ! ! ! ! ! ! ! ! ! ! ! ! ! ! ! ! ! ! ! ! ! ! ! ! ! ! ! ! ! ! ! ! ! ! ! ! ! ! ",
"! ! ! ! ! ! ! ! ! ! ! ! ! ! ! ! ! ! ! ! ! ! ! ! ! ! ! ! ! ! ! ! ! ! ! ! ! ! ! ! ! ! ! ! ! ! ! ! ! ! ! ! ! ! ! ! ! ! ! ! ! ! ! ! ",
"! ! ! ! ! ! ! ! ! ! ! ! ! ! ! ! ! ! ! ! ! ! ! ! ! ! ! ! ! ! ! ! ! ! ! ! ! ! ! ! ! ! ! ! ! ! ! ! ! ! ! ! ! ! ! ! ! ! ! ! ! ! ! ! ",
"! ! ! ! ! ! ! ! ! ! ! ! ! ! ! ! ! ! ! ! ! ! ! ! ! ! ! B 0 & O X . X O & q V ! ! ! ! ! ! ! ! ! ! ! ! ! ! ! ! ! ! ! ! ! ! ! ! ! ! ",
"! ! ! ! ! ! ! ! ! ! ! ! ! ! ! ! ! ! ! ! ! ! ! ! ! s + 3 L } &.5.u.5.&.} L j + s ! ! ! ! ! ! ! ! ! ! ! ! ! ! ! ! ! ! ! ! ! ! ! ! ",
"! ! ! ! ! ! ! ! ! ! ! ! ! ! ! ! ! ! ! ! ! ! ! s # v >.u.u.u.u.u.u.u.u.u.u.u.=.J # s ! ! ! ! ! ! ! ! ! ! ! ! ! ! ! ! ! ! ! ! ! ! ",
"! ! ! ! ! ! ! ! ! ! ! ! ! ! ! ! ! ! ! ! ! D > z <.u.u.u.u.u.u.u.u.u.u.u.u.u.u.u.>.l 4 n ! ! ! ! ! ! ! ! ! ! ! ! ! ! ! ! ! ! ! ! ",
"! ! ! ! ! ! ! ! ! ! ! ! ! ! ! ! ! ! ! ! a % W u.u.u.u.u.u.u.u.u.u.u.u.u.u.u.u.u.u.u.T 6 h ! ! ! ! ! ! ! ! ! ! ! ! ! ! ! ! ! ! ! ",
"! ! ! ! ! ! ! ! ! ! ! ! ! ! ! ! ! ! ! a 1 &.u.u.u.u.u.u.u.u.u.u.u.u.u.u.u.u.u.u.u.u.u.| 1 h ! ! ! ! ! ! ! ! ! ! ! ! ! ! ! ! ! ! ",
"! ! ! ! ! ! ! ! ! ! ! ! ! ! ! ! ! ! D e &.u.u.u.u.u.u.u.u.u.u.u.u.u.u.u.u.u.u.u.u.u.u.u. .* m ! ! ! ! ! ! ! ! ! ! ! ! ! ! ! ! ! ",
"! ! ! ! ! ! ! ! ! ! ! ! ! ! ! ! ! ! > E u.u.u.u.u.u.u.u.u.u.u.u.u.u.u.u.u.u.u.u.u.u.u.u.u.U 6 ! ! ! ! ! ! ! ! ! ! ! ! ! ! ! ! ! ",
"! ! ! ! ! ^ ] ] ] ] ] ] ] ] ] ] ] d v u.u.u.u.u.u.u.u.u.u.u.u.u.u.u.u.u.u.u.u.u.u.u.u.u.u.u.i a ! ! ! ! ! ! ! ! ! ! ! ! ! ! ! ! ",
"! ! ! ! ! / ] ] ] ] ] ] ] ] ] ] ] + 5.u.u.u.u.u.u.u.u.u.u.u.u.u.u.u.u.u.u.u.u.u.u.u.u.u.u.u.&.O ! ! ! ! ! ! ! ! ! ! ! ! ! ! ! ! ",
"! ! ! ! ! / ] ] ] ] ] ] ] ] ] ] d J u.u.u.u.u.u.u.u.u.u.u.u.u.u.u.u.u.u.u.u.u.u.u.u.u.u.u.u.u.p h ! ! ! ! ! ! ! ! ! ! ! ! ! ! ! ",
"! ! ! ! ! / ] ] ] ] ] ] ] ] ] ] + <.u.u.u.u.u.u.u.u.u.u.u.u.u.u.u.u.u.u.u.u.u.u.u.u.u.u.u.u.u. .% ! ! ! ! ! ! ! ! ! ! ! ! ! ! ! ",
"! ! ! ! ! / ] ] ] ] ] ] ] ] ] Y H u.u.u.u.u.u.u.u.u.u.u.u.>.x . . o c <.u.u.u.u.u.u.u.u.u.u.u.u.- ! ! ! ! ! ! ! ! ! ! ! ! ! ! ! ",
"! ! ! ! ! / ] ] ] ] ] ] ] ] ] 9 I u.u.u.u.u.u.u.u.u.u.u.T 6 7 C C ! q # R u.u.u.u.u.u.u.u.u.u.u.c F ! ! ! ! ! ! ! ! ! ! ! ! ! ! ",
"! ! ! ! ! / ] ] ] ] ] ] ] ] ] % #.u.u.u.u.u.u.u.u.u.u.#.O b C C A ! ! F e =.u.u.u.u.u.u.u.u.u.u.E < ! ! ! ! ! ! ! ! ! ! ! ! ! ! ",
"! ! ! ! ! / ] ] ] ] ] ] ] ] ] X 5.u.u.u.u.u.u.u.u.u.u.r a S S S ! ! ! ! s l u.u.u.u.u.u.u.u.u.u.#.% ! ! ! ! ! ! ! ! ! ! ! ! ! ! ",
"! ! ! ! ! / ] ] ] ] ] ] ] ] ] . u.u.u.u.u.u.u.u.u.u.u.o ! ! ! ! ! ! ! ! ! - u.u.u.u.u.u.u.u.u.u.0.o ! ! ! ! ! ! ! ! ! ! ! ! ! ! ",
"! ! ! ! ! / ] ] ] ] ] ] ] ] ] @ u.u.u.u.u.u.u.u.u.u.0.o ! ! ! ! ! ! ! ! ! . u.u.u.u.u.u.u.u.u.u.u.o ! ! ! ! ! ! ! ! ! ! ! ! ! ! ",
"! ! ! ! ! / ] ] ] ] ] ] ] ] ] $ u.u.u.u.u.u.u.u.u.u.0.o ! ! ! ! ! ! ! ! ! $ u.u.u.u.u.u.u.u.u.u.w.  ! ! ! ! ! ! ! ! ! ! ! ! ! ! ",
"! ! ! ! ! / ] ] ] ] ] ] ] ] ] $ u.u.u.u.u.u.u.u.u.u.0.o ! ! ! ! ! ! ! ! ! 3 u.u.u.u.u.u.u.u.u.u.*.O ! ! ! ! ! ! ! ! ! ! ! ! ! ! ",
"! ! ! ! ! / ] ] ] ] ] ] ] ] ] 9 t t t t t t t t t t r 0 ! ! ! ! ! ! ! ! ! p u.u.u.u.u.u.u.u.u.u.[ & ! ! ! ! ! ! ! ! ! ! ! ! ! ! ",
"! ! ! ! ! ^ ] ] ] ] ] ] ] ] ] ] ] ] ] ` ! ! ! ! ! ! ! ! ! ! ! ! ! ! ! ! f P u.u.u.u.u.u.u.u.u.u.U 6 ! ! ! ! ! ! ! ! ! ! ! ! ! ! ",
"! ! ! ! ! ! ^ ^ ^ ^ ^ ^ ^ ^ ^ ^ ^ ^ ^ ! ! ! ! ! ! ! ! ! ! ! ! ! ! ! ! ! % #.u.u.u.u.u.u.u.u.u.u.i m ! ! ! ! ! ! ! ! ! ! ! ! ! ! ",
"! ! ! ! ! ! ! ! ! ! ! ! ! ! ! ! ! ! ! ! ! ! ! ! ! ! ! ! ! ! ! ! ! ! ! V j u.u.u.u.u.u.u.u.u.u.u.o ! ! ! ! ! ! ! ! ! ! ! ! ! ! ! ",
"! ! ! ! ! ! ! ! ! ! ! ! ! ! ! A Z Z Z Z Z Z Z S ! ! ! ! ! ! ! ! ! ! ! q L u.u.u.u.u.u.u.u.u.u.W > ! ! ! ! ! ! ! ! ! ! ! ! ! ! ! ",
"! ! ! ! ! ! ! ! ! ! ! ! ! ! A C C C C C C C C Z ! ! ! ! ! ! ! ! ! ! ! + >.u.u.u.u.u.u.u.u.u.u.k D ! ! ! ! ! ! ! ! ! ! ! ! ! ! ! ",
"! ! ! ! ! ! ! ! ! ! ! ! ! ! A C C C C C C C C Z ! ! ! ! ! ! ! ! ! ! 0 v u.u.u.u.u.u.u.u.u.u.5.+ ! ! ! ! ! ! ! ! ! ! ! ! ! ! ! ! ",
"! ! ! ! ! ! ! ! ! ! ! ! ! ! A C C C C C C C C Z ! ! ! ! ! ! ! ! ! n 9 0.u.u.u.u.u.u.u.u.u.u.K q ! ! ! ! ! ! ! ! ! ! ! ! ! ! ! ! ",
"! ! ! ! ! ! ! ! ! ! ! ! ! ! A C C C C C C C C Z ! ! ! ! ! ! ! ! ! 4 T u.u.u.u.u.u.u.u.u.u.w.$ ! ! ! ! ! ! ! ! ! ! ! ! ! ! ! ! ! ",
"! ! ! ! ! ! ! ! ! ! ! ! ! ! A C C C C C C C C Z ! ! ! ! ! ! ! ! q u u.u.u.u.u.u.u.u.u.u.u.L 8 ! ! ! ! ! ! ! ! ! ! ! ! ! ! ! ! ! ",
"! ! ! ! ! ! ! ! ! ! ! ! ! ! A C C C C C C C C Z ! ! ! ! ! ! ! a 1 8.u.u.u.u.u.u.u.u.u.u.<.# M ! ! ! ! ! ! ! ! ! ! ! ! ! ! ! ! ! ",
"! ! ! ! ! ! ! ! ! ! ! ! ! ! A C C C C C C C C Z ! ! ! ! ! ! F e &.u.u.u.u.u.u.u.u.u.u.u.k q ! ! ! ^ ^ ^ ^ ^ ^ ! ! ! ! ! ! ! ! ! ",
"! ! ! ! ! ! ! ! ! ! ! ! ! ! S C C C C C C C C Z ! ! ! ! ! n 4 E u.u.u.u.u.u.u.u.u.u.u. .% ! ! ^ ] ] ] ] ] ] ] ] ^ ! ! ! ! ! ! ! ",
"! ! ! ! ! ! ! ! ! ! ! ! ! ! ! S S S S S S S S Q ! ! ! ! m 6 R u.u.u.u.u.u.u.u.u.u.u.w.: h ! ! / ] ] ] ] ] ] ] ] ~ ! ! ! ! ! ! ! ",
"! ! ! ! ! ! ! ! ! ! ! ! ! ! ! ! ! ! ! ! ! ! ! ! ! ! ! N 9 U u.u.u.u.u.u.u.u.u.u.u.u.c 8 ! ! ! / ] ] ] ] ] ] ] ] ~ ! ! ! ! ! ! ! ",
"! ! ! ! ! ! ! ! ! ! ! ! ! ! ! ! ! ! ! ! ! ! ! ! ! ! N 9 I u.u.u.u.u.u.u.u.u.u.u.u.[ , / ~ ! ! / ] ] ] ] ] ] ] ] ~ ! ! ! ! ! ! ! ",
"! ! ! ! ! ! ! ! ! ! ! ! ! ! ! ! ! ! ! ! ! ! ! ! ! F < I u.u.u.u.u.u.u.u.u.u.u.u.5.= G ] ] ^ ! / ] ] ] ] ] ] ] ] ~ ! ! ! ! ! ! ! ",
"! ! ! ! ! ! ! ! ! ! ! ! ! ! ! ! ! ! ! ! ! ! ! ! h * E u.u.u.u.u.u.u.u.u.u.u.u.0.3 d ] ] ] / ! / ] ] ] ] ] ] ] ] ~ ! ! ! ! ! ! ! ",
"! ! ! ! ! ! ! ! ! ! ! ! ! ! ! ! ! ! ! ! ! ! ! s =  .u.u.u.u.u.u.u.u.u.u.u.u.w.r w ] ] ] ] / ! / ] ] ] ] ] ] ] ] ~ ! ! ! ! ! ! ! ",
"! ! ! ! ! ! ! ! ! ! ! ! ! ! ! ! ! ! ! ! ! ! 0 2 =.u.u.u.u.u.u.u.u.u.u.u.u.u.i w ] ] ] ] ] / ! ~ ] ] ] ] ] ] ] ] ^ ! ! ! ! ! ! ! ",
"! ! ! ! ! ! ! ! ! ! ! ! ! ! ! ! ! ! ! ! ! 9 y 0.u.u.u.u.u.u.u.u.u.u.u.u.u.p 9 ] ] ] ] ] ] / ! ! ` ` ` ` ` ` ` ` ! ! ! ! ! ! ! ! ",
"! ! ! ! ! ! ! ! ! ! ! ! ! ! ! ! ! ! ! F < v u.u.u.u.u.u.u.u.u.u.u.u.u.5.r 9 ] ] ] ] ] ] ] / ! ! ! ! ! ! ! ! ! ! ! ! ! ! ! ! ! ! ",
"! ! ! ! ! ! ! ! ! ! ! ! ! ! ! ! ! ! g * E u.u.u.u.u.u.u.u.u.u.u.u.u. .1 s ] ] ] ] ] ] ] ] / ! ! Q S S S S S S S S Q ! ! ! ! ! ! ",
"! ! ! ! ! ! ! ! ! ! ! ! ! ! ! ! ! q ; O.u.u.u.u.u.u.u.u.u.u.u.u.u.U 6 h ^ ] ] ] ] ] ] ] ] ~ ! S C C C C C C C C C C S ! ! ! ! ! ",
"! ! ! ! ! ! ! ! ! ! ! ! ! ! ! ! 9 r 8.u.u.u.u.u.u.u.u.u.u.u.u.&.u 6 m ! ! ^ ^ ^ ^ ^ ^ ^ ^ ! ! Z C C C C C C C C C C A ! ! ! ! ! ",
"! ! ! ! ! ! ! ! ! ! ! ! ! ! ! 9 v u.u.u.u.u.u.u.u.u.u.u.u.w.K s . . . . . . . . . . . . . . . . . 5 C C C C C C C C S ! ! ! ! ! ",
"! ! ! ! ! ! ! ! ! ! ! ! ! ! ! $ u.u.u.u.u.u.u.u.u.u.u.u.u.u.u.u.u.u.u.u.u.u.u.u.u.u.u.u.u.u.u.u.u.@ C C C C C C C C S ! ! ! ! ! ",
"! ! ! ! ! ! ! ! ! ! ! ! ! ! ! $ u.u.u.u.u.u.u.u.u.u.u.u.u.u.u.u.u.u.u.u.u.u.u.u.u.u.u.u.u.u.u.u.u.@ C C C C C C C C S ! ! ! ! ! ",
"! ! ! ! ! ! ! ! ! ! ! ! ! ! ! $ u.u.u.u.u.u.u.u.u.u.u.u.u.u.u.u.u.u.u.u.u.u.u.u.u.u.u.u.u.u.u.u.u.@ C C C C C C C C S ! ! ! ! ! ",
"! ! ! ! ! ! ! ! ! ! ! ! ! ! ! $ u.u.u.u.u.u.u.u.u.u.u.u.u.u.u.u.u.u.u.u.u.u.u.u.u.u.u.u.u.u.u.u.u.@ C C C C C C C C S ! ! ! ! ! ",
"! ! ! ! ! ! ! ! ! ! ! ! ! ! ! $ u.u.u.u.u.u.u.u.u.u.u.u.u.u.u.u.u.u.u.u.u.u.u.u.u.u.u.u.u.u.u.u.u.@ C C C C C C C C S ! ! ! ! ! ",
"! ! ! ! ! ! ! ! ! ! ! ! ! ! ! $ u.u.u.u.u.u.u.u.u.u.u.u.u.u.u.u.u.u.u.u.u.u.u.u.u.u.u.u.u.u.u.u.u.@ C C C C C C C C S ! ! ! ! ! ",
"! ! ! ! ! ! ! ! ! ! ! ! ! ! ! $ u.u.u.u.u.u.u.u.u.u.u.u.u.u.u.u.u.u.u.u.u.u.u.u.u.u.u.u.u.u.u.u.u.@ C C C C C C C C S ! ! ! ! ! ",
"! ! ! ! ! ! ! ! ! ! ! ! ! ! ! $ u.u.u.u.u.u.u.u.u.u.u.u.u.u.u.u.u.u.u.u.u.u.u.u.u.u.u.u.u.u.u.u.u.@ A A A A A A A A ! ! ! ! ! ! ",
"! ! ! ! ! ! ! ! ! ! ! ! ! ! ! $ u.u.u.u.u.u.u.u.u.u.u.u.u.u.u.u.u.u.u.u.u.u.u.u.u.u.u.u.u.u.u.u.u.@ ! ! ! ! ! ! ! ! ! ! ! ! ! ! ",
"! ! ! ! ! ! ! ! ! ! ! ! ! ! ! $ u.u.u.u.u.u.u.u.u.u.u.u.u.u.u.u.u.u.u.u.u.u.u.u.u.u.u.u.u.u.u.u.u.@ ! ! ! ! ! ! ! ! ! ! ! ! ! ! ",
"! ! ! ! ! ! ! ! ! ! ! ! ! ! ! $ u.u.u.u.u.u.u.u.u.u.u.u.u.u.u.u.u.u.u.u.u.u.u.u.u.u.u.u.u.u.u.u.u.@ ! ! ! ! ! ! ! ! ! ! ! ! ! ! ",
"! ! ! ! ! ! ! ! ! ! ! ! ! ! ! 9 . . . . . . . . . . . . . . . . . . . . . . . . . . . . . . . . . 9 ! ! ! ! ! ! ! ! ! ! ! ! ! ! ",
"! ! ! ! ! ! ! ! ! ! ! ! ! ! ! ! ! ! ! ! ! ! ! ! ! ! ! ! ! ! ! ! ! ! ! ! ! ! ! ! ! ! ! ! ! ! ! ! ! ! ! ! ! ! ! ! ! ! ! ! ! ! ! ! ",
"! ! ! ! ! ! ! ! ! ! ! ! ! ! ! ! ! ! ! ! ! ! ! ! ! ! ! ! ! ! ! ! ! ! ! ! ! ! ! ! ! ! ! ! ! ! ! ! ! ! ! ! ! ! ! ! ! ! ! ! ! ! ! ! ",
"! ! ! ! ! ! ! ! ! ! ! ! ! ! ! ! ! ! ! ! ! ! ! ! ! ! ! ! ! ! ! ! ! ! ! ! ! ! ! ! ! ! ! ! ! ! ! ! ! ! ! ! ! ! ! ! ! ! ! ! ! ! ! ! "
};
