/* XPM */
static const char *_[] = {
/* columns rows colors chars-per-pixel */
"64 64 128 2 ",
"   c #F80000",
".  c #F50A0A",
"X  c #EF1616",
"o  c #EC1D1E",
"O  c #F11414",
"+  c #F91313",
"@  c #F21B1B",
"#  c #F91D1D",
"$  c #DE3434",
"%  c #DD3939",
"&  c #EA2425",
"*  c #E62C2C",
"=  c #EB2B2B",
"-  c #F32323",
";  c #F92222",
":  c #F72D2D",
">  c #F82A2A",
",  c #E92F30",
"<  c #E43334",
"1  c #EC3233",
"2  c #E23A3B",
"3  c #F93636",
"4  c #F03939",
"5  c #FA3838",
"6  c #DF3F40",
"7  c #DD4444",
"8  c #DA4D4D",
"9  c #CE5555",
"0  c #D75454",
"q  c #DA5252",
"w  c #D55758",
"e  c #D35D5D",
"r  c #DC5B5B",
"t  c #E44343",
"y  c #E94242",
"u  c #E34848",
"i  c #F54040",
"p  c #FA4040",
"a  c #F44949",
"s  c #FA4A4A",
"d  c #E85455",
"f  c #E45758",
"g  c #F65F5F",
"h  c #FB5B5B",
"j  c #CE6B6B",
"k  c #D26464",
"l  c #D36868",
"z  c #DB6B6B",
"x  c #CA7374",
"c  c #C47B7C",
"v  c #C97878",
"b  c #EF6667",
"n  c #F76262",
"m  c #F86262",
"M  c #F86D6D",
"N  c #F57373",
"B  c #FB7575",
"V  c #FB7B7B",
"C  c #BA8182",
"Z  c #BF8F90",
"A  c #AD9999",
"S  c #BC9797",
"D  c #BC9798",
"F  c #B99FA0",
"G  c #B7A6A7",
"H  c #B7A7A8",
"J  c #B4ACAD",
"K  c #B3AFB0",
"L  c #A1B1B1",
"P  c #A5B7B8",
"I  c #A7B9B9",
"U  c #A8BBBC",
"Y  c #C48383",
"T  c #C18A8B",
"R  c #CA9899",
"E  c #EB8686",
"W  c #ED8C8C",
"Q  c #F58080",
"!  c #FC8484",
"~  c #FC8D8D",
"^  c #EC9D9D",
"/  c #FC9595",
"(  c #FCA1A1",
")  c #FDADAD",
"_  c #FDB4B4",
"`  c #FDBDBD",
"'  c #ABBFC0",
"]  c #ACC0C1",
"[  c #B2C4C5",
"{  c #B5C7C8",
"}  c #BBCBCC",
"|  c #B9C9CA",
" . c #FDC1C1",
".. c #FDC3C3",
"X. c #FDC5C5",
"o. c #FECACA",
"O. c #FECCCC",
"+. c #FECECE",
"@. c #FED0D0",
"#. c #FED4D4",
"$. c #FED8D8",
"%. c #FED9D9",
"&. c #FEDBDB",
"*. c #FEDCDC",
"=. c #FEDDDD",
"-. c #FEDEDE",
";. c #FEDFDF",
":. c #FEE1E1",
">. c #FEE2E2",
",. c #FEE4E4",
"<. c #FEE7E7",
"1. c #FEE9E9",
"2. c #FEEAEA",
"3. c #FEEBEB",
"4. c #FFEDED",
"5. c #FFEEEE",
"6. c #FFEFEF",
"7. c #FFF0F0",
"8. c #FFF2F2",
"9. c #FFF3F3",
"0. c #FFF4F4",
"q. c #FFF5F5",
"w. c #FFF6F6",
"e. c #FFF9F9",
"r. c #FFFBFB",
"t. c #FFFCFC",
"y. c #FFFEFE",
"u. c white",
/* pixels */
"] ] ] ] ] ] ] ] ] ] ] ] ] ] ] ] ] ] ] ] ] ] ] ] ] ] ] ] ] ] ] ] ] ] ] ] ] ] ] ] ] ] ] ] ] ] ] ] ] ] ] ] ] ] ] ] ] ] ] ] ] ] ] ] ",
"] ] ] ] ] ] ] ] ] ] ] ] ] ] ] ] ] ] ] ] ] ] ] ] ] ] ] ] ] ] ] ] ] ] ] ] ] ] ] ] ] ] ] ] ] ] ] ] ] ] ] ] ] ] ] ] ] ] ] ] ] ] ] ] ",
"] ] ] ] ] ] ] ] ] ] ] ] ] ] ] ] ] ] ] ] ] ] ] ] ] ] ] ] ] ] ] ] ] ] ] ] ] ] ] ] ] ] ] ] ] ] ] ] ] ] ] ] ] ] ] ] ] ] ] ] ] ] ] ] ",
"] ] ] ] ] ] ] ] ] ] ] ] ] ] ] ] ] ] ] ] ] ] ] ] ] ] ] ] ] ] ] ] ] ] ] ] ] ] ] ] ] ] ] ] ] ] ] ] ] ] ] ] ] ] ] ] ] ] ] ] ] ] ] ] ",
"] ] ] ] ] ] ] ] ] ] ] ] ] ] k a p p p p p p p p p p p p p p p p p p p p p p p p p p p p p p p p p p z ] ] ] ] ] ] ] ] ] ] ] ] ] ",
"] ] ] ] ] ] ] ] ] ] ] ] ] ] O ,.u.u.u.u.u.u.u.u.u.u.u.u.u.u.u.u.u.u.u.u.u.u.u.u.u.u.u.u.u.u.u.u.u.r.> ] ] ] ] ] ] ] ] ] ] ] ] ] ",
"] ] ] ] ] ] ] ] ] ] ] ] ] ] O ,.u.u.u.u.u.u.u.u.u.u.u.u.u.u.u.u.u.u.u.u.u.u.u.u.u.u.u.u.u.u.u.u.u.V 0 ] ] ] ] ] ] ] ] ] ] ] ] ] ",
"] ] ] ] ] ] ] ] ] ] ] ] ] ] O ,.u.u.u.u.u.u.u.u.u.u.u.u.u.u.u.u.u.u.u.u.u.u.u.u.u.u.u.u.u.u.u.u.@.& ] ] ] ] ] ] ] ] ] ] ] ] ] ] ",
"] ] ] ] ] ] ] ] ] ] ] ] ] ] O ,.u.u.u.u.u.u.u.u.u.u.u.u.u.u.u.u.u.u.u.u.u.u.u.u.u.u.u.u.u.u.u.r.> x ] ] ] ] ] ] ] ] ] ] ] ] ] ] ",
"] ] ] ] ] ] ] ] ] ] ] ] ] ] O ,.u.u.u.u.u.u.u.u.u.u.u.u.u.u.u.u.u.u.u.u.u.u.u.u.u.u.u.u.u.u.u.V 0 ] ] ] ] ] ] ] ] ] ] ] ] ] ] ] ",
"] ] ] ] ] ] ] ] ] ] ] ] ] ] O ,.u.u.u.u.u.u.u.u.u.u.u.u.u.u.u.u.u.u.u.u.u.u.u.u.u.u.u.u.u.u.@.& ] ] ] ] ] ] ] ] ] ] ] ] ] ] ] ] ",
"] ] ] ] ] [ } } } } } } } } O ,.u.u.u.u.u.u.u.u.u.u.u.u.u.u.u.u.u.u.u.u.u.u.u.u.u.u.u.u.u.r.> x ] ] ] ] ] ] ] ] ] ] ] ] ] ] ] ] ",
"] ] ] ] ] { } } } } } } } } O ,.u.u.u.u.u.u.u.u.u.u.u.u.u.u.u.u.u.u.u.u.u.u.u.u.u.u.u.u.u.V 0 ] ] ] ] ] ] ] ] ] ] ] ] ] ] ] ] ] ",
"] ] ] ] ] { } } } } } } } } O ,.u.u.u.u.u.u.u.u.u.u.u.u.u.u.u.u.u.u.u.u.u.u.u.u.u.u.u.u.@.& ] ] ] ] ] ] ] ] ] ] ] ] ] ] ] ] ] ] ",
"] ] ] ] ] { } } } } } } } } O ,.u.u.u.u.u.u.u.u.u.u.u.u.u.u.u.u.u.u.u.u.u.u.u.u.u.u.u.r.> x ] ] ] ] ] ] ] ] ] ] ] ] ] ] ] ] ] ] ",
"] ] ] ] ] { } } } } } } } } z O                             t 7.u.u.u.u.u.u.u.u.u.u.u.V 0 ] ] ] ] ] ] ] ] ] ] ] ] ] ] ] ] ] ] ] ",
"] ] ] ] ] { } } } } } } } } } } } } } } ] U L L L L L L L $ _ u.u.u.u.u.u.u.u.u.u.u.@.& ] ] ] ] ] ] ] ] ] ] ] ] ] ] ] ] ] ] ] ] ",
"] ] ] ] ] { } } } } } } } } } } } } } } ] ] L L L L L L 9 n u.u.u.u.u.u.u.u.u.u.u.r.> x ] ] ] ] ] ] ] ] ] ] ] ] ] ] ] ] ] ] ] ] ",
"] ] ] ] ] { } } } } } } } } } } } } } } ] ] ' U U U U T u 7.u.u.u.u.u.u.u.u.u.u.u.V 0 ] ] ] ] ] ] ] ] ] ] ] ] ] ] ] ] ] ] ] ] ] ",
"] ] ] ] ] { } } } } } } } } } } } } } } ] ] ] ] ] ] ] 2 _ u.u.u.u.u.u.u.u.u.u.u.@.& ] ] ] ] ] ] ] ] ] ] ] ] ] ] ] ] ] ] ] ] ] ] ",
"] ] ] ] ] { } } } } } } } } } } } } } } ] ] ] ] ] ] e m u.u.u.u.u.u.u.u.u.u.u.r.: x ] ] ] ] ] ] ] ] ] ] ] ] ] ] ] ] ] ] ] ] ] ] ",
"] ] ] ] ] { } } } } } } } } } } } } } } ] ] ] ] ] T u 7.u.u.u.u.u.u.u.u.u.u.u.V 0 ] ] ] ] ] ] ] ] ] ] ] ] ] ] ] ] ] ] ] ] ] ] ] ",
"] ] ] ] ] { } } } } } } } } } } } } } } ] ] ] ] ] 2 _ u.u.u.u.u.u.u.u.u.u.u.@.& ] ] ] ] ] ] ] ] ] ] ] ] ] ] ] ] ] ] ] ] ] ] ] ] ",
"] ] ] ] ] { } } } } } } } } } } } } } } ] ] ] ] e n u.u.u.u.u.u.u.u.u.u.u.r.: x ] ] ] ] ] ] ] ] ] ] ] ] ] ] ] ] ] ] ] ] ] ] ] ] ",
"] ] ] ] ] [ } } } } } } } } } } } } } | ] ] ] T u 4.u.u.u.u.u.u.u.u.u.u.u.V j ] ] ] ] ] ] ] ] ] ] ] ] ] ] ] ] ] ] ] ] ] ] ] ] ] ",
"] ] ] ] ] ] [ [ [ [ [ [ [ [ [ [ [ [ [ ] ] ] ] 2 _ u.u.u.u.u.u.u.u.u.u.u.u.$.Q @ e ] ] ] ] ] ] ] ] ] ] ] ] ] ] ] ] ] ] ] ] ] ] ] ",
"] ] ] ] ] ] ] ] ] ] ] ] ] ] ] ] ] ] ] ] ] ] e n u.u.u.u.u.u.u.u.u.u.u.u.u.u.u.4.n 2 T ] ] ] ] ] ] ] ] ] ] ] ] ] ] ] ] ] ] ] ] ] ",
"] ] ] ] ] ] ] ] ] ] ] ] ] ] ] I P P P P P C u 4.u.u.u.u.u.u.u.u.u.u.u.u.u.u.u.u.u.) t x ] ] ] ] ] ] ] ] ] ] ] ] ] ] ] ] ] ] ] ] ",
"] ] ] ] ] ] ] ] ] ] ] ] ] ] I L L L L L L $ _ u.u.u.u.u.u.u.u.u.u.u.u.u.u.u.u.u.u.u.#.1 j ] ] ] ] ] ] ] ] ] ] ] ] ] ] ] ] ] ] ] ",
"] ] ] ] ] ] ] ] ] ] ] ] ] ] I L L L L L 9 g u.u.u.u.u.u.u.u.u.u.u.u.u.u.u.u.u.u.u.u.u.*.= Y ] ] ] ] ] ] ] ] ] ] ] ] ] ] ] ] ] ] ",
"] ] ] ] ] ] ] ] ] ] ] ] ] ] I L L L L C u 4.u.u.u.u.u.u.u.u.u.u.u.u.u.u.u.u.u.u.u.u.u.u.` < ] ] ] ] ] ] ] ] ] ] ] ] ] ] ] ] ] ] ",
"] ] ] ] ] ] ] ] ] ] ] ] ] ] I L L L L % ) u.u.u.u.u.u.u.u.u.u.u.u.u.u.u.u.u.u.u.u.u.u.u.u.B w ] ] ] ] ] ] ] ] ] ] ] ] ] ] ] ] ] ",
"] ] ] ] ] ] ] ] ] ] ] ] ] ] I L L L 9 g u.u.u.u.u.u.u.u.u.u.u.u.u.u.u.u.u.u.u.u.u.u.u.u.u.0.; S ] ] ] ] ] ] ] ] ] ] ] ] ] ] ] ] ",
"] ] ] ] ] ] ] ] ] ] ] ] ] ] I L L L @ 4.u.u.u.u.u.u.u.u.u.u.u.u.u.u.u.u.u.u.u.u.u.u.u.u.u.u.( 7 ] ] ] ] ] ] ] ] ] ] ] ] ] ] ] ] ",
"] ] ] ] ] ] ] ] ] ] ] ] ] ] I L L L l a p p p p p p p p p p p h ! _ u.u.u.u.u.u.u.u.u.u.u.u.u.; H [ [ [ [ [ [ ] ] ] ] ] ] ] ] ] ",
"] ] ] ] ] ] ] ] ] ] ] ] ] ] U L L L L L L L L P ] ] ] ] ] ] ] J e 2 > +.u.u.u.u.u.u.u.u.u.u.u.~ r } } } } } } } [ ] ] ] ] ] ] ] ",
"] ] ] ] ] ] ] ] ] ] ] ] ] ] ] U U U U U U U U ' ] ] ] ] ] ] ] ] ] ] x = ` u.u.u.u.u.u.u.u.u.u.4.. } } } } } } } { ] ] ] ] ] ] ] ",
"] ] ] ] ] ] ] ] ] ] ] ] ] ] ] ] ] ] ] ] ] ] ] ] ] ] ] ] ] ] ] ] ] ] ] Y 2 $.u.u.u.u.u.u.u.u.u.u.5 } } } } } } } { ] ] ] ] ] ] ] ",
"] ] ] ] ] ] ] ] ] ] ] ] ] ] ] ] ] ] ] ] ] ] ] ] ] ] ] ] ] ] ] ] ] ] ] ] j N u.u.u.u.u.u.u.u.u.u.B R } } } } } } { ] ] ] ] ] ] ] ",
"] ] ] ] ] ] ] ] ] ] ] ] ] ] ] ] ] ] ] ] ] ] ] ] ] ] ] ] ] ] ] ] ] ] ] ] [ + 7.u.u.u.u.u.u.u.u.u.) t } } } } } } { ] ] ] ] ] ] ] ",
"] ] ] ] ] ] ] ] ] ] ] ] ] ] ] ] ] ] ] ] ] ] ] ] ] ] ] ] ] ] ] ] ] ] ] ] [ 2 _ u.u.u.u.u.u.u.u.u...1 } } } } } } { ] ] ] ] ] ] ] ",
"] ] ] ] ] ] ] ] ] ] ] ] q                     q ] ] ] ] ] ] ] ] ] ] ] ] [ r / u.u.u.u.u.u.u.u.u.*.@ } } } } } } { ] ] ] ] ] ] ] ",
"] ] ] ] ] ] ] ] ] ] ] ] 3 u.u.u.u.u.u.u.u.u.u.; ] ] ] ] ] ] ] ] ] ] ] ] [ r ~ u.u.u.u.u.u.u.u.u.*.@ } } } } } } [ ] ] ] ] ] ] ] ",
"] ] ] ] ] ] ] ] ] ] ] ] # u.u.u.u.u.u.u.u.u.u.p J ] ] ] ] ] ] ] ] ] ] ] [ t ) u.u.u.u.u.u.u.u.u..., | | | | | | ] ] ] ] ] ] ] ] ",
"] ] ] ] ] ] ] ] ] ] ] ]   u.u.u.u.u.u.u.u.u.u.! e ] ] ] ] ] ] ] ] ] ] ] [ . 0.u.u.u.u.u.u.u.u.u.) 7 ] ] ] ] ] ] ] ] ] ] ] ] ] ] ",
"] ] ] ] ] ] ] ] ] ] ] ] O 2.u.u.u.u.u.u.u.u.u.,.@ G ] ] ] ] ] ] ] ] ] ] k M u.u.u.u.u.u.u.u.u.u.~ 0 U U U U U U U ' ] ] ] ] ] ] ",
"] ] ] ] ] ] ] ] ] ] ] ] 6 ) u.u.u.u.u.u.u.u.u.u.~ 0 ] ] ] ] ] ] ] ] ] c y 2.u.u.u.u.u.u.u.u.u.u.s A L L L L L L L L U ] ] ] ] ] ",
"] ] ] ] ] ] ] ] ] ] ] ] Z E u.u.u.u.u.u.u.u.u.u.u.h e K ] ] ] ] ] ] x = ..u.u.u.u.u.u.u.u.u.u.0.. L L L L L L L L L I ] ] ] ] ] ",
"] ] ] ] ] ] ] ] ] ] ] ] ] + u.u.u.u.u.u.u.u.u.u.u.u.! e 7 D ] J e 2 > +.u.u.u.u.u.u.u.u.u.u.u.) % L L L L L L L L L U ] ] ] ] ] ",
"] ] ] ] ] ] ] ] ] ] ] ] ] 2 _ u.u.u.u.u.u.u.u.u.u.u.u.>.( ^ s h ! _ u.u.u.u.u.u.u.u.u.u.u.u.u.s C L L L L L L L L L U ] ] ] ] ] ",
"] ] ] ] ] ] ] ] ] ] ] ] ] T f u.u.u.u.u.u.u.u.u.u.u.u.u.u.u.u.u.u.u.u.u.u.u.u.u.u.u.u.u.u.u...* L L L L L L L L L L U ] ] ] ] ] ",
"] ] ] ] ] ] ] ] ] ] ] ] ] ] 8 / u.u.u.u.u.u.u.u.u.u.u.u.u.u.u.u.u.u.u.u.u.u.u.u.u.u.u.u.u.u.> c L L L L L L L L L L U ] ] ] ] ] ",
"] ] ] ] ] ] ] ] ] ] ] ] ] ] F r *.u.u.u.u.u.u.u.u.u.u.u.u.u.u.u.u.u.u.u.u.u.u.u.u.u.u.u.u.! e P L L L L L L L L L L U ] ] ] ] ] ",
"] ] ] ] ] ] ] ] ] ] ] ] ] ] ] j 4 2.u.u.u.u.u.u.u.u.u.u.u.u.u.u.u.u.u.u.u.u.u.u.u.u.u.u._ 2 J P L L L L L L L L L L U ] ] ] ] ] ",
"] ] ] ] ] ] ] ] ] ] ] ] ] ] ] ] e i 7.u.u.u.u.u.u.u.u.u.u.u.u.u.u.u.u.u.u.u.u.u.u.u.u.$.= T ] P L L L L L L L L L L U ] ] ] ] ] ",
"] ] ] ] ] ] ] ] ] ] ] ] ] ] ] ] ] w : >.u.u.u.u.u.u.u.u.u.u.u.u.u.u.u.u.u.u.u.u.u.u.` t j ] ] I L L L L L L L L L L U ] ] ] ] ] ",
"] ] ] ] ] ] ] ] ] ] ] ] ] ] ] ] ] ] k - o.u.u.u.u.u.u.u.u.u.u.u.u.u.u.u.u.u.u.u.r.V < Y ] ] ] ] I I I I I I I I I I ] ] ] ] ] ] ",
"] ] ] ] ] ] ] ] ] ] ] ] ] ] ] ] ] ] ] v * B 4.u.u.u.u.u.u.u.u.u.u.u.u.u.u.u.u.` d 0 ] ] ] ] ] ] ] ] ] ] ] ] ] ] ] ] ] ] ] ] ] ] ",
"] ] ] ] ] ] ] ] ] ] ] ] ] ] ] ] ] ] ] ] ] e @ / 7.u.u.u.u.u.u.u.u.u.u.u.u.+.b < Y ] ] ] ] ] ] ] ] ] ] ] ] ] ] ] ] ] ] ] ] ] ] ] ",
"] ] ] ] ] ] ] ] ] ] ] ] ] ] ] ] ] ] ] ] ] ] F 8 . p ~ X.$.2.u.0.>.@.) W # & x ] ] ] ] ] ] ] ] ] ] ] ] ] ] ] ] ] ] ] ] ] ] ] ] ] ",
"] ] ] ] ] ] ] ] ] ] ] ] ] ] ] ] ] ] ] ] ] ] ] ] ] G 0 * o O   . X & 2 T ] ] ] ] ] ] ] ] ] ] ] ] ] ] ] ] ] ] ] ] ] ] ] ] ] ] ] ] ",
"] ] ] ] ] ] ] ] ] ] ] ] ] ] ] ] ] ] ] ] ] ] ] ] ] ] ] ] ] ] ] ] ] ] ] ] ] ] ] ] ] ] ] ] ] ] ] ] ] ] ] ] ] ] ] ] ] ] ] ] ] ] ] ] ",
"] ] ] ] ] ] ] ] ] ] ] ] ] ] ] ] ] ] ] ] ] ] ] ] ] ] ] ] ] ] ] ] ] ] ] ] ] ] ] ] ] ] ] ] ] ] ] ] ] ] ] ] ] ] ] ] ] ] ] ] ] ] ] ] ",
"] ] ] ] ] ] ] ] ] ] ] ] ] ] ] ] ] ] ] ] ] ] ] ] ] ] ] ] ] ] ] ] ] ] ] ] ] ] ] ] ] ] ] ] ] ] ] ] ] ] ] ] ] ] ] ] ] ] ] ] ] ] ] ] "
};
