/* XPM */
static const char *_[] = {
/* columns rows colors chars-per-pixel */
"64 64 187 2 ",
"   c #ACC0C1",
".  c #D45A5B",
"X  c #F63737",
"o  c #FA4040",
"O  c #F94141",
"+  c #DB5F60",
"@  c #F41414",
"#  c #FFF1F1",
"$  c white",
"%  c #FFFDFD",
"&  c #F81919",
"*  c #CC6F70",
"=  c #F37C7C",
"-  c #FDACAC",
";  c #DF3E3F",
":  c #A7B9BA",
">  c #A4B5B6",
",  c #A3B4B4",
"<  c #EA1E1E",
"1  c #FED5D5",
"2  c #FA4343",
"3  c #C08E8F",
"4  c #AABEBF",
"5  c #A1B1B1",
"6  c #B98181",
"7  c #E66C6C",
"8  c #FEDBDB",
"9  c #ED1B1B",
"0  c #AABDBE",
"q  c #DD3838",
"w  c #FDAFAF",
"e  c #FB7272",
"r  c #CE6B6B",
"t  c #ADC1C2",
"y  c #AEC1C2",
"u  c #AB9D9D",
"i  c #D46666",
"p  c #FFF8F8",
"a  c #F61212",
"s  c #B0C3C4",
"d  c #BACBCC",
"f  c #BBCBCC",
"g  c #B7C8C9",
"h  c #CF5353",
"j  c #FC8787",
"k  c #FCA1A1",
"l  c #DC4747",
"z  c #B5C7C8",
"x  c #F21212",
"c  c #FFEDED",
"v  c #FA3838",
"b  c #BC9797",
"n  c #C36C6C",
"m  c #F07575",
"M  c #FED4D4",
"N  c #EB2021",
"B  c #E72222",
"V  c #FECECE",
"C  c #FB6767",
"Z  c #CC7071",
"A  c #B58787",
"S  c #E26969",
"D  c #FFF5F5",
"F  c #F51111",
"G  c #DA3E3E",
"H  c #FDA6A6",
"J  c #FC9696",
"K  c #D94F4F",
"L  c #A2B3B4",
"P  c #FFFBFB",
"I  c #F92A2A",
"U  c #B99FA0",
"Y  c #ABBFC0",
"T  c #D16060",
"R  c #F88888",
"E  c #FDC5C5",
"W  c #E72C2C",
"Q  c #F11414",
"!  c #FEE8E8",
"~  c #FB5C5C",
"^  c #C77B7C",
"/  c #C77C7D",
"(  c #EF7475",
")  c #FEECEC",
"_  c #F21414",
"`  c #E62C2D",
"'  c #FDC4C4",
"]  c #FC8B8B",
"[  c #D55758",
"{  c #BB9A9A",
"}  c #E16767",
"|  c #FFFEFE",
" . c #F91E1E",
".. c #B6A7A8",
"X. c #DB4A4A",
"o. c #FC9D9D",
"O. c #FDBABA",
"+. c #E33434",
"@. c #B3C5C6",
"#. c #BACACB",
"$. c #FA5252",
"%. c #C48484",
"&. c #B1C4C5",
"*. c #B2C4C5",
"=. c #AFC2C3",
"-. c #D06666",
";. c #F68282",
":. c #FEE7E7",
">. c #F11313",
",. c #EF1717",
"<. c #FEE2E2",
"1. c #FC8080",
"2. c #D16262",
"3. c #A6B8B9",
"4. c #A5B6B6",
"5. c #BF7C7C",
"6. c #EB7071",
"7. c #A7BABB",
"8. c #E12F2F",
"9. c #FDBBBB",
"0. c #E03C3D",
"q. c #AF9494",
"w. c #D96262",
"e. c #FA4747",
"r. c #C18C8D",
"t. c #D34A4A",
"y. c #FC9494",
"u. c #FEE1E1",
"i. c #F51010",
"p. c #FB7676",
"a. c #CF6667",
"s. c #C86262",
"d. c #F47A7A",
"f. c #F81111",
"g. c #D26162",
"h. c #F44747",
"j. c #D95656",
"k. c #EC1818",
"l. c #FEDCDC",
"z. c #FDA5A5",
"x. c #DD4444",
"c. c #F11111",
"v. c #F92727",
"b. c #BA7F7F",
"n. c #E76C6C",
"m. c #FA3C3C",
"M. c #BE9494",
"N. c #A8BBBC",
"B. c #DE3535",
"V. c #FDB2B2",
"C. c #B2C5C6",
"Z. c #B2A3A4",
"A. c #D96868",
"S. c #FB6B6B",
"D. c #B4C6C7",
"F. c #F41111",
"G. c #FC9A9A",
"H. c #DA4C4C",
"J. c #C97677",
"K. c #F27B7C",
"L. c #BA9C9D",
"P. c #E92627",
"I. c #FECCCC",
"U. c #FEE0E0",
"Y. c #F35151",
"T. c #FFEEEE",
"R. c #F54646",
"E. c #D76263",
"W. c #F20F0F",
"Q. c #FEEBEB",
"!. c #F31010",
"~. c #B8C8C9",
"^. c #B9C9CA",
"/. c #A9BCBD",
"(. c #F10E0E",
"). c #A7BABA",
"_. c #A8BABB",
"`. c #FDC0C0",
"'. c #FEC9C9",
"]. c #DE3939",
"[. c #E52F30",
"{. c #BB8585",
"}. c #A5B7B7",
"|. c #A9BBBC",
" X c #A6B8B8",
".X c #F80000",
"XX c #D85050",
/* pixels */
"                                                                                                                                ",
"                                                                                                                                ",
"                                                                                                                                ",
"                                                                                                                                ",
"                                                          . X o o o o o o o o o O +                                             ",
"                                                          @ # $ $ $ $ $ $ $ $ $ % &                                             ",
"                                                        * = $ $ $ $ $ $ $ $ $ $ - ;                                             ",
"                                            : > , , , , < 1 $ $ $ $ $ $ $ $ $ $ 2 3                                             ",
"                                          4 5 5 5 5 5 6 7 $ $ $ $ $ $ $ $ $ $ 8 9                                               ",
"                                          0 5 5 5 5 5 q w $ $ $ $ $ $ $ $ $ $ e r                                               ",
"              t y y y y y y y y y y       4 5 5 5 5 u i % $ $ $ $ $ $ $ $ $ p a                                                 ",
"          s d f f f f f f f f f f f f g   4 5 5 5 5 h j $ $ $ $ $ $ $ $ $ $ k l                                                 ",
"          z f f f f f f f f f f f f f f t 4 5 5 5 5 x c $ $ $ $ $ $ $ $ $ $ v b                                                 ",
"          z f f f f f f f f f f f f f f t 4 5 5 5 n m $ $ $ $ $ $ $ $ $ $ M N                                                   ",
"          z f f f f f f f f f f f f f f t 4 5 5 5 B V $ $ $ $ $ $ $ $ $ $ C Z                                                   ",
"          z f f f f f f f f f f f f f f t 4 5 5 A S $ $ $ $ $ $ $ $ $ $ D F                                                     ",
"          z f f f f f f f f f f f f f f t 4 5 5 G H $ $ $ $ $ $ $ $ $ $ J K                                                     ",
"          z f f f f f f f f f f f f f f t   L 5 & P $ $ $ $ $ $ $ $ $ $ I U                                                     ",
"          z f f f f f f f f f f f f f f t   Y T R $ $ $ $ $ $ $ $ $ $ E W                                                       ",
"          z f f f f f f f f f f f f f f t     Q ! $ $ $ $ $ $ $ $ $ $ ~ ^                                                       ",
"          z f f f f f f f f f f f f f f t   / ( $ $ $ $ $ $ $ $ $ $ ) _                                                         ",
"          z f f f f f f f f f f f f f f t   ` ' $ $ $ $ $ $ $ $ $ $ ] [                                                         ",
"          z f f f f f f f f f f f f f f t { } $ $ $ $ $ $ $ $ $ $ |  ...                                                        ",
"          z f f f f f f f f f f f f f f t X.o.$ $ $ $ $ $ $ $ $ $ O.+.                                                          ",
"          @.f f f f f f f f f f f f f #.  a p $ $ $ $ $ $ $ $ $ $ $.%.                                                          ",
"            &.*.*.*.*.*.*.*.*.*.*.*.*.=.-.;.$ $ $ $ $ $ $ $ $ $ :.>.                                                            ",
"                                        ,.<.$ $ $ $ $ $ $ $ $ $ 1.2.                                                            ",
"                              3.4.> > 5.6.$ $ $ $ $ $ $ $ $ $ % &                                                               ",
"                            7.5 5 5 5 8.9.$ $ $ $ $ $ $ $ $ $ w 0.                                                              ",
"                            : 5 5 5 q.w.$ $ $ $ $ $ $ $ $ $ $ e.r.                                                              ",
"                            : 5 5 5 t.y.$ $ $ $ $ $ $ $ $ $ u.,.                                                                ",
"                            : 5 5 5 i.D $ $ $ $ $ $ $ $ $ $ p.a.                                                                ",
"                            : 5 5 s.d.$ $ $ $ $ $ $ $ $ $ $ f.  g.h.o o o o o o o o o o j.                                      ",
"                            : 5 5 k.l.$ $ $ $ $ $ $ $ $ $ z.x.  c.! $ $ $ $ $ $ $ $ $ $ v.                                      ",
"                            : 5 b.n.$ $ $ $ $ $ $ $ $ $ $ m.M.  c.! $ $ $ $ $ $ $ $ $ $ v.      t s s s s s s t                 ",
"                            N.5 B.V.$ $ $ $ $ $ $ $ $ $ M N     c.! $ $ $ $ $ $ $ $ $ $ v.    C.f f f f f f f f &.              ",
"                              Z.A.| $ $ $ $ $ $ $ $ $ $ S.Z     c.! $ $ $ $ $ $ $ $ $ $ v.    z f f f f f f f f D.              ",
"                              [ ] $ $ $ $ $ $ $ $ $ $ D F       c.! $ $ $ $ $ $ $ $ $ $ v.    z f f f f f f f f D.              ",
"                              F.# $ $ $ $ $ $ $ $ $ $ G.H.      c.! $ $ $ $ $ $ $ $ $ $ v.t   z f f f f f f f f D.              ",
"                            J.K.$ $ $ $ $ $ $ $ $ $ $ I L.      c.! $ $ $ $ $ $ $ $ $ $ v.@.  z f f f f f f f f D.              ",
"                            P.I.$ $ $ $ $ $ $ $ $ $ U.Y.o o o o o T.$ $ $ $ $ $ $ $ $ $ ~ o R.E.f f f f f f f f D.              ",
"                            W.Q.$ $ $ $ $ $ $ $ $ $ $ $ $ $ $ $ $ $ $ $ $ $ $ $ $ $ $ $ $ $ Q.!.f f f f f f f f D.              ",
"                            W.Q.$ $ $ $ $ $ $ $ $ $ $ $ $ $ $ $ $ $ $ $ $ $ $ $ $ $ $ $ $ $ Q.!.f f f f f f f f @.              ",
"                            W.Q.$ $ $ $ $ $ $ $ $ $ $ $ $ $ $ $ $ $ $ $ $ $ $ $ $ $ $ $ $ $ Q.W.~.^.^.^.^.^.^.~.y               ",
"                            W.Q.$ $ $ $ $ $ $ $ $ $ $ $ $ $ $ $ $ $ $ $ $ $ $ $ $ $ $ $ $ $ Q.W.                                ",
"                            W.Q.$ $ $ $ $ $ $ $ $ $ $ $ $ $ $ $ $ $ $ $ $ $ $ $ $ $ $ $ $ $ Q.W.Y /.N.N.N.N.N.N./.Y             ",
"                            W.Q.$ $ $ $ $ $ $ $ $ $ $ $ $ $ $ $ $ $ $ $ $ $ $ $ $ $ $ $ $ $ Q.W.5 5 5 5 5 5 5 5 5 5 /.          ",
"                            W.Q.$ $ $ $ $ $ $ $ $ $ $ $ $ $ $ $ $ $ $ $ $ $ $ $ $ $ $ $ $ $ Q.(.5 5 5 5 5 5 5 5 5 5 ).          ",
"                            W.Q.$ $ $ $ $ $ $ $ $ $ $ $ $ $ $ $ $ $ $ $ $ $ $ $ $ $ $ $ $ $ Q.(.5 5 5 5 5 5 5 5 5 5 _.          ",
"                            W.Q.$ $ $ $ $ $ $ $ $ $ $ $ $ $ $ $ $ $ $ $ $ $ $ $ $ $ $ $ $ $ Q.(.5 5 5 5 5 5 5 5 5 5 _.          ",
"                            W.Q.$ $ $ $ $ $ $ $ $ $ $ $ $ $ $ $ $ $ $ $ $ $ $ $ $ $ $ $ $ $ Q.(.5 5 5 5 5 5 5 5 5 5 _.          ",
"                            0.w `.`.`.`.`.`.`.`.`.`.`.`.`.`.`.`.`.$ $ $ $ $ $ $ $ $ $ $ '.`.w ].5 5 5 5 5 5 5 5 5 5 _.          ",
"                            r.0.[.[.[.[.[.[.[.[.[.[.[.[.[.[.[.[.[.! $ $ $ $ $ $ $ $ $ $ v.[.0.{.5 5 5 5 5 5 5 5 5 5 _.          ",
"                                                                c.! $ $ $ $ $ $ $ $ $ $ v.    }.5 5 5 5 5 5 5 5 5 5 _.          ",
"                                                                c.! $ $ $ $ $ $ $ $ $ $ v.    }.5 5 5 5 5 5 5 5 5 5 _.          ",
"                                                                c.! $ $ $ $ $ $ $ $ $ $ v.    : 5 5 5 5 5 5 5 5 5 5 |.          ",
"                                                                c.! $ $ $ $ $ $ $ $ $ $ v.      :  X X X X X X X X).            ",
"                                                                c.! $ $ $ $ $ $ $ $ $ $ v.                                      ",
"                                                                c.! $ $ $ $ $ $ $ $ $ $ v.                                      ",
"                                                                c.! $ $ $ $ $ $ $ $ $ $ v.                                      ",
"                                                                g.c..X.X.X.X.X.X.X.X.X.XXX                                      ",
"                                                                                                                                ",
"                                                                                                                                ",
"                                                                                                                                "
};
