/* XPM */
static const char *_[] = {
/* columns rows colors chars-per-pixel */
"64 64 210 2 ",
"   c #ACC0C1",
".  c #D85050",
"X  c #FA4040",
"o  c #F91A1A",
"O  c white",
"+  c #F91414",
"@  c #ADC1C2",
"#  c #AEC1C2",
"$  c #B0C3C4",
"%  c #BACBCC",
"&  c #BBCBCC",
"*  c #B5C7C8",
"=  c #F91919",
"-  c #FDC0C0",
";  c #E73B3C",
":  c #FFF5F5",
">  c #F50707",
",  c #E32C2C",
"<  c #E52F30",
"1  c #C67F80",
"2  c #A1B1B1",
"3  c #A6B8B9",
"4  c #AABDBE",
"5  c #F50808",
"6  c #E43233",
"7  c #DA4B4B",
"8  c #BB9A9B",
"9  c #FDBCBC",
"0  c #FC9C9C",
"q  c #EBA0A0",
"w  c #FA5454",
"e  c #F91D1D",
"r  c #E92525",
"t  c #D35E5F",
"y  c #B3AEAF",
"u  c #FECECE",
"i  c #FC8282",
"p  c #DA7777",
"a  c #D75353",
"s  c #B8A3A3",
"d  c #FFFCFC",
"f  c #FC9191",
"g  c #D95C5C",
"h  c #B3C5C6",
"j  c #FEECEC",
"k  c #F65C5C",
"l  c #D85151",
"z  c #B1C4C5",
"x  c #B2C4C5",
"c  c #FFFEFE",
"v  c #FB7575",
"b  c #B9A0A0",
"n  c #FC9595",
"m  c #FB7979",
"M  c #D85152",
"N  c #A7BABB",
"B  c #FFFDFD",
"V  c #F94141",
"C  c #CF6868",
"Z  c #A7B9BA",
"A  c #FEDFDF",
"S  c #EE1919",
"D  c #FA5B5B",
"F  c #CB7172",
"G  c #FED3D3",
"H  c #EB2121",
"J  c #D44A4A",
"K  c #FA4848",
"L  c #FDB1B1",
"P  c #F92626",
"I  c #A4B5B6",
"U  c #C18B8B",
"Y  c #E13B3B",
"T  c #F93535",
"R  c #FED7D7",
"E  c #FB6B6B",
"W  c #C18B8C",
"Q  c #CC6E6F",
"!  c #EE3B3B",
"~  c #FFF6F6",
"^  c #FDB0B0",
"/  c #E23C3D",
"(  c #A8BBBC",
")  c #A5B7B8",
"_  c #D65757",
"`  c #FA8080",
"'  c #FED6D6",
"]  c #EE2121",
"[  c #A8BABB",
"{  c #ABBFC0",
"}  c #F92F2F",
"|  c #FFEEEE",
" . c #F40E0E",
".. c #B4C6C7",
"X. c #F80909",
"o. c #F80404",
"O. c #F70303",
"+. c #FFFBFB",
"@. c #B1C3C4",
"#. c #DA5959",
"$. c #FC8080",
"%. c #FA7E7E",
"&. c #D55758",
"*. c #F80000",
"=. c #B9C9CA",
"-. c #B8C8C9",
";. c #F81111",
":. c #F80A0A",
">. c #F92121",
",. c #F92B2B",
"<. c #FFF1F1",
"1. c #F40A0A",
"2. c #A9BCBD",
"3. c #EE1818",
"4. c #FB6D6D",
"5. c #D45A5B",
"6. c #D85758",
"7. c #FA7F7F",
"8. c #EA1C1C",
"9. c #E53131",
"0. c #FDBEBE",
"q. c #F52525",
"w. c #CA7475",
"e. c #CE6B6B",
"r. c #F03D3D",
"t. c #FFF7F7",
"y. c #FDB4B4",
"u. c #DE3434",
"i. c #A7BABA",
"p. c #C58181",
"a. c #F19393",
"s. c #FECFCF",
"d. c #EE4C4C",
"f. c #DE4141",
"g. c #BF9191",
"h. c #C38586",
"j. c #E33536",
"k. c #FA3B3B",
"l. c #FEDBDB",
"z. c #FB6E6E",
"x. c #BA7E7E",
"c. c #F92E2E",
"v. c #FDA9A9",
"b. c #E77474",
"n. c #FA4B4B",
"m. c #FDB8B8",
"M. c #EF1616",
"N. c #FEE2E2",
"B. c #E91F1F",
"V. c #D06666",
"C. c #F67575",
"Z. c #FA5959",
"A. c #C56868",
"S. c #ED1F1F",
"D. c #FED9D9",
"F. c #E82323",
"G. c #CD6C6D",
"H. c #F25959",
"J. c #F93636",
"K. c #C66F6F",
"L. c #FB7F7F",
"P. c #FB6C6C",
"I. c #A5B7B7",
"U. c #E23839",
"Y. c #FCA0A0",
"T. c #DC4848",
"R. c #A9BBBC",
"E. c #C28889",
"W. c #E33D3E",
"Q. c #FDAAAA",
"!. c #D75555",
"~. c #BC9798",
"^. c #A6B8B8",
"/. c #BF9091",
"(. c #DF4040",
"). c #FB7474",
"_. c #FFF9F9",
"`. c #F95F5F",
"'. c #F82E2E",
"]. c #FDB6B6",
"[. c #FDA7A7",
"{. c #E25A5B",
"}. c #D75455",
"|. c #C38787",
" X c #E23737",
".X c #FA3F3F",
"XX c #FDACAC",
"oX c #E26868",
"OX c #DE4243",
"+X c #BE9293",
"@X c #C08E8F",
"#X c #DF3E3F",
"$X c #F51010",
"%X c #FA5050",
"&X c #FC8686",
"*X c #FC9B9B",
"=X c #FDAEAE",
"-X c #FDADAD",
";X c #FC9999",
":X c #FC8383",
">X c #DF898A",
",X c #F40B0B",
"<X c #B4ABAC",
"1X c #D45B5C",
"2X c #DA4B4C",
"3X c #E03D3D",
"4X c #E03E3E",
"5X c #DA4D4D",
"6X c #D35D5E",
"7X c #B3ADAE",
/* pixels */
"                                                                                                                                ",
"                                                                                                                                ",
"                                                                                                                                ",
"                                                                                                                                ",
"                              . X X X X X X X X X X X X X X X X X X X X X X X X X X X X X X X X X .                             ",
"                              o O O O O O O O O O O O O O O O O O O O O O O O O O O O O O O O O O +                             ",
"                              o O O O O O O O O O O O O O O O O O O O O O O O O O O O O O O O O O +                             ",
"                              o O O O O O O O O O O O O O O O O O O O O O O O O O O O O O O O O O +                             ",
"                              o O O O O O O O O O O O O O O O O O O O O O O O O O O O O O O O O O +                             ",
"                              o O O O O O O O O O O O O O O O O O O O O O O O O O O O O O O O O O +                             ",
"              @ # # # # # # # o O O O O O O O O O O O O O O O O O O O O O O O O O O O O O O O O O +                             ",
"          $ % & & & & & & & & o O O O O O O O O O O O O O O O O O O O O O O O O O O O O O O O O O +                             ",
"          * & & & & & & & & & o O O O O O O O O O O O O O O O O O O O O O O O O O O O O O O O O O +                             ",
"          * & & & & & & & & & o O O O O O O O O O O O O O O O O O O O O O O O O O O O O O O O O O +                             ",
"          * & & & & & & & & & o O O O O O O O O O O O O O O O O O O O O O O O O O O O O O O O O O +                             ",
"          * & & & & & & & & & = O O O O O O O O O O O - - - - - - - - - - - - - - - - - - - - - - ;                             ",
"          * & & & & & & & & & o O O O O O O O O O O : > , , , , , < < < < < < < < < < < < < < < < 1                             ",
"          * & & & & & & & & & o O O O O O O O O O O : > 2 2 2 2 3                                                               ",
"          * & & & & & & & & & o O O O O O O O O O O : > 4 4 4 4                                                                 ",
"          * & & & & & & & & & o O O O O O O O O O O : 5                                                                         ",
"          * & & & & & & & & & o O O O O O O O O O O : 5 < < < < 6 7 8                                                           ",
"          * & & & & & & & & & = O O O O O O O O O O O - - - - - 9 0 q w e r t y                                                 ",
"          * & & & & & & & & & = O O O O O O O O O O O O O O O O O O O O O u i p a s                                             ",
"          * & & & & & & & & & o O O O O O O O O O O O O O O O O O O O O O O O d f g t                                           ",
"          h & & & & & & & & & o O O O O O O O O O O O O O O O O O O O O O O O O O j k l                                         ",
"            z x x x x x x x x o O O O O O O O O O O O O O O O O O O O O O O O O O O c v . b                                     ",
"                              = O O O O O O O O O O O O O O O O O O O O O O O O O O O O n .                                     ",
"                              o O O O O O O O O O O O O O O O O O O O O O O O O O O O O O m M                                   ",
"                            N o O O O O O O O O O O O O O O O O O O O O O O O O O O O O O B V C                                 ",
"                            Z o O O O O O O O O O O O O O O O O O O O O O O O O O O O O O O A S                                 ",
"                            Z o O O O O O O O O O O O O O O O O O O O O O O O O O O O O O O O D F                               ",
"                            Z = O O O O O O O O O O O O O O O O O O O O O O O O O O O O O O O G H                               ",
"                            Z J X X X X X X X X X X X X X X X X X K L O O O O O O O O O O O O O P                               ",
"                            Z 2 2 2 2 2 2 2 2 I                   U Y T R O O O O O O O O O O O E W                             ",
"                            Z 2 2 2 2 2 2 2 2 I                       Q ! ~ O O O O O O O O O O ^ / $ $ $ $ $ @                 ",
"                            ( 2 2 2 2 2 2 2 2 )                         _ ` O O O O O O O O O O ' ] & & & & & & z               ",
"                              ( [ [ [ [ [ [ [ {                           } O O O O O O O O O O |  .& & & & & & ..              ",
"                                                                          X.O O O O O O O O O O O o.& & & & & & ..              ",
"                                                                          O.+.O O O O O O O O O O + & & & & & & ..              ",
"                                                                        @.O.+.O O O O O O O O O O + & & & & & & ..              ",
"                                                                        h O.+.O O O O O O O O O O + & & & & & & ..              ",
"                              #.$.$.$.$.$.$.$.$.$.$.%.&.                h *.O O O O O O O O O O O + & & & & & & ..              ",
"                              o O O O O O O O O O O : 5                 h O.+.O O O O O O O O O O + & & & & & & h               ",
"                              o O O O O O O O O O O : 5                 h O.+.O O O O O O O O O O + =.=.=.=.=.-.#               ",
"                              ;.O O O O O O O O O O O *.                h *.O O O O O O O O O O O :.                            ",
"                              *.O O O O O O O O O O O >.                h ,.O O O O O O O O O O <.1.( ( ( ( ( ( 2.{             ",
"                              3.A O O O O O O O O O O 4.5.              6.7.O O O O O O O O O O ' 8.2 2 2 2 2 2 2 2 2.          ",
"                              9.0.O O O O O O O O O O <.q.w.          e.r.t.O O O O O O O O O O y.u.2 2 2 2 2 2 2 2 i.          ",
"                              p.a.O O O O O O O O O O O s.d.f.g.  h.j.k.l.O O O O O O O O O O O z.x.2 2 2 2 2 2 2 2 [           ",
"                                c.O O O O O O O O O O O O O v.b.X n.m.O O O O O O O O O O O O O >.2 2 2 2 2 2 2 2 2 [           ",
"                                M.N.O O O O O O O O O O O O O O O O O O O O O O O O O O O O O G B.2 2 2 2 2 2 2 2 2 [           ",
"                                V.C.O O O O O O O O O O O O O O O O O O O O O O O O O O O O O Z.A.2 2 2 2 2 2 2 2 2 [           ",
"                                  S.D.O O O O O O O O O O O O O O O O O O O O O O O O O O O u F.2 2 2 2 2 2 2 2 2 2 [           ",
"                                  G.H.O O O O O O O O O O O O O O O O O O O O O O O O O O O J.K.2 2 2 2 2 2 2 2 2 2 [           ",
"                                    . L.O O O O O O O O O O O O O O O O O O O O O O O O O P.. I.2 2 2 2 2 2 2 2 2 2 [           ",
"                                      U.y.O O O O O O O O O O O O O O O O O O O O O O O Y.T.  Z 2 2 2 2 2 2 2 2 2 2 R.          ",
"                                      E.W.Q.O O O O O O O O O O O O O O O O O O O O O f !.~.    Z ^.^.^.^.^.^.^.^.i.            ",
"                                        /.(.).B O O O O O O O O O O O O O O O O O _.`.a s                                       ",
"                                            M '.].O O O O O O O O O O O O O O c [.{.}.                                          ",
"                                              |. X.XXX: O O O O O O O O O <.Y.oXOX+X                                            ",
"                                                  @X#X$X%X&X*X=X9 -X;X:X>X,XT.~.                                                ",
"                                                        <X1X2X3X6 4X5X6X7X                                                      ",
"                                                                                                                                ",
"                                                                                                                                "
};
