/* XPM */
static const char *_[] = {
/* columns rows colors chars-per-pixel */
"64 64 137 2 ",
"   c #F70303",
".  c #F80000",
"X  c #F40A0A",
"o  c #F80A0A",
"O  c #EF1616",
"+  c #EC1C1C",
"@  c #F21313",
"#  c #F91414",
"$  c #F21A1A",
"%  c #F91A1A",
"&  c #DE3434",
"*  c #DF3E3F",
"=  c #EB2424",
"-  c #E72B2B",
";  c #E92B2C",
":  c #F52525",
">  c #F92121",
",  c #F52D2D",
"<  c #F92E2E",
"1  c #E52F30",
"2  c #E33435",
"3  c #E13C3C",
"4  c #EC3A3A",
"5  c #F53636",
"6  c #F93535",
"7  c #F03D3D",
"8  c #FA3B3B",
"9  c #BA7E7E",
"0  c #DE4242",
"q  c #DB4A4A",
"w  c #CC5A5A",
"e  c #D75454",
"r  c #DA5152",
"t  c #D55758",
"y  c #D85758",
"u  c #D35C5D",
"i  c #DD5A5A",
"p  c #E34444",
"a  c #EB4D4E",
"s  c #FA4141",
"d  c #FA4B4B",
"f  c #E35C5D",
"g  c #FA5353",
"h  c #F25959",
"j  c #FA5C5C",
"k  c #C66C6C",
"l  c #CD6C6D",
"z  c #D16464",
"x  c #DA6565",
"c  c #CA7575",
"v  c #C97778",
"b  c #DE7E7E",
"n  c #E26868",
"m  c #F36161",
"M  c #FB6363",
"N  c #F66F6F",
"B  c #FB6B6B",
"V  c #E77474",
"C  c #F47474",
"Z  c #FB7373",
"A  c #FA7B7B",
"S  c #B38C8C",
"D  c #BE9293",
"F  c #BC9798",
"G  c #BB9B9C",
"H  c #B7A5A6",
"J  c #B8A3A3",
"K  c #B6A7A8",
"L  c #B4ABAC",
"P  c #A1B1B1",
"I  c #A7B9B9",
"U  c #A8BBBC",
"Y  c #C38585",
"T  c #CB8081",
"R  c #C18B8C",
"E  c #DF898A",
"W  c #E38182",
"Q  c #F78181",
"!  c #FB8383",
"~  c #FC8C8C",
"^  c #F19393",
"/  c #FC9393",
"(  c #FC9A9A",
")  c #C6A6A7",
"_  c #C5ACAD",
"`  c #FCA2A2",
"'  c #FDACAC",
"]  c #FDB5B5",
"[  c #FDBABA",
"{  c #ABBFC0",
"}  c #ACC0C1",
"|  c #B2C4C5",
" . c #B5C7C8",
".. c #B9C9CA",
"X. c #BACBCC",
"o. c #BBCBCC",
"O. c #FDC0C0",
"+. c #FDC3C3",
"@. c #FDC5C5",
"#. c #FDC7C7",
"$. c #FDC8C8",
"%. c #FECBCB",
"&. c #FECDCD",
"*. c #FECECE",
"=. c #FECFCF",
"-. c #FED3D3",
";. c #FED4D4",
":. c #FED6D6",
">. c #FED8D8",
",. c #FED9D9",
"<. c #FEDADA",
"1. c #FEDBDB",
"2. c #FEDDDD",
"3. c #FEDFDF",
"4. c #FEE2E2",
"5. c #FEE3E3",
"6. c #FEE4E4",
"7. c #FEE5E5",
"8. c #FEE6E6",
"9. c #FEE7E7",
"0. c #FEE9E9",
"q. c #FEEAEA",
"w. c #FEEBEB",
"e. c #FEECEC",
"r. c #FFEDED",
"t. c #FFEEEE",
"y. c #FFEFEF",
"u. c #FFF0F0",
"i. c #FFF1F1",
"p. c #FFF4F4",
"a. c #FFF5F5",
"s. c #FFF7F7",
"d. c #FFF3F3",
"f. c #FFFBFB",
"g. c #FFFDFD",
"h. c white",
"j. c #FFFFFF",
/* pixels */
"} } } } } } } } } } } } } } } } } } } } } } } } } } } } } } } } } } } } } } } } } } } } } } } } } } } } } } } } } } } } } } } } ",
"} } } } } } } } } } } } } } } } } } } } } } } } } } } } } } } } } } } } } } } } } } } } } } } } } } } } } } } } } } } } } } } } ",
"} } } } } } } } } } } } } } } } } } } } } } } } } } } } } } } } } } } } } } } } } } } } } } } } } } } } } } } } } } } } } } } } ",
"} } } } } } } } } } } } } } } } } } } } } } } } } } } K t - + X . X + - u K } } } } } } } } } } } } } } } } } } } } } } } } } } ",
"} } } } } } } } } } } } } } } } } } } } } } } } } z @ 8 ~ @.1.t.h.t.1.@.~ b @ z } } } } } } } } } } } } } } } } } } } } } } } } ",
"} } } } } } } } } } } } } } } } } } } } } } } z $ A 8.h.h.h.h.h.h.h.h.h.h.h.4.Q $ z } } } } } } } } } } } } } } } } } } } } } } ",
"} } } } } } } } } } } } } } } } } } } } } Y 2 B 0.h.h.h.h.h.h.h.h.h.h.h.h.h.h.h.8.N 0 D } } } } } } } } } } } } } } } } } } } } ",
"} } } } } } } } } } } } } } } } } } } } l = [ h.h.h.h.h.h.h.h.h.h.h.h.h.h.h.h.h.h.h.` q v } } } } } } } } } } } } } } } } } } } ",
"} } } } } } } } } } } } } } } } } } } l 4 1.h.h.h.h.h.h.h.h.h.h.h.h.h.h.h.h.h.h.h.h.h.$.4 c } } } } } } } } } } } } } } } } } } ",
"} } } } } } } } } } } } } } } } } } Y p 1.h.h.h.h.h.h.h.h.h.h.h.h.h.h.h.h.h.h.h.h.h.h.h.=.- G } } } } } } } } } } } } } } } } } ",
"} } } } } } } } } } } } } } } } } } 2 ] h.h.h.h.h.h.h.h.h.h.h.h.h.h.h.h.h.h.h.h.h.h.h.h.h.( q } } } } } } } } } } } } } } } } } ",
"} } } } } | o.o.o.o.o.o.o.o.o.o.o.x A h.h.h.h.h.h.h.h.h.h.h.h.h.h.h.h.h.h.h.h.h.h.h.h.h.h.h.g l } } } } } } } } } } } } } } } } ",
"} } } } }  .o.o.o.o.o.o.o.o.o.o.o.@ t.h.h.h.h.h.h.h.h.h.h.h.h.h.h.h.h.h.h.h.h.h.h.h.h.h.h.h.1.+ } } } } } } } } } } } } } } } } ",
"} } } } }  .o.o.o.o.o.o.o.o.o.o.x Q h.h.h.h.h.h.h.h.h.h.h.h.h.h.h.h.h.h.h.h.h.h.h.h.h.h.h.h.h.j c } } } } } } } } } } } } } } } ",
"} } } } }  .o.o.o.o.o.o.o.o.o.o.@ 0.h.h.h.h.h.h.h.h.h.h.h.h.h.h.h.h.h.h.h.h.h.h.h.h.h.h.h.h.h.=.= } } } } } } } } } } } } } } } ",
"} } } } }  .o.o.o.o.o.o.o.o.o._ W h.h.h.h.h.h.h.h.h.h.h.h.8.C . . o Z 0.h.h.h.h.h.h.h.h.h.h.h.h.> } } } } } } } } } } } } } } } ",
"} } } } }  .o.o.o.o.o.o.o.o.o.i / h.h.h.h.h.h.h.h.h.h.h.` q w P P } u $ ' h.h.h.h.h.h.h.h.h.h.h.Z R } } } } } } } } } } } } } } ",
"} } } } }  .o.o.o.o.o.o.o.o.o.= :.h.h.h.h.h.h.h.h.h.h.:.+ S P P I } } R p 4.h.h.h.h.h.h.h.h.h.h.] 3 } } } } } } } } } } } } } } ",
"} } } } }  .o.o.o.o.o.o.o.o.o.X t.h.h.h.h.h.h.h.h.h.h.d l U U U } } } } z N h.h.h.h.h.h.h.h.h.h.:.= } } } } } } } } } } } } } } ",
"} } } } }  .o.o.o.o.o.o.o.o.o.. h.h.h.h.h.h.h.h.h.h.h.o } } } } } } } } } > h.h.h.h.h.h.h.h.h.h.p.X } } } } } } } } } } } } } } ",
"} } } } }  .o.o.o.o.o.o.o.o.o.% h.h.h.h.h.h.h.h.h.h.p.X } } } } } } } } } . h.h.h.h.h.h.h.h.h.h.h.o } } } } } } } } } } } } } } ",
"} } } } }  .o.o.o.o.o.o.o.o.o.% h.h.h.h.h.h.h.h.h.h.p.X } } } } } } } } }   f.h.h.h.h.h.h.h.h.h.h.% } } } } } } } } } } } } } } ",
"} } } } }  .o.o.o.o.o.o.o.o.o.% h.h.h.h.h.h.h.h.h.h.p.X } } } } } } } } }   f.h.h.h.h.h.h.h.h.h.h.% { } } } } } } } } } } } } } ",
"} } } } }  .o.o.o.o.o.o.o.o.o.% h.h.h.h.h.h.h.h.h.h.p.X } } } } } } } } } e s s s s s s s s s s s r } } } } } } } } } } } } } } ",
"} } } } } | o.o.o.o.o.o.o.o.o.% h.h.h.h.h.h.h.h.h.h.p.X } } } } } } } } { } } } } } } } } } } } } } } } } } } } } } } } } } } } ",
"} } } } } } | | | | | | | | | % h.h.h.h.h.h.h.h.h.h.p.X } } } } } } } } } } } } } } } } } } } } } } } } } } } } } } } } } } } } ",
"} } } } } } } } } } } } } } } % h.h.h.h.h.h.h.h.h.h.p.X } } } } } } } } } } } } } } } } } } } } } } } } } } } } } } } } } } } } ",
"} } } } } } } } } } } } } } } % h.h.h.h.h.h.h.h.h.h.p.X X 6 g B A j 8 % + e H } } } } } } } } } } } } } } } } } } } } } } } } } ",
"} } } } } } } } } } } } } } I % h.h.h.h.h.h.h.h.h.h.h.' u.h.h.h.h.h.h.h.3.~ W + l } } } } } } } } } } } } } } } } } } } } } } } ",
"} } } } } } } } } } } } } } I % h.h.h.h.h.h.h.h.h.h.h.h.h.h.h.h.h.h.h.h.h.h.h.3.m 2 Y } } } } } } } } } } } } } } } } } } } } } ",
"} } } } } } } } } } } } } } I % h.h.h.h.h.h.h.h.h.h.h.h.h.h.h.h.h.h.h.h.h.h.h.h.h.[ a u } } } } } } } } } } } } } } } } } } } } ",
"} } } } } } } } } } } } } } I % h.h.h.h.h.h.h.h.h.h.h.h.h.h.h.h.h.h.h.h.h.h.h.h.h.h.0.5 u } } } } } } } } } } } } } } } } } } } ",
"} } } } } } } } } } } } } } I % h.h.h.h.h.h.h.h.h.h.h.h.h.h.h.h.h.h.h.h.h.h.h.h.h.h.h.t.5 u } } } } } } } } } } } } } } } } } } ",
"} } } } } } } } } } } } } } I % h.h.h.h.h.h.h.h.h.h.h.h.h.h.h.h.h.h.h.h.h.h.h.h.h.h.h.h.t., l } } } } } } } } } } } } } } } } } ",
"} } } } } } } } } } } } } } I % h.h.h.h.h.h.h.h.h.h.h.h.h.h.h.h.h.h.h.h.h.h.h.h.h.h.h.h.h.:.= G } | | | | | | } } } } } } } } } ",
"} } } } } } } } } } } } } } U % h.h.h.h.h.h.h.h.h.h.h.h.h.h.h.h.h.h.h.h.h.h.h.h.h.h.h.h.h.h.( q o.o.o.o.o.o.o.o.| } } } } } } } ",
"} } } } } } } } } } } } } } } % h.h.h.h.h.h.h.h.h.h.h.h.h.h.h.h.h.h.h.h.h.h.h.h.h.h.h.h.h.h.h.> ) o.o.o.o.o.o.o. .} } } } } } } ",
"} } } } } } } } } } } } } } } % h.h.h.h.h.h.h.h.h.h.h.h.h.h.h.h.h.h.h.h.h.h.h.h.h.h.h.h.h.h.h.( r o.o.o.o.o.o.o. .} } } } } } } ",
"} } } } } } } } } } } } } } } % h.h.h.h.h.h.h.h.h.h.h.h.h.h.h.@.O.$.h.h.h.h.h.h.h.h.h.h.h.h.h.h.o o.o.o.o.o.o.o. .} } } } } } } ",
"} } } } } } } } } } } } } } } % h.h.h.h.h.h.h.h.h.h.h.h.h.' f - 1 - < [ h.h.h.h.h.h.h.h.h.h.h.h.d _ o.o.o.o.o.o. .} } } } } } } ",
"} } } } } } } } } } } } } } } % h.h.h.h.h.h.h.h.h.h.h.h.M 3 R } } } Y 2 A h.h.h.h.h.h.h.h.h.h.h.~ i o.o.o.o.o.o. .} } } } } } } ",
"} } } } } } } } } } } } } } } % h.h.h.h.h.h.h.h.h.h.h.' 3 } } } } } } } ; O.h.h.h.h.h.h.h.h.h.h.@.; o.o.o.o.o.o. .} } } } } } } ",
"} } } } } } } } } } } } } } } % h.h.h.h.h.h.h.h.h.h.h.6 R } } } } } } } T C h.h.h.h.h.h.h.h.h.h.8.@ o.o.o.o.o.o.| } } } } } } } ",
"} } } } } } } } } } } } } } } % h.h.h.h.h.h.h.h.h.h.h.. } } } } } } } } | % h.h.h.h.h.h.h.h.h.h.h.. ............} } } } } } } } ",
"} } } } } } } } } } } } } } } # h.h.h.h.h.h.h.h.h.h.h.. } } } } } } } } | . h.h.h.h.h.h.h.h.h.h.h.o } } } } } } } } } } } } } } ",
"} } } } } } } } } } } } } } } . h.h.h.h.h.h.h.h.h.h.h.> } } } } } } } } | < h.h.h.h.h.h.h.h.h.h.u.X U U U U U U U { } } } } } } ",
"} } } } } } } } } } } } } } } + 3.h.h.h.h.h.h.h.h.h.h.B u } } } } } } } y A h.h.h.h.h.h.h.h.h.h.:.+ P P P P P P P P U } } } } } ",
"} } } } } } } } } } } } } } } 2 [ h.h.h.h.h.h.h.h.h.h.u.: c } } } } } l 7 p.h.h.h.h.h.h.h.h.h.h.] & P P P P P P P P I } } } } } ",
"} } } } } } } } } } } } } } } Y ^ h.h.h.h.h.h.h.h.h.h.h.=.a 0 D } Y 2 8 1.h.h.h.h.h.h.h.h.h.h.h.B 9 P P P P P P P P U } } } } } ",
"} } } } } } } } } } } } } } } } < h.h.h.h.h.h.h.h.h.h.h.h.h.' V s d [ h.h.h.h.h.h.h.h.h.h.h.h.h.> P P P P P P P P P U } } } } } ",
"} } } } } } } } } } } } } } } } O 4.h.h.h.h.h.h.h.h.h.h.h.h.h.h.h.h.h.h.h.h.h.h.h.h.h.h.h.h.h.-.+ P P P P P P P P P U } } } } } ",
"} } } } } } } } } } } } } } } } z C h.h.h.h.h.h.h.h.h.h.h.h.h.h.h.h.h.h.h.h.h.h.h.h.h.h.h.h.h.j k P P P P P P P P P U } } } } } ",
"} } } } } } } } } } } } } } } } } + 1.h.h.h.h.h.h.h.h.h.h.h.h.h.h.h.h.h.h.h.h.h.h.h.h.h.h.h.=.= P P P P P P P P P P U } } } } } ",
"} } } } } } } } } } } } } } } } } l h h.h.h.h.h.h.h.h.h.h.h.h.h.h.h.h.h.h.h.h.h.h.h.h.h.h.h.6 k P P P P P P P P P P U } } } } } ",
"} } } } } } } } } } } } } } } } } } r A h.h.h.h.h.h.h.h.h.h.h.h.h.h.h.h.h.h.h.h.h.h.h.h.h.B r I P P P P P P P P P P U } } } } } ",
"} } } } } } } } } } } } } } } } } } } 3 ] h.h.h.h.h.h.h.h.h.h.h.h.h.h.h.h.h.h.h.h.h.h.h.` q } I P P P P P P P P P P U } } } } } ",
"} } } } } } } } } } } } } } } } } } } R 3 ' h.h.h.h.h.h.h.h.h.h.h.h.h.h.h.h.h.h.h.h.h./ e F } } I I I I I I I I I I } } } } } } ",
"} } } } } } } } } } } } } } } } } } } } D 0 Z h.h.h.h.h.h.h.h.h.h.h.h.h.h.h.h.h.h.f.j e J } } } } } } } } } } } } } } } } } } } ",
"} } } } } } } } } } } } } } } } } } } } } } r < ] h.h.h.h.h.h.h.h.h.h.h.h.h.h.h.` f e } } } } } } } } } } } } } } } } } } } } } ",
"} } } } } } } } } } } } } } } } } } } } } } } Y 2 8 ' p.h.h.h.h.h.h.h.h.h.u.` n 0 D } } } } } } } } } } } } } } } } } } } } } } ",
"} } } } } } } } } } } } } } } } } } } } } } } } } R * @ g ! ( ' [ ' ( ! E X q F } } } } } } } } } } } } } } } } } } } } } } } } ",
"} } } } } } } } } } } } } } } } } } } } } } } } } } } } L u q 3 2 3 q u L } } } } } } } } } } } } } } } } } } } } } } } } } } } ",
"} } } } } } } } } } } } } } } } } } } } } } } } } } } } } } } } } } } } } } } } } } } } } } } } } } } } } } } } } } } } } } } } ",
"} } } } } } } } } } } } } } } } } } } } } } } } } } } } } } } } } } } } } } } } } } } } } } } } } } } } } } } } } } } } } } } } "
};
