/* XPM */
static const char *_[] = {
/* columns rows colors chars-per-pixel */
"64 64 179 2 ",
"   c #ACC0C1",
".  c #D85050",
"X  c #FA4040",
"o  c #D95555",
"O  c #F80D0D",
"+  c white",
"@  c #F92121",
"#  c #ADC1C2",
"$  c #AEC1C2",
"%  c #B0C3C4",
"&  c #BACBCC",
"*  c #BBCBCC",
"=  c #B5C7C8",
"-  c #EA3939",
";  c #FDC0C0",
":  c #FFF2F2",
">  c #F91919",
",  c #D08787",
"<  c #E93232",
"1  c #E53030",
"2  c #E52F2F",
"3  c #E32C2C",
"4  c #E52F30",
"5  c #F54D4D",
"6  c #FEC9C9",
"7  c #EC4B4B",
"8  c #A2B3B4",
"9  c #A1B1B1",
"0  c #C47676",
"q  c #E93D3D",
"w  c #FEECEC",
"e  c #FC9494",
"r  c #D95454",
"t  c #C87879",
"y  c #ABBFC0",
"u  c #AABDBE",
"i  c #E72C2C",
"p  c #FDC6C6",
"a  c #FB7373",
"s  c #D85151",
"d  c #B9A0A1",
"f  c #D75455",
"g  c #FA7A7A",
"h  c #FB7979",
"j  c #C67E7E",
"k  c #E94747",
"l  c #FFF9F9",
"z  c #FDA5A5",
"x  c #DD4444",
"c  c #E62E2E",
"v  c #FDC2C2",
"b  c #FECACA",
"n  c #E82828",
"m  c #BE9494",
"M  c #D16262",
"N  c #F66D6D",
"B  c #F92525",
"V  c #C97878",
"C  c #F21B1B",
"Z  c #FEE7E7",
"A  c #FB6868",
"S  c #B3C5C6",
"D  c #BACACB",
"F  c #D55758",
"G  c #FA8383",
"H  c #FDC4C4",
"J  c #E62C2D",
"K  c #B1C4C5",
"L  c #B2C4C5",
"P  c #AFC2C3",
"I  c #DC6161",
"U  c #FFF5F5",
"Y  c #F91F1F",
"T  c #C77C7D",
"R  c #FC8686",
"E  c #D45B5C",
"W  c #A6B8B9",
"Q  c #A5B6B6",
"!  c #A4B5B6",
"~  c #A5B7B8",
"^  c #ABBEBF",
"/  c #B8A1A2",
"(  c #DC6364",
")  c #F31717",
"_  c #B4ABAC",
"`  c #A7BABB",
"'  c #A5B6B7",
"]  c #D85152",
"[  c #FC9393",
"{  c #FC8181",
"}  c #D25F5F",
"|  c #A7B9BA",
" . c #C86161",
".. c #EC1818",
"X. c #F80000",
"o. c #F91818",
"O. c #F71A1A",
"+. c #FEDDDD",
"@. c #F80505",
"#. c #A8BBBC",
"$. c #B2C5C6",
"%. c #ED1919",
"&. c #B4C6C7",
"*. c #EE1A1A",
"=. c #CE696A",
"-. c #F24B4B",
";. c #FEDEDE",
":. c #FB7A7A",
">. c #DD5353",
",. c #B6C7C8",
"<. c #F91C1C",
"1. c #FFF7F7",
"2. c #F60D0D",
"3. c #B1C3C4",
"4. c #F38B8B",
"5. c #FDA6A6",
"6. c #DD4343",
"7. c #E82929",
"8. c #FA5050",
"9. c #BE9394",
"0. c #F91313",
"q. c #FFFCFC",
"w. c #F70B0B",
"e. c #BE9192",
"r. c #EA8888",
"t. c #FDBDBD",
"y. c #E43232",
"u. c #B8C8C9",
"i. c #B9C9CA",
"p. c #DE4242",
"a. c #FDA8A8",
"s. c #C58182",
"d. c #F30C0C",
"f. c #FFEFEF",
"g. c #F92E2E",
"h. c #A9BCBD",
"j. c #F93232",
"k. c #FEEAEA",
"l. c #F21010",
"z. c #A8BABB",
"x. c #C28888",
"c. c #EF9393",
"v. c #FCA4A4",
"b. c #DD4545",
"n. c #A5B7B7",
"m. c #A7BABA",
"M. c #E23838",
"N. c #FDB5B5",
"B. c #FB6565",
"V. c #BD9495",
"C. c #F40A0A",
"Z. c #FFF3F3",
"A. c #F92626",
"S. c #F92D2D",
"D. c #FEEBEB",
"F. c #F20F0F",
"G. c #B6A6A7",
"H. c #E59494",
"J. c #FDBABA",
"K. c #E33434",
"L. c #D65656",
"P. c #FC8D8D",
"I. c #FC8888",
"U. c #D55A5A",
"Y. c #E33536",
"T. c #FDB8B8",
"R. c #FA5B5B",
"E. c #B5A9AA",
"W. c #F93434",
"Q. c #A9BBBC",
"!. c #F91E1E",
"~. c #A6B8B8",
"^. c #FA3737",
"/. c #FED8D8",
"(. c #EC1D1E",
"). c #FA4545",
"_. c #FA4949",
"`. c #E72B2B",
"'. c #C77B7B",
/* pixels */
"                                                                                                                                ",
"                                                                                                                                ",
"                                                                                                                                ",
"                                                                                                                                ",
"                              . X X X X X X X X X X X X X X X X X X X X X X X X X X X X X X X X X o                             ",
"                              O + + + + + + + + + + + + + + + + + + + + + + + + + + + + + + + + + @                             ",
"                              O + + + + + + + + + + + + + + + + + + + + + + + + + + + + + + + + + @                             ",
"                              O + + + + + + + + + + + + + + + + + + + + + + + + + + + + + + + + + @                             ",
"                              O + + + + + + + + + + + + + + + + + + + + + + + + + + + + + + + + + @                             ",
"                              O + + + + + + + + + + + + + + + + + + + + + + + + + + + + + + + + + @                             ",
"              # $ $ $ $ $ $ $ O + + + + + + + + + + + + + + + + + + + + + + + + + + + + + + + + + @                             ",
"          % & * * * * * * * * O + + + + + + + + + + + + + + + + + + + + + + + + + + + + + + + + + @                             ",
"          = * * * * * * * * * O + + + + + + + + + + + + + + + + + + + + + + + + + + + + + + + + + @                             ",
"          = * * * * * * * * * O + + + + + + + + + + + + + + + + + + + + + + + + + + + + + + + + + @                             ",
"          = * * * * * * * * * O + + + + + + + + + + + + + + + + + + + + + + + + + + + + + + + + + @                             ",
"          = * * * * * * * * * - ; ; ; ; ; ; ; ; ; ; ; ; ; ; ; ; ; ; ; : + + + + + + + + + + + + + >                             ",
"          = * * * * * * * * * , < < < < 1 2 3 3 3 3 3 3 3 3 3 3 3 4 5 + + + + + + + + + + + + 6 7 .                             ",
"          = * * * * * * * * * * * * * * #   8 9 9 9 9 9 9 9 9 9 0 q w + + + + + + + + + + + e r t                               ",
"          = * * * * * * * * * * * * * * #   y u u u u u u u u u i p + + + + + + + + + + + a s d                                 ",
"          = * * * * * * * * * * * * * * #                     f g + + + + + + + + + + + h .                                     ",
"          = * * * * * * * * * * * * * * #                   j k l + + + + + + + + + + z x                                       ",
"          = * * * * * * * * * * * * * * #                   c v + + + + + + + + + + b n m                                       ",
"          = * * * * * * * * * * * * * * #                 M N + + + + + + + + + + + B V                                         ",
"          = * * * * * * * * * * * * * * #                 C Z + + + + + + + + + + A .                                           ",
"          S * * * * * * * * * * * * * D                 F G + + + + + + + + + + H J                                             ",
"            K L L L L L L L L L L L L P               d I U + + + + + + + + + + Y T                                             ",
"                                                      s e + + + + + + + + + + R E                                               ",
"                              W Q ! ! ! ! ! ~ ^     / ( + + + + + + + + + + w ) _                                               ",
"                            ` 9 9 9 9 9 9 9 9 '     ] [ + + + + + + + + + + { }                                                 ",
"                            | 9  ...X.X.X.X.X.X.X.X.o.l + + + + + + + + + l O.X.X.X..                                           ",
"                            | 9 ..+.+ + + + + + + + + + + + + + + + + + + + + + + + @.                                          ",
"                            | 9 ..+.+ + + + + + + + + + + + + + + + + + + + + + + + @.                                          ",
"                            | 9 ..+.+ + + + + + + + + + + + + + + + + + + + + + + + @.                                          ",
"                            | 9 ..+.+ + + + + + + + + + + + + + + + + + + + + + + + @.                                          ",
"                            | 9 ..+.+ + + + + + + + + + + + + + + + + + + + + + + + @.          # % % % % % % #                 ",
"                            #.9 ..+.+ + + + + + + + + + + + + + + + + + + + + + + + @.        $.* * * * * * * * K               ",
"                              #.%.+.+ + + + + + + + + + + + + + + + + + + + + + + + @.        = * * * * * * * * &.              ",
"                                *.+.+ + + + + + + + + + + + + + + + + + + + + + + + @.        = * * * * * * * * &.              ",
"                                =.-.X X X X X ;.+ + + + + + + + + + :.X X X X X X X >.,.&.#   = * * * * * * * * &.              ",
"                                            <.+ + + + + + + + + + 1.2.  3.* * * * * * * * S   = * * * * * * * * &.              ",
"                                          t 4.+ + + + + + + + + + 5.6.  S * * * * * * * * ,.  = * * * * * * * * &.              ",
"                                          7.6 + + + + + + + + + + 8.9.  S * * * * * * * * ,.  = * * * * * * * * &.              ",
"                                          0.+ + + + + + + + + + q.w.    S * * * * * * * * ,.  &.* * * * * * * * S               ",
"                                        e.r.+ + + + + + + + + + t.y.    S * * * * * * * * ,.  $ u.i.i.i.i.i.i.u.$               ",
"                                        p.a.+ + + + + + + + + + a s.    S * * * * * * * * ,.                                    ",
"                                        d.f.+ + + + + + + + + + g.      S * * * * * * * * ,.    y h.#.#.#.#.#.#.h.y             ",
"                                        j.+ + + + + + + + + + k.l.      3.* * * * * * * * &.  z.9 9 9 9 9 9 9 9 9 9 h.          ",
"                                      x.c.+ + + + + + + + + + v.b.        K L L L L L L L #   n.9 9 9 9 9 9 9 9 9 9 m.          ",
"                                      M.N.+ + + + + + + + + + B.V.                            n.9 9 9 9 9 9 9 9 9 9 z.          ",
"                                      C.Z.+ + + + + + + + + + A.                              n.9 9 9 9 9 9 9 9 9 9 z.          ",
"                                      S.+ + + + + + + + + + D.F.                              n.9 9 9 9 9 9 9 9 9 9 z.          ",
"                                    G.H.+ + + + + + + + + + J.K.                              n.9 9 9 9 9 9 9 9 9 9 z.          ",
"                                    L.P.+ + + + + + + + + + I.U.                              n.9 9 9 9 9 9 9 9 9 9 z.          ",
"                                    Y.T.+ + + + + + + + + + R.E.                              n.9 9 9 9 9 9 9 9 9 9 z.          ",
"                                    *.+.+ + + + + + + + + + W.                                n.9 9 9 9 9 9 9 9 9 9 z.          ",
"                                    X.+ + + + + + + + + + + O                                 | 9 9 9 9 9 9 9 9 9 9 Q.          ",
"                                    !.+ + + + + + + + + + : C.                                  | ~.~.~.~.~.~.~.~.m.            ",
"                                    ^.+ + + + + + + + + + /.(.                                                                  ",
"                                    ).+ + + + + + + + + + b n                                                                   ",
"                                    _.+ + + + + + + + + + p `.                                                                  ",
"                                    . X.X.X.X.X.X.X.X.X.X.`.'.                                                                  ",
"                                                                                                                                ",
"                                                                                                                                ",
"                                                                                                                                "
};
