/* XPM */
static const char *_[] = {
/* columns rows colors chars-per-pixel */
"64 64 150 2 ",
"   c #F60606",
".  c #F80202",
"X  c #F40C0C",
"o  c #F80C0C",
"O  c #EE1616",
"+  c #ED1C1D",
"@  c #F21313",
"#  c #F91414",
"$  c #F11919",
"%  c #F91B1B",
"&  c #DC3C3D",
"*  c #E72323",
"=  c #EC2222",
"-  c #E62C2C",
";  c #E82929",
":  c #F32424",
">  c #F92626",
",  c #F52E2E",
"<  c #F82E2E",
"1  c #E33435",
"2  c #E93535",
"3  c #E13B3C",
"4  c #F63232",
"5  c #F93434",
"6  c #F53D3D",
"7  c #FA3B3B",
"8  c #BD7979",
"9  c #DD4142",
"0  c #DB4A4A",
"q  c #CD5757",
"w  c #CB5C5C",
"e  c #D65454",
"r  c #D85151",
"t  c #D55758",
"y  c #D35C5C",
"u  c #EA4040",
"i  c #EB4F4F",
"p  c #F54141",
"a  c #FA4141",
"s  c #FA4B4B",
"d  c #E75353",
"f  c #E25A5B",
"g  c #EE5F5F",
"h  c #F55555",
"j  c #FA5252",
"k  c #F35F5F",
"l  c #FA5B5B",
"z  c #C36C6C",
"x  c #CD6C6C",
"c  c #D26263",
"v  c #DA6566",
"b  c #CB7273",
"n  c #C77C7C",
"m  c #C8797A",
"M  c #D57475",
"N  c #DF7474",
"B  c #DF7778",
"V  c #DE7E7E",
"C  c #E26868",
"Z  c #FB6363",
"A  c #F46D6D",
"S  c #FB6B6B",
"D  c #E67070",
"F  c #EC7272",
"G  c #F67575",
"H  c #FB7474",
"J  c #FA7C7C",
"K  c #B58787",
"L  c #B88282",
"P  c #B98C8C",
"I  c #AB9E9E",
"U  c #BE9293",
"Y  c #BC9798",
"T  c #BB9A9B",
"R  c #B7A4A5",
"E  c #B8A2A3",
"W  c #B6A7A8",
"Q  c #B4ACAD",
"!  c #B3AFB0",
"~  c #A1B1B1",
"^  c #A7B9B9",
"/  c #A8BBBC",
"(  c #C38686",
")  c #C98384",
"_  c #C28B8C",
"`  c #CF898A",
"'  c #DF898A",
"]  c #E28586",
"[  c #ED8A8B",
"{  c #FC8383",
"}  c #FC8C8C",
"|  c #F28F90",
" . c #F19495",
".. c #FC9191",
"X. c #FC9C9C",
"o. c #FDA4A4",
"O. c #FDACAC",
"+. c #FDB4B4",
"@. c #FDBBBB",
"#. c #ABBFC0",
"$. c #ACC0C1",
"%. c #B2C4C5",
"&. c #B5C7C8",
"*. c #B8C8C9",
"=. c #B9C9CA",
"-. c #BACBCC",
";. c #BBCBCC",
":. c #FDC2C2",
">. c #FDC5C5",
",. c #FDC6C6",
"<. c #FDC7C7",
"1. c #FECECE",
"2. c #FECFCF",
"3. c #FEC9C9",
"4. c #FED1D1",
"5. c #FED4D4",
"6. c #FED7D7",
"7. c #FED8D8",
"8. c #FEDADA",
"9. c #FEDBDB",
"0. c #FEDCDC",
"q. c #FEE0E0",
"w. c #FEE1E1",
"e. c #FEE3E3",
"r. c #FEE6E6",
"t. c #FEE7E7",
"y. c #FEE8E8",
"u. c #FEE9E9",
"i. c #FEEAEA",
"p. c #FEEBEB",
"a. c #FFEDED",
"s. c #FFEEEE",
"d. c #FFEFEF",
"f. c #FFEEEE",
"g. c #FFF0F0",
"h. c #FFF1F1",
"j. c #FFF2F2",
"k. c #FFF3F3",
"l. c #FFF4F4",
"z. c #FFF5F5",
"x. c #FFF6F6",
"c. c #FFF7F7",
"v. c #FFF3F3",
"b. c #FFF8F8",
"n. c #FFFBFB",
"m. c #FFFCFC",
"M. c #FFFDFD",
"N. c #FFFEFE",
"B. c white",
"V. c #FFFFFF",
/* pixels */
"$.$.$.$.$.$.$.$.$.$.$.$.$.$.$.$.$.$.$.$.$.$.$.$.$.$.$.$.$.$.$.$.$.$.$.$.$.$.$.$.$.$.$.$.$.$.$.$.$.$.$.$.$.$.$.$.$.$.$.$.$.$.$.$.",
"$.$.$.$.$.$.$.$.$.$.$.$.$.$.$.$.$.$.$.$.$.$.$.$.$.$.$.$.$.$.$.$.$.$.$.$.$.$.$.$.$.$.$.$.$.$.$.$.$.$.$.$.$.$.$.$.$.$.$.$.$.$.$.$.",
"$.$.$.$.$.$.$.$.$.$.$.$.$.$.$.$.$.$.$.$.$.$.$.$.$.$.$.$.$.$.$.$.$.$.$.$.$.$.$.$.$.$.$.$.$.$.$.$.$.$.$.$.$.$.$.$.$.$.$.$.$.$.$.$.",
"$.$.$.$.$.$.$.$.$.$.$.$.$.$.$.$.$.$.$.$.$.$.$.$.$.$.$.W t - + X . X + - t W $.$.$.$.$.$.$.$.$.$.$.$.$.$.$.$.$.$.$.$.$.$.$.$.$.$.",
"$.$.$.$.$.$.$.$.$.$.$.$.$.$.$.$.$.$.$.$.$.$.$.$.$.c @ 7 } >.9.s.m.s.9.>.} V @ c $.$.$.$.$.$.$.$.$.$.$.$.$.$.$.$.$.$.$.$.$.$.$.$.",
"$.$.$.$.$.$.$.$.$.$.$.$.$.$.$.$.$.$.$.$.$.$.$.b = H t.m.m.m.m.m.m.m.m.m.m.m.t.G - m $.$.$.$.$.$.$.$.$.$.$.$.$.$.$.$.$.$.$.$.$.$.",
"$.$.$.$.$.$.$.$.$.$.$.$.$.$.$.$.$.$.$.$.$.$.r 5 4.m.m.m.m.m.m.m.m.m.m.m.m.m.m.m.>.i e $.$.$.$.$.$.$.$.$.$.$.$.$.$.$.$.$.$.$.$.$.",
"$.$.$.$.$.$.$.$.$.$.$.$.$.$.$.$.$.$.$.$.U 9 H m.m.m.m.m.m.m.m.m.m.m.m.m.m.m.m.m.m.b.Z r E $.$.$.$.$.$.$.$.$.$.$.$.$.$.$.$.$.$.$.",
"$.$.$.$.$.$.$.$.$.$.$.$.$.$.$.$.$.$.$.( 3 O.m.m.m.m.m.m.m.m.m.m.m.m.m.m.m.m.m.m.m.m.m...e T $.$.$.$.$.$.$.$.$.$.$.$.$.$.$.$.$.$.",
"$.$.$.$.$.$.$.$.$.$.$.$.$.$.$.$.$.$.! c +.m.m.m.m.m.m.m.m.m.m.m.m.m.m.m.m.m.m.m.m.m.m.m.X.0 $.$.$.$.$.$.$.$.$.$.$.$.$.$.$.$.$.$.",
"$.$.$.$.$.$.$.$.$.$.$.$.$.$.$.$.$.$.c { m.m.m.m.m.m.m.m.m.m.m.m.m.m.m.m.m.m.m.m.m.m.m.m.m.S r $.$.$.$.$.$.$.$.$.$.$.$.$.$.$.$.$.",
"$.$.$.$.$.%.;.;.;.;.;.;.;.;.;.;.;.M Z m.m.m.m.m.m.m.m.m.m.m.m.m.m.m.m.m.m.m.m.m.m.m.m.m.m.m.5 ( $.$.$.$.$.$.$.$.$.$.$.$.$.$.$.$.",
"$.$.$.$.$.&.;.;.;.;.;.;.;.;.;.;.;.= 6.m.m.m.m.m.m.m.m.m.m.m.m.m.m.m.m.m.m.m.m.m.m.m.m.m.m.m.@.1 $.$.$.$.$.$.$.$.$.$.$.$.$.$.$.$.",
"$.$.$.$.$.&.;.;.;.;.;.;.;.;.;.;.M A m.m.m.m.m.m.m.m.m.m.m.m.m.m.m.m.m.m.m.m.m.m.m.m.m.m.m.m.m.7 ( $.$.$.$.$.$.$.$.$.$.$.$.$.$.$.",
"$.$.$.$.$.&.;.;.;.;.;.;.;.;.;.;.= 6.m.m.m.m.m.m.m.m.m.m.m.m.m.m.m.m.m.m.m.m.m.m.m.m.m.m.m.m.m.+.3 $.$.$.$.$.$.$.$.$.$.$.$.$.$.$.",
"$.$.$.$.$.&.;.;.;.;.;.;.;.;.;.;.> m.m.m.m.m.m.m.m.m.m.m.m.m.O.D a s +.m.m.m.m.m.m.m.m.m.m.m.m.m.o $.$.$.$.$.$.$.$.$.$.$.$.$.$.$.",
"$.$.$.$.$.&.;.;.;.;.;.;.;.;.;.` | m.m.m.m.m.m.m.m.m.m.m.s.p & L ~ ( 3 7 h.m.m.m.m.m.m.m.m.m.m.m.j T $.$.$.$.$.$.$.$.$.$.$.$.$.$.",
"$.$.$.$.$.&.;.;.;.;.;.;.;.;.;.2 @.m.m.m.m.m.m.m.m.m.m.h., q ~ ~ ^ $.$.y 6 l.m.m.m.m.m.m.m.m.m.m.X.0 $.$.$.$.$.$.$.$.$.$.$.$.$.$.",
"$.$.$.$.$.&.;.;.;.;.;.;.;.;.;.$ w.m.m.m.m.m.m.m.m.m.m.H y / / / $.$.$.$.e } m.m.m.m.m.m.m.m.m.m.>.- $.$.$.$.$.$.$.$.$.$.$.$.$.$.",
"$.$.$.$.$.&.;.;.;.;.;.;.;.;.;.. m.m.m.m.m.m.m.m.m.m.m.% $.$.$.$.$.$.$.$.R B m.m.m.m.m.m.m.m.m.m.w.@ $.$.$.$.$.$.$.$.$.$.$.$.$.$.",
"$.$.$.$.$.&.;.;.;.;.;.;.;.;.;.o m.m.m.m.m.m.m.m.m.m.b.  $.$.$.$.$.$.$.$.$.o m.m.m.m.m.m.m.m.m.m.m.  $.$.$.$.$.$.$.$.$.$.$.$.$.$.",
"$.$.$.$.$.&.;.;.;.;.;.;.;.;.;.o m.m.m.m.m.m.m.m.m.m.m.. $.$.$.$.$.$.$.$.$.  m.m.m.m.m.m.m.m.m.m.m.  $.$.$.$.$.$.$.$.$.$.$.$.$.$.",
"$.$.$.$.$.&.;.;.;.;.;.;.;.;.;.  b.m.m.m.m.m.m.m.m.m.m.> ! $.$.$.$.$.$.$.R N m.m.m.m.m.m.m.m.m.m.s.X $.$.$.$.$.$.$.$.$.$.$.$.$.$.",
"$.$.$.$.$.&.;.;.;.;.;.;.;.;.;.$ w.m.m.m.m.m.m.m.m.m.m.{ y $.$.$.$.$.$.$.e ..m.m.m.m.m.m.m.m.m.m.9.+ $.$.$.$.$.$.$.$.$.$.$.$.$.$.",
"$.$.$.$.$.%.;.;.;.;.;.;.;.;.;.2 @.m.m.m.m.m.m.m.m.m.m.l.4 c $.$.$.$.$.y p m.m.m.m.m.m.m.m.m.m.m.+.3 $.$.$.$.$.$.$.$.$.$.$.$.$.$.",
"$.$.$.$.$.$.%.%.%.%.%.%.%.%.%.)  .m.m.m.m.m.m.m.m.m.m.m.i.p 1 ( $.n - a h.m.m.m.m.m.m.m.m.m.m.m.S ( $.$.$.$.$.$.$.$.$.$.$.$.$.$.",
"$.$.$.$.$.$.$.$.$.$.$.$.$.$.$.$.5 m.m.m.m.m.m.m.m.m.m.m.m.m.@. .s J :.m.m.m.m.m.m.m.m.m.m.m.m.m.> $.$.$.$.$.$.$.$.$.$.$.$.$.$.$.",
"$.$.$.$.$.$.$.$.$.$.$.$.$.$.$.^ O w.m.m.m.m.m.m.m.m.m.m.m.m.m.m.m.m.m.m.m.m.m.m.m.m.m.m.m.m.m.6.= $.$.$.$.$.$.$.$.$.$.$.$.$.$.$.",
"$.$.$.$.$.$.$.$.$.$.$.$.$.$.^ ~ c G m.m.m.m.m.m.m.m.m.m.m.m.m.m.m.m.m.m.m.m.m.m.m.m.m.m.m.m.m.l b $.$.$.$.$.$.$.$.$.$.$.$.$.$.$.",
"$.$.$.$.$.$.$.$.$.$.$.$.$.$.^ ~ ~ @ i.m.m.m.m.m.m.m.m.m.m.m.m.m.m.m.m.m.m.m.m.m.m.m.m.m.m.m.9.+ $.$.$.$.$.$.$.$.$.$.$.$.$.$.$.$.",
"$.$.$.$.$.$.$.$.$.$.$.$.$.$.^ ~ ~ q h m.m.m.m.m.m.m.m.m.m.m.m.m.m.m.m.m.m.m.m.m.m.m.m.m.m.m.7 x $.$.$.$.$.$.$.$.$.$.$.$.$.$.$.$.",
"$.$.$.$.$.$.$.$.$.$.$.$.$.$.^ ~ ~ ~ q { m.m.m.m.m.m.m.m.m.m.m.m.m.m.m.m.m.m.m.m.m.m.m.m.m.H r $.$.$.$.$.$.$.$.$.$.$.$.$.$.$.$.$.",
"$.$.$.$.$.$.$.$.$.$.$.$.$.$.^ ~ ~ ~ z u m.m.m.m.m.m.m.m.m.m.m.m.m.m.m.m.m.m.m.m.m.m.m.m.m.% n $.$.$.$.$.$.$.$.$.$.$.$.$.$.$.$.$.",
"$.$.$.$.$.$.$.$.$.$.$.$.$.$.^ ~ ~ ~ * 2.m.m.m.m.m.m.m.m.m.m.m.m.m.m.m.m.m.m.m.m.m.m.m.m.m.>.- $.$.$.$.$.$.$.$.$.$.$.$.$.$.$.$.$.",
"$.$.$.$.$.$.$.$.$.$.$.$.$.$.^ ~ ~ e { m.m.m.m.m.m.m.m.m.m.m.m.m.m.m.m.m.m.m.m.m.m.m.m.m.m.m.H t $.%.%.%.%.%.%.$.$.$.$.$.$.$.$.$.",
"$.$.$.$.$.$.$.$.$.$.$.$.$.$./ ~ I c l.m.m.m.m.m.m.m.m.m.m.m.m.m.m.m.m.m.m.m.m.m.m.m.m.m.m.m.h.$ ;.;.;.;.;.;.;.;.%.$.$.$.$.$.$.$.",
"$.$.$.$.$.$.$.$.$.$.$.$.$.$.$./ y { m.m.m.m.m.m.m.m.m.m.m.m.m.m.m.m.m.m.m.m.m.m.m.m.m.m.m.m.m.H v ;.;.;.;.;.;.;.&.$.$.$.$.$.$.$.",
"$.$.$.$.$.$.$.$.$.$.$.$.$.$.$.$.@ l.m.m.m.m.m.m.m.m.m.m.m.m.m.m.m.m.m.m.m.m.m.m.m.m.m.m.m.m.m.i.@ ;.;.;.;.;.;.;.&.$.$.$.$.$.$.$.",
"$.$.$.$.$.$.$.$.$.$.$.$.$.$.$.R ] m.m.m.m.m.m.m.m.m.m.m.m.i.G . . o H s.m.m.m.m.m.m.m.m.m.m.m.m.7 ;.;.;.;.;.;.;.&.$.$.$.$.$.$.$.",
"$.$.$.$.$.$.$.$.$.$.$.$.$.$.$.e } m.m.m.m.m.m.m.m.m.m.m.>.2 c $.$.$.c : 2.m.m.m.m.m.m.m.m.m.m.m.J ` ;.;.;.;.;.;.&.$.$.$.$.$.$.$.",
"$.$.$.$.$.$.$.$.$.$.$.$.$.$.$.= 4.m.m.m.m.m.m.m.m.m.m.9.= n $.$.$.$.$.b 2 i.m.m.m.m.m.m.m.m.m.m.@.2 ;.;.;.;.;.;.&.$.$.$.$.$.$.$.",
"$.$.$.$.$.$.$.$.$.$.$.$.$.$.$.X s.m.m.m.m.m.m.m.m.m.m.l x $.$.$.$.$.$.$.v J m.m.m.m.m.m.m.m.m.m.0.$ ;.;.;.;.;.;.&.$.$.$.$.$.$.$.",
"$.$.$.$.$.$.$.$.$.$.$.$.$.$.$.. m.m.m.m.m.m.m.m.m.m.m.o $.$.$.$.$.$.$.$.%.> m.m.m.m.m.m.m.m.m.m.l.  ;.;.;.;.;.;.%.$.$.$.$.$.$.$.",
"$.$.$.$.$.$.$.$.$.$.$.$.$.$.$.# m.m.m.m.m.m.m.m.m.m.l.X $.$.$.$.$.$.$.$.%.. m.m.m.m.m.m.m.m.m.m.m.o =.=.=.=.=.=.$.$.$.$.$.$.$.$.",
"$.$.$.$.$.$.$.$.$.$.$.$.$.$.$.  m.m.m.m.m.m.m.m.m.m.m.  $.$.$.$.$.$.$.$.%.o m.m.m.m.m.m.m.m.m.m.m.. $.$.$.$.$.$.$.$.$.$.$.$.$.$.",
"$.$.$.$.$.$.$.$.$.$.$.$.$.$.$.X h.m.m.m.m.m.m.m.m.m.m.7 Y $.$.$.$.$.$.$._ F m.m.m.m.m.m.m.m.m.m.i.@ / / / / / / / #.$.$.$.$.$.$.",
"$.$.$.$.$.$.$.$.$.$.$.$.$.$.$.+ 9.m.m.m.m.m.m.m.m.m.m.o.0 $.$.$.$.$.$.$.3 +.m.m.m.m.m.m.m.m.m.m.2.* ~ ~ ~ ~ ~ ~ ~ ~ / $.$.$.$.$.",
"$.$.$.$.$.$.$.$.$.$.$.$.$.$.$.3 +.m.m.m.m.m.m.m.m.m.m.m.h r $.$.$.$.Q y S m.m.m.m.m.m.m.m.m.m.m.o.& ~ ~ ~ ~ ~ ~ ~ ~ ^ $.$.$.$.$.",
"$.$.$.$.$.$.$.$.$.$.$.$.$.$.$._ [ m.m.m.m.m.m.m.m.m.m.m.m.H X 1 e 1 o { m.m.m.m.m.m.m.m.m.m.m.m.l K ~ ~ ~ ~ ~ ~ ~ ~ / $.$.$.$.$.",
"$.$.$.$.$.$.$.$.$.$.$.$.$.$.$.$.% m.m.m.m.m.m.m.m.m.m.m.m.m.l.@.} @.m.m.m.m.m.m.m.m.m.m.m.m.m.m.# ~ ~ ~ ~ ~ ~ ~ ~ ~ / $.$.$.$.$.",
"$.$.$.$.$.$.$.$.$.$.$.$.$.$.$.$.; 3.m.m.m.m.m.m.m.m.m.m.m.m.m.m.m.m.m.m.m.m.m.m.m.m.m.m.m.m.m.@.1 ~ ~ ~ ~ ~ ~ ~ ~ ~ / $.$.$.$.$.",
"$.$.$.$.$.$.$.$.$.$.$.$.$.$.$.$.m g m.m.m.m.m.m.m.m.m.m.m.m.m.m.m.m.m.m.m.m.m.m.m.m.m.m.m.m.m.5 8 ~ ~ ~ ~ ~ ~ ~ ~ ~ / $.$.$.$.$.",
"$.$.$.$.$.$.$.$.$.$.$.$.$.$.$.$.$.1 @.m.m.m.m.m.m.m.m.m.m.m.m.m.m.m.m.m.m.m.m.m.m.m.m.m.m.m.o.9 ~ ~ ~ ~ ~ ~ ~ ~ ~ ~ / $.$.$.$.$.",
"$.$.$.$.$.$.$.$.$.$.$.$.$.$.$.$.$.( d l.m.m.m.m.m.m.m.m.m.m.m.m.m.m.m.m.m.m.m.m.m.m.m.m.m.s.: P ~ ~ ~ ~ ~ ~ ~ ~ ~ ~ / $.$.$.$.$.",
"$.$.$.$.$.$.$.$.$.$.$.$.$.$.$.$.$.$.t j m.m.m.m.m.m.m.m.m.m.m.m.m.m.m.m.m.m.m.m.m.m.m.m.m.7 y ^ ~ ~ ~ ~ ~ ~ ~ ~ ~ ~ / $.$.$.$.$.",
"$.$.$.$.$.$.$.$.$.$.$.$.$.$.$.$.$.$.$.r H m.m.m.m.m.m.m.m.m.m.m.m.m.m.m.m.m.m.m.m.m.m.m.Z r $.^ ~ ~ ~ ~ ~ ~ ~ ~ ~ ~ / $.$.$.$.$.",
"$.$.$.$.$.$.$.$.$.$.$.$.$.$.$.$.$.$.$.$.r H m.m.m.m.m.m.m.m.m.m.m.m.m.m.m.m.m.m.m.m.m.l r $.$.$.^ ^ ^ ^ ^ ^ ^ ^ ^ ^ $.$.$.$.$.$.",
"$.$.$.$.$.$.$.$.$.$.$.$.$.$.$.$.$.$.$.$.$.r l m.m.m.m.m.m.m.m.m.m.m.m.m.m.m.m.m.m.b.s r $.$.$.$.$.$.$.$.$.$.$.$.$.$.$.$.$.$.$.$.",
"$.$.$.$.$.$.$.$.$.$.$.$.$.$.$.$.$.$.$.$.$.$.r < +.m.m.m.m.m.m.m.m.m.m.m.m.m.m.m.O.f e $.$.$.$.$.$.$.$.$.$.$.$.$.$.$.$.$.$.$.$.$.",
"$.$.$.$.$.$.$.$.$.$.$.$.$.$.$.$.$.$.$.$.$.$.$.( 3 a O.l.m.m.m.m.m.m.m.m.m.h.o.C 9 U $.$.$.$.$.$.$.$.$.$.$.$.$.$.$.$.$.$.$.$.$.$.",
"$.$.$.$.$.$.$.$.$.$.$.$.$.$.$.$.$.$.$.$.$.$.$.$.$._ & @ j { X.O.@.O.X.{ ' X 0 Y $.$.$.$.$.$.$.$.$.$.$.$.$.$.$.$.$.$.$.$.$.$.$.$.",
"$.$.$.$.$.$.$.$.$.$.$.$.$.$.$.$.$.$.$.$.$.$.$.$.$.$.$.$.Q y 0 3 1 3 0 y Q $.$.$.$.$.$.$.$.$.$.$.$.$.$.$.$.$.$.$.$.$.$.$.$.$.$.$.",
"$.$.$.$.$.$.$.$.$.$.$.$.$.$.$.$.$.$.$.$.$.$.$.$.$.$.$.$.$.$.$.$.$.$.$.$.$.$.$.$.$.$.$.$.$.$.$.$.$.$.$.$.$.$.$.$.$.$.$.$.$.$.$.$.",
"$.$.$.$.$.$.$.$.$.$.$.$.$.$.$.$.$.$.$.$.$.$.$.$.$.$.$.$.$.$.$.$.$.$.$.$.$.$.$.$.$.$.$.$.$.$.$.$.$.$.$.$.$.$.$.$.$.$.$.$.$.$.$.$."
};
