/* XPM */
static const char *_[] = {
/* columns rows colors chars-per-pixel */
"64 64 133 2 ",
"   c #F70303",
".  c #F80000",
"X  c #F40B0B",
"o  c #F80A0A",
"O  c #EF1616",
"+  c #EC1C1C",
"@  c #F31313",
"#  c #F91414",
"$  c #F21A1A",
"%  c #F91B1B",
"&  c #DE3434",
"*  c #DF3E3F",
"=  c #EB2424",
"-  c #E52D2D",
";  c #EA2A2A",
":  c #F52525",
">  c #F92121",
",  c #F92D2D",
"<  c #E33435",
"1  c #E13C3C",
"2  c #EC3A3A",
"3  c #F93636",
"4  c #F03D3D",
"5  c #FA3C3C",
"6  c #BB7C7C",
"7  c #D64545",
"8  c #DE4242",
"9  c #D24E4E",
"0  c #DB4A4A",
"q  c #CC5A5A",
"w  c #D65555",
"e  c #DA5252",
"r  c #D55758",
"t  c #D85758",
"y  c #D35C5D",
"u  c #DB5A5A",
"i  c #E34444",
"p  c #EE4C4C",
"a  c #FA4444",
"s  c #FA4B4B",
"d  c #E25A5B",
"f  c #FA5353",
"g  c #F25959",
"h  c #FA5C5C",
"j  c #C56B6B",
"k  c #CC6C6C",
"l  c #D16464",
"z  c #DA6565",
"x  c #CA7575",
"c  c #C97778",
"v  c #DE7E7E",
"b  c #E26868",
"n  c #F66E6E",
"m  c #FB6C6C",
"M  c #E77474",
"N  c #F67575",
"B  c #FB7373",
"V  c #FA7C7C",
"C  c #B38E8E",
"Z  c #AB9D9D",
"A  c #BE9393",
"S  c #BC9798",
"D  c #BB9A9B",
"F  c #B8A3A3",
"G  c #B6A7A8",
"H  c #B4ABAC",
"J  c #BBAAAB",
"K  c #A1B1B1",
"L  c #A7B9B9",
"P  c #A8BBBC",
"I  c #C38585",
"U  c #C18A8B",
"Y  c #DF898A",
"T  c #E48384",
"R  c #EC8B8C",
"E  c #F78181",
"W  c #FC8181",
"Q  c #FC8A8A",
"!  c #F19393",
"~  c #FC9393",
"^  c #FC9B9B",
"/  c #C5AAAA",
"(  c #FCA2A2",
")  c #FDACAC",
"_  c #FDB5B5",
"`  c #FDBBBB",
"'  c #ABBFC0",
"]  c #ACC0C1",
"[  c #B4C6C7",
"{  c #B2C4C5",
"}  c #B5C7C8",
"|  c #B8C8C9",
" . c #B9C9CA",
".. c #BACBCC",
"X. c #BBCBCC",
"o. c #FDC5C5",
"O. c #FECBCB",
"+. c #FECCCC",
"@. c #FECDCD",
"#. c #FECECE",
"$. c #FECFCF",
"%. c #FED0D0",
"&. c #FED3D3",
"*. c #FED4D4",
"=. c #FED6D6",
"-. c #FED7D7",
";. c #FED8D8",
":. c #FED9D9",
">. c #FEDADA",
",. c #FEDBDB",
"<. c #FEDDDD",
"1. c #FEDFDF",
"2. c #FEE2E2",
"3. c #FEE3E3",
"4. c #FEE4E4",
"5. c #FEE6E6",
"6. c #FEE7E7",
"7. c #FEE9E9",
"8. c #FEEAEA",
"9. c #FEEBEB",
"0. c #FEECEC",
"q. c #FFEDED",
"w. c #FFEEEE",
"e. c #FFEFEF",
"r. c #FFF1F1",
"t. c #FFF3F3",
"y. c #FFF5F5",
"u. c #FFF7F7",
"i. c #FFF3F3",
"p. c #FFF9F9",
"a. c #FFFBFB",
"s. c white",
"d. c #FFFFFF",
/* pixels */
"] ] ] ] ] ] ] ] ] ] ] ] ] ] ] ] ] ] ] ] ] ] ] ] ] ] ] ] ] ] ] ] ] ] ] ] ] ] ] ] ] ] ] ] ] ] ] ] ] ] ] ] ] ] ] ] ] ] ] ] ] ] ] ] ",
"] ] ] ] ] ] ] ] ] ] ] ] ] ] ] ] ] ] ] ] ] ] ] ] ] ] ] ] ] ] ] ] ] ] ] ] ] ] ] ] ] ] ] ] ] ] ] ] ] ] ] ] ] ] ] ] ] ] ] ] ] ] ] ] ",
"] ] ] ] ] ] ] ] ] ] ] ] ] ] ] ] ] ] ] ] ] ] ] ] ] ] ] ] ] ] ] ] ] ] ] ] ] ] ] ] ] ] ] ] ] ] ] ] ] ] ] ] ] ] ] ] ] ] ] ] ] ] ] ] ",
"] ] ] ] ] ] ] ] ] ] ] ] ] ] ] ] ] ] ] ] ] ] ] ] ] ] ] G r - + X . X + - y G ] ] ] ] ] ] ] ] ] ] ] ] ] ] ] ] ] ] ] ] ] ] ] ] ] ] ",
"] ] ] ] ] ] ] ] ] ] ] ] ] ] ] ] ] ] ] ] ] ] ] ] ] l @ 5 Q o.,.w.s.w.,.o.Q v @ l ] ] ] ] ] ] ] ] ] ] ] ] ] ] ] ] ] ] ] ] ] ] ] ] ",
"] ] ] ] ] ] ] ] ] ] ] ] ] ] ] ] ] ] ] ] ] ] ] l $ V 5.s.s.s.s.s.s.s.s.s.s.s.2.E $ l ] ] ] ] ] ] ] ] ] ] ] ] ] ] ] ] ] ] ] ] ] ] ",
"] ] ] ] ] ] ] ] ] ] ] ] ] ] ] ] ] ] ] ] ] I < m 7.s.s.s.s.s.s.s.s.s.s.s.s.s.s.s.5.n 8 S ] ] ] ] ] ] ] ] ] ] ] ] ] ] ] ] ] ] ] ] ",
"] ] ] ] ] ] ] ] ] ] ] ] ] ] ] ] ] ] ] ] k = ` s.s.s.s.s.s.s.s.s.s.s.s.s.s.s.s.s.s.s.( 0 c ] ] ] ] ] ] ] ] ] ] ] ] ] ] ] ] ] ] ] ",
"] ] ] ] ] ] ] ] ] ] ] ] ] ] ] ] ] ] ] k 2 ,.s.s.s.s.s.s.s.s.s.s.s.s.s.s.s.s.s.s.s.s.s.O.2 x ] ] ] ] ] ] ] ] ] ] ] ] ] ] ] ] ] ] ",
"] ] ] ] ] ] ] ] ] ] ] ] ] ] ] ] ] ] I i ,.s.s.s.s.s.s.s.s.s.s.s.s.s.s.s.s.s.s.s.s.s.s.s.+.; D ] ] ] ] ] ] ] ] ] ] ] ] ] ] ] ] ] ",
"] ] ] ] ] ] ] ] ] ] ] ] ] ] ] ] ] ] < _ s.s.s.s.s.s.s.s.s.s.s.s.s.s.s.s.s.s.s.s.s.s.s.s.s.^ 0 ] ] ] ] ] ] ] ] ] ] ] ] ] ] ] ] ] ",
"] ] ] ] ] { X.X.X.X.X.X.X.X.X.X.X.z V s.s.s.s.s.s.s.s.s.s.s.s.s.s.s.s.s.s.s.s.s.s.s.s.s.s.s.f k ] ] ] ] ] ] ] ] ] ] ] ] ] ] ] ] ",
"] ] ] ] ] } X.X.X.X.X.X.X.X.X.X.X.@ w.s.s.s.s.s.s.s.s.s.s.s.s.s.s.s.s.s.s.s.s.s.s.s.s.s.s.s.,.+ ] ] ] ] ] ] ] ] ] ] ] ] ] ] ] ] ",
"] ] ] ] ] } X.X.X.X.X.X.X.X.X.X.z E s.s.s.s.s.s.s.s.s.s.s.s.s.s.s.s.s.s.s.s.s.s.s.s.s.s.s.s.s.h x ] ] ] ] ] ] ] ] ] ] ] ] ] ] ] ",
"] ] ] ] ] } X.X.X.X.X.X.X.X.X.X.@ 7.s.s.s.s.s.s.s.s.s.s.s.s.s.s.s.s.s.s.s.s.s.s.s.s.s.s.s.s.s.+.; ] ] ] ] ] ] ] ] ] ] ] ] ] ] ] ",
"] ] ] ] ] } X.X.X.X.X.X.X.X.X./ T s.s.s.s.s.s.s.s.s.s.s.s.5.N . . o B 7.s.s.s.s.s.s.s.s.s.s.s.s.> ] ] ] ] ] ] ] ] ] ] ] ] ] ] ] ",
"] ] ] ] ] } X.X.X.X.X.X.X.X.X.t ~ s.s.s.s.s.s.s.s.s.s.s.( 0 q K K ] y $ ) s.s.s.s.s.s.s.s.s.s.s.B U ] ] ] ] ] ] ] ] ] ] ] ] ] ] ",
"] ] ] ] ] } X.X.X.X.X.X.X.X.X.= =.s.s.s.s.s.s.s.s.s.s.=.+ C K K L ] ] U i 2.s.s.s.s.s.s.s.s.s.s._ 1 ] ] ] ] ] ] ] ] ] ] ] ] ] ] ",
"] ] ] ] ] } X.X.X.X.X.X.X.X.X.X w.s.s.s.s.s.s.s.s.s.s.a k P P P ] ] ] ] l n s.s.s.s.s.s.s.s.s.s.=.= ] ] ] ] ] ] ] ] ] ] ] ] ] ] ",
"] ] ] ] ] } X.X.X.X.X.X.X.X.X.. s.s.s.s.s.s.s.s.s.s.s.o ] ] ] ] ] ] ] ] ] > s.s.s.s.s.s.s.s.s.s.y.X ] ] ] ] ] ] ] ] ] ] ] ] ] ] ",
"] ] ] ] ] } X.X.X.X.X.X.X.X.X.# s.s.s.s.s.s.s.s.s.s.s.. ] ] ] ] ] ] ] ] ] . s.s.s.s.s.s.s.s.s.s.s.o ] ] ] ] ] ] ] ] ] ] ] ] ] ] ",
"] ] ] ] ] } X.X.X.X.X.X.X.X.X.. s.s.s.s.s.s.s.s.s.s.s.# ] ] ] ] ] ] ] ] ] % s.s.s.s.s.s.s.s.s.s.s.# ] ] ] ] ] ] ] ] ] ] ] ] ] ] ",
"] ] ] ] ] } X.X.X.X.X.X.X.X.X.@ 7.s.s.s.s.s.s.s.s.s.s.f k ] ] ] ] ] ] ] l n s.s.s.s.s.s.s.s.s.s.s.# ' ] ] ] ] ] ] ] ] ] ] ] ] ] ",
"] ] ] ] ] } X.X.X.X.X.X.X.X.X.; +.s.s.s.s.s.s.s.s.s.s.,.+ S ] ] ] ] ] U i 2.s.s.s.s.s.s.s.s.s.s.s.# ] ] ] ] ] ] ] ] ] ] ] ] ] ] ",
"] ] ] ] ] { X.X.X.X.X.X.X.X.X.u Q s.s.s.s.s.s.s.s.s.s.s.( 0 l ] ] ] y $ _ s.s.s.s.s.s.s.s.s.s.s.s.# ] ] ] ] ] ] ] ] ] ] ] ] ] ] ",
"] ] ] ] ] ] { { { { { { { { { J T s.s.s.s.s.s.s.s.s.s.s.s.5.N . . o V w.s.s.s.s.s.s.s.s.s.s.s.s.s.# ] ] ] ] ] ] ] ] ] ] ] ] ] ] ",
"] ] ] ] ] ] ] ] ] ] ] ] ] ] ] ] @ t.s.s.s.s.s.s.s.s.s.s.s.s.s.s.s.s.s.s.s.s.s.s.s.s.s.s.s.s.s.s.s.# ] ] ] ] ] ] ] ] ] ] ] ] ] ] ",
"] ] ] ] ] ] ] ] ] ] ] ] ] ] ] L r Q s.s.s.s.s.s.s.s.s.s.s.s.s.s.s.s.s.s.s.s.s.s.s.s.s.s.s.s.s.s.s.# ] ] ] ] ] ] ] ] ] ] ] ] ] ] ",
"] ] ] ] ] ] ] ] ] ] ] ] ] ] L K Z l p.s.s.s.s.s.s.s.s.s.s.s.s.s.s.s.s.s.s.s.s.s.s.s.s.s.s.s.s.s.s.# ] ] ] ] ] ] ] ] ] ] ] ] ] ] ",
"] ] ] ] ] ] ] ] ] ] ] ] ] ] L K K 9 V s.s.s.s.s.s.s.s.s.s.s.s.s.s.s.s.s.s.s.s.s.s.s.s.s.s.s.s.s.s.# ] ] ] ] ] ] ] ] ] ] ] ] ] ] ",
"] ] ] ] ] ] ] ] ] ] ] ] ] ] L K K K & _ s.s.s.s.s.s.s.s.s.s.s.s.s.s.s.s.s.s.s.s.s.s.s.s.s.s.s.s.s.# ] ] ] ] ] ] ] ] ] ] ] ] ] ] ",
"] ] ] ] ] ] ] ] ] ] ] ] ] ] L K K K 6 1 %.s.s.s.s.s.s.s.s.s.s.s.s.s.s.s.s.s.s.s.s.s.s.s.s.s.s.s.s.# ] ] ] ] ] ] ] ] ] ] ] ] ] ] ",
"] ] ] ] ] ] ] ] ] ] ] ] ] ] L K K K K j ; ` s.s.s.s.s.s.s.s.s.s.s.s.s.s.s.s.s.s.s.s.s.s.s.s.s.s.s.# ] ] ] ] ] ] ] ] ] ] ] ] ] ] ",
"] ] ] ] ] ] ] ] ] ] ] ] ] ] L K K K K K 6 - ^ s.s.s.s.s.s.s.s.s.s.s.s.s.s.s.s.s.s.s.s.s.s.s.s.s.s.# ] ] ] ] ] ] ] ] ] ] ] ] ] ] ",
"] ] ] ] ] ] ] ] ] ] ] ] ] ] L K K K K K K C 7 5 =.s.s.s.s.s.s.s.s.s.s.s.s.s.s.s.s.s.s.s.s.s.s.s.s.# { { { { { ] ] ] ] ] ] ] ] ] ",
"] ] ] ] ] ] ] ] ] ] ] ] ] ] P K K K K K K K K j + m ,.s.s.s.s.s.s.s.s.s.s.s.s.s.s.s.s.s.s.s.s.s.s.# X.X.X.X.X.X.{ ] ] ] ] ] ] ] ",
"] ] ] ] ] ] ] ] ] ] ] ] ] ] ] P P P P P P P P ' ] k + 5 ^ O.1.w.s.s.s.t.) R s.s.s.s.s.s.s.s.s.s.s.# X.X.X.X.X.X.[ ] ] ] ] ] ] ] ",
"] ] ] ] ] ] ] ] ] ] ] ] ] ] ] ] ] ] ] ] ] ] ] ] ] ] ] D 0 ; + X . . . X *   p.s.s.s.s.s.s.s.s.s.s.# X.X.X.X.X.X.[ ] ] ] ] ] ] ] ",
"] ] ] ] ] ] ] ] ] ] ] ] ] ] ] ] ] ] ] ] ] ] ] ] ] ] ] ] ] ] ] ] ] ] ] ] ]   p.s.s.s.s.s.s.s.s.s.s.# X.X.X.X.X.X.[ ] ] ] ] ] ] ] ",
"] ] ] ] ] ] ] ] ] ] ] ] ] ] ] ] ] ] ] ] ] ] ] ] ] ] ] ] ] ] ] ] ] ] ] ] {   p.s.s.s.s.s.s.s.s.s.s.# X.X.X.X.X.X.[ ] ] ] ] ] ] ] ",
"] ] ] ] ] ] ] ] ] ] ] ] ] ] ] ] ] ] ] ] ] ] ] ] ] ] ] ] ] ] ] ] ] ] ] ] {   p.s.s.s.s.s.s.s.s.s.s.# X.X.X.X.X.X.[ ] ] ] ] ] ] ] ",
"] ] ] ] ] ] ] ] ] ] ] ] ] ] ] u W W W W W W W W W W V r ] ] ] ] ] ] ] ] { . s.s.s.s.s.s.s.s.s.s.s.# X.X.X.X.X.X.[ ] ] ] ] ] ] ] ",
"] ] ] ] ] ] ] ] ] ] ] ] ] ] ] % s.s.s.s.s.s.s.s.s.s.y.X ] ] ] ] ] ] ] ] {   p.s.s.s.s.s.s.s.s.s.s.# X.X.X.X.X.X.{ ] ] ] ] ] ] ] ",
"] ] ] ] ] ] ] ] ] ] ] ] ] ] ] % s.s.s.s.s.s.s.s.s.s.y.X ] ] ] ] ] ] ] ] {   p.s.s.s.s.s.s.s.s.s.s.#  . . . . . .] ] ] ] ] ] ] ] ",
"] ] ] ] ] ] ] ] ] ' ] ] ] ] ] # s.s.s.s.s.s.s.s.s.s.s.. ] ] ] ] ] ] ] ] { . s.s.s.s.s.s.s.s.s.s.s.o ] ] ] ] ] ] ] ] ] ] ] ] ] ] ",
"] ] ] ] ] ] ] ] ] ] ] ] ] ] ] . s.s.s.s.s.s.s.s.s.s.s.> ] ] ] ] ] ] ] ] { , s.s.s.s.s.s.s.s.s.s.t.X P P P P P P P ' ] ] ] ] ] ] ",
"] ] ] ] ] ] ] ] ] ] ] ] ] ] ] + 1.s.s.s.s.s.s.s.s.s.s.m y ] ] ] ] ] ] ] t V s.s.s.s.s.s.s.s.s.s.=.+ K K K K K K K K P ] ] ] ] ] ",
"] ] ] ] ] ] ] ] ] ] ] ] ] ] ] < ` s.s.s.s.s.s.s.s.s.s.t.: x ] ] ] ] ] k 4 y.s.s.s.s.s.s.s.s.s.s._ & K K K K K K K K L ] ] ] ] ] ",
"] ] ] ] ] ] ] ] ] ] ] ] ] ] ] I ! s.s.s.s.s.s.s.s.s.s.s.+.p 8 A ] I < 5 ,.s.s.s.s.s.s.s.s.s.s.s.m 6 K K K K K K K K P ] ] ] ] ] ",
"] ] ] ] ] ] ] ] ] ] ] ] ] ] ] ] , s.s.s.s.s.s.s.s.s.s.s.s.s.) M a s ` s.s.s.s.s.s.s.s.s.s.s.s.s.> K K K K K K K K K P ] ] ] ] ] ",
"] ] ] ] ] ] ] ] ] ] ] ] ] ] ] ] O 2.s.s.s.s.s.s.s.s.s.s.s.s.s.s.s.s.s.s.s.s.s.s.s.s.s.s.s.s.s.%.+ K K K K K K K K K P ] ] ] ] ] ",
"] ] ] ] ] ] ] ] ] ] ] ] ] ] ] ] l N s.s.s.s.s.s.s.s.s.s.s.s.s.s.s.s.s.s.s.s.s.s.s.s.s.s.s.s.s.h j K K K K K K K K K P ] ] ] ] ] ",
"] ] ] ] ] ] ] ] ] ] ] ] ] ] ] ] ] + ,.s.s.s.s.s.s.s.s.s.s.s.s.s.s.s.s.s.s.s.s.s.s.s.s.s.s.s.+.= K K K K K K K K K K P ] ] ] ] ] ",
"] ] ] ] ] ] ] ] ] ] ] ] ] ] ] ] ] k g s.s.s.s.s.s.s.s.s.s.s.s.s.s.s.s.s.s.s.s.s.s.s.s.s.s.s.3 j K K K K K K K K K K P ] ] ] ] ] ",
"] ] ] ] ] ] ] ] ] ] ] ] ] ] ] ] ] ] e V s.s.s.s.s.s.s.s.s.s.s.s.s.s.s.s.s.s.s.s.s.s.s.s.s.m e L K K K K K K K K K K P ] ] ] ] ] ",
"] ] ] ] ] ] ] ] ] ] ] ] ] ] ] ] ] ] ] 1 _ s.s.s.s.s.s.s.s.s.s.s.s.s.s.s.s.s.s.s.s.s.s.s.( 0 ] L K K K K K K K K K K P ] ] ] ] ] ",
"] ] ] ] ] ] ] ] ] ] ] ] ] ] ] ] ] ] ] U 1 ) s.s.s.s.s.s.s.s.s.s.s.s.s.s.s.s.s.s.s.s.s.~ w S ] ] L L L L L L L L L L ] ] ] ] ] ] ",
"] ] ] ] ] ] ] ] ] ] ] ] ] ] ] ] ] ] ] ] A 8 B s.s.s.s.s.s.s.s.s.s.s.s.s.s.s.s.s.s.p.h w F ] ] ] ] ] ] ] ] ] ] ] ] ] ] ] ] ] ] ] ",
"] ] ] ] ] ] ] ] ] ] ] ] ] ] ] ] ] ] ] ] ] ] e , _ s.s.s.s.s.s.s.s.s.s.s.s.s.s.s.( d w ] ] ] ] ] ] ] ] ] ] ] ] ] ] ] ] ] ] ] ] ] ",
"] ] ] ] ] ] ] ] ] ] ] ] ] ] ] ] ] ] ] ] ] ] ] I < 5 ) y.s.s.s.s.s.s.s.s.s.t.( b 8 A ] ] ] ] ] ] ] ] ] ] ] ] ] ] ] ] ] ] ] ] ] ] ",
"] ] ] ] ] ] ] ] ] ] ] ] ] ] ] ] ] ] ] ] ] ] ] ] ] U * @ f Q ^ ) ` ) ^ W Y X 0 S ] ] ] ] ] ] ] ] ] ] ] ] ] ] ] ] ] ] ] ] ] ] ] ] ",
"] ] ] ] ] ] ] ] ] ] ] ] ] ] ] ] ] ] ] ] ] ] ] ] ] ] ] ] H y 0 1 < 1 0 y H ] ] ] ] ] ] ] ] ] ] ] ] ] ] ] ] ] ] ] ] ] ] ] ] ] ] ] ",
"] ] ] ] ] ] ] ] ] ] ] ] ] ] ] ] ] ] ] ] ] ] ] ] ] ] ] ] ] ] ] ] ] ] ] ] ] ] ] ] ] ] ] ] ] ] ] ] ] ] ] ] ] ] ] ] ] ] ] ] ] ] ] ] ",
"] ] ] ] ] ] ] ] ] ] ] ] ] ] ] ] ] ] ] ] ] ] ] ] ] ] ] ] ] ] ] ] ] ] ] ] ] ] ] ] ] ] ] ] ] ] ] ] ] ] ] ] ] ] ] ] ] ] ] ] ] ] ] ] "
};
