/* XPM */
static const char *collectible[] = {
/* columns rows colors chars-per-pixel */
"64 64 162 2 ",
"   c #2F5221",
".  c #345526",
"X  c #355827",
"o  c #365429",
"O  c #3B562C",
"+  c #3C5D2C",
"@  c #3E5D31",
"#  c #376023",
"$  c #396125",
"%  c #3E632C",
"&  c #3E6929",
"*  c #3E6231",
"=  c #415D2F",
"-  c #415E32",
";  c #406C26",
":  c #41642E",
">  c #436B2D",
",  c #46722D",
"<  c #49742E",
"1  c #4A792F",
"2  c #436533",
"3  c #496435",
"4  c #456B32",
"5  c #496D35",
"6  c #466438",
"7  c #49663A",
"8  c #476A38",
"9  c #4B6D3A",
"0  c #50663F",
"q  c #516D3D",
"w  c #467132",
"e  c #4B7335",
"r  c #4D7A35",
"t  c #4E733A",
"y  c #4E7939",
"u  c #507637",
"i  c #517C36",
"p  c #51753D",
"a  c #567A3D",
"s  c #55793E",
"d  c #537C3D",
"f  c #537D3D",
"g  c #557F3C",
"h  c #557E3D",
"j  c #547D3E",
"k  c #557D3E",
"l  c #557C3F",
"z  c #557E3F",
"x  c #577F3E",
"c  c #537B3C",
"v  c #587D3F",
"b  c #587F3E",
"n  c #597E3F",
"m  c #4F6741",
"M  c #4E6B41",
"N  c #526D42",
"B  c #596E43",
"V  c #4F7140",
"C  c #507140",
"Z  c #517041",
"A  c #537643",
"S  c #557641",
"D  c #547741",
"F  c #547442",
"G  c #557742",
"H  c #577743",
"J  c #547144",
"K  c #567644",
"L  c #547542",
"P  c #587645",
"I  c #5A7546",
"U  c #537B41",
"Y  c #557A40",
"T  c #557B40",
"R  c #557A41",
"E  c #557843",
"W  c #557943",
"Q  c #567B42",
"!  c #557C40",
"~  c #557D40",
"^  c #567E40",
"/  c #577C42",
"(  c #577D43",
")  c #567A44",
"_  c #577847",
"`  c #567B41",
"'  c #5C7B47",
"]  c #597C44",
"[  c #587C45",
"{  c #5A7E47",
"}  c #5A7D44",
"|  c #557449",
" . c #5C754A",
".. c #577848",
"X. c #5F7D4C",
"o. c #5B7C4A",
"O. c #62764E",
"+. c #627E4C",
"@. c #6A7D4F",
"#. c #647750",
"$. c #647E51",
"%. c #6B7E54",
"&. c #538136",
"*. c #528136",
"=. c #528139",
"-. c #528238",
";. c #548239",
":. c #56823B",
">. c #568438",
",. c #568439",
"<. c #55803D",
"1. c #55823D",
"2. c #55803E",
"3. c #56823E",
"4. c #57843C",
"5. c #55813C",
"6. c #58823C",
"7. c #58833E",
"8. c #59843E",
"9. c #56883A",
"0. c #5A8A3E",
"q. c #568241",
"w. c #578141",
"e. c #598141",
"r. c #598242",
"t. c #5B8342",
"y. c #5A8543",
"u. c #588044",
"i. c #5A8144",
"p. c #5B8247",
"a. c #5D8344",
"s. c #5C8547",
"d. c #5B8344",
"f. c #5E8947",
"g. c #5F8D46",
"h. c #5D8A43",
"j. c #5F8348",
"k. c #5E834B",
"l. c #5E864A",
"z. c #5D8349",
"x. c #5F8849",
"c. c #608644",
"v. c #608B46",
"b. c #65864F",
"n. c #62844B",
"m. c #6A834F",
"M. c #608B48",
"N. c #678D4F",
"B. c #638A4B",
"V. c #68884F",
"C. c #64924A",
"Z. c #68914E",
"A. c #638451",
"S. c #6B8453",
"D. c #668A51",
"F. c #6B8C54",
"G. c #6C8E5A",
"H. c #708A55",
"J. c #6C9552",
"K. c #6B9055",
"L. c #6B9154",
"P. c #6C9258",
/* pixels */
"t y 4 p y i <.3 4 p ^ i.p p g f b.G p 3 > e > p E e + 4 5 f i.p 3 p E p 9 4 > y } ^ <.4 q 8 e h.2 _ , &.h.y z.> : % e e e.w < 5.",
"e r % e e g.4 3 p y 5 y s s a.5 t s 5 g 4 ^ e.4.+ 6 9 g 8 e y p G G 3 p t 3 } ^ s =.y 2 p i.w.5 J % g , X.t e 4 - e p p p p e < ",
"4 3 6.w 5 g y t E p g r 5 5 b < r r r r 4 4 r i.4 9 ^ i s s e g ; p , y 5 4 f 3 F <.@ y f s p y s.e < 8 s 4 2 2 3 J.r 5 6.e.^ r ",
"9 % K.< 5 > 5 p 8 5.5 s e 4 G t p , e 3 u 4 5 r e p G t y.} 5 r r 2 E y i M.z.p I f e E s p e r f f 4 F 9 K _ 4 : s X t p e 4 y ",
"2 9 8 p 2 4 % y r g } 5 y s.2 r e ,.X + N.=.4 r + p e e p } s ' g Y 2 t p : y ^ e.g 2 9 p w y <.t 7 D E l.p E r w 9 e r ,.2 2 r ",
"4 t 9 t q t p y p 4 9 r % % [ s r g 3 O z.s 8 _ 4 p r y p 5 e.y 5 h.4 9 s p r r p s <.r p s y } 2 8 w.f s 7 ^ l.^ K n.. 4 9 y.2 ",
"4 t s M.g r e i.g f 2 p p y e e r i.t > 5 t t K e > t f f y 9.e p r 9 > 2 ^ t l.e 4 4 r 4 4 w 9 e.n.p J 4 3 } 5 > p 4 9 i.s E g ",
"g 9 s r 4 r o N.s p r ,.w e % G g e t N 3 p l.^ e N D.s 9 N r 4 4 4 e =.4 i.r - y.y 4 % 9 D y w 2 t t 4 6 y h.v.w 5 e 4 > w 5.> ",
"z.G a.g s.t q r 2 M J s 2 e < r r z.9 } g ^ y r : 2 5.+ J K 9 s e e w 9 6 8.t 5 t 2 8.s.y } > f s 4 D f e e p.k.4 = { f w.f 9 p ",
"y 2 E e i.s F b.t N _ p p 5 s y > 5 9 s.t l.s f } = { s.q $.^ ^ 5 g Z.p s ^ p s e 5 : G 5 } s a.t % 4 t E   f } q <.y e.y e 8 D ",
"M 2 4 4 4 4 G i.F %.t.^ e e g 8 v.p p ^ y 9 g t e.9 p / +.S.L.e p : 8 G r ^ p f > 4 : 4 4 t z.^ r r <.9 f % 4 3 / s + F s 9 q e.",
"p s 5 y 4 4 ^ M.} +.n.p { u i.G e e _ s t 6 r 4 % 5 D.l.E n.s 4 s t 8 4 8 } n.r e y [ 8 F h.Y 2 2 8 y w % p e.M.} t 9  .3 h./ S.",
"y.e t E p 5 =.^ p p p y w.e 9 b.I 4 4 E 7 9 e s y 2 h.e.E h.z.s e s 5 3 E u p t y y w y p p p y 3 4 2 e p y e } { S. ._ p > e ^ ",
"8 t 2 y y w r y r e e D e 4 5.e.5 w 4 e { s _ I { } e 5 t > e e 4 w y 9 s p.p D e p ^ p 8 K 9 i.^ 8 s } y % ^ s s V.6.e ^ 2 t g ",
"G r ^ 4 ^ + e e r < r p 4 r i w 4 s e p e e.t G b.y.^ y > 9 e t r r n.p 3 } p p 4 y e , ^ r e 2 N.s g e : p 5 r <.s y ^ y t 4 e ",
"G e.: t p p r ^ 4 @ 2 5 y g s w e 8 y w r > y ^ } t p s.h.e f { e 8 < : 8.4 G F E <.g s 9 p 9 e 2 e h.5 F ^ r > <.r 4 ^ p > r / ",
"4 > t ^ 9 > X.t y 2 C.> 4 h.9 4 9 <.e s e , 4 9 4 <.y 2 i F r y e r r 9 s 5 $.M s r y.p y , r 4 4 r 5 r 9 9 9 p y t 9 p e 9 2 s ",
"D y i.k.e g ^ 9 4 2 t y w e D t 4 i w e i.+ + h.5 p t X.*.; _ e M 4 e [ _ F.S.h.E 2 4 p r < > 8 5.% p % 5 e r 5 : 5 4 9 8 ^ ^ 3 ",
"t w D 2 y 8 p h.r p G 9 % 5 t r 2 i i y t : 9 p 8 5 h.y p e 4 / ^ } s.e.p <.l.p 4 w 9 r e &.O : N.s 2 5 t p f ^ p s =.t G w ^ w.",
"e p.5 > y ^ y G } s G w 4 e 4 e.s E : a.q 4 5 p N t ' 9 _ y.y p E 9 n.e > e.e t p s f i.r t 5 2 D p 9 8 & g f <.s r > 2 > p % w ",
"p p.+ e > { 3 2 p g 5 = G y f [ _ E 6.9 e.s ^ s.r g t p r > 2 p g p e.M.^ t 4 t 9 6 4.% e 4 e 5 5 r e.y.t 3 w.9 N X.t t y g i e.",
"_ p 2 r > D G > 9 l.2 g ^ r p 3 a.e 4 t y t M.s 5.=.e e f e p g f 4 r 9 s 9 e r 9 A.9 t <.5 s p e s 4 r 5 8 ^ 4 9 E s r p t ; w ",
"y M t e y p n.F % e _ s + J 8.g E l.5 e.8 8 e e 4 r , : + 2 r y.4 2 G y 4 F n.X.B ^ a.5 e y E D.e s s g E 3 / } B F.i.p u t 8.= ",
"9 M.b E g p ^ P.+ t s.s 0  .g 4 r s s 2 E 9 r y 4 r O - 0.> p 8.y t p p s n.v.s y 8.^ e g 9  .S.h.e s e M.t } ^ } } e 4 ^ w 1 ' ",
"^ D e s B.<.s r p p ^ N.S.e t e : 2 y 9 a.t p e w.l.% + z.e e % 5 / : h.^ e ^ y t p e g ^ 9 t ' p 9 4 > % 4 e.^ g h.w.y t p t N ",
"y f D n.y 4 w Y _ } N.y.z.g 4 t e 4 4 D.a.+.5 i.w p 2 9 2 G 9 4 5 y r s.E t p D 9 8 e 5 s e X.s 8.2 4 5 p e y t G e y e a.e.E E ",
"N 8 { e.t.g 4 r } 9 f r s s p f e w p =.^ g r < $.8 _ 2 p e 9 4 5 e e e } 5 E g f r 2 y e 2 2 5 2 p i.> 9 9 s./ } G g r i.e e.Y ",
"2 4 5 y n.Y y 5.r 9 y p y r 3 y s w 5 p s } p : t ^ t.E l.w.e.4 n.^ r f i 5 f 4 r p e 3 g r ^ 4 y 2 F g w 8 - p s.g y &.w E a.p ",
"g E e % E y w i r p 9 r 4 s 8 9 =.=.s ^ s k._ ,.G E p E { y , 4 p w.} E &.r 5 8 r r f 5 i._ a.r p p ^ f r i.e 2 { e.w w i y 9 e ",
"h.+ 5 4 2 f ^ : @ 9 w w h.e t s 5 y e p G s e r 7 Y r 8 g e.e.3 a.: 6 J G 8 2 % e 8 p 9 e 8 9 4 G 8 e i.h.p _ X 4 r y : O p : 4 ",
"r 9 E &.g s i.t 2 D.> i e.2 p % s M.p ; 5 f g 4 s s.9 - e t i.4 s i._ ' 8 ^ 5 4 w w + 2 _ h.s [ 4 4 e.a.p y e e i e.i.t 9 a.% f ",
"2 p t t ; X.8 9 p p 3 r : 9 5 w.4 ^ E p 4 4 2 y 5 w 9 9 p > % D p { S.N.l.p s s r f e.s s 8 F f p <.-.> p 2 5 y ; p t 3 4 2 t w ",
"> e G p g 3 s p 5 y.F p t a.5 p s p f r 4 h.g 9 s s s E E s % i.g E ^ l.e r 9 9 f w e r p r r 9 N 7 f 8 4 4 4 G 6.p p E p t.z.4 ",
"p g f 4 : K _ p i.s g & 5 y > p g s.=.> + 4 p r r e : 8 } N.^ e 5 s v.y f s 5 E E ^ y 2 1 5 p 2 | k.5 s e 4 e 2 f 9 i.p G y y r ",
"s.y y s p ^ s p ^ <.5 3 i.e s p f p r f 5 4 : s s <.i.y t e.y D y t ; y p y s.g t K.v.i.t p z.g  .b.g t 4 s 4 5 g ^ f 9 s a.e 9 ",
"y 3 m =.e t 3 t e } 5 i y } e f p r ^ f ^ t 9 p p.^ 2 > 4 a.^ e e t t e.> e E ^ p t e } w.8 s s A.m.M.y s w 2 2 > ^ 8 8 r [ i.p ",
"z.I E s 5 > s e 4 g 3 { 4 J p r e 4 e e e.{ 8 } 4 2 p y i.s y =.< 4 k.y r = _ p 9 2 s + 5 A n.^ a.B.e w U e 6.e 4 w 4 E 5 + G p ",
"/ @.e.s 8 9 r 5 y 4 { { X.X.4 p 9 % t > r % p J ^ 3 w f f F 9 p 5 y { 9 t 9 f 8 8 2 y e % t 8.} ^ h.i.s 9 4 ^ g y 4 4 e f 4 } h.",
"e.f 4 p p < 5 p ^ t f i.b.N.i.5 e 5 5 y e p i 4 % Y 9 E p 2 M / <.p w _ t E y 8 2 B.r e 4 % 5 4 r > e e 4 % K w F p e t y r r s ",
"y y y p t r - + _ e E [ h.y y e +.s.e g e D O r e 5 p p u.2 8 @.F.4 t.5 5 4 p + D e h.e + s e.s e p a.p e 9 2 h.E p 9 n.<.r p 5.",
"2 4 s > e r t 4 4 y i.> p y s s E p r 4 p 8.f 2 e s 4 8 i.n.E { a.<.i r s.r 4 p > t ^ 5 r x.g f p r ; t p 8.p ^ e e 8 h.9 9 t r ",
"t e 4 y p y s 2 t E p e.p g e s.4 g f y : p 9.t s e ^ 5 2 t N.^ s s 8 t _ f f t 5 % 2 p { 2 8 E w.8 r ' p s p / 4 4 q i.: | p.5 ",
"e t 2 r 4 e.+.p t.t ^ y e 2 s y G E t e e 5 9 K p f 5 y s 5 i.> ^ b.f X.r p ^ y r # G.^ ^ 9 J J y E e + { y 8 p p y 8.E } s 3 5 ",
"e r 8 5 s , : 8 G f 9 4 t e t s 2 t e e p g 6 | F.n.y 5 r E w g f 4 e e p p a.p a.} 5.s.n.S.n.4 8 2 {  .g ^ n.4 F p 4 y { =.p p ",
"e t t E y 4 e.p 8 e.3 p 4 y t =.f 4 y 5 E l.2 t b.l.p e f f r 1 4 <.r w 2 4 4 9 2 4 9 s.t F.N.n.u 4 4 G.F.s g h.w e e p f N E l.",
"e t e 4 9 Y } y 8 N.e y e e y p 5 r 4 4 s 9 y 4 : E s ; s ^ 2 - 2 9 r t 5 X.p r i.e.% e f s 4 p t s ^ f g 8 e 5 i 4 4 g s 2 O.F.",
"g y y e t r 4 9 M y g i.9 a.f 2 4 4 D } p p e 5 p y.e t s 3 % + i % w 5 e.t i.p s.e % y 5 s e N.r e t f r 5 p r 4 8 g 2 ^ { z.^ ",
"4 : r 4 9 E > p p & p s./ 4 f 3 v.^ ^ p r r + t e p > 9 E y 8 > e r s &.B.p n.N.p e y 4 5 5 e 4 t p f 2 ; i 5 p s p s s ^ E y.i.",
"e 9 t 9 4 g E a.s p 2 i.i.5 y ' s E 8 } g C.f t p e e } 8.f p e 4 r 4 3 % x.p 2 9 - s t n.y s h.E e r E + @ u % 4 v.4 5 2 t p w ",
"p s.M.i.4 8 9 9 8 4 p e.9 8.; <.e 4 8 y p 2 e 2 y 5 r g N J g p p 4 e t t 2 p } y V t p ^ 8 n.f e K < i.8 % K.% f w F e.s 2 y 3 ",
"^ D.g p 2 G B.e 8 9 r s g i t a.p 8 r 2 4 % w 9 t < n.9 ..q c.p s r e 2 p 4 G t ' f 5 w e g 4 p i < X.y 8 p p 8 f 4 e p 8.D p 4 ",
"g t t ^ p { p ^ f r r ' 5 p r p p p p 2 8.h.9 K r G 4 p r B H.l.e t e e y p t D 2 w { t <.r e f s 4 t 4 p 4 s _ p s q.w y p > 4 ",
"r p 8 w.6.^ 4 E E e g y 2 e 5 g e < > @ : p s ^ t 2 8 _ E n.} y.g s 4 y e p s y > w E y 4 e r 5 4 w ^ <.s y ^ s e e s p y.4 p r ",
"r > e 4 n.5 y.=.8 p e 2 G f 9 y p e i % 2 4 5 n.5 e.p t z.^ E e : } =.p u / 4 4 p + f y s > + 9 r 4 t r * p 2 e 4 @.^ f p.4 5 e ",
",.4 2 8 y e p 4 4 p f 9 t 5.e t n.r y i.p G s ^ N.f { 4 y r f E p _ 5 K p s.r r 5 w r < [ y X } h.2 r r p g y 4 N y.9 V p =.f t ",
"4 O 2 r =.> y 8 4 e > > t 5 4 <.B.^ r w 5 9 e.9 9 r 4 4 2 g p <., p _ J #.F.<.p e &.r ^ 5 4 2 9 t 9 4 4 } p 8.p e z.5 N G p y y ",
"5 4 D 5 p < 4 s ,.2 y % Y y y e a.r p b E p ^ f 9 + y 5 8 9 y y y f 4 : s n.e.w F e ; _ 4 K 3 4 5 F t D e > i.t z.E O.n.r : 1 ^ ",
"9 % 5 s e y O t t 8 G y e f f s ,.4 e $ 4 t K E 9 e 5 y * p s G 4 p h.z.e n.} ^ A.s w 8 t B.E l.y.e > % e y > s p e.n.N.5.<.^ 4 ",
"9 t 2 s f l.e : 5 y } e q z.p N p y 4 5 i.r 3 h.V r e p g.r 2 4 > 9 8 7 p k.r ^ 4 t r 9 i.y _ p 4 e 9 p y f t p ^ e.h.y e ; p / ",
"s.5.E 8 ^ e 9 8 s B.e w : f + F p g e } ..y <.X.s 5 9 g 4 w y X.^ 4 5 } y % 8 e i.> 2 _ r 4 9 M.h.y 2 M.s ^ f <.y t s E 3 t.t 5 ",
"i.p z.i ; E p e.8 N.e.^ 3 ' ^ #.B.} s w f ^ e y < g 3 9 4 4 y 9 i.r w.t % e r 2 p 3 - <.9 % t w l.e s s 9 J 9 r 2 > n.5.F.p e 3 ",
"g l.9 r s s 9 } t t 5 l.5 n.^ n.^ e y e 9 f s y ^ 9 _ g - h.z.8 g i.^ g y t 9 E E 4 D <.5 w s w 4 4 s { q  .y ^ r y.p A.^ y 5 _ ",
"X.4 4 p.E r 7 y 9 2 e % > e.^ ^ p a._ 5 J 3 0.e.e.s 5 e : @ 8 4 4 4 t t 2 4 p e y.p p p p 4 9 4 % D s.a.X.n.e y i =.4 4 ^ t - B.",
": 5 p e % y p s.8 B } s e p t y p e.y 4 e : s p t.} g w i o % * _ B.^ U 8 : y e y z.f ^ 4 z.y g 4 f <.4 4 p 4 f < e 4 e e 8 y ^ "
};
