/* XPM */
static const char *player_down1[] = {
/* columns rows colors chars-per-pixel */
"64 64 234 2 ",
"   c #090A14",
".  c #241527",
"X  c #341C27",
"o  c #4D2B32",
"O  c #4A5627",
"+  c #53592D",
"@  c #5B5C32",
"#  c #5C5B38",
"$  c #514D32",
"%  c #685C3A",
"&  c #765D3A",
"*  c #4E662A",
"=  c #5A692C",
"-  c #5B722A",
";  c #596732",
":  c #5C6C33",
">  c #576737",
",  c #5C7439",
"<  c #66792D",
"1  c #626434",
"2  c #6A6B35",
"3  c #65633C",
"4  c #6B653C",
"5  c #656C3C",
"6  c #6C6D3C",
"7  c #656A35",
"8  c #736A3C",
"9  c #657C35",
"0  c #6D7B36",
"q  c #62723C",
"w  c #6B733B",
"e  c #697637",
"r  c #73743D",
"t  c #717B39",
"y  c #7A7B3C",
"u  c #7C773A",
"i  c #646E2E",
"p  c #7A4841",
"a  c #6D5B41",
"s  c #5D6F42",
"d  c #6D6544",
"f  c #6D6C43",
"g  c #676A44",
"h  c #726C42",
"j  c #7A6B45",
"k  c #7B644B",
"l  c #746C4A",
"z  c #7E6C4B",
"x  c #786345",
"c  c #657440",
"v  c #6C7343",
"b  c #6C7B43",
"n  c #6B794A",
"m  c #737443",
"M  c #7B7444",
"N  c #737C44",
"B  c #7C7B44",
"V  c #73734B",
"C  c #7C744C",
"Z  c #747B4B",
"A  c #7B7C4C",
"S  c #7C6E53",
"D  c #7D7352",
"F  c #7D7C52",
"G  c #757B51",
"H  c #826A49",
"J  c #827C45",
"K  c #83754C",
"L  c #837B4D",
"P  c #8B7C4C",
"I  c #847446",
"U  c #927A4E",
"Y  c #836C53",
"T  c #896E53",
"R  c #826750",
"E  c #847353",
"W  c #8C7554",
"Q  c #847C53",
"!  c #8B7C55",
"~  c #8C745B",
"^  c #857C5B",
"/  c #8C7B5B",
"(  c #847459",
")  c #927C54",
"_  c #937C5C",
"`  c #9A7C5E",
"'  c #937557",
"]  c #AD7757",
"[  c #8B7D60",
"{  c #947C62",
"}  c #9B7E62",
"|  c #987A67",
" . c #A37F65",
".. c #62872D",
"X. c #7A843C",
"o. c #768739",
"O. c #718A3C",
"+. c #6D8447",
"@. c #748343",
"#. c #7D8444",
"$. c #7C8A44",
"%. c #75844C",
"&. c #7B824B",
"*. c #7A8A4C",
"=. c #738B44",
"-. c #7D8352",
";. c #7B8B54",
":. c #778456",
">. c #7A9251",
",. c #7A8760",
"<. c #849E3B",
"1. c #828A3E",
"2. c #848345",
"3. c #84834C",
"4. c #8B844C",
"5. c #848A4B",
"6. c #8C8C4C",
"7. c #868646",
"8. c #93884E",
"9. c #879349",
"0. c #96964D",
"q. c #848353",
"w. c #8C8353",
"e. c #848B54",
"r. c #8C8B53",
"t. c #85835A",
"y. c #8C835A",
"u. c #848B5A",
"i. c #8D8B5C",
"p. c #938455",
"a. c #9B8555",
"s. c #938C54",
"d. c #9A8C55",
"f. c #94845B",
"g. c #9A835C",
"h. c #948B5C",
"j. c #9A8B5D",
"k. c #8C935B",
"l. c #889256",
"z. c #949355",
"x. c #9D9453",
"c. c #94935D",
"v. c #9C925C",
"b. c #979A59",
"n. c #A3845D",
"m. c #A28D5B",
"M. c #A4895A",
"N. c #A1935D",
"B. c #A4985B",
"V. c #A4964E",
"C. c #99A45C",
"Z. c #A0A35D",
"A. c #8D8C63",
"S. c #898561",
"D. c #958362",
"F. c #9B8463",
"G. c #948B63",
"H. c #9D8B63",
"J. c #9C856A",
"K. c #9E8B6B",
"L. c #95876C",
"P. c #889361",
"I. c #949263",
"U. c #9C9263",
"Y. c #9B9966",
"T. c #9C946C",
"R. c #9B996C",
"E. c #969767",
"W. c #9E8771",
"Q. c #9C9671",
"!. c #A18665",
"~. c #A38B64",
"^. c #A98D65",
"/. c #A1856B",
"(. c #A48C6B",
"). c #AB8C6C",
"_. c #A88768",
"`. c #A39364",
"'. c #AB9466",
"]. c #A59A65",
"[. c #A5936B",
"{. c #AB936C",
"}. c #A49A6C",
"|. c #AC9A6C",
" X c #AA9A62",
".X c #B2956D",
"XX c #B29A6D",
"oX c #B99D6F",
"OX c #A58C72",
"+X c #AA8E73",
"@X c #A98D78",
"#X c #A59373",
"$X c #AC9473",
"%X c #AD9A73",
"&X c #AD947A",
"*X c #AD9C79",
"=X c #A49A77",
"-X c #B29574",
";X c #B39B74",
":X c #BA9D75",
">X c #B2967C",
",X c #B49C7B",
"<X c #BA9C7C",
"1X c #B9977E",
"2X c #ADA26D",
"3X c #A5A46B",
"4X c #B2A16C",
"5X c #B9A16E",
"6X c #ACA375",
"7X c #B4A275",
"8X c #BCA375",
"9X c #B4A17B",
"0X c #BBA37B",
"qX c #BAAA78",
"wX c #A5B26C",
"eX c #C29C79",
"rX c #C5986D",
"tX c #C2A47D",
"yX c #C4A678",
"uX c #B69A83",
"iX c #BA9D82",
"pX c #AD9E84",
"aX c #AAA381",
"sX c #BCA484",
"dX c #BBA783",
"fX c #C2A484",
"gX c #C4AB84",
"hX c #C5A98A",
"jX c #C7B189",
"kX c #C8AB92",
"lX c #CDB294",
"zX c #D4B696",
"xX c #DBBD8B",
"cX c #EEC790",
/* pixels */
"d D./.&X+Xc.e.r.B 3 r r $.< - - w |.P B C r #.5 ! e.B L S S F.{.H.K.OXg.W ~./ ~.n._ t.3.q c.q.K q.@ w Z _ (.`.{.f.|.N t 6 + ; 3 ",
"Z f.#X,X(.y.A w @ = 0 < @.0 1.O.wXB t J 3.6 B = 5 6 A K o X X X F.' x H K K ! H.g.K m @ O j.J A w.q.v 3.[.(.|.(.w.C m e r 7 O * ",
"y.&X>X+Xf.U.].6.9.b.t - < o.9.M k.C...X.r 8 i 2 m : o o o o X X X W Y.}.q.N %.K g.[.N m c w.3.K x n.M 3.w.XX%XH.4.4.4 2.1 ! N 7.",
"L [ K.(.D.$XF.5.2.9.9 7.5 o.X.* 9 j.X.w.s.P X.2 o o o o o X X X X X !.C U.h.C H.8 & 4 b         % % j.O.`.f.~.{.K B 2 l.; m q.t ",
"/ m ^ J.J.L.K.E.U.r.9.e.e r e r.! C m C J o.o o o o o o X X o o X X X q.[.~.L 4 &.L             + r 4.4.y.) g.g.p.p.0 4.A 3 7 E ",
"-X$X$X!.{.h.E }.u.p.3.&.=.: r.v.f.K e.#.o o o o o o o o X o o X X X X X X &XA.%.b               b , v 2Xg.P .X:X(.j.t 1 m 6 q.^ ",
"+X{ F.l } ~.6Xh.(.(.> m e.=.s.p.m Q K o o o o o o o o o o o o X X X o X X X X 3X              b e.&.b > 6 `.'.0X&X'.s.4.9 q h y.",
"y.D Y q._ {.[.(.&XK.>.h.e.v.`.7X*.i.o o o o o o o o o o o o o o o o X X X X X             y.}.|.7X~.q.-.-.~.~.;X&X_ ~.4.- 6 T.m ",
"D.%X) j K ~.r.d } g ; q.w.Q j.{.,Xo o o o o o o o o o o o o o o o X X X X X X X         u.G.% E ~ ;X[.^ / #X).~._ ~ $Xp.1 r.S.E.",
",XR.I.j.y.z L N O > k.s.d.i.r.~.$Xo o o o o o o o p o o o o o o o X o o o o X X X .     h.G.%.e.^ [.(.T.#XJ.).).g.W F.f.~.f.R.dX",
"^.D.( E s.i.A *.9 q w. XN.Y.%X{ o o o o o o p o p p o o o o o o o o o o o o o o X X . [.Q ;XT.qX%X%XJ.OXJ.&XT (.F.(.f.H.~.G.H.#X",
"/ K.h z ~.U.I.H.i.* ].tX7X>X<Xo o o o o o o o p p p o o o p p o o o o p o o o X X X X . . . (.tX`.(.&X{ Y J.' k F.$XY.#.r.;XjXG.",
"/ y.c.z.`.{.&XH.w u.OX,XsXkXuXo o o o p o o o p p p o o p p p o o o p p o o X X o X X X . . . . j.v.! W.G.J.{ K.q.`.H.j j OX| ^.",
"iXJ.z M 8 j.*X%Xc.*XfXlX&XiXo o o o o p o o o p p o o p p p o o o p p p o o o o o X X X X . . . . qXQ E.%X|.].c.E.h.B m.-X-XF. .",
"T j.w.r v.[.&X#XD.{ OX/.J.zXo o o o o p p p o p p o p p p o p p p p p o o o o o X . . . . . . . . tXH.s.`.u @.x.s.H.[.|.x R ` ' ",
"!.!.L h.-X0X+XK.F.@X&XI./ k o o o p o p p p p p p o p p p p p p p p o o o o X X . . -X>XXXb.. . . 4.'.|.8XN.Z.d.x.h.{ H.z C W _ ",
"F.H.D.+X#X{ [ J.(.OX@XJ.Q q o o o p p o p p p p p p p p p p p p p p p o o o o X . $X`.9X`.C.B.. . s.{.>X].`.0.{.v.j.j.J h.q.t.Y ",
"w.h.H.} (._ D ^ W.{ { ;Xq.&.o o o p p o p p o p p p p p p p p o p p o o o o o X oX|.9X;X8X;X6Xv.B.N.d.p.8.d.:X<Xs.<.t 0XXXP Q Z ",
"7. X8.}.0XW v t.&X/ E ^ u.v o o o o p p p o o p p p o p p p o o p p o p p o o X  X<X,X1XhX9XlX|.w.Z.y 3.6.P ).-Xw.0 7.s.d.B h.l.",
"i v.`.].y.Q -.! _ `.K.F K 6 o o o o o p p o p p p o o p p o o p p p p p p o X X ,X).1XsX).;XlX0X7X{.d.P x.s.f.D.8...z.j.K.pXL 2 ",
"z.`.].`.6.5.N 3.h.H.XX(.~.s.o o o o o p p p p p p o p p p p p p p p o o o X X X } /.+XfX! `.$X,X0X`.x.j.I J j.H.].z.j.M h.= - = ",
"M f.`.h.r.h.B 6.6.~.B z f.C D.o o o o o p p p p p p p p p p p p p p o o o o X X /.~ fX$X;XzX<X#X{.h.6.P m.4.m.P a.|.g.4.2 u o.v.",
"`.|.p. X].L #.$.7.6.8 2 Q i.{.o o o o o p p o p p p p p p p p p p p p p o o X X g.a { J.~.;XJ.F p.H.B.'.XX^.|.4X`.B r L M M y 2.",
"0X).XX! Q J M M P 0 m 7.7.U.~ o o o o o o o o p p p p p p p o p p p p o o X X A ! +./ ,XtX8XH.t.Z G.v.m.(.8X{.jXXX[.r.L p.U.2.h.",
"-X^.XXh.w m w + @ 6 B p.H.#X{.`.] o o o o o o p p o o p p p o o p p o X X X X : 3 A [.tX:XtX9XP.G u.c.`.D.).0XXX;X<X{.(.g.j.s.j.",
";X{.{.h.m 3 ; v : 5 4.M 4.}.H.`.] ] ] o o o o p p o p p o p p o p o X X X X ;.3.L 9XjXfX0XY.gXi.R.V q.[.t.g.0X0XlXOX{.! F._ $X{.",
"F.gX%XR.y.F ; ; q.I 8.J H.#X|.0.] ] o o o o o o o o o o o p o o o o X X X m x.r L.j.U.).` &XdXc.c.P.u.P.l.h.'.;X>X~.{.;X(.&X;X~.",
"g.{.,XG Z f N c % 2 4 D.,X>X;X2X] ] ] o o o o o o o o o o o o o o o X X X w.0.G.L.D././.` ).tX0X$XK.[.E.+.-.[.;X(.{.,X:X;X(.;X;X",
"Q h.9X:.:.t.5 1 6 + O Q v.%X{.7X0.] ] p p o o p o o p p o p o o o o o X X X 6.hX(.(.W ' +X&XfX&XJ.[.Q G.s q.D.i.~.gX,XF.$X).&Xf.",
"K y.Q.=X:.v , r.4.$.l.3X%X$X7XtX%X] p p p o o p p p p o o p o o o p p o X X 4.` / _ ! eXkX&X+XuX>X$X#X%Xn :.A.#X%X;X{.F.-XOXJ.K ",
"I.*X! R.:.;.>.f.B.4.2Xh.,X-XhXqXfX] ] ] p p o o p p p p p p p o o p o o o X X +Xf r.3.J.fXuXuX(.-XOXD.hX;XQ.S.+X#XD.F.K.,X&XA.5 ",
"{.(.g.#Xu.A.*Xh.8X`.j.(.+XiX<X$X0X] ] p p ] p p p p p p p p p p p p o o o o X m : v.t Q.=X        *Xy./ {.<XaX#X%X!.{.,XJ.#X[.i.",
"$X7X#XaX^ 6X*XgX;X%XF.)./.<X-Xs.|.] ] p ] ] p p p p p p p p p p p o o p p p X X                   ;X;X_ T F.&X#XW _ E ;X;XgXfX(.",
"(.K.dX[.3XqXdX~.'.<XF.+XJ.<X`.%XlX<X] p ] p p p p p p p p p p p p p p p o o X X                   H.(.f.K.F.&X*Xg.r 3.~.tXyXzX,X",
"U.|.dX9X[.[.,XT.%XsX+XOX+X!.(.J.gX+X] ] ] p p p p p p p p p p p p p p p o o o X X             (.q.! Q ~.Y ` (.(.qXq.w.h.yXcXcX].",
"{.%X}.H.,XG.(.&X&X` H.3.d H.[.:X|.(.] ] ] p p p p p p p p p p p p p p o o p o X X           ,X;XH.j j D.$XD.>X$Xj.n.{.(.2.0XxXB.",
"/ ^ ,X%X%Xh.G.G.(.p.{.h.g D.gXtX8X=X] ] ] p ] ] p p p p p p p p p p p p p p o o X X     (.&X+XH.9Xb.h.C D.{ &XsX|.;X:X0X].gXtXtX",
"H.*X=Xy.[.sX0XK v.4.1 A q.$XtX:X0XgX}.] ] ] ] p p p p p p p p p p p p p p o o o o X X / # OX(.i.F.W g.g.!.(.(.[..XH.~.$X,XsX{.(.",
"gX;XJ.dXXXdXK.XXB 5.8 h.2X;X:X|.Y.dX[.] ] ] p p p p p p p p p p p p p p p o p o o X X -Xr.J.).j.W F.w.j (.$X!.-X;X: i.9X,X%XoX;X",
"dXqXXX{.4X~.M L v.4.6 6X2.$.V.0.(.$XJ.] ] ] p ] ] p p p p p p p p p o o p o o o o X X . +X~.!.K.[.&XB U E ` D.C h.-.L 9X(.$XdX;X",
"|.sXgX{.].h.2.x.|.2.G.j.y C.s.H.j.W ] ] ] ] ] ] ] ] ] p p p p p p p p o o o o o o o X X . f E } { #X` _ ) ) [.f.`.i.h.|.~.~.~.~.",
"2XsX{.|.%X`.;Xa.-Xm.2XqX'.p.B.{.N.z.] ] ] ] ] p ] p p p p p p p p o o p p o h.o o o X X . . _ F.E H _ _ !._ F.g.f.f.j.^.~.~.;XI.",
"U.;X~.8X'.s.K a.`.N.-X<XB.x.XXhX`.] ] ] ] ] ] p p p p p p p p p p p o o o o h.y.o o o X . . . F.3Xp.Q p.(.J.F.H.K C @ n.) W H.i.",
"J ! g.yX0X4.j.f.B.~.v.j.N.8.{.).4.] ] ] ] ] ] p p p p p p p p p o p p o o &.$X2X{ . o X X . . T K L A m y.{.g.w.B w.5 f.`.%.n I ",
"J g L %X`.h.m h.B.9.h.7X4Xs.p.z.] ] ] ] ] ] p p p p p p p p p p p o o o a.p.OX>X|.[ . . . . . . . [.e.%.M W '.E w.m r g.y.L w L ",
"U.n q.V j.z.s.p.w.r.K.L (.c.3.h.] p ] ] ] p ] ] p p p p p p o o p o o o H.!.<X{ } / G.J . . . . . !.! G.P j./ q.M N m ! _ t.N i.",
"U.E.Z e.H.`.jX{.D.h.U.}.( 6.`.(.] p ] ] ] ] ] ] ] p p p p p p o o o o (._ a ~ } } $X` w.s.. . . . &Xq.h 8 H K &.1 $ c.L w.h Z g.",
";XgX}./ D.a.F.`.y._ (.%XN.N.[.,X] ] o o ] ] p p ] p p p p p o o o o g.Y D A ~ ' k D.h.1 r w.*X. . G.l.q *.8 4 5 q F m.M M h Z `.",
"'.%X$XD.g.~.D.{.a | } ;X>X].) |.] ] X X o ] p p p p p p o p o X X [ E q.C w.Q { -X!.! r XX|.OXOX' 9X3Xk.k.c.&.@.Z 5.B %.r.w.+ 3 ",
") H.f./ H.0X`.H.fXF.W ` <XH.:X;X] p ] ] X o p p p p p p o o X X sXY.y.l.d / A S _ #X/ 0X&XsX@XJ.Y $X&Xm K K A m m p.oXH x t.e.b ",
"H.g.H.[.;Xg.7X:X!.z % w.4X;XqXXX] p p p p p p p p p p p p o X kX9Xi.3 A m / P.A Y { F.{ OX{ ^ K.j.j g A U.q.G.-.s.& h.% H ) 3 &.",
"H.{.{.|.{.{.F.<X_ z.< 2Xb.,X;X`.] p ] p p p p p p p p p o X X kXdXq.5 g y.J.@X=XS.Q F.sX/.l D &X(.H.i.` K.F c G.4 # 4 @ M s.b h.",
"XX{.%X(.F.v.! ;X! ].<.r.2Xw.r.|.] ] p p p . p p p p o o o X X sX1X;X&.&.D h.S } n |.&X@XD v F (.)._.(._ ' u.e.Y.N q b : 3.3.=. X",
"F.%XD.f.+XOXG.g.X.U.5XfXeXL *XfX] ] p p p . p o p p p o o X t.,.^ S.F u.v l V G.t.).).J.u.Z ~ } n./.T !.rXi.G.E H.6Xe.q Z s.h.p.",
"~.F.$X~ @XD.Y.m _ H.<X<X-X].<XfX:X] ] p p . p o o o p o X X 9X9X{.J.G v n m N F S.~ k $ n t.( $XF.W.~ (.Q S.q.n S (.`.-.b ! K a.",
"n.F./ @X(.%XG.9 l #.M |.f.M -X.XF.h p ] p p p p o o o o X X F.{ (.F.D.Q.(.2Xy./ A V % F F g > k ~ ( J.{.[.,XR.k.E &X%Xi.c 5 j.'.",
".X$Xg.$X,X(.2.@.h.L 4.g.9 e B 4.3.e ] ] p p o o o o o X X X [./ W (.F.{.$Xs.~.f.Y # n F T.h.V @ Y ` D.;X/.!.0X;X}.{.{.S.F f.;X'.",
",X(.{.(.-XH.`.c.(.D.-.Z = > Z 3.q ;.q.] p o o o X X X X X X :X(.f.{ W $X,X%X$X[.f.h.t.G.%X).H.h x k d $X(.$X{.H.#X(.[.#XD.OXJ.<X",
"#XF.$X(.$XK.b.].w.l u.*.u.;.s.s.@.N.y G.] o o X X X X X X X ! D.^.g.(.D.&X0X[.g.= y.%X~.~.~.qX-.q.C F f.G.h.).[.$X+XOXOXJ.).^.~.",
"E _ (.).,Xh e U.L q.%XD.h.@.o.c.+.4.0.%X] X X X X X X . X X k.C % j./ J.#X~.;X{.k.b XX{.~.g./ K M h s q.m p.~.g.H.L.~ { OX{ ).J.",
"W J.$X`.(.2.! M 4.s.s.N.J 1 N b.e.s.4.8.} X   X X X X . X X w.f.3.f.p.!.&X!.{ D.U.h.v.M.) Q Z &.q.y.;.e.&.g.g.g.H.#XD.{ _ _ (._ ",
"` F.$Xw.N X.4.p.z.{.y.{ Q w L 8.v.|.6.7.9Xo     . . . . X >X[.$XU.g.H W ` ` H.h.`.f.h f j.U.w.6 Z [.U.|.6XH.F.{.0X7X(.D.E k J.OX",
"#X#X~.j.0 o.x.p.~.K Q / *.6 E B z.d.V.$.3.&.  X X X X X K.,X~.(.{ _ &.P _ ) ) !.K I p.5 L _ g.q.A `.{.;X$X/ ! [._ H.#Xd 3.H.Q =X",
"F./..X(.U.3.@.3.L f.r B $.i w 0 9.v.B.s.].b = r.O : @.H.>XOX(.p.! &XF.` ` F._ ~.g.-.w.m M W K K @ A L ~.~._ %X;X|.v.w.t : y.b G."
};
