/* XPM */
static const char *down2[] = {
/* columns rows colors chars-per-pixel */
"64 64 232 2 ",
"   c #090A14",
".  c #241527",
"X  c #341C27",
"o  c #4D2B32",
"O  c #4A5728",
"+  c #53592D",
"@  c #5B5D32",
"#  c #5A5B34",
"$  c #494C2A",
"%  c #635D3D",
"&  c #6C5C3B",
"*  c #695937",
"=  c #765D3A",
"-  c #4E6629",
";  c #5B642C",
":  c #596A2B",
">  c #5B722A",
",  c #596633",
"<  c #5C6C33",
"1  c #556736",
"2  c #5B7439",
"3  c #666F2F",
"4  c #66792D",
"5  c #626334",
"6  c #6A6B35",
"7  c #65643C",
"8  c #6B643C",
"9  c #656D3C",
"0  c #6B6D3C",
"q  c #656A35",
"w  c #74693C",
"e  c #657C35",
"r  c #6D7B36",
"t  c #62733C",
"y  c #6C733C",
"u  c #6C7A3B",
"i  c #677535",
"p  c #73733D",
"a  c #717B39",
"s  c #7C783C",
"d  c #7A4841",
"f  c #6D5D42",
"g  c #5D6F42",
"h  c #6C6545",
"j  c #6C6D42",
"k  c #676944",
"l  c #7A6444",
"z  c #736C43",
"x  c #7A6B45",
"c  c #7D6C4C",
"v  c #76674A",
"b  c #657440",
"n  c #6C7343",
"m  c #6C7B43",
"M  c #667B47",
"N  c #737443",
"B  c #7B7444",
"V  c #737C44",
"C  c #7C7B44",
"Z  c #74744C",
"A  c #7C744C",
"S  c #747B4A",
"D  c #7C7C4C",
"F  c #7B6D51",
"G  c #7D7C52",
"H  c #787752",
"J  c #826A48",
"K  c #827C45",
"L  c #83754C",
"P  c #837B4D",
"I  c #8B7C4C",
"U  c #847446",
"Y  c #927A4E",
"T  c #846B52",
"R  c #896E52",
"E  c #826750",
"W  c #847353",
"Q  c #8C7554",
"!  c #847C52",
"~  c #8B7C55",
"^  c #8B745B",
"/  c #857C5B",
"(  c #8C7B5B",
")  c #827459",
"_  c #927C55",
"`  c #92755B",
"'  c #937C5C",
"]  c #9A7C5E",
"[  c #977656",
"{  c #AD7757",
"}  c #8C7D61",
"|  c #947C62",
" . c #9A7E62",
".. c #977A67",
"X. c #A37F65",
"o. c #62872D",
"O. c #6C843A",
"+. c #7A843C",
"@. c #768739",
"#. c #7C973C",
"$. c #6D8447",
"%. c #748343",
"&. c #7E8444",
"*. c #7C8A44",
"=. c #75834C",
"-. c #7C824B",
";. c #7A8A4C",
":. c #738B44",
">. c #7E8352",
",. c #798855",
"<. c #7A9251",
"1. c #849E3B",
"2. c #828A3E",
"3. c #858446",
"4. c #8A8247",
"5. c #84834C",
"6. c #8A834C",
"7. c #848A4B",
"8. c #8C8C4B",
"9. c #838945",
"0. c #93884E",
"q. c #879449",
"w. c #96964C",
"e. c #848353",
"r. c #8C8353",
"t. c #838B54",
"y. c #8C8B54",
"u. c #858259",
"i. c #8C845B",
"p. c #858B5A",
"a. c #8C8B5B",
"s. c #938454",
"d. c #9B8556",
"f. c #938C54",
"g. c #9A8C55",
"h. c #93845B",
"j. c #9A835D",
"k. c #948B5B",
"l. c #9B8B5D",
"z. c #8B9255",
"x. c #8C925A",
"c. c #859356",
"v. c #949355",
"b. c #9C9453",
"n. c #94925D",
"m. c #9C925C",
"M. c #979A59",
"N. c #A28D5B",
"B. c #A3865C",
"V. c #A1935E",
"C. c #A4985B",
"Z. c #A4964E",
"A. c #96A65C",
"S. c #A0A35D",
"D. c #8D8C63",
"F. c #888762",
"G. c #948362",
"H. c #9B8463",
"J. c #958B63",
"K. c #9D8B63",
"L. c #9D856A",
"P. c #9D8B6B",
"I. c #96846C",
"U. c #889362",
"Y. c #949163",
"T. c #9C9363",
"R. c #9C9965",
"E. c #9C936B",
"W. c #9D9A6B",
"Q. c #969768",
"!. c #9E8772",
"~. c #9D9474",
"^. c #A18665",
"/. c #A38B64",
"(. c #A98D65",
"). c #A1856B",
"_. c #A48C6B",
"`. c #AA8D6C",
"'. c #A39364",
"]. c #AB9465",
"[. c #A59A65",
"{. c #A99A63",
"}. c #A5936C",
"|. c #AB936C",
" X c #A39A6B",
".X c #AC9A6D",
"XX c #B2946D",
"oX c #B29A6D",
"OX c #B79B6C",
"+X c #A58C72",
"@X c #AA8E73",
"#X c #A98D79",
"$X c #A59373",
"%X c #AC9473",
"&X c #AD9B73",
"*X c #AD947A",
"=X c #AD9C7A",
"-X c #A59A76",
";X c #B29573",
":X c #B39B74",
">X c #BA9C75",
",X c #B2957B",
"<X c #B49B7B",
"1X c #BA9D7C",
"2X c #9BA075",
"3X c #ADA36D",
"4X c #A6A56B",
"5X c #B3A16C",
"6X c #ACA375",
"7X c #B4A275",
"8X c #BBA375",
"9X c #B4A27B",
"0X c #BBA37B",
"qX c #BAAA78",
"wX c #A5B26C",
"eX c #C79B74",
"rX c #C2A47D",
"tX c #C4A678",
"yX c #B49B82",
"uX c #BA9D83",
"iX c #AD9E84",
"pX c #AAA381",
"aX c #BDA483",
"sX c #BBA784",
"dX c #C2A483",
"fX c #C4AB84",
"gX c #C5A989",
"hX c #C7B189",
"jX c #CDB294",
"kX c #D4B696",
"lX c #D0B191",
"zX c #EEC790",
/* pixels */
"h G.).*X@Xn.c.y.C 7 p p *.4 > : y .XI C A p &.0 ~ p.C P F F  .|.K.P.+Xj.Q /.( /.B.' u.5.t n.! L e.@ y S ' _.'.|.h..XV a 0 + , 7 ",
"S h.$X,X_.i.D i @ : r 4 %.r 2.#.wXC p K 5.0 C ; 0 0 D L K.'.|.| H.` l J L L ~ H.j.L N @ $ l.L D r.e.n 5.}._..X_.r.A N i p q O - ",
"i.*X,X@Xh.T.[.8.q.M.a > 4 @.q.B x.A.o.+.p p 4 6 N < a.G._.,X^.7 ' Q R. Xe.V =.L j.}.V N b r.6.L l B.B 5.r.oX&XK.6.6.8 3.5 ~ V 9.",
"P } P._.G.%XK.7.9.q.e 9.9 @.@.- e k.#.r.f.I +.6 y 0 # u.$XH T r._ H.^.A T.k.A H.w = 8 m V C oX'.* & m.O.'.h./.|.L K 6 z.; N e.u ",
"( N / L.L.I.P.Q.T.y.q.c.y p i y.~ A N A K @.: 3 u u W.-.j G.K.l Q W l e.}./.P 8 -.P 7.-.p 6.w 7 + p 6.6.r._ j.j.h.s.r 6.D 7 q W ",
";X%X%X^.|.k.W  Xp.s.5.=.:.< y.m.h.L t.&.; &.4.f.O.9 A i.W.o X X X k.a.a.|.*XD.=.M W.~ P y.B ~ j m 2 n 3Xj.I XX>X_.l.a 5 N 0 e./ ",
"@X| H.z  ./.6Xk._._., N t.:.f.h.N ! L |.b.b.q.{.s p y.o o o o X X X  X$XyXH.E.4XR.0 e.u.S R., m p.-.m 1 0 '.].0X*X'.f.6.e i z i.",
"i.H T e.' |.}._.*XP.<.k.t.m.'.7X;.a.&X$Xi.l./.6.3.o o o o o X X X X X }.<X`.H.<X( G P.! M i.}..X7X/.e.>.>././.:X*X' /.6.> 0 E.N ",
"G.&X_ x L /.y.h  .k , e.r.! l.|.<X,X,X$Xh.3Xz.o o o o o o X X o o X X X yX+XR | Z i.] / p.J.% W ^ :X}./ ( $X`./.' ^ %Xs.5 y.D.Q.",
"<XW.Y.l.i.c P V O 1 x.f.g.a.y./.%X%X#X%X9Xo o o o o o o o X o o X X X X X X E.K.' J.| eXk.J.=.t./ }._.E.$XL._.`.j.Q H.h./.h.E.sX",
"(.G.) W f.a.D ;.i t r.{.V.R.&X| L.| )._.o o o o o o o o o o o o X X X o X X X X ^.] ` }.! :XE.qX&X&XL.+XL.*XR _.K._.h.H./.J.K.$X",
"( P.z c /.T.Y.K.a.- [.rX7X<X1XZ J.7XA o o o o o o o o o o o o o o o o X X X X X X . ^ ] %X+X_.rX'._.*X| T I.` l H.%XR.-.y.:XhXJ.",
"( i.n.v.'.|.*XK.y p.+X<XaXjXyX-XJ.' o o o o o o o o d o o o o o o o X X X X X X X . . . . . . _.l.m.~ !.J.L.| P.e.'.K.x x +X..(.",
"uXL.c B w l.=X&Xn.=XdXlX*XuXyX$Xu.7 o o o o o d o d d o o o o o o o X o o o o X X X X X . . . . . qX! Q.&X.X Xn.Q.k.C N.;X;XH.X.",
"R l.r.p m.}.*X$XG.| +X).L.kX9XE.a.o o o o o o o d d d o o o d d o o o o d o o o o X X X X . . . . . K.f.'.s %.b.f.K.}..Xl E ] ` ",
"^.^.P k.;X0X@XP.H.#X*XY.( v h % o o o o d o o o d d d o o d d d o o o d d o o o X X X X X X X . . . . .X8XV.S.g.b.k.| H.J A Q ' ",
"H.K.G.@X$X| } I._.+X#XL.! t 1 t.o o o o d o o o d d o o d d d o o o d d d o o X X o o X . . . . . . . ,X[.'.w.|.m.l.l.K k.e.u.T ",
"r.k.K. ._.' F / !.| | :Xe.=.M o o o o o d d d o d d o d d d o d d d d d o o o o o o X X . :X6Xm.. . . h.0.g.>X1Xf.1.a 0XoXI ! S ",
"3.{.0. X0XQ n u.%X( W / a.n 2 o o o d o d d d d d d o d d d d d d d d o o o o o o X X X gX9XjX.Xr.. . 5.8.I `.;Xr.r 9.f.g.C k.z.",
"3 m.'. Xr.! >.~ ' '.P.G L 0 i.o o o d d o d d d d d d d d d d d d d d d o o o X X X X aX_.:XlX0X7X|.g.I b.f.h.G.0.o.v.l.P.iXP 6 ",
"w.'.[.'.8.7.V 5.k.K.oX_./.f.( o o o d d o d d o d d d d d d d d o d d o o o o o X X @XdX~ '.%X<X0X'.b.l.U K l.K.[.v.l.B k.; > : ",
"B h.'.k.y.k.C 8.8./.C c h.A G.o o o o d d d o o d d d o d d d o o d d o d d d o X ` dX%X:XkX1X$X|.k.8.I N.4.N.I d..Xj.6.6 s @.m.",
"'..Xs.{.[.P &.*.9.8.w 6 ! a.|.o o o o o d d o d d d o o d d o o d d d d d d o o X f | L./.:XL.G h.K.'.].oX(.XX3X'.C p P B B s 3.",
"0X`.oX~ ! P B B I r N 9.9.T.^ o o o o o d d d d d d o d d d d d d d d o o o o X X $.( 9XrX8XK.u.S J.m.N._.8X|.hXoX}.y.P s.T.4.k.",
";X(.oXk.y N y + @ 0 C s.K.$X|.o o o o o o d d d d d d d d d d d d d d o o o X X X D }.rX>XrX9XU.H p.n.'.G.`.0XoX:X1X|._.j.l.f.l.",
":X|.|.k.N 7 , n < 0 6.B 6. XK.'.o o o o o d d o d d d d d d d d d d d d d o o X X 9XhXdX0XR.fXa.W.Z e.}.u.j.0X0XlX+X`.~ K.' %X|.",
"H.fX&XW.i.G , , e.U 0.K K.$X.Xw.o o o o o o o o d d d d d d d o d d d d o o o X X l.T.`.] *XsXn.n.U.p.U.z.k.].:X,X/.|.:X_.%X:X/.",
"j.|.<XH S j V b % 6 8 G.<X,X:X3Xo o o o o o o o d d o o d d d o o d d o o o X X I.G.).). .`.rX0X%XP.}.Q.$.>.}.:X_.|.,X>X<X_.:X:X",
"! k.9X,.=.u.9 5 0 + O ! m.&X|.7Xw.{ o o o o o o d d o d d o d d o d o o X X X X _._.Q [ @X*XdX@XL.}.! J.g e.G.a./.fX,XH.%X`.*Xh.",
"P i.~.=X,.n 2 y.6.*.z.4X&X%X7XrX&X{ { { o o o o o o o o o o d o o o o X X X X X ( ' ~ eXjX%X@XyX,X%X$X&XM ,.D.$X&X:X|.K.;X+XL.L ",
"Y.=X~ E.=.,.<.h.C.6.6Xk.,X;XgXqXgX{ { o o o o o o o o o o o o o o o o o o o X X X y.P H.gXyXuX_.;X+XG.gX:X~.F.@X$XG.K.P.<X*XD.9 ",
"|._.j.$Xp.D.=Xk.8X'.l._.@X1X1X%X0X{ { { o o o o o o o o d o o o o o d d o X X X X m.u ~.-XP.<X*XK.=Xi.( |.<XpX$X&X^.|.<XH.$X}.a.",
"%X7X$XpX/ 6X=XfX:X&XK.`.).1X;Xf..X`.{ { d d o o d o o d d o d o o o d o o o o X X 7 m U.P.| W h.j.:X:X' R H.*X$XQ ( W :X:XfXdX_.",
"_.P.sX}.4XqXsX/.].1XH.@XL.1X'.&XlX1X{ d d d o o d d d d o o d o d d d o o o o o X X , z (  .L.*XA K._.h.P.H.*X=Xj.p 6./.rXtXkX<X",
"T..XsX9X}.}.,XE.&XaX@X+X@X^._.L.fX@X{ { { d d o o d d d d d d d d d d o o d d o X X - O G h.+X_.e.~ ! /.T ] _._.qXe.r.k.tXzXzX[.",
"|.-X XK.<XJ._.*X*X] K.5.h K._.>X.X_.{ { d d { d d d d d d d d d d d d d d d o o o X X S }.P.<X:XH.x x G.%XG.<X%Xl.B.|._.3.0XkXC.",
"( / <X&X&Xk.J.J._.s.|.k.k G.fXrX8X-X{ { d { { d d d d d d d d d d d d d d d o o o o X X X *X@XK.9XM.k.A G.| *XaX.X:X>X0X XfXrXrX",
"K.=X-Xh.}.aX0XL m.6.5 D e.%XrX>X0XfX X{ d { d d d d d d d d d d d d d d d o o d o o X X . . . a.H.Q j.j.^._._.}.XXH./.%X<XaX|._.",
"fX:XL.sXoXsXP.oXC 7.w k.3X:X>X.XR.sX}.G.{ { d d d d d d d d d d d d d d d d d d d o o X X . . . Q H.r.x _.%X^.:X:X< a.9X<X&XOX:X",
"sXqXoX|.5X/.B P m.6.0 6X4.*.Z.w._.%XH.).{ { { d d d d d d d d d d d d d d d o d o o o o X X X . . *XC Y W ] G.A k.>.P 9X_.%XsX:X",
".XaXfX|.[.k.4.b..X3.J.l.s S.f.K.l.Q L.#XyX{ { d { { { d d d d d d d d d d d d o o o o o o X X . . . ] ' _ _ }.h.'.a.k..X/./././.",
"3XaX|..X&X'.:Xd.;XN.3XqX].s.C.|.V.v.| ^ #X{ { { { { d d d d d d d d d d d d o o o o o o o . . . . . . ' ^.' K.j.h.h.l.(._./.:XY.",
"T.:X/.8X].f.L d.'.V.;X1XC.b.oXgX'.5.! ^ :X{ { { { d d d d d d d d d d d d o o o o o o . . . J H.. . . h._.L.H.K.U A # B._ Q K.a.",
"P ~ j.tX0X6.l.h.C./.m.l.m.0.|.`.6.{.n.F E.Y.{ { { { { { d d d d d d d d d d o o o o o . K.r.F R L . . N i.|.j.r.C r.9 h.'.=.n U ",
"P k P &X'.k.N k.C.q.k.7X5Xf.s.v.P P.n.S A -.{ { { { { d d d d d d d d d d d o o o X o Z W r.a.z Y.}.t.=.B Q ].W r.N p j.i.P y P ",
"T.M e.Z l.v.f.s.r.y.P.P _.n.5.k.K._.f a.y n { { { { d d d { d d d d d d o o o o o X X K ! &XW.Y.K.^.~ J.I l.~ e.B V N ~ ' u.V a.",
"T.Q.S t.K.'.hX|.G.k.T. X) 8.'._.,Xk.% n k.W E.{ { { { { { d d d d d d d d d d o o o X r.f.k.:X=X*X*Xe.z w J L -.5 $ n.P r.z S j.",
":XfX-X~ G.d.H.}.r.' _.&XV.V.}.,X}.T.D a./ I.L.*X{ { { { { d d d d d d d d d o o o o X X p r.=XaX).J.c.t ;.w 8 9 t G N.B B z S '.",
"].&X%XG.j./.G.|.f .. .:X,X[._ .X.X.X&XJ.|.1XgXaX{ { { { d d { d d d d d d d d d d d o X X .X+X+X` 9X4Xx.x.n.-.%.S 7.C =.y.r.+ 7 ",
"_ K.h.~ K.0X'.K.dXH.Q ] 1XK.>X:XaX<XaXH.v ^  .*X;X{ { { { { { { d d d d d d d d d o o o X X #XL.T %X*XN L L D N N s.OXJ l u.t.m ",
"K.j.K.}.:Xj.7X>X^.c & r.5X:XqXoX_.,X;XG.i.j -X| $X=.{ { { { { d d d d d d d d d d d o o o X X X l.x k S T.e.J.>.f.= k.& J [ 7 -.",
"K.|.|..X|.|.H.<X' v.i 3XM.<X:X'.dX).<X}.H.F H.+XP.G.Y.{ { { { d { d d d d d d d d d o o o X X X X K.a.] P.G b J.8 @ 8 # B f.m k.",
"oX|.&X_.H.m.~ :X~ [.1.y.3Xr.y..X^.).,X ._.|.K./ i.j e.,.{ { { { { { d d d d d d d d d d o o X X X X X ' ` p.t.R.V t m < 5.5.:.{.",
"K.&XG.h.@X+XJ.j.+.T.5XdXrXP =XdX).#Xf ] &X>X0X8X9X>.a.G.{ { { { { { d d d d d d d d d o o o X X X X X X eXa.J.W K.6Xp.t S f.k.s.",
"/.K.%X^ #XG.R.N ' K.1X1X;X[.1XdX>X~ c.Z %XrX9XE.<X0X1X).}.{ { { { d d d o d d d d o o o o o X X X . . X ! i.e.n F _.'.>.m ~ L d.",
"B.K.( #X_.&XJ.e Z &.B .Xh.B ;XXXH.z j u.gX0X/.] XXgX*X*X%X*X{ { d d { { o X d d d d d d o o X X X X . X }.<XE.x.W *X&Xa.b 9 l.].",
"XX%Xj.%X<X_.3.%.k.P 4.j.e i C 6.5.y 8 R./.E.).).,XuX,X*X%XyX}.{ { { { { o X d . . . d d o o X X X . . X ).^.0X:X X|.|.F.G h.:X].",
"<X_.|._.;XK.'.n._.G.>.S : 1 S 6.t ;.e.F.J.P.| [ uX,X#X_.%X' >X_.h.{ { d { o d d d d d d o o X X X . X %X_.%X|.K.$X_.}.$XG.+XL.1X",
"$XH.%X_.%XP.M. Xr.Z t.<.p.,.f.f.%.V.s J.I.P.j.XXlXuX*X<XG.j.~ G.(.j._.{ d { { d d { d d o o X       G h.J.k.`.}.%X@X+X+XL.`.(./.",
"W ' _._.<Xz i T.P e.&XG.k.%.O.n.$.6.w.&X$X` h.! P.~.%X' }.$Xx.A & l.( H.{ { { { { d { { { { X X     g e.N h./.j.K.I.^ | +X| `.L.",
"Q L.%X'._.3.~ B 6.f.f.V.K 5 V M.t.f.6.0. .A e.M.m W.` ^ L.*Xr.h.5.h.s.^.*X^.{ { T.k.m.B.[ ! S =.e.i.,.t.=.j.j.j.K.$XG.| ' ' _.' ",
"] H.%Xr.V +.6.s.v.|.r.| / y P 0.m..X8.4.9X% < k.b A c ~ P.,X}.%XT.j.J Q ] ] K.k.'.h.z j l.T.r.0 S }.T..X6XK.K.|.0X7X_.G.Q l L.+X",
"$X$X/.l.r @.b.s./.L ! ( ;.0 W C z.g.Z.*.5.-.-.+ ; - O Y.P.,X_._.| ' -.I ' _ _ ^.L U s.9 P ' j.e.D '.|.:X%X( ~ }.' H.$Xh 5.K.! -X",
"H.).XX_.T.5.%.6.P h.p C *.3 y r q.m.C.f.[.m ; y.O < %.H.,X+X_.s.~ *XH.] ] K.' /.j.>.r.N B Q L L # D P /./.' &X:X.Xm.r.u < i.m J."
};
