/* XPM */
static const char *exit2[] = {
/* columns rows colors chars-per-pixel */
"64 64 243 2 ",
"   c #090A14",
".  c #241527",
"X  c #341C27",
"o  c #4D2B32",
"O  c #555B2B",
"+  c #5B5635",
"@  c #54512E",
"#  c #655C36",
"$  c #785835",
"%  c #58662B",
"&  c #5D6533",
"*  c #586836",
"=  c #5B7335",
"-  c #50682D",
";  c #656F2F",
":  c #66792E",
">  c #656B34",
",  c #646D3B",
"<  c #6B6C3B",
"1  c #686739",
"2  c #736D3D",
"3  c #77673B",
"4  c #6D743C",
"5  c #657738",
"6  c #747C3B",
"7  c #7A7B3D",
"8  c #74763B",
"9  c #7A4841",
"0  c #705C45",
"q  c #6A6742",
"w  c #746E42",
"e  c #7C6B4D",
"r  c #766747",
"t  c #6C7342",
"y  c #6E7A43",
"u  c #687646",
"i  c #737343",
"p  c #747B44",
"a  c #7B7B44",
"s  c #74744A",
"d  c #7D744B",
"f  c #7D7B4B",
"g  c #777948",
"h  c #7C6A52",
"j  c #7C7553",
"k  c #7C7B52",
"l  c #747C52",
"z  c #6E7D52",
"x  c #BE3922",
"c  c #DC1B11",
"v  c #D7160D",
"b  c #FF0000",
"n  c #FA0906",
"m  c #F40E0A",
"M  c #F60906",
"N  c #E9160D",
"B  c #F4120C",
"V  c #EB1B13",
"C  c #F21812",
"Z  c #D92618",
"A  c #C9381D",
"S  c #E7271B",
"D  c #F02018",
"F  c #DC2D20",
"G  c #DA3927",
"H  c #CA3928",
"J  c #E52B21",
"K  c #E83F33",
"L  c #954E27",
"P  c #B95537",
"I  c #A6512D",
"U  c #88673A",
"Y  c #936A39",
"T  c #86743F",
"R  c #AC6939",
"E  c #D5412D",
"W  c #CC4934",
"Q  c #D84535",
"!  c #CF4C33",
"~  c #BF5D44",
"^  c #856A4A",
"/  c #827C46",
"(  c #84744D",
")  c #847B4B",
"_  c #877A49",
"`  c #94784C",
"'  c #866C52",
"]  c #857354",
"[  c #8B7553",
"{  c #857C53",
"}  c #8B7C54",
"|  c #8C745A",
" . c #8C7C5B",
".. c #867B5B",
"X. c #92755C",
"o. c #937C5C",
"O. c #957957",
"+. c #B46C52",
"@. c #AD7757",
"#. c #A37F50",
"$. c #B67555",
"%. c #B26D4A",
"&. c #947C62",
"*. c #9B7E63",
"=. c #9A7969",
"-. c #817E61",
";. c #C75844",
":. c #D05B49",
">. c #C66D50",
",. c #C27C64",
"<. c #79863D",
"1. c #708C39",
"2. c #6C834A",
"3. c #6D8547",
"4. c #7D8344",
"5. c #74844C",
"6. c #7D844C",
"7. c #788848",
"8. c #7D8252",
"9. c #7C8A54",
"0. c #7A8758",
"q. c #7A9154",
"w. c #759445",
"e. c #81803F",
"r. c #838344",
"t. c #84834B",
"y. c #8A844D",
"u. c #838A4C",
"i. c #8C8B4B",
"p. c #838944",
"a. c #94844D",
"s. c #918B4C",
"d. c #899549",
"f. c #93934D",
"g. c #9A924D",
"h. c #838454",
"j. c #8B8454",
"k. c #848B54",
"l. c #8C8A53",
"z. c #85835A",
"x. c #8D835B",
"c. c #858B5B",
"v. c #8D8B5C",
"b. c #928454",
"n. c #938A54",
"m. c #9A8C55",
"M. c #93835B",
"N. c #9B845C",
"B. c #948A5C",
"V. c #9B8C5C",
"C. c #998655",
"Z. c #8E9355",
"A. c #869257",
"S. c #959354",
"D. c #94935B",
"F. c #9C935C",
"G. c #999858",
"H. c #A38C5D",
"J. c #A28A58",
"K. c #A3945D",
"L. c #A4995A",
"P. c #9AA559",
"I. c #94A14D",
"U. c #8C8862",
"Y. c #948363",
"T. c #9B8363",
"R. c #938B62",
"E. c #9C8B63",
"W. c #9C856A",
"Q. c #958B69",
"!. c #9D8C69",
"~. c #968269",
"^. c #8B9264",
"/. c #959364",
"(. c #9C9363",
"). c #9C9369",
"_. c #9B9A69",
"`. c #9E9571",
"'. c #9F8D73",
"]. c #A18565",
"[. c #A38C64",
"{. c #A98E65",
"}. c #A1846B",
"|. c #A48C6B",
" X c #A98C6D",
".X c #A49364",
"XX c #A99365",
"oX c #A39A64",
"OX c #AB9C66",
"+X c #A4936B",
"@X c #AB946C",
"#X c #A49B6B",
"$X c #AB9A6C",
"%X c #B2966D",
"&X c #B39B6C",
"*X c #B49569",
"=X c #A48C72",
"-X c #AA8E73",
";X c #A48C79",
":X c #A59372",
">X c #AC9373",
",X c #A59A72",
"<X c #AC9B73",
"1X c #AC947A",
"2X c #AD9B7A",
"3X c #A29C7B",
"4X c #B29574",
"5X c #B39B74",
"6X c #BA9C74",
"7X c #B3957A",
"8X c #B49B7B",
"9X c #BB9C7C",
"0X c #BA9373",
"qX c #B6896A",
"wX c #9DA164",
"eX c #A9A267",
"rX c #B2A26D",
"tX c #ADA273",
"yX c #B3A472",
"uX c #BBA374",
"iX c #B5A27B",
"pX c #BCA37C",
"aX c #BCA97A",
"sX c #B5B176",
"dX c #AAA35D",
"fX c #C68B6D",
"gX c #C2A47C",
"hX c #C3AC7C",
"jX c #C5B27F",
"kX c #BA9D82",
"lX c #B49A84",
"zX c #AD9F81",
"xX c #B5A483",
"cX c #BBA383",
"vX c #BEA689",
"bX c #AAA783",
"nX c #C3A583",
"mX c #C4AA8A",
"MX c #C7AA86",
"NX c #C9AC91",
"BX c #D1B28E",
"VX c #E5BF8D",
"CX c #EBC794",
/* pixels */
"R.!.1XO.N.y.f } M.V.F.$X8X5X_.k < t < 4 k.8 : 4 d 2Xl.u.G.: : <.<.% 6 S.L.f.y.] p G.z.3X~.=X*.>X5X .O. X1Xo.i a 6XVXCX<XQ.cX<X<X",
"+XE.Y.$X$XXX5XV.M.M. X{.T.gX!.2.k u k.F.i.l.7 / B.] /.D.w.<.: <.1.1.7.+Xm.G.y.6.& j.6.].| ].>X) T.N.&.].8X$Xv.R.O..XBX&X%X/.<X<X",
"@XcXK._ hX6X7X X}  X8X5XN.) iX`.0.2.9.V.&Xt.> < @.>.%.` 7.k.4 <.<.g P.r.8 d f % a - O q T.~.&.B.q [.].[.8XB.@X&X8XeXpXMXM.Y.`.).",
"iXY.N.XX5XpX9X{.MXfXQ J F P  .Q.h.c.xXpXpXV.Y c b b b b A 4., 5 4 % wX1.r.y.2 u.d & 5 9.M.8X>XE./ M.&.&.8X5X>X$X5X2XpX@X5XiX:XpX",
"OXB._ B.[.5X4X{.,.C b b b b Q T.2Xk iX8Xi.0XB b b b b b b Z 5 S.%.F N N A Y > > 1 h.p ( :X:X[.>X[.#XT. X].<X{.> 5XiX<X5XiX#XS.L.",
"OX#X+Xl.h.|.B.pXJ b b b b b b ,.>X#X<XoXE.G b b b b b b b b P E b b b b b b I y.j.4 a l.z.~.M.[.@X8X]..X[.T.(.u.m.@X{..XL..Xf.L.",
"L.t.` ! Z V G ;.n b b b b b b S iXyX#Xt.Z.B b b b b b b b b n b b b b b b b n L V.N.a 5 M.d (.].] } y.+X:X$X6Xf.y.OX.XrXhX8XF.rX",
"uX*XG b b b b b b b b b b b b C F.(.(.y.#.b b b b b b b b b b b b b b b b b b E .Xm.b.6.[.@X} o.oX_.).x.D.i.#Xr.4.L.I.F.uX*X$X$X",
"#X>.b b b b b b b b b b b b b m L.D.S.4.U b b b b b b b b b b b b b b b b b b S %Xs.j.a e oX0 =.[.tXV.B.r.$X:X#Xf.P.l.MXS.a.5XkX",
"E.A b b b b b b b b b b b b b V F.F.u.F.T b b b b b b b b b b b b b b b b b b S rX6Xa L.F.9X-XX.| iX6XOX{ 8X7X8XrXG.uXBXf.S.[.s ",
"m.E b b b b b b b b b b b b b E .Xb.l.j.a N b b b b b b b b b b b b b b b b b K B.5XH.9XMX].( T.( >XcXV.o.>X.XiXOXeXZ.H.J.eX_ 6 ",
"B.R b b b b b b b b b b b b n $.b.m.oXj.j.x b b b b b b b b b b b b b b b b b ;.=XF.( 5X[.].r.+ } [.V.+X6X$X<X6XpX5XNXpXb.G.F.i.",
"d 3 c b b b b b b b b b b b S %X{.+X) i > U M b b b b b b b b b b b b b b b m =.;X|.R. Xx.M.d.4 tXeXpXyX%XnX8X4XmXaXvXBX$XaX[.a.",
"m.XXR m b b b b b b b b b b >.5X6XXXM., w 1 I b b b b b b b b b b b b b b b ;.;X+Xj.d o.7 E.P.n.l.E.nXpXOX].7XnX4X[.aX>XyXpX[.g.",
"H.&X*X$.S b b b b b b b b S [.%X@X@.@.@.@.@.@.F b b b b b b b b b b b b b Q kX].2X<Xk.2 T.+X&XpXgXoXV.,X%X9XW.9X>Xb.iX4XlX4XR.G.",
"H.H.@X&X4XfXQ C b b b b b :.XX>X@.@.@.9 9 9 @.@.v b b b b b b b b b b n ;. X>XlX~.i = 1 j.&.9XnX9Xj.o.cX[.}.}.9X.XpXBX7Xp Y.j.F.",
"K.V.T.{.5X6X9X0X+.W V n C 0X@.9 @.9 9 @.9 @.X o %.m b b b b b b b b S fX=X-X>XW.6Xu.q.R.l.6 5XXX[.$XmXMX}.}.*.|.].[.$X>XY.h.k.R.",
"D.XXj.E.[.nXkX4XXX6X0X$.>.@.@.@.9 9 9 9 9 @.X o @.~ b b b b b b m W @.@.@.@.@.!.E.S.<XT.y.i.V.7 8 [.MX9X6XY.q | <X6X6X@Xx.z 8.c.",
"h.Q._.D.V.<X5X@X@X8X4X@.@.9 9 9 9 9 9 9 9 X o @.@.@.W b b b b J +.@.@.@.@.@.@.@.@.@.@.@.o o o o o ) J.T.} ) q.e >XgX6XMXiX^.^.s ",
"c.^.k.5.h.@X!.[.5Xo X X o o 9 9 . . . 9 9 o @.@.@.9 @.G b B ;.@.@.@.@.@.@.9 9 9 9 @.o o o o o o o o o h.5 @ 8.V.nXgXcX).cXv.k.^.",
" X!.^.u h.Y.x.+X      X o o o 9 9 9 9 9 9 9 9 9 @.@.9 @.W +.@.@.9 9 9 9 @.@.9 o o o o o o o o o o o o o 4.1 B.pXpX4XN.-XpXyX@Xx.",
"M.[ E.* z ^.'.,XX   X X X o o 9 o o 9 9 9 9 9 9 @.@.9 9 @.9 9 @.@.9 9 9 o o o o o o o o o o o o o o o o o o 3XV.). XX.[.9XnX4X|.",
"<X,X5X_.^.^.-.xXX . X X X X o o o 9 9 9 9 9 9 @.@.9 9 9 @.@.9 9 @.9 9 9 9 o o o o o 9 o o o o 9 9 9 o o o o o Y.|.&.].4X7XkX1X1X",
"=X=X<XpX@XcXbX|.X . X X X X o o o 9 9 9 9 9 9 9 9 9 9 @.@.@.9 9 9 9 9 9 9 9 o o o o 9 9 9 o 9 9 9 o o o o o o o M.].qXkX>X|.7X7X",
"8X:X{ Y.|.@X2X1XX . X X X X o o 9 9 o 9 9 9 9 9 9 9 9 9 @.9 9 9 9 9 9 9 o o o o o o o 9 9 9 9 o o 9 9 9 9 o o o o } gXNXvXlX|.5X",
"o.iX@X .[ T.8X2XX . . . X X X o o o o 9 9 9 9 9 9 9 9 9 @.9 9 9 9 9 9 9 9 9 9 9 o o o 9 9 9 9 9 9 9 9 o o o o o o t.Y.lXW.kX1X].",
"} {.].M.W.o.8X2X[.X X X X X X X X o o o 9 o o 9 9 9 9 9 9 9 9 9 9 9 9 9 9 9 o o o o 9 9 9 o o 9 9 9 9 o o o o o o o l 3X:XX. .E.",
"k.+X .{.O.X.>X8XV.V.X X X X X X X X X X o o 9 9 9 9 9 9 9 9 9 9 9 9 9 9 9 o o o o 9 9 9 9 9 o o 9 9 o o o o 9 o o o 7.@X' ' [.>X",
"{ d # N.T.N.!.8XpX@XiX@X5XcXcX5X%X5XX X X X o o o 9 9 9 9 9 9 9 9 9 9 9 o o o o 9 9 9 9 9 9 9 9 9 9 9 9 9 9 o o o o o 1  .T.W.>X",
".X!.f M.{ Y.~.8X<X@XM.{ cXcX8X$.Q G >.6XMXX X o 9 9 o 9 9 9 9 9 9 9 9 9 9 o o o o o 9 9 9 9 9 9 9 9 9 9 9 9 9 o o o o - U.} lX8X",
"@X5XE.j.N.T.-X X XiXj.= [.iX;.n b b b D MX6Xo o o o 9 9 o 9 9 9 9 9 9 9 9 9 9 o o o o o 9 9 9 o 9 9 9 o 9 9 9 9 o o o o [.>X8X X",
"x.*.^ T.0 T.@XT.+.G S Z %.$.n b b b b b Q XXrXo o o 9 o o 9 9 9 9 9 9 9 9 o 9 o o o o 9 9 9 9 9 o 9 9 o o o o o o o o X X =X=X+X",
"M.[  Xj.<.O.O.P b b b b b C b b b b b b n [.uX$Xo o o o 9 9 9 9 9 9 9 9 9 o o o o o o 9 9 9 9 9 9 9 9 9 o o o o o o X X X # =X].",
"E.(.8XT.T.T.` m b b b b b b b b b b b b n %.gXuX_./ o o 9 9 o 9 9 9 9 9 9 9 o o o o 9 9 9 9 9 9 9 9 9 9 9 o 9 o o o o o X F.|. X",
"T.*.W. X' o.+.b b b b b b b b b b b b b b $ O.<Xj.D.} o o o o 9 9 9 9 o 9 9 9 o o o o 9 9 o 9 9 9 9 o 9 9 9 o o o o o X X -XT.| ",
"o.o.e ^ [ M.+.b b b b b b b b b b b b b N i f w [.[.M..Xo o 9 9 9 9 9 o o o 9 o o o o 9 9 o o 9 9 9 9 o 9 9 o o X X o o X [ ( t ",
"o.[ #XB.M.d O.m b b b b b b b b b b b b G q.y D.V.C.m.XXo o o 9 o o 9 9 o o o o o o o 9 9 9 o o 9 9 9 o o o o o o X X X X ] O.C.",
"r |.} { 6.5.p H b b b b b b b b b b b n $.$X).M.M..XsX<Xo o o 9 o o o o o o X o o o 9 9 9 9 9 9 9 9 9 o o o o o o o X X X M.r Y.",
"M.r d ).<Xg 8.` S b b b b b b b b b b W XX8X5X!.T.{.jXpXo o o o o o o X X X X o o o 9 9 9 9 9 9 9 9 9 9 o o o o o o X X X /.B.t.",
"8.c.8. X{.[ M.1 U Z b b b b b b b b v + N.@XT.Y.M.[.yXa.XX. . o o o X X X X o o o X 9 o o 9 o o 9 o 9 9 9 o o o X o o X X j r M.",
"#X#X+X8X>X8.1 p # 3 L N b b b b b M Y 6.f o.M.@X(.iXn.p.H.E.. o o X X . 1XX X o o o o o o 9 9 o o o o 9 9 9 o o X X X X X ) w N.",
"!.@XvX~.|.9.7.y B.k.t.p I N b b b G { w v.T.@X[.5X XuXoXa.s.. . X X . . lX2XX X X X o o o o o o o o o o o o o X X X X X ] M.D.F.",
"j.:X1X4X1XsXeX7.OX( f i t.^ ;.V v $ ) p /..X[.pX>XT.F.C.P.r.u.. X X . . ~.W.{ X X X X o o o X o o X o o X o o X X X X 4X|.[ < 2 ",
".X X1X~.X.<X+X< j.h.B.h.d [ + # $ b.p.1.K.&X5X X ..X@XV.+XV.` . X . . z.o.+Xg u - X X X X X X o o X X X X X o X X X ' ^ E.V.w l.",
"5X8X=X .M.] q k !.{ u h.8.+ , 4 = 4.r.A.V.O.>X5X(.E.9XuXaXK.g.. . . . x.h Q.D., u /.i h.).X X X X X X X X X X X X X ]. X].( v.5X",
"W.Y...>XY.Q.z.Y.T.Y.5.h.(.Z.9.6.5 t oXE.[ H.O.T. ..X-XpX4XV.f.. . . . v.l s t = 5 5.Y.e e #XX X X X X X . X X X X h.h *.!.~.-X>X",
"~.] j :X X*.[.~.O..X^.x.] M.aXV.j.2., ( _ *XN.E.M.5X4Xx.} j.. . . . 6X..x.y 2 z.v.c.Q.0.M.r ~. .. X . . X X X r [ k g &.&.W.*.].",
"~.1 l W.5X X&.X.%XH.z.z.t { o.@XB.h., h.@X{.5X@X[.pXM.a a . . . . [.[.q e , .X .W.:X(.i /.t e . . . . . _.d c.q { ).k.Y... .|.mX",
"j 5...X.].O.~.|  Xx.<Xv.A.M. .@X@Xz.z.!. X4XpX>X$XXX@XV.s.. . . f { M.4 h.l  .:XcXmX@X+XB.p 0.. . . . xXB.p # i !.~.=X:X8.#X8XW.",
"U.A. . .<X&.*.~. XT.8XE.aX<X,X X+XQ.o.<XW.[.>X<XT.uX5X5X&X%Xi.a !.@Xx.Z.j.R.@X8XvX4X9X+Xc.u.y , u.+XNXlXB.y 5.5.Q. .h &.l [.4XW.",
"+ s q q h | o.Y.6X[.=X8X5X+X+XT.2X1X&.=X>X%X&.o.T.>X<X+X%XuXOXt.y.5X|.5XcXT.] e E.T. XR.k.p , - j.[.mXmX>X#Xf k.d k s z.U.&.&.+ ",
"k.z.y f # q T.' | @X XY.N.!.>X1XW.&.1X}.*.].[ ] W.+Xo.8XcXY.V.4XnXN.|.>X1X-Xl.Q.j +XD.<XY.x.2.= j.K.cX>Xo.U.x.r.p.4.y t z.t r + ",
"t.c.E.{ ( s + e j ] 0 ..6.j.].lXh ' W.[ } ].o.T.]..X=X-X&.=Xn. XV.$X+ } [.!.XX+Xx..XrX#Xj.D.u 6.F.b.4X1Xu f E.Q.Y.i , q M.k s g ",
"p.u.) 4 6 8 f & r R.] E.^./.E.T.:XE. .h.d W.>X!.>X=X'.}.;X=XB.T. .G.6 oXyX5X&XpX>XnXiXNX(.j.j.j.m.f.Y.@Xd.oXa j.O 6 i { B.) f p ",
"a _ 8 a n.n.b.Z.r.(.i.B.b.t.4.4.E.f { n.2 ..Y.1XW.1X7X8X}.,X/.i V.OX$X#XB.5XOX].9XkX>XnX5XjX.XJ.b._ [.n.OX[.B.2 7 7 y.$Xm.n.l.j.",
"4 - > ( ( S.J.C.B.@Xl.T.T.< & A.D.q.i dX8 xX~.E.o. X-X=XlX} 5 i { 4XnX6X( ,XN. X4X5Xn.5XkX4XB.i.{.C.H.K.F.r.d j._ r.+X6X&Xx.< > ",
", & a b.p 3.a ( N.e { o.z.< a OXS.v.n.N.B.cX Xo.o.@X|.@X[.D._.{ 4.[.XX+XpXMX*.*.9X@X<X9Xf o.(..XH.5X.XMX@X5Xy.M.$Xn.+X%X5X(.i 1 ",
"u 5.3 ) 6.A.D./ j.) j.b.3.f 4.2 M.5X[.N./ O.x.( ) +XpXB.p.#XB. .j.M.: 8 gX9X@X..h +X6X<XM.8.v.(..X|.%X6XpX>XcXM.T. X5X>X5X#Xz.{ ",
", 1 1 s k.k.6 s.4.<.G.S.k.b.r.a D.{.d 2 a.mXe p F.u.a / x.V.} s 4.5 = % b.x.d k.j 8X0XgX,X0.k 8.XXj.[.pXkX X@X>X XcX@XN.8XQ.z 8.",
"u t.y.p (.r.F.s.S.<.G.OXoXs.a t.<.i.2 7.p.j.& = (.u.1.i.) d.a oXQ./.c.l.t.3.< g $XNXnX#XpXh./.k.^.A.j.5X>X{.8X4X9X X X} E.tX0.s ",
"3.k F.F.n.B.$Xe.y.> p.8XB.l.B.r.7 r.8 _ C.4 u.4 @ t t.4.a.V.$Xn.V.( u.r.6.h.u.x.[.[.].-XpX5X+X[.Q.2.c.~.v.uX>X|.>X1Xo.d B.z.,X0.",
"bX$XpX.Xu.u.$X+X4 : } V..XV.j.w 4 % > ) j.6.= < 5.O y u.t.N.( | x.> 6.D.9.F.< Q.M.W.*.-X9X7X=X!.[.u u U.,X<X[.M.<X1X0.8.5XT.).h.",
"iXvX@X9X<.S./ / ; 7 r.%X[.E.g g < & a _ f w 4.4 i i 6.4.8 d 8 _ 3.( d S.n.a.B.<XW.o.qX9X7X8X-X<X+XcX).^.=X:XE.8X|.:X2X@X$X+X2Xz.",
"iXpXx.8X.XOXb.{ 2 r.b.pX*XXXh.h.& 5 q # a # 4.O w [.F.7.& & a Z.= ) p S.rXs.V.[.[ d >XNXvX-X5X8Xx.!. XxXzX X] T.+XgXmX8X X2X2X`."
};
