/* XPM */
static const char *exit3[] = {
/* columns rows colors chars-per-pixel */
"64 64 240 2 ",
"   c #1A1914",
".  c #0D0C0A",
"X  c #251912",
"o  c #2A261A",
"O  c #322C1C",
"+  c #36311C",
"@  c #2A2824",
"#  c #322C25",
"$  c #353324",
"%  c #3A3728",
"&  c #393936",
"*  c #2E3131",
"=  c #1E211C",
"-  c #4B0D0F",
";  c #6B090F",
":  c #45361C",
">  c #453C28",
",  c #443E34",
"<  c #502E2B",
"1  c #682A2E",
"2  c #3F4129",
"3  c #47462B",
"4  c #4A5627",
"5  c #55582C",
"6  c #4A4437",
"7  c #544B3B",
"8  c #544835",
"9  c #495233",
"0  c #5D543B",
"q  c #595A36",
"w  c #5A4828",
"e  c #6B542B",
"r  c #72592F",
"t  c #655A3A",
"y  c #70573B",
"u  c #4E6529",
"i  c #59682C",
"p  c #596835",
"a  c #5B7231",
"s  c #66792D",
"d  c #6B643B",
"f  c #6B6D3C",
"g  c #656738",
"h  c #76673A",
"j  c #6C733C",
"k  c #677837",
"l  c #73743D",
"z  c #75793B",
"x  c #646D2E",
"c  c #3F4242",
"v  c #484946",
"b  c #584E43",
"n  c #5C5342",
"m  c #58554B",
"M  c #4E5251",
"N  c #565857",
"B  c #675A47",
"V  c #6A584B",
"C  c #5C6948",
"Z  c #6B6745",
"A  c #726D43",
"S  c #73644B",
"D  c #7C6C4C",
"F  c #786747",
"G  c #6C7243",
"H  c #6C7B43",
"J  c #697746",
"K  c #737443",
"L  c #7B7444",
"P  c #737C44",
"I  c #7C7B44",
"U  c #7D734C",
"Y  c #747B4B",
"T  c #7C7C4C",
"R  c #72734A",
"E  c #66645B",
"W  c #7B6C51",
"Q  c #776856",
"!  c #7C7C52",
"~  c #7A7456",
"^  c #5E6262",
"/  c #676766",
"(  c #76746B",
")  c #6D7271",
"_  c #727575",
"`  c #797A7A",
"'  c #7B696A",
"]  c #94040F",
"[  c #8C050F",
"{  c #BC0513",
"}  c #AB0511",
"|  c #836635",
" . c #826A49",
".. c #83744C",
"X. c #837B4C",
"o. c #877A49",
"O. c #836D52",
"+. c #866D55",
"@. c #837353",
"#. c #8B7454",
"$. c #847C53",
"%. c #8B7C55",
"&. c #8B755C",
"*. c #8D7C5C",
"=. c #84765B",
"-. c #927C5C",
";. c #957A58",
":. c #8D7A63",
">. c #8A7663",
",. c #947D62",
"<. c #9A7E61",
"1. c #967C68",
"2. c #867571",
"3. c #A37F65",
"4. c #78853B",
"5. c #6E8B36",
"6. c #6D8546",
"7. c #7C824B",
"8. c #788647",
"9. c #7E8252",
"0. c #7A8854",
"q. c #7F924F",
"w. c #83933A",
"e. c #84834C",
"r. c #8B834C",
"t. c #87884A",
"y. c #92874D",
"u. c #879349",
"i. c #858353",
"p. c #8C8454",
"a. c #848B53",
"s. c #8B8B54",
"d. c #8C845A",
"f. c #8D8C5B",
"g. c #85865A",
"h. c #938455",
"j. c #938C54",
"k. c #94845B",
"l. c #9A845D",
"z. c #948B5C",
"x. c #9A8B5D",
"c. c #9B8855",
"v. c #8A9357",
"b. c #9B925B",
"n. c #969558",
"m. c #94934E",
"M. c #A3885C",
"N. c #A2945B",
"B. c #8C8761",
"V. c #948362",
"C. c #9B8364",
"Z. c #958B62",
"A. c #9C8B63",
"S. c #9C856B",
"D. c #9D8B6B",
"F. c #96836B",
"G. c #959263",
"H. c #9C9363",
"J. c #9C936B",
"K. c #9A9967",
"L. c #928D71",
"P. c #A18565",
"I. c #A28B65",
"U. c #A2856B",
"Y. c #A48C6B",
"T. c #AA8D6B",
"R. c #A98C65",
"E. c #A39364",
"W. c #AA9365",
"Q. c #A5936B",
"!. c #AB946C",
"~. c #A39B6C",
"^. c #AC9B6C",
"/. c #A69A64",
"(. c #B19A6D",
"). c #B4966D",
"_. c #A48C73",
"`. c #A88D75",
"'. c #A59373",
"]. c #AC9473",
"[. c #AD9A72",
"{. c #AC947A",
"}. c #AA9B79",
"|. c #B29574",
" X c #B39B74",
".X c #B2957B",
"XX c #B49B7B",
"oX c #B99D79",
"OX c #9BA270",
"+X c #ABA26C",
"@X c #B1A16D",
"#X c #AEA375",
"$X c #BAA27C",
"%X c #B6A277",
"&X c #A5B26C",
"*X c #99A65D",
"=X c #C4A67C",
"-X c #C28D67",
";X c #7D8383",
":X c #888A89",
">X c #8C9292",
",X c #9B9C9C",
"<X c #949897",
"1X c #95908C",
"2X c #B89D83",
"3X c #AD9E84",
"4X c #BCA584",
"5X c #BCA585",
"6X c #9CA4A4",
"7X c #ACACAC",
"8X c #A4A9A8",
"9X c #ACB4B4",
"0X c #B4B4B4",
"qX c #B3BCBC",
"wX c #BCBBBB",
"eX c #C5A987",
"rX c #D6B89A",
"tX c #CBB08E",
"yX c #E8C7A8",
"uX c #F9D6B4",
"iX c #F6D3B2",
"pX c #EEC790",
"aX c #BCC5C5",
"sX c #B9C2C2",
"dX c #C4CDCD",
"fX c #C7C8C8",
"gX c #C6D0D0",
"hX c #C9D3D3",
"jX c #CFD8D8",
"kX c #D3D3D3",
"lX c #DCDDDD",
"zX c #D4DBDB",
"xX c #DBE2E2",
"cX c #E2E5E5",
"vX c #EBECEC",
"bX c #E5EAEA",
"nX c #EEF1F1",
"mX c #F3F4F4",
"MX c #FFFFFF",
"NX c #F7F9F9",
/* pixels */
"Z V.U.{.`.n.a.s.I g l l 8.s a i j !.o.I U l 8.f %.s.I X.W W C.!.A.D._.l.#.I.*.I.M.-.d.e.j n.$...i.q j Y ;.Y.W.!.k.^.P z f 5 i g ",
"Y k.'..XY.d.T j p i s s 8.k w.4.&XI z X.e.f I i f f T ..A.E.!.,.V.;.S  .....%.A.l...K q 3 x...Y p.i.G e.Q.Y.!.Y.p.U K k l g 4 u ",
"d.{..X`.k.H./.s.u.n.z a s 4.u.L v.*X5.4.l l s g K p f.V.Y..XP.g -.#.J.~.i.P 8...l.Q.P K J p.e...F M.L e.p.(.[.A.r.r.d e.g %.P t.",
"X.:.D.Y.V.].A.t.e.u.k t.f 5.4.u k x.4.p.j.o.4.g j g 5 d.'.~ +.p.;.C.P.U H.z.U x.h y d J P I (.W.t y b.5.E.k.I.!...o.x v.i K i.j ",
"*.K =.S.S.F.D.K.H.s.u.a.k l k s.%.U K U o.5.5 x 3 E m Z Z V.A.F #.@.F i.Q.I.X.d 7.X.a.7.l t.h d 5 l r.r.p.%.l.l.k.h.k r.T g g @.",
"|.].].C.!.z.@.~.g.h.e.7.6.p s.b.k...a.8.4 E 1X( wXMXmXm H.}.~.G.p.z.f.f.!.{.G.8.J K.%.X.s.L %.G H k G @Xk.o.).oXY.x.z x K f e.$.",
"`.,.C.A <.I.#Xz.T.Y.p K a.6.j.k.K X...!.Z mXMXMXMXMXNXN =.|.*.~ @.k.K.'.2XV.J.+XK.f i.g.R K.p H a.7.H p f E.W.$X}.E.j.r.k k A d.",
"d.~ O.i.;.!.Q.Y.{.D.q.z.a.b.E.#X0.f.[.'.B vXMXMXMXMXmXkXL.D B $.f E.Z.Q.XXT.C.XX*.! D.$.J d.Q.^.%XI.i.9.9.Y.I. X}.-.I.r.a f J.K ",
"V.[.;.D ..I.s.S <.Z p i.p.$.x.].XX.X.X'.Z N cXMXMXMXMXkXB I % - Z t X F 3X_.+.,.R d.-.&.9.g.t @.&.[.Q.$.*.'.T.I.-.&.].h.g s.B.K.",
"XXK.G.x.d.D X.P 4 p f.j.c.f.s.I.].].`.!.m wXvXlXvX8X0XL.U y.w ] ; ; - Q.XXD.J.A.-.A.,.-XV 7 q G #.Q.Y.J.'.U.Y.T.l.#.C.k.I.k.J.5X",
"R.V.=.#.j.f.T 8.k k p./.N.K.[.,.S.,.U.,.E MXNX0X<XkXbX>X@.@XA [ { { - V.S.*.'. XP.<.0 o rX5XtX6 S [.S._.S.{.+.Y.A.Y.k.A.I.A.A.'.",
"&.D.A D I.H.G.A.f.u /.=X#X.XoXR Z.#XU ..V 8X` v xXMXfX6 T.0 - ] { { ] < %.V.D *.^.Q.7 Q 2X_.iXyXV S.F.+.O.S.;.F C.].K.7.s. XeXZ.",
"*.d.b.n.E.!.{.A.j g._.XX5XtX{.J.Z.-.d.T `.Q Z Z & v % B .XB y < ] ; 1 O B A.J.+XF.z.b rXV eXuXuX{.A $.V V.F.,.D.i.E.A.F F _.1.R.",
"2XC.D L l x.XX'.b.}.eXtXD.1.>.n % q G.Z.P.:.#XD.S 0 $ +.$X2Xz.Q.X Z I..X1.U.+Xx.$.y.3 yXuXuXuXuX_.k.$.G W ^.H.b.G.x.I M.|.|.C.P.",
"+.x.p.l b.Q.{.'.V.,._.U.>.:.n ~ 3 2 i.s.Y...V.XXZ.0 8 :.1.U.D.o.O.2XR.#.C.#.%X XW.e.A.8 2XuXuXrXB =XA.e.O h p n.j.A.Q.^.F O.;.#.",
"P.P.X.z.|.$X`.D.C.S.>.~ S S >   9 % K...,.!.$.+.W 6 , n =._._.J.|.h.l.z S %..X Xb.{.|.1.:.uXyXB T r.W.!.O U G X.b.z.-.A. .U #.-.",
"C.A.V.`.'.,.:.,.S Q B B F.3 p O 3 % A.OXU d.H.D # _ fXgX<XZ i.7 b n J.5.L k.@Xk.E.P.z.0 rXuXS.C.m.j.!..X> 0 l 6 b.x.x.o.z.p.i.O.",
"p.x.A.C.Y.-.W n >.{.>.S tX9 J q % 8 O.@.1.C.,.E bXMXMXMXMXzX& zXNXwXU m.A.a.S Q ( ( E   Q rXn h.N.N.c.k.+ t k.o j.w.z %X(.o.$.Y ",
"t./.y.~.$X#.G n >.n V b :.% a Y % R g.d.Z T 0 fXMXMXNXvXvXNX8XMXMXcX( >.U 2.fXbXNXMXmXfX/ # b ^.%.*Xz f X F S X p.k t.j.n.I z.v.",
"x b.E.~.p.$.9., rXiX% @ B 7 ~ J.B f.g.z.G G ( mXMXxXhXhXhXhXbXNXNXMXMXwX0XMXMXMXMXMXMXMXMXfX@ Y.^.A 8 + r.j.> 3 y.5.n.x.D.3Xo.d ",
"m.E./.E.s.t.P B yX>.V {.uX{.8 >._.].].! :XfX,XNXcXjXbXNXMXNXvXcXbXbXMXMXMXMXMXMXMXMXMXMXMXMXzXb [.W.m.h.h > 8 A./.n.b.L z.i i i ",
"L k.E.z.s.z.I q tXuXrX=.uX`.7 5X4X_.,.q >XMXNXmXhXnXMXMXMXMXMXMXMXMXMXMXMXMXMXMXMXMXMXMXMXMXMX,XS z.t...D L N.%.c.^.l.r.g z 4.b.",
"E.^.h././.X.7.x S iX2XQ 1.% O.>.6 m 1X<X/ lXjXhXxXMXMXMXMXMXMXMXMXMXMXMXMXMXMXMXMXMXMXMXMXMXMXNXE A.N.W.(.W.!.+XN.I l X.L L z e.",
"%XT.).%.$.X.L L t 7 B rXrX5X# N kXNXMXMXvXxXxXmXNXMXMXMXMXMXMXMXMXMXMXMXMXMXMXMXMXMXMXMXMXMXMXMX` Z.b.N.Y.$X!.eX(.Q.s.X.h.H.r.z.",
"|.R.(.z.j K j 5 5 4 6 `.uX:.v vXMXMXMXnXbXzXmXMXMXMXMXMXMXMXMXMXMXMXMXMXMXMXMXMXMXMXMXMXMXMXMXMX` g.n.E.V.T.%XP.V.|.W W -.x.j.x.",
" X!.!.z.K d p G a f r.> eX* lXMXMXMXMXMXMXMXMXMXMXMXMXMXMXMXMXMXMXMXMXMXMXMXMXMXMXMXMXMXMXMXMXNXE R i.Q.d.l.V.M _ m 7X<X7 -.].!.",
"V.eX[.K.d.! p i i.o.y.l . 7XMXMXMXMXMXMXMXMXMXMXMXMXMXMXMXMXMXMXMXMXMXMXMXMXMXMXMXMXMXMXMXMXMX,X/ ) 9 G.v.z.0 vXMXMXMXMX<X:. XI.",
"l.!.XXY Y G P J t g d V.  mXMXMXMXMXMXMXMXMXMXMXMXMXMXMXMXMXMXMXMXMXMXMXMXMXMXMXMXMXMXMXMXMXMXlXMXMX7XZ 6.C % 1X:XMXMXMX7X7 |. X",
"X.k.~ E m 0 v 3 f 5 4 @.v MXMXNX<Xm :XNXmXMXMXMXMXMXMXMXMXMXMXMXMXMXMXMXMXMXMXMXMXMXMXMXMXMXmXmXMXMXwX7 9 q & kX) NXMXMX` 0Xn k.",
"..S 8XMXNX7XMX:Xf 8.v.K./ MXMX1Xw h w m 0 E fXMXMXMXMXMXMXMXMXMXMXMXMXMXMXMXMXMXMXMXMXMXMXMXMXxXNXMX/ @.C 9 6 MX/ cXMXMXvXNX, ..",
"G.~ lXMXMXMXMX,XA r.#Xd._ MXmX7 r w | : | r 8 ,XMXMXMXMXMXMXMXMXMXMXMXMXMXMXMXMXMXMXMXMXMXMXMXxXnXvX,X:X7 ~ $ N 8X1XMXMXMX` n g ",
"!.S 0XMXMXMXvX& > 8 h.Y./ MXMXE r w e e e | | > bXMXMXMXMXMXMXMXMXMXMXMXMXMXMXMXMXMXMXMXMXMXmXjXjXzXMXMXbX& ~ b kXMXfXvXvX@ Q.f.",
"].S ,XMXMXMXMXm 0 Z t N v NXMXmXb e o h | | e 6 NXMXMXMXMXMXMXMXMXMXMXMX:X0XMXMXMXMXMXMXMXMXmXMXMXMXvXMXMXvXN S.@ / o % $ T.eXT.",
"Y.B kXMXMXMXgX6 ..,.m cXnXNXMXMXbX( 3 : r | | B MXMXMXMXMXMXMXMXMXMXMXMX0X- 2.wX2.< 8XMXMXMXMXMXMXMXmXMXMXMXfX7 k.q o.I.=X=XrXXX",
"H.S 8XNXlXMX,X> t B m lXMXMXMXMXMXNX,Xo o + e V MXMXMXMXMXMXMXMXMXMXMXMXvX; [ ; ] 1 lXMXMXMXMXMXMXMXMXMXMXMXMX& @Xi.p.x.=XpXpX/.",
"!.J.7 v v 7Xm F.{.-.m lXMXMXMXMXMXMXMX& > w 6 kXMXMXMXMXMXMXMXMXMXMXMXMXMX< { { } ' NXMXMXMXMXMXMXMXMXMXMXMXMX:XD M.!.Y.e.%XrXN.",
"*.=.}.Q.Q.R $.Z.Y.%.v fXMXMXMXMXMXMXMXmXfX1X,XMXMXMXMXMXMXMXMXMXMXMXMXmX' [ { { { ; 1XMXMXMXMXMXMXMXMXMXMXMXMX8XB  XoX$X~.eX=X=X",
"A.}.}.d.~.4X$X..b.q 7XMXMXMXMXMXMXMXMXMXMXMXMXMXMXMXMXMXMXMXMXMXMXMXMX` - ; ] { } [ - 0XMXMXMXMXMXMXMXMXMXMXMX7X6 A.I.].XX4X!.Y.",
"eX XS.4X(.5XD.(.I 2 lXMXMXMXMXMXMXMXMXMXMXMXMXMXMXMXMXMXMXMXMXMXMXMXMXMXMXNXV } < fXfXlXMXMXxXMXMXMXMXMXMXMXMX0X7 p f.$XXX[. X X",
"4X%X(.!.@XI.L X.b.$ fXNXMXMXMXMXMXMXMXMXMXMXMXMXMXMXMXMXMXMXMXMXMXMXMXMXMXMX7X- 0XMXMXMXMXNX) mXMXMXMXMXMXMXnX>X0 9.X.%XY.].4X X",
"^.4XeX!./.z.r.m.^.3 _ hXcXvXmXNXvXNXMXMXMXMXMXMXMXMXMXMXMXMXMXMXMXMXMXMXMXMXbX_ NXMXNXNXmXlXN dXcXmXNXNXvXxXhX_ D f.z.!.I.I.I.I.",
"@X4X!.^.'.E. Xc.|.h.O ) dXhXhXsXhXmXMXMXMXMXMXMXMXMXMXMXMXMXMXMXMXMXMXMXMXMXMXMXMXMXxXjXhXqXc dXhXhXhXhXhXhXhX* %.k.x.R.I.I. XG.",
"H. XA.%XW.j...c.E.N.P.Q & dXhXN aXxXMXMXMXMXMXMXMXMXMXMXMXMXMXMXMXMXMXMXMXMXMXMXMXbXjXdX:Xv >XhXhXhXhXhXhXhX<X8 ..U 5 M.-.#.A.f.",
"X.%.%.!.$Xr.x.k.N.I.b.x.$ hXhXN qXhXxXnXNXnXNXMXMXMXMXMXzXmXMXMXMXMXMXMXjX9XcXcXxXhXhX,X* :XgXhXhXhXhXhXhXqXv $.I p.f k.E.7.J o.",
"X.Z A F z.z.K z.N.u.z.#XO aXhX<X;XhXhXhXhXhXbXMXMXMXMXMX>X6XzXvXNXMXNXzXhX8XM 8XhXhX9X  6XhXhXhXhXhXhXhX8X, -.@.p.K l l.d.X.j X.",
"H.J 9.O p.I j.h.X.s.D.X.> 6XhXdX^ _ 8X9XgXhXxXMXMXMXMXbXdX) ,XhXhXhXhXhXhXhX6X@ v M & v / <X8X9XgXsX;X^ X -.%.i.L P K %.-.g.P f.",
"H.K.Y O %.B eXI.@.z.H.~.0 _ hXhXaX;XM v hXjXhXxXnXnXxXhXhXaX^ _ ,X9XaXdXqX,XM M qX9XaXdX;XN N <XgX6XsX^ %  ...7.g 9 n.X.p.A Y l.",
" XeX~.8 B h O.Q.Z &.Y.[.N.6 9XhXhXhXhX) dXNXjXhXhXhXhXhXhXhXhX9X_ v & & & M 6XdXhXhXhXhXhXhXhXhXhX>XN = g h d f j ! N.L L A P E.",
"W.[.].&.8 l.% Y.0 n ,. X.XU & 6XhXhXhX:X;XNXNXnXbXjXhXhXhXhXhXhXhXhXaXsXdXhXhXhXhXhXhXhXgXsXhXhX8X# % G % f.7.6.Y a.T 7.s.p.5 g ",
"%.A.k.%.0 %XA 8 $X8 S -.oXA.O.@ M ` :X8XN aXNXMXmXjXhXhXhXhXhXhXhXhXhXhXhXhXhXhXhXhXhXhXqX& N M % +.6 p % t T K P h. X .F d.a.H ",
"A.l.A.Q.A.F %X8 8 S X D @X X=X!.7 # o v qXc ) 6XsXhXhXhXhXhXhXhXhXhXhXhXhXhXdXaXhXhXhXhX,X% Q V.x.D O 3 R % z.9.j.y z.t  .;.t 7.",
"A.!.!.^.!.V.C.].> 5 4 $ a.XX XE.=XU..X$ M aX9X6XsXhXhXqXgXhXhXhXhXhXhXhXhXdX/ % ) 8XqX<X, t ~ }.Y.A.% > =.X p Z.d q d q L j.H z.",
"(.!.[.Y.C.b.%. X$.0 i g 3 L f.^.P.U..XW o v ,XqXqX8X;X& 6XgXhXhXhXhXhXgX8XM # &.9 6 6 , B G ! Y.Y.R.% 7  .o Y J.P g H a e.e.8./.",
"A.[.V.k.`._.Z.l.z A.l.S Y.3 Q oXU.`.B -.Y.B o # @   3 W $ v >X9XqXqX,Xc . O R Z.g.T.T.S.g.Y &.<.M.-.o <.M.% B.@.A.#Xs.k Y j.z.h.",
"I.A.].&.{.V.K.K -.A.oX|.<.p.Y.S.T.%.a.R ].=X%XD.].[.oXU.D.=.S 7 6 % o % q G P ! B.&.W 7 R g.#.,.B B W Y.0 0 i.J W Y.E.9.H %...l.",
"M.A.*.`.T.'.Z.k D 8.L ^.k.l |.).,.A G d.eX%XI.;.|.eX{.{.].{.C.,.C.-.*.J.Y.@Xd.*.Y R t 9.9.G p S &.=.S.-.6 '.J.v.@.}.[.f.G f x.W.",
").].l.].XXY.e.6.z.X.t.l.s k I p.e.j d K.Y.J.U.U..X2X.X].].2XQ.*.#.Y.C.!.].j.I.k.O.q J ! J.z.R q O.;.S O.C.P.$XoX~.!.!.B.! k. XW.",
"XXY.!.Y.|.A.E.b.Y.V.9.Y i p Y t.k 0.i.B.Z.D.:.;.2X.X`.Y.].;.oXT.k.,.#.].XX[.].Q.k.z.g.Z.[.T.A.A F D Z ].Y.].!.A.'.Y.Q.'.V._.C.oX",
"'.V.].Y.].D.n.~.p.D i.q.a.0.j.j.8.N.z Z.F.D.l.).tX2X{.XXV.l.%.V.R.l.Y.V.].$XQ.l.i d.[.I.I.I.%X9.i.D ! k.Z.z.T.Q.].`._._.S.T.R.I.",
"@.-.Y.Y.XXA k H.X.i.[.V.z.8.4.n.6.r.m.[.'.;.k.$.D.'.].-.Y.'.v.U y x.*.S.'.I.oX!.v.H (.!.I.l.*...L A C i.K k.I.l.A.F.&.,.`.,.T.C.",
"#.S.].E.Y.e.$.L r.j.j.N.o.g P n.a.j.r.y.<.U i.n.J OX-.#.S.{.p.k.e.k.h.P.{.P.,.V.H.z.b.M.;.$.Y 8.i.d.0.a.7.l.l.l.A.'.V.,.;.;.T.;.",
"-.C.].p.P 4.r.h.n.!.p.,.$.j X.y.b.^.m.t.%Xt a z.J U D %.D..XQ.].H.l. .#.-.-.A.x.Q.k.A G x.H.p.f Y Q.H.^.#XA.A.!.$X%XY.V.#.D S._.",
"'.].I.x.k 4.n.h.I...$.*.0.f @.I m.c.N.8.e.7.7.4 i u 4 G.D.].I.Y.,.;.7.o.;.;.;.P... .h.f X.-.l.i.T E.!. X].*.%.Q.-.A.'.S e.A.$.}.",
"C.U.).Y.H.e.6.e.X.k.l I 8.x j k u.b.N.j./.H i s.4 a 9 6 B & 6 % 7 n % B -.A.-.I.l.9.p.K L #.....q T X.I.I.-.[. X^.b.p.j a d.6.G."
};
