/* XPM */
static const char *left2[] = {
/* columns rows colors chars-per-pixel */
"64 64 238 2 ",
"   c #090A14",
".  c #241527",
"X  c #341C27",
"o  c #4D2B32",
"O  c #4B5729",
"+  c #53592D",
"@  c #5B5C32",
"#  c #5B5C36",
"$  c #514D32",
"%  c #625D3D",
"&  c #6B5D3C",
"*  c #695937",
"=  c #765D3A",
"-  c #4E6529",
";  c #5B642C",
":  c #596A2B",
">  c #5B722A",
",  c #596633",
"<  c #5C6C33",
"1  c #566737",
"2  c #5B7439",
"3  c #666F2F",
"4  c #66792D",
"5  c #626433",
"6  c #6A6B35",
"7  c #65643C",
"8  c #6A643C",
"9  c #656C3C",
"0  c #6B6C3C",
"q  c #656A35",
"w  c #73683C",
"e  c #657C35",
"r  c #6D7B36",
"t  c #63723C",
"y  c #6B733C",
"u  c #6C7A3B",
"i  c #687536",
"p  c #73743D",
"a  c #727B3A",
"s  c #7B773B",
"d  c #7A4841",
"f  c #6E5B44",
"g  c #725D40",
"h  c #5C6F42",
"j  c #6D6644",
"k  c #6C6C43",
"l  c #676944",
"z  c #7A6444",
"x  c #726D43",
"c  c #7B644B",
"v  c #746D4A",
"b  c #7D6C4C",
"n  c #766645",
"m  c #657440",
"M  c #6C7343",
"N  c #6C7B43",
"B  c #6B7A48",
"V  c #737443",
"C  c #7B7444",
"Z  c #737C44",
"A  c #7C7B44",
"S  c #73734B",
"D  c #7C744C",
"F  c #747C4B",
"G  c #7C7C4C",
"H  c #7B6E52",
"J  c #7B6552",
"K  c #7D7452",
"L  c #7D7C52",
"P  c #767752",
"I  c #82763C",
"U  c #826A49",
"Y  c #827C45",
"T  c #83754C",
"R  c #837B4C",
"E  c #8B7C4C",
"W  c #847447",
"Q  c #836C53",
"!  c #886D53",
"~  c #837353",
"^  c #8B7454",
"/  c #847C53",
"(  c #8B7C54",
")  c #8C745B",
"_  c #857D5B",
"`  c #8C7B5B",
"'  c #857359",
"]  c #927C55",
"[  c #92765B",
"{  c #937C5C",
"}  c #987859",
"|  c #AD7757",
" . c #8B7D60",
".. c #8E7664",
"X. c #947C62",
"o. c #9B7E62",
"O. c #967A66",
"+. c #A37F65",
"@. c #62872D",
"#. c #6C843A",
"$. c #7A843C",
"%. c #768739",
"&. c #7C9B3D",
"*. c #6E8445",
"=. c #748344",
"-. c #7D8444",
";. c #7D8B44",
":. c #75834C",
">. c #7C824B",
",. c #7B8A4C",
"<. c #738B44",
"1. c #7E8352",
"2. c #798955",
"3. c #7A9251",
"4. c #7A8760",
"5. c #83993B",
"6. c #828A3E",
"7. c #848446",
"8. c #84834C",
"9. c #8A834D",
"0. c #83894C",
"q. c #8C8C4B",
"w. c #868646",
"e. c #92884E",
"r. c #869349",
"t. c #858353",
"y. c #8C8454",
"u. c #838B54",
"i. c #8B8B54",
"p. c #84835A",
"a. c #8C835A",
"s. c #848B5A",
"d. c #8C8C5B",
"f. c #938455",
"g. c #938C54",
"h. c #9B8D55",
"j. c #94845B",
"k. c #9A835D",
"l. c #948B5C",
"z. c #9A8B5D",
"x. c #9A8554",
"c. c #849053",
"v. c #8C9253",
"b. c #8C935B",
"n. c #889558",
"m. c #949355",
"M. c #9C9455",
"N. c #94925C",
"B. c #9B925B",
"V. c #979A59",
"C. c #96934D",
"Z. c #A3845D",
"A. c #A28A5A",
"S. c #A1935F",
"D. c #A49859",
"F. c #A0A35D",
"G. c #8C8462",
"H. c #8C8A62",
"J. c #948362",
"K. c #9B8464",
"L. c #948B63",
"P. c #9C8B64",
"I. c #9C856A",
"U. c #9D8B6B",
"Y. c #95836B",
"T. c #8D9462",
"R. c #959262",
"E. c #9C9363",
"W. c #9C9965",
"Q. c #9C946B",
"!. c #9E9B6B",
"~. c #969667",
"^. c #9D8572",
"/. c #9E9574",
"(. c #A18565",
"). c #A28B65",
"_. c #A98C66",
"`. c #A2856B",
"'. c #A48C6B",
"]. c #AA8D6C",
"[. c #A88768",
"{. c #A39365",
"}. c #AA9366",
"|. c #A59A65",
" X c #AA9A64",
".X c #A4936B",
"XX c #AB936C",
"oX c #A39A6C",
"OX c #AC9A6D",
"+X c #B2946D",
"@X c #B29A6D",
"#X c #B79B6C",
"$X c #A58D72",
"%X c #AA8E74",
"&X c #A78C78",
"*X c #A59373",
"=X c #AC9473",
"-X c #A59B72",
";X c #AD9A73",
":X c #AC947A",
">X c #AD9D79",
",X c #A59B7B",
"<X c #B29473",
"1X c #B39B74",
"2X c #BA9C74",
"3X c #B2957B",
"4X c #B49B7B",
"5X c #BA9C7B",
"6X c #9BA270",
"7X c #ACA26E",
"8X c #A7A366",
"9X c #B3A36D",
"0X c #B9A16E",
"qX c #ACA375",
"wX c #B3A276",
"eX c #BCA675",
"rX c #B4A17A",
"tX c #BAA27B",
"yX c #BBAA78",
"uX c #A5B26C",
"iX c #92AA5C",
"pX c #C89B73",
"aX c #C3A57E",
"sX c #C4A779",
"dX c #B49C82",
"fX c #BB9E82",
"gX c #B19782",
"hX c #AD9E84",
"jX c #B5A283",
"kX c #BCA384",
"lX c #BDA985",
"zX c #ACA080",
"xX c #C2A484",
"cX c #C4AB84",
"vX c #C7AA8A",
"bX c #D4B696",
"nX c #CCB18E",
"mX c #EEC790",
/* pixels */
"j J.`.:X%XN.c.i.A 7 p p ;.4 > : y OXE A D p -.0 ( i.A R H H o.XXP.U.$Xk.^ ).` ).Z.{ p.8.t N.t.T t.@ y F ] ].{.XXj.OXZ a 0 + , 7 ",
"F j.*X4X'.a.G i @ : r 4 =.r 6.&.uXA a Y 8.0 A ; 0 0 G T P.{.XXX.J.[ z U T T ( P.k.T V @ O z.T G y.s.M 8..X].OX].y.D V i p q O - ",
"a.:X3X%Xj.E.|.q.r.V.a > 4 %.r.C n.iX@.$.p p 4 6 V < d.J.'.3X(.7 { ^ Q.oXt.Z :.T z..XZ V m y.8.T z Z.C 8.y.@X;XP.9.9.8 8.5 ( Z w.",
"R  .U.'.J.=XK.0.7.r.e w.9 %.$.- e l.&.y.g.E $.6 y 0 @ p.*XK ! y.] K.(.D E.l.D P.w = 8 N Z A @X{.* & z.#.{.j.).XXT A 6 v.; V s.u ",
"` V _ I.I.Y.U.~.E.i.c.c.i p i i.( D V D Y %.; 3 u u !.>.k J.P.z ^ ~ z t..X).R 8 >.R 0.>.p 8.w 8 + p 9.9.y.] k.k.f.f.r 9.G 7 q ~ ",
"<X=X=X(.XXl.~ oXs.f.8.:.<.< i.B.j.T u.-.; -.9.g.#.9 K a.!.>XoXR.y.l.d.d.XX:XH.:.B !.( R i.C ( k N 2 M 7Xj.E +X2X'.z.a 5 V 0 t._ ",
"%XX.K.v o.).qXl.].'.1 V u.<.g.f.V / T XXM.M.r. Xs p i.Q.4X<X` K ~ j.oX*XdXJ.U.8XW.0 t.p.S W., N u.>.N 1 0 {.}.tX=X}.g.9.e i x a.",
"a.K Q t.{ XX.X).:XU.3.l.u.B.{.wX,.d.;X*Xa.z.).9.w.l.i.j.X._ P.t.y {.P..X4X].K.4X` L U./ B a..XOXwX).s.1.1.).).1X=X{ ).9.> 0 Q.V ",
"J.;X] c T ).i.j o.l , t.t./ z.XX4X4X3X*Xj.7Xv.i.Y p {.8.y.8.T a.l.E G ] dX%X! X.S a.{ _ s.L.% ~ ) 1X.X_ ` *X].).{ ) *Xf.5 y.H.~.",
"4X!.R.z.a.b R Z O 1 b.g.h.d.i.).=X=X&X=XrXtXL.S.N.Z l.e.{.e.I P.C A l.1X4XU.Q.P.{ P.X.pXl.L.:.u._ .X].Q.*XU.].].k.^ K.j.).j.Q.kX",
"_.J.' ^ g.d.G ,.e t y. XD.W.;XX.I.O.`.].rXXXA W.{.( 1X)..X9Xl.{.l.u y.].U.` =X1X(.} [ .X/ 4XQ.yX-X;XI.$XU.:X! ).K.).f.P.).L.P.*X",
"` U.x b ).E.R.P.d.- |.aXwX4X5XP L.wXD E kX*X>.l.f.m.j.J.1X}.1Xq.Y 0.XX;Xa.J.b ` OX.X) { :X$X).aX{.].:XX.Q I.[ c K.=XW.>.i.4XcXL.",
"` a.N.m.{.XX:XP.y s.$X4XkXnXdX-XL.{ a.G fXjXR.d.).*XL.=XtX@XeX XA A I.w J K.Q.7XI.l.I.K.+X).4X).z.B.( ^.L.I.X.U.t.{.P.v n $XO._.",
"fXI.b C w z.>X-XN.>XxXbX:XfXdX*Xp.7 T.L.(...rXU.P.E.j.3XtXdXl.OX{.9X).4Xo.`.7Xz./ q.g.L.j.j.'.P.D.yX/ ~.;XOXoXN.R.l.A A.<X<X(.(.",
"! z.y.p B..X:X*XJ.X.$X`.I.bXrXQ.d.M t.i.'.T J.4XL.L.U.=XO.`.U.W <XxX_.^ K.^ tX1X}.8.OX*Xm.q.q.6.sXaXP.g.{.s =.M.h.P..XOXz Q } ^ ",
"(.(.R l.<XtX%XU.K.%X:XR.` J j % s.v.W.T X.XX/ ' ) G.I.`.^.&X$XQ.<Xf.k.a g ( 3Xo o o o o o o o yX8X9.}.OXeXS.F.h.M.l.X.P.U D ^ } ",
"K.P.J.%X*XX. .I.'.$X%XI./ t 1 u.t.G P.6XD a.R.).kXrX'.3X:XQ.y.D J./ |.&.o o o o o o o o o o o o o g.OX3X|.{.C..XB.z.z.Y l.t.p.Q ",
"y.l.P.o.).{ H _ ^.X.X.1Xt.:.m 1.D T Q ~ X.K.*XU fXI.I.4XI.'.*X>.| | | | o o o o o o o o o o o o o o h.f.e.h.2X5Xg.5.a tX@XE / F ",
"w. Xe.oXtX^ M p.=X` ~ ` d.M 2 :.L s.s.a.k G D ` gX%X$X| | | | | | | | o o o o o o o o d d d o o o o o o q.E ].<Xt.r w.g.h.A l.v.",
"3 B.{.oXy./ 1.( { {.U.L T 0 a.~.=Xd.p.l.Z B F R 3X].| | | | d | | o | o o o o o o o d d d o o o o o o o o g.j.K.e.@.m.z.U.hXR 6 ",
"m.{.|.{.q.0.Z 7.l.P.@X].).g.` Y.vX=X=XR.,.y 9 a.| | d d d | d d o o o o o o o o d d d o o d d d d o o o o o z.P.|.m.z.C l.; > : ",
"C j.{.l.i.N.A q.q.).A b j.D J.kXkX3X:XF d.| | | | | | | d d d d o o o o o o d d d d d d d d d o o o o o o o o E x.OXz.9.6 s %.B.",
"{.OXf. X|.R -.;.w.q.w 6 / d.XX`.U.K.| | | | | | | d d | | d o o o o o o o o d d d o o d d d d o o o o o o o o 8X{.A p R C C a 7.",
"tX].@X( / R C C E r V w.w.E.) l k | | | | | | d d d d d d o o o o o o o o o o d d d o o d d o o o o d o o o o o @X.Xi.R f.E.9.l.",
"<X_.@Xl.y V y + @ 0 A f.P.*XXX| | | | | | | | | d d d d d o d d o o o d d d d d d d d d d d d d d d o o o o o o 1X5XXX'.j.z.g.z.",
"1XXXXXl.V 7 , M < 0 9.C 9.oX| | | | | | | d | | d d d d d d d o o o o d d d d d d d d d d d d d d d d o o o o o o $XXX( K.{ *XXX",
"J.cX;X!.a.L , , t.W e.Y P.| | | | | d | | d d | d d d d d d d o o o o o o d d d o o d d d o o o d d d d o o o o o ).}.1X].=X1X).",
"k.XX4XP F k Z m % 6 8 J.| | | | | | d d | d d d d d d d d d d d o o o d o d d d d o o d d d d o o o o o o o o o o o 4X2X4X].1X1X",
"/ l.rX2.:.p.9 5 0 + | | | | | d | | d d d d d d d d d d d d o d d o o d d d d d d d d d d d d d o o o o o o o o o o 4XK.=X].:Xj.",
"R a./.>X2.M 2 i.9.| | | | | | d d d | d d d d d d d d d d d o o o o o o d d d d d d d d d d d d d o o o o o X X o o o K.<X$XI.T ",
"R.>X( Q.:.2.3.j.| | | | | | | | d d d d d d d d d d d d d d d d o o d d d d d d d o d d d d o d d d o o o o o X X o X U.4X:XH.9 ",
"XX].j.*Xs.H.>X| | | | | d d | d d d d d d d d d d d d d d d o o o o o d o o d d d o o d d d d o d d o o o o o o X X X 4XJ.*X.Xd.",
"=XwX*XzX_ rX>X| d | | | | d d d d d d d d d d d d d d d d d d o o o o o o d d d d d o o d d d o o o o o o X X o X X X 1X1XcXxX].",
"'.U.jX.XqXyX| | d d | | d d d d d d d d d d d d d d d d d d d o o o o d d d d d d d d d d d d o o o o o o X X X X X 9.).sXsXbX4X",
"E.OXlXrX.X.X| | | d d d d d d d d d d d d d d d d d d d d d d d d o o o d d d d d d d d d d d d o o X X o X X X X t.y.l.sXmXmX|.",
"XX-XoXP.4X| d | | d d d d d d d d d d d d d d d d d d d d o o o d o X o o d d o o d o o d o d d d o o X X o X X z.Z.XX'.8.tXbXD.",
"` _ 4X;X| d | o o o d d d d d d d d o d d d d d d d d d d o o o o o X X o o d o o d d o o o o d d d o X X X X lXOX1X2XtXoXcXaXaX",
"P.>X,Xj.| | o X X d d d d d d d d d o d d o d d d d o d d d o o X o X X o o o o o d d o o o o o o o o X X X X .X+XP.).=X4XlXXX].",
"cX1XI.| | | d d d d d d d d d d o d o o o o o d o d o o o d o o X X X X X o o X o o d o o o o o o o o X X X ).1X1X< d.rX4X;X#X1X",
"lXyX@X| | d d . d d d d d d d d o o o o o o o o d d d o o o o X X X X X X X X X X o o o X o o X o o X X X X J.D l.1.R rX].=XlX1X",
"OXlXcXXX| d d . d d d d d d d d o o o o o o o o o d o o o X X X X X v.9.i.X X X X X X X X o o X X o X X X ] .Xj.{.d.l.OX).).).).",
"7XlXXXOXd | d . d o d d d d o d o o X X o o o o o o o o X X X :XrX1Xd.m.7.9.l.i.L.Q.'.X X X o o X X X . . { K.k.j.j.z._.).).1XR.",
"E.1X).eX| d d d d o d d o o o o X X X o o o o o o o X X X F a.kX*X9.i.B.f.C l.a.jX<X-X-XX X X o X X X . ).I.J.P.T D @ Z.] ^ P.d.",
"R ( k.sX| d d d d o o d o o o X X |.N.H . . o o o X X X R.d.5XkXoX=.W.OXt.>.=X7XX.).U.K P.X X X X X X . a.XXk.y.A y.9 j.{.:.B W ",
"R l R ;X| o o o o o o o o o X X R U.N.F D . o o X X . X y..Xo.O.W.R.z.Y x.f.$X3XOX .U.S ~ y.. . X X . . C ^ }.~ y.V p z.a.R y R ",
"E.B t.S | o o o o o o o X X X l.P.'.f d.y . . X X . . E.v ].a.J..X.X].B.P.(.5XX.o.` L.Y / ;X!.. X . . . E z.( t.C Z V ( ] p.Z d.",
"E.W.F u.X X X X X X X X X X {.).3Xl.% M l.~ . X X . . E.t.~ {.K.>Xa.( ).] f ) o.o.*X{ y.g.l.1X. X . . . w U T G 5 $ N.R y.x F z.",
"1XcX-X( X   X X X X X X X X .X4X.XE.G d._ I.. . . . L.f I.a.d.j ) Q.j.Q K G ) ^ c J.l.5 p y.>X. . . . t ,.w 8 9 t L A.C C x F {.",
"}.;X*XJ.    X X X X X X X |.] OXOXOX;XL.XX. . . . P.l.B ~ K.].<XjX .~ t.T y._ X.<X(.( p #XOX. . . . . n.n.N.>.=.F 0.A :.i.y.+ 7 ",
"] P.j.(     . . X . X X 5XP.2X1XkX4XjXK.. . . . <XE.c.>.1.x & fXkXW.a.c.j { F H { *X` tX:X. . . . . =XV T T G V V f.#XU z p.u.N ",
"P.k.P..X1Xk.X . . . X X 9X1XyX@X'.3X<XJ.. . . X.*X:.>.i 9 0..XnXrXd.7 L M ` T.G Q X.K.X.$X. . . . c l F E.t.L.1.g.= l.& U } 7 >.",
"P.XXXXOXXXXXK.X X X X 7XV.4X1X{.xX`.4X.XK.b K.$XU.J.R.N 1 y.*XvXjXt.9 l a.U.%X;XG./ J.kX`.v K =X).P.d.{ U.L m L.8 # 8 @ C g.N l.",
"@XXX;X'.K.B.( 1X( |.5.i.7Xy.i.OX(.`.3Xo.].XXP._ a.k t.2.d.T.P kX5X1X:.:.K l.H o.B OX:X%XK M L ).].[.).{ [ n.u.Q.Z t N < 7.8.<. X",
"K.;XJ.j.%X$XL.k.$.E.0XxXaXR >XxX`.%Xf { -X2XtXeXrX1.d.J.j.J.p.4._ G.L s.M v S L.p.].].I.s.F ) o.(.`.! (.pXd.L.~ P.qXi.t F g.l.f.",
").K.=X) :XJ.W.V { P.5X5X<X|.5XxX2X( c.v *XaXrXQ.4XtX5X`..X.XrXrXXXI.P M B V Z L G.' c $ B p.' =XK.^.' ]./ a.t.B H '.{.1.N ( T x.",
"Z.K.` &X].-XL.e v -.C OXj.C <X+XJ.x k p.cXtX).} +XvX:X:X=X:XK.X.].K.J./.'.7Xa.` F S % 1.L l 1 c ) ' K.XX.X4XQ.b.~ =X;Xd.M 9 z.}.",
"+X=Xk.=X4X'.7.=.l.R q.z.e i A 9.8.i 8 W.].Q.[.`.3XfX3X:X=XdX.X` ^ '.K.XX=Xg.).j.Q # B L Q.l.S @ Q { J.1X`.(.tX1XoXXXXXG.L j.1X}.",
"4X].XX'.<XP.{.N.].J.1.F : 1 F 8.t ,.t.G.L.U...} fX3X%X'.=X{ 2X].j.X.^ *X4X;X=X.Xj.l.p.L.;X].P.x n c j =X].*XXXP.*X)..X*XJ.$XI.5X",
"*XJ.=X'.*XI.V.oXt.v s.3.s.2.g.g.=.S.s L.Y.U.k.+XnXfX:X4XJ.k.( J._.k.].J.=XtX.Xz.: a.;X).).).yX1.t.D L j.L.l.]..X=X%X$X$XU.]._.).",
"~ { ).].4Xx i E.R t.;XJ.l.=.#.N.*.9.C.;X*X[ f./ U./.*X{ .X*Xb.D & z.` K.*X).1XXXb.N @XXX).k.` T C x h s.V f.P.k.P.Y.) X.$XX.].I.",
"^ I.*X{.].8.( C 9.i.g.S.Y 5 Z V.u.g.9.g.o.D t.V.N /.[ ^ I.:Xy.j.8.j.f.(.:X(.X.J.E.l.B.A.] / F >.t.j.2.u.:.j.k.k.P.*XJ.X.{ { ].{ ",
"{ K.=Xy.Z $.9.f.m.XXy.X._ y R e.B.OXv.w.rX& < l.m D b ( U.3X.X=XE.k.U ^ } } P.l..Xj.x k z.E.y.0 F XXE.OXrXP.K.XXtXwX).J.^ c I.$X",
"*X*X).z.r %.M.f.).T / ` ,.0 ~ A v.h.D.;.8.-.>.O ; - O R.U.4X].'.X.{ >.E { ] ] (.T W f.9 R ] k.t.G ).XX1X=X` ( .X] P.*Xj 8.P./ ,X",
"K.`.+X).E.8.=.9.Y j.p A ;.3 y r r.B.D.g.|.N ; i.O < =.P.3X$X'.f.( :XJ.{ { K.{ ).k.1.y.V C ^ T T # G R ).).{ ;X1XOXB.t.u < a.N L."
};
