/* XPM */
static const char *right2[] = {
/* columns rows colors chars-per-pixel */
"64 64 235 2 ",
"   c #090A14",
".  c #241527",
"X  c #341C27",
"o  c #4D2B32",
"O  c #4B5828",
"+  c #52592C",
"@  c #5C5C33",
"#  c #5B5C36",
"$  c #514D32",
"%  c #635E3D",
"&  c #6C5C3B",
"*  c #695937",
"=  c #755C39",
"-  c #4E6529",
";  c #5B642C",
":  c #58692B",
">  c #5B722A",
",  c #596633",
"<  c #576936",
"1  c #5C7235",
"2  c #666F2F",
"3  c #66792D",
"4  c #65643C",
"5  c #69643B",
"6  c #656C3D",
"7  c #6B6C3B",
"8  c #656834",
"9  c #74683C",
"0  c #657C35",
"q  c #6D7B36",
"w  c #63733C",
"e  c #6B733C",
"r  c #6C7A3B",
"t  c #677535",
"y  c #73743D",
"u  c #727B3A",
"i  c #7B783B",
"p  c #7A4841",
"a  c #6E5D43",
"s  c #725D40",
"d  c #5C6F42",
"f  c #6C6544",
"g  c #6C6C42",
"h  c #686B44",
"j  c #7A6444",
"k  c #726D43",
"l  c #7B644C",
"z  c #746D4A",
"x  c #7C6C4C",
"c  c #776746",
"v  c #657440",
"b  c #6C7243",
"n  c #6C7B43",
"m  c #6B7948",
"M  c #737443",
"N  c #7B7444",
"B  c #737C43",
"V  c #7C7B43",
"C  c #73734B",
"Z  c #7D744C",
"A  c #747B4B",
"S  c #7B7C4C",
"D  c #7C6E52",
"F  c #7B6552",
"G  c #7D7352",
"H  c #7C7C52",
"J  c #767752",
"K  c #82763C",
"L  c #836A4C",
"P  c #837D46",
"I  c #83754C",
"U  c #837B4C",
"Y  c #8B7C4C",
"T  c #837445",
"R  c #836C53",
"E  c #886D53",
"W  c #837353",
"Q  c #8B7454",
"!  c #847B53",
"~  c #8B7C54",
"^  c #8B745C",
"/  c #857C5B",
"(  c #8C7B5B",
")  c #847459",
"_  c #927B55",
"`  c #92765A",
"'  c #937C5C",
"]  c #99795A",
"[  c #937D4E",
"{  c #AD7757",
"}  c #8B7C61",
"|  c #947D62",
" . c #9A7E63",
".. c #977B68",
"X. c #A37F65",
"o. c #62872D",
"O. c #6C843A",
"+. c #7A843C",
"@. c #768739",
"#. c #7C9B3D",
"$. c #6D8547",
"%. c #758343",
"&. c #7E8444",
"*. c #7D8B44",
"=. c #75844C",
"-. c #7C824B",
";. c #7A8A4C",
":. c #738B44",
">. c #7D8352",
",. c #798855",
"<. c #778C50",
"1. c #7A8760",
"2. c #83993B",
"3. c #828A3E",
"4. c #848446",
"5. c #8A8247",
"6. c #84834C",
"7. c #8A834C",
"8. c #828A4C",
"9. c #8C8C4B",
"0. c #848945",
"q. c #92884E",
"w. c #879449",
"e. c #95934D",
"r. c #848353",
"t. c #8C8354",
"y. c #848B54",
"u. c #8C8B54",
"i. c #84835A",
"p. c #8C835A",
"a. c #858B5A",
"s. c #8C8B5B",
"d. c #938455",
"f. c #9B8555",
"g. c #938C54",
"h. c #9A8C55",
"j. c #94845B",
"k. c #9A835D",
"l. c #948B5C",
"z. c #9A8B5D",
"x. c #849053",
"c. c #8B9358",
"v. c #949354",
"b. c #9C9453",
"n. c #94925D",
"m. c #9C925B",
"M. c #979A58",
"N. c #A28D5C",
"B. c #A4865D",
"V. c #A1935D",
"C. c #A4975A",
"Z. c #98A55D",
"A. c #A0A35D",
"S. c #8C8462",
"D. c #8C8962",
"F. c #948362",
"G. c #9B8463",
"H. c #958B63",
"J. c #9C8B64",
"K. c #9C856B",
"L. c #9D8B6B",
"P. c #95836B",
"I. c #8D9463",
"U. c #959263",
"Y. c #9C9363",
"T. c #9C9965",
"R. c #9C936B",
"E. c #9E9B6B",
"W. c #969767",
"Q. c #9D8572",
"!. c #9E9574",
"~. c #A18565",
"^. c #A28B65",
"/. c #A98C65",
"(. c #A2856B",
"). c #A48C6B",
"_. c #AA8D6C",
"`. c #A88768",
"'. c #A39364",
"]. c #AA9465",
"[. c #A49A65",
"{. c #AA9A64",
"}. c #A5936B",
"|. c #AB936C",
" X c #A49A6C",
".X c #AC9A6D",
"XX c #B2946D",
"oX c #B29B6D",
"OX c #B69B6C",
"+X c #A58C72",
"@X c #A98E73",
"#X c #A68B78",
"$X c #A59373",
"%X c #AC9473",
"&X c #AD9A73",
"*X c #AD947A",
"=X c #AD9C7A",
"-X c #A59B75",
";X c #B29573",
":X c #B39B74",
">X c #BA9C75",
",X c #B2957B",
"<X c #B49B7B",
"1X c #B99C7C",
"2X c #B9977E",
"3X c #9BA075",
"4X c #ACA26D",
"5X c #A8A468",
"6X c #B3A26E",
"7X c #B9A16E",
"8X c #ACA475",
"9X c #B4A175",
"0X c #BCA475",
"qX c #B4A17B",
"wX c #BAA27B",
"eX c #BAAA78",
"rX c #A5B26C",
"tX c #C89B73",
"yX c #C3A57E",
"uX c #C4A779",
"iX c #BB9E82",
"pX c #B49C82",
"aX c #AD9E84",
"sX c #B6A282",
"dX c #BCA384",
"fX c #BDA985",
"gX c #ACA080",
"hX c #C2A484",
"jX c #C4AB84",
"kX c #C8AB88",
"lX c #C5B18A",
"zX c #CDB296",
"xX c #D4B696",
"cX c #CEB090",
"vX c #EEC790",
/* pixels */
"f F.(.*X@Xn.x.u.V 4 y y *.3 > : e .XY V Z y 4.7 ~ u.V U D D G.|.J.L.+Xk.Q ^.( ^.B.' i.6.w n.r.I r.@ e A ' ).'.|.d..XB u 7 + , 4 ",
"A j.$X,X).p.S t @ : q 3 %.q 3.#.rXV y P 6.7 V ; 7 7 S I J.'.|.| G.` j L I I ~ J.k.I M @ $ z.I S t.y.b 6.}.)..X).t.Z M t y 8 O - ",
"p.*X,X@Xj.Y.[.9.w.M.u > 3 @.w.N c.Z.o.+.y y 2 8 M , s.F.).,X~.4 ' Q R. Xr.B =.I k.}.B M v t.7.I j B.M 6.t.oX&XJ.7.5.5 6.8 ~ B 8.",
"U } L.).F.%XJ.8.4.w.O.0.6 @.+.- 0 l.#.t.g.Y +.8 e 7 @ i.$XG E t._ G.~.Z Y.l.Z z.9 = 5 m B V oX'.* & b.O.'.j.^.|.I V 2 c.; M y.r ",
"( M / K.K.P.L.W.Y.y.x.x.e y t y.~ Z M Z P @.; 2 r r E.-.g F.J.j Q W j r.}.^.U 5 -.U 8.-.y 6.9 5 + y 7.7.t._ k.k.d.d.q 7.S 4 8 W ",
";X%X%X~.|.l.W  Xa.d.6.=.:.< u.m.j.I y.&.; &.5.g.O.6 G p.E.=X XU.t.l.s.a.|.*XI.=.m E.~ U y.N ~ g n 1 b 4Xj.Y XX>X).z.u 8 M 7 6./ ",
"@X| G.z  .^.8Xl._.).< M y.:.g.d.M ! I |.M.b.w.{.i y u.R.<X;X( G W j. X$XpXG.R.5XT.7 r.i.C T., n y.-.n < 7 }.].wX%X].g.7.0 t k p.",
"p.G R r.' |.}.^.,XL.;.l.y.m.'.9X;.s.&X$Xp.z.^.7.4.l.u.j.| / J.r.7 '.J.}.<X_.G.<X( H L.! m p.}..X9X^.y.>.>.^.^.:X%X` ^.7.> 7 R.M ",
"F.&X_ l I ^.u.f  .f , r.t.! z.|.<X,X,X$Xj.4Xc.u.P y '.6.t.6.I p.l.Y V _ pX@XE | C p.' / a.H.% W ^ :X}./ ( $X_.^.` ^ $Xd.8 u.D.W.",
"<XE.U.z.p.x U B O < c.g.h.s.u.^.%X%X#X%XqXwXH.V.n.B l.q.'.q.K J.M V l.:X<XL.R.J.' J.| tXl.H.=.y./ }.).R.$XK.)._.k.Q J.j.^.j.R.fX",
"/.F.) Q g.s.S ;.0 w t.{.V.T.&X` K...(._.qX|.V T.'.~ :X^.}.6Xl.'.l.r t._.K.} %X:X~.] ` }.! <XR.eX&X&XK.+XK.*XE ^.J.^.j.J.^.H.J.$X",
"^ L.k x ^.Y.U.J.s.- [.yX9X<X1XC H.9XZ Y dX$X-.l.d.v.j.F.:X].:X9.P 8.|.&Xp.F.x ( .X}.^ ' *X+X^.yX'._.*X| R K.` j G.%X[.-.u.:XlXH.",
"( p.n.v.'.|.*XJ.e a.+X1XdXzXpX-XH.' p.S iXsXU.s.^.$XH.%XwXoX0X{.V V K.9 F J.R.5XK.l.K.G.XX^.<X^.z.m.~ Q.H.K.| L.r.'.J.c c +X../.",
"iXK.x N 9 z.=X&Xn.=XhXcX*XiXpX$Xi.4 I.H.~.} qXL.J.Y.j.,XwXpXl..X'.7X^.<X..(.4Xz.! 9.g.H.k.j.).J.C.eX! W.&X.X Xn.U.l.V N.;X;XK.X.",
"E z.t.y m.}.*X$XF.| +X(.K.xXqXR.s.b r.u.).I F.<XH.H.K.%X..(.L.T ;XhX/.Q G.Q wX:X].6..X$Xv.9.9.3.uXyXJ.g.'.i %.b.g.J.}..Xj L ] ` ",
"~.~.U l.;XwX@XL.G.#X*XU.( F f % y.o o o o o o o o S.K.(.Q.#X+XR.;Xd.k.u s ~ ,X:Xm.*X;X,XoXM.[.eX5X5.]..X0XV.A.h.b.l.| J.L Z Q ' ",
"G.J.F.@X$X| } K.).+X@XK.! w < o o o o o o o o o o o o o *XR.t.Z F.! [.#.k j.6Xj.].%X'.qX'.Z.C.jXe.g.|.,X[.'.e.}.m.z.z.P l.t.i.R ",
"t.l.J. .^.` G / Q.| | :Xr.=.o o o o o o o o o o o o o o { { { { t.d.5Xe.J.M.1X9XOX.XqX:X9X:X8XV.C.V.f.d.q.h.>X1Xg.2.u wXoXY ! A ",
"4.{.q. XwXQ b i.%X( W / o o o o o o p p p o o o o o o o o { { { { { { { { eX}.:X{.1X<X2XkXqXzX.Xt.A.i 6.9.Y _.;Xt.q 0.g.h.V l.c.",
"2 m.'. Xt.! >.~ ' '.L.o o o o o o o o p p p o o o o o o o { o { { p { { { { t. X<X_.2XdX).:XcXwX9X|.h.Y b.g.j.G.q.o.v.z.L.aXU 8 ",
"e.'.[.'.9.8.B 4.l.J.o o o o o p p p p o o p p p o o o o o o o o p p { p p p { {  .`.@XhX~ '.$X<XwX'.b.z.T P z.J.[.v.z.N l.; > : ",
"N j.'.l.u.l.V 9.9.o o o o o o o o p p p p p p p p p o o o o o o p p p p { { { { { { { %X:XxX1X$X|.l.9.[ N.5.N.[ f..Xk.7.8 i @.m.",
"'..Xd.{.[.U &.*.0.o o o o o o o o p p p p o o p p p o o o o o o o o p { { p p { { { { { { { K.H d.J.C.].oX/.XX5X'.V y U N N i 4.",
"wX_.oX~ ! U M N o o o o o p o o o o p p o o p p p o o o o o o o o o o p p p p p p { { { { { { i.A H.m.N.).0X|.kXoX}.u.U d.Y.5.l.",
";X/.oXl.e M e + o o o o o o p p p p p p p p p p p p p p p o o o p p o p p p p p { { { { { { { { { a.n.'.F._.wXoX:X1X|.).j.z.g.z.",
":X|.|.l.M 4 , o o o o o o p p p p p p p p p p p p p p p p o o o o p p p p p p p { { p { { { { { { { y.}.i.k.wXwXcX+X_.~ J.' $X|.",
"G.jX&XE.p.H , o o o o o p p p p o o o p p p o o p p p o o o o o o p p p p p p p { p p { { p { { { { { I.c.l.].:X,X^.].:X).%X:X^.",
"k.|.<XJ A g o o o o o o o o o o o p p p p o o p p p p o p o o o p p p p p p p p p p p { p p { { { { { { $.>.}.:X^.|.,X>X<X_.:X:X",
"! l.qX,.=.i.o o o o o o o o o o p p p p p p p p p p p p p o o p p o p p p p p p p p p p p p { { p { { { { { F.s.^.jX,XG.%X_.*Xj.",
"I p.!.=X,.o o o X X o o o o o p p p p p p p p p p p p p o o o o o o p p p p p p p p p p p { p p p { { { { { { $X&X:X|.J.;X+XK.I ",
"U.=X~ R.=.X o X X o o o o o p p p o p p p p o p p p p p p p o o p p p p p p p p p p p p p p p p { { { { { { { { $XF.J.L.1X*XD.6 ",
"|.).j.$Xa.X X X o o o o o o p p o p p p p o o p p p o o p o o o o o p p p p p p p p p p p p p p p { p p { { { { { ~.|.<XG.$X}.a.",
"%X9X$XgX/ X X X o X X o o o o o o p p p o o p p p p p o o o o o o p p p p p p p p p p p p p p p p p p { { { { p { ( W :X:XjXhX_.",
").L.sX}.8XeXX X X X X o o o o o o p p p p p p p p p p p p o o o o p p p p p p p p p p p p p p p p p p p { { p p { { 7.^.uXuXxX<X",
"Y..XfX9X}.}.,XX X X X o X X o o p p p p p p p p p p p p o o o p p p p p p p p p p p p p p p p p p p p p p p p { { { t.l.uXvXvX[.",
"|.-X XJ.<XH.).%XX X o X X o o p p p o p o o p o o p p o o X o p o o o p p p p p p p p p p p p p p p p p p p p { { p { ).6.wXxXC.",
"( / <X&X&Xl.H.H.).X X X X o p p p o o o o p p o o p o o X X o o o o o p p p p p p p p p p o p p p p p p p p o o o { p {  XjXyXyX",
"J.=X-Xj.}.dXwXI m.X X X X o o o o o o o o p p o o o o o X X o X o o p p p o p p p p o p p o p p p p p p p p p X X o { { <XfX|.).",
"jX:XK.sXoXfXL.6XV 8.X X X o o o o o o o o p o o X o o X X X X X o o p o o o p o p o o o o o p o p p p p p p p p p p { { { &XOX:X",
"fXeXoX|.6X^.N U m.7.X X X X o o X o o X o o o X X X X X X X X X X o o o o p p p o o o o o o o o p p p p p p p p . p p { { %XfX:X",
".XdXjX|.[.l.5.b..X4.H.X X X o X X o o X X X X X X X X n.&XG.X X X X X o o o p o o o o o o o o o p p p p p p p p . p p { ^.^.^.^.",
"4XdX|..X&X'.:Xf.;XN.5X. . X X X o o X X X L.! +XlX-XR.p.F.I ~ *XqXX X X o o o o o o o o X X o o p o p p p p o p . p { p ^.^.:XU.",
"Y.:X^.0X].g.I f.'.V.;X1X. X X X o X X X :X! C f D H.i.C p.A p.dX$X7.u.X X X o o o o o o o X X X o o o o p p o p p p p { _ Q J.s.",
"U ~ k.uXwX7.z.j.C.^.m.z.. X X X X X X D R.H.n < v A r.b U.s.1XdX}.%.T..XX X X o o o . . J.t.G X X o o o p o o p p p p { '.=.m T ",
"U h U &X'.l.M l.C.w.l.9X. . X X . . n.A Z -.- >.>.y.8.c.t.}. ...T.U.z.P X . X X o o . C W t.s.z X X o o o o o o o o o { p.U e U ",
"Y.m r.C m.v.g.d.t.u.L.U . . . X . ).a s.e b =.=.b d.! Y.z _.p.F.}.}.).m.J.. . X X . . P ! &XE.U.J.X X X o o o o o o o { ] i.B s.",
"Y.W.A y.J.'.lX|.F.l.Y. X. . . X . l.% b l.W R.I.K.! R Y.r.W '.G.=Xp.~ ^.] . . X X . ' t.g.l.:X=X*X*XX X X X X X X X X X t.k A k.",
":XjX-X~ F.f.F.}.p.` ).&XV.. . . . Y.S s./ K.Q.*XW.b H.a K.p.s.f ^ R.j.R G S . . . . l.8 y t.=XdX(.H.X X X X X X X X   X N k A '.",
"].&X$XF.k.^.F.|.a .. .:X,X. . . . . &XH.|.1XkXdX).J.n.m W G._.;XdX} W r.Z t.! . . . . y 6X.X+X+X` qX4XX X X X X X X     u.t.+ 4 ",
"_ J.j.~ J.wX'.J.hXG.Q ' 1XJ.. . . . . G.l (  .*X;XY.x.-.>.k & iXdXT.p.x.f ' S D . . . . *XdX@XK.R $X%XM X X . X . .     j i.y.n ",
"J.k.J.}.:Xk.9X>X~.x & t.6X:XeX. . . . F.p.g -X| $X=.-.e 6 8.}.kXqXs.4 H M ( I.S R . . . +X| / L.z.l f S X X . . . X l.& L _ % -.",
"J.|.|..X|.|.G.1X] v.t 4XM.<X:X'.hX(.<X}.G.x G.+XL.F.U.n < t.$XkXsXr.w h p.K.@X&XS.! G.dX(.z G %X^.L.s.' L.X X X X # 5 # N g.n l.",
"oX|.&X).G.m.~ :X~ [.2.u.4Xt.u..X~.(.,X ._.|.J./ p.g r.,.s.I.J dX2X:X=.=.G l.D  .m .X*X@XG b H ^.).`.^.` ` a.y.R.B w n 1 4.6.:.{.",
"J.&XF.j.@X+XH.k.+.Y.7XhXyXU =XhX(.@Xa ' &X>XwX9X9X>.s.F.j.F.i.1./ S.H a.b z C H.i._._.K.a.A ^  .B.(.E ~.tXs.H.W J.8Xu.w A g.l.d.",
"^.J.%X^ *XF.T.M ' J.1X1X;X[.1XhX>X~ x.z $XyXqXR.<XwX1X(.}.}.qXqX|.K.J b m M B H S.^ F $ m i.W %XG.Q.^ ).! p.r.m D ).'.>.n ~ I f.",
"B.k.( #X_.&XH.0 z &.N .Xj.N ;XXXG.k g i.kXwX^.] XXkX*X*X%X*XG.| _.J.F.!.).4Xp.( S C % H H h < l ^ ) G.|.}.<XR.c.W %X&Xs.b 6 z.].",
"XX%Xk.%X<X).6.%.l.U 5.k.0 t V 7.6.e 5 T.^.R.`.(.,XiX,X*X%XpX}.( Q ).G.|.%Xg.^.j.R # m H R.l.C @ R ] G.:X(.~.wX:X X|.|.S.H j.:X].",
"<X).|.).;XJ.'.n.).F.>.A : < A 6.w <.r.S.H.L.| ] iX,X@X).%X' >X).j.| Q $X1X&X%X}.j.l.i.H.&X_.J.k c l f %X).$X|.J.$X^.}.$XF.+XK.1X",
"$XG.%X).$XL.M. Xt.z r.;.a.,.g.g.%.V.i H.P.L.k.XXcXiX*X2XF.k.~ F./.k.).F.%XwX}.k.: p.&X^.^.^.eX>.r.Z H j.H.l._.}.%X@X+X+XK._./.^.",
"W ' ^.).<Xk t Y.U r.&XF.l.%.O.n.$.7.e.&X$X` d.! L.!.$X` }.$Xc.Z & z.( G.$X^.:X|.c.n oX|.^.k.( I N k d y.M d.J.k.J.P.^ | +X| _.K.",
"Q K.$X'.).6.~ N 7.g.g.V.P 8 B M.y.g.5.g. .Z r.M.n !.` Q K.*Xt.j.6.j.d.~.*X~.| F.Y.l.m.B._ ! A =.r.p.,.y.=.k.k.k.J.$XF.| ` ' _.' ",
"' G.$Xt.B +.7.d.v.|.t.| ! e U q.m..X9.5.qX% 1 l.v Z x ~ L.,X}.%XY.k.L Q ' ] J.l.}.j.k g z.Y.t.7 A }.Y..XqXJ.J.|.wX9X^.F.Q l K.+X",
"$X$X^.z.q @.b.d.^.I ~ ( ;.7 W V e.h.C.*.6.&.-.+ , - O U.L.,X).).| ' -.Y ' _ _ ~.I T d.6 U ] k.r.S ^.|.:X%X( ~ }.] J.$Xf -.J.! -X",
"G.(.XX^.Y.6.%.7.P j.y V *.2 e q w.m.C.g.[.n ; u.O > %.J.,X+X).d.~ ;XG.' ' J.' ^.k.>.t.M N Q I I # S U ^.^.' &X:X.Xm.t.r : p.n U."
};
