/* XPM */
static const char *right1[] = {
/* columns rows colors chars-per-pixel */
"64 64 235 2 ",
"   c #090A14",
".  c #241527",
"X  c #341C27",
"o  c #4D2B32",
"O  c #4B5729",
"+  c #53592D",
"@  c #5B5D32",
"#  c #5B5C36",
"$  c #494C2A",
"%  c #6B5D3C",
"&  c #645D3C",
"*  c #765D3A",
"=  c #4E6529",
"-  c #5B642C",
";  c #596A2B",
":  c #5B722A",
">  c #596633",
",  c #5D6C33",
"<  c #556736",
"1  c #5A7236",
"2  c #666F2F",
"3  c #66792D",
"4  c #626533",
"5  c #6A6B35",
"6  c #65643C",
"7  c #6B643C",
"8  c #656D3D",
"9  c #6B6C3B",
"0  c #646A34",
"q  c #736C3C",
"w  c #74643C",
"e  c #657C35",
"r  c #6D7B36",
"t  c #63733B",
"y  c #6B733C",
"u  c #6C7A3B",
"i  c #667636",
"p  c #73743D",
"a  c #727B3A",
"s  c #79773B",
"d  c #7A4841",
"f  c #6E5D43",
"g  c #725D40",
"h  c #5C6F42",
"j  c #6C6644",
"k  c #6C6D43",
"l  c #696945",
"z  c #7A6444",
"x  c #726C43",
"c  c #746C4A",
"v  c #7D6C4C",
"b  c #786647",
"n  c #657440",
"m  c #6C7342",
"M  c #6C7B43",
"N  c #6A7B47",
"B  c #737443",
"V  c #7B7445",
"C  c #737B44",
"Z  c #7C7B44",
"A  c #74744C",
"S  c #7C744C",
"D  c #747B4A",
"F  c #7C7C4C",
"G  c #7C6E52",
"H  c #7B6552",
"J  c #7C7553",
"K  c #7C7C52",
"L  c #777853",
"P  c #82763C",
"I  c #836A4A",
"U  c #827C46",
"Y  c #83754C",
"T  c #837B4C",
"R  c #8B7C4C",
"E  c #837545",
"W  c #927A4E",
"Q  c #836C52",
"!  c #896E54",
"~  c #826750",
"^  c #847353",
"/  c #8B7454",
"(  c #847C53",
")  c #8B7C54",
"_  c #8B745B",
"`  c #857C5B",
"'  c #8C7B5B",
"]  c #857359",
"[  c #927C55",
"{  c #92755B",
"}  c #937C5C",
"|  c #9A7C5E",
" . c #987756",
".. c #AD7757",
"X. c #8C7B62",
"o. c #947C62",
"O. c #9A7E63",
"+. c #977B67",
"@. c #A37F65",
"#. c #62872D",
"$. c #6C843A",
"%. c #7A843C",
"&. c #768839",
"*. c #7C9B3D",
"=. c #6D8445",
"-. c #748343",
";. c #7C8444",
":. c #7D8B44",
">. c #74834C",
",. c #7C824B",
"<. c #7B8A4C",
"1. c #748A45",
"2. c #7E8352",
"3. c #798955",
"4. c #7F9250",
"5. c #83993B",
"6. c #828A3E",
"7. c #848546",
"8. c #838944",
"9. c #84844C",
"0. c #8B834C",
"q. c #838A4D",
"w. c #8C8C4B",
"e. c #8A8347",
"r. c #92874E",
"t. c #869349",
"y. c #95934D",
"u. c #848353",
"i. c #8C8354",
"p. c #848B54",
"a. c #8C8B54",
"s. c #858359",
"d. c #8C835A",
"f. c #868A5A",
"g. c #8D8B5B",
"h. c #938455",
"j. c #938C54",
"k. c #9A8C55",
"l. c #94845B",
"z. c #9A835D",
"x. c #948B5B",
"c. c #9A8B5C",
"v. c #9A8554",
"b. c #8B935B",
"n. c #879355",
"m. c #949355",
"M. c #9C9455",
"N. c #94935D",
"B. c #9C925B",
"V. c #9A9A5D",
"C. c #969B55",
"Z. c #A28D5B",
"A. c #A4855C",
"S. c #A1935D",
"D. c #A5965A",
"F. c #98A55B",
"G. c #A0A35D",
"H. c #8C8762",
"J. c #948362",
"K. c #9B8464",
"L. c #958B63",
"P. c #9C8B64",
"I. c #9C856A",
"U. c #9D8B6B",
"Y. c #95836B",
"T. c #8E9562",
"R. c #959263",
"E. c #9C9363",
"W. c #9C9A65",
"Q. c #9C946B",
"!. c #9E9B6B",
"~. c #969667",
"^. c #9D8572",
"/. c #9E9574",
"(. c #A18665",
"). c #A38B65",
"_. c #A98C65",
"`. c #A2856B",
"'. c #A38C6B",
"]. c #AA8D6C",
"[. c #A88768",
"{. c #A39364",
"}. c #AB9366",
"|. c #A49A65",
" X c #AA9A64",
".X c #A5936B",
"XX c #AB936C",
"oX c #A39A6C",
"OX c #AC9A6C",
"+X c #B2946D",
"@X c #B29A6D",
"#X c #B6996C",
"$X c #A58D72",
"%X c #A98E74",
"&X c #A78D7A",
"*X c #A59373",
"=X c #AC9373",
"-X c #AD9A72",
";X c #AD947A",
":X c #AD9C7A",
">X c #A59B74",
",X c #B19473",
"<X c #B49B74",
"1X c #BA9C75",
"2X c #B2957B",
"3X c #B49B7B",
"4X c #BA9C7B",
"5X c #B9977E",
"6X c #9BA270",
"7X c #ACA16E",
"8X c #A7A369",
"9X c #B2A26E",
"0X c #B9A16E",
"qX c #AEA475",
"wX c #B4A275",
"eX c #BCA476",
"rX c #B4A17B",
"tX c #BAA27B",
"yX c #B9AA78",
"uX c #A5B26C",
"iX c #CC996F",
"pX c #C3A47E",
"aX c #C3A87A",
"sX c #B49C82",
"dX c #BB9D82",
"fX c #B19782",
"gX c #AD9E84",
"hX c #BDA384",
"jX c #B9A483",
"kX c #C2A384",
"lX c #C6AA88",
"zX c #C8B18A",
"xX c #CDB296",
"cX c #D4B698",
"vX c #CAAC92",
/* pixels */
"j J.`.;X%XN.n.a.Z 6 p p :.3 : ; y OXR Z S p ;.9 ) f.Z T G G K.XXP.U.$Xz./ ).' ).A.} s.9.t N.u.Y u.@ y D [ ].{.XXl.OXC a 9 + > 6 ",
"D l.*X3X'.d.F i @ ; r 3 -.r 6.*.uXZ p U 9.9 Z - 9 9 F Y P.{.XXo.J.{ b ~ Y Y ) P.z.Y B @ $ c.U F d.f.m 9..X).OX].i.S B i p 0 O = ",
"d.;X2X%Xl.E.|.w.t.C.a : 3 &.t.V b.F.#.%.p q 2 5 B , g.J.'.2X(.6 } / Q.oXu.C >.Y c..XC B n i.9.Y z A.V 9.i.@X-XP.0.0.6 7.4 ) C 8.",
"T X.U.'.J.=XK.q.7.t.e 8.8 &.&.= e x.*.i.j.R %.5 y 9 @ s.*XJ Q i.[ K.(.S E.x.S c.w * 7 N C Z @X{.% % B.$.{.l.).XXY Z 5 b.- B f.u ",
"' B ` I.I.Y.U.~.E.p.4.p.y p i p.) S B S U &.- 2 u u !.,.j J.P.z / ^ z u..X_.T 7 ,.T q.,.p 9.w 6 + p 0.0.i.[ z.z.h.h.r 0.F 6 0 ^ ",
",X=X=X(.XXx.^ oXf.h.9.>.1., a.B.l.Y p.;.- ;.e.j.$.8 J d.!.:XoXR.i.x.g.g.XX;XT.>.N !.) T p.V ) k M 1 m 7Xl.R +X1X'.c.a 4 B 9 u.` ",
"%Xo.K.c O.).qXx.].'.> B p.1.j.h.B ( Y XXC.M.t. Xs p a.Q.3X,X' J ^ l.oX*XsXJ.U.8XW.9 u.s.A W.> M p.,.M < 9 {.}.tX=X}.j.0.e i x d.",
"d.J Q u.} XX.X).;XU.4.x.p.B.{.wX<.g.-X*Xd.c.).9.7.x.a.l.o.` P.u.9 {.P..X3X].K.3X' K U.( N d..XOXwX).f.2.2.).).<X=X} ).0.: 9 Q.B ",
"J.-X[ b Y ).a.j O.l > u.i.( c.XX3X3X2X*Xl.7Xn.a.U p {.7.i.9.Y d.x.R Z [ sX%X! o.A d.| ` f.L.& ^ _ <X.X` ' *X].).} _ *Xh.4 i.H.~.",
"3X!.R.c.d.v T C O < b.j.k.g.a.).=X=X&X=XrXtXL.S.N.C x.r.{.r.P P.V Z x.<X3XU.Q.P.} L.o.iXx.L.>.p.` .X].Q.*XU.'.].z./ K.l.).l.Q.jX",
"_.J.] / j.g.F <.i t i. XS.W.-Xo.I.+.`.].rXXXZ W.{.) <X)..X9Xx.{.c.u i.].U.' =X<X(.| { .X( 3XQ.yX>X-XI.$XU.;X! ).K.).h.P.).L.P.*X",
"' U.x v ).E.R.P.g.= |.pXwX3X4XA L.wXS R hX*X,.x.h.m.l.J.<X}.<Xw.U q.XX-Xd.J.v ' OX.X' | ;X$X).pX{.].;Xo.Q I.{ z K.=X|.,.a.<XzXL.",
"' d.N.m.{.XX;XP.y f.$X3XhXvXsX>XL.} d.F dXjXR.g.).*XL.=XtX@XeX XZ Z I.w H K.Q.7XY.x.I.K.+X_.3X).c.B.) ^.L.Y.o.U.u.{.P.b b $X+._.",
"dXI.v V q c.:X>XN.:XkXxX;XdXsX*Xs.6 T.L.(.X.rXU.P.E.l.2XtXsXx.OX{.9X).3X+.`.7Xc.( w.j.L.l.l.'.P.D.yX( ~.-XOXoXN.R.x.Z Z.,X,XI.(.",
"! c.i.p B..X;X*XJ.o.$X`.I.cXrXQ.g.m u.a.'.Y J.3XL.L.U.=X+.`.U.E ,XkX_./ K./ tX<X}.9.OX*Xm.w.w.6.aXpXP.j.{.s -.M.k.P..XOXz ~ | { ",
"(.(.T x.,XtX%XU.K.&X;XR.' H j & f.b.W.Y o.XX( ] _ H.U.`.^.&X$XQ.,Xh.z.a g ) 2X<XB.;X,X2X@XC.|.yX8Xe.}.OXeXS.G.k.M.x.o.P.v S / } ",
"K.P.J.%X*Xo.X.I.'.$X%XI.( t < p.u.F P.6XS d.R._.hXrX'.2X;XQ.i.S K.( |.*.x l.9Xl.}.=X{.rX{.F.S.lXy.j.XX2X|.{.y..XB.c.c.U x.u.s.Q ",
"i.x.P.O.).} J ` ^.o.o.<Xu.>.n 2.S Y Q ^ o.K.*X~ dXI.I.3XI.'.*X;.i.h.8XC.P.C.4XwX#XOXrX<XeX<XqXB.D.S.v.h.r.k.1X4Xj.5.a tX@XR ( D ",
"7. Xr.oXtX/ m s.=X' ^ ' g.m 1 >.K f.f.d.k F S ' fX%X$X=X;Xd.u , ) '.}.1X9XyX.X<X X4X3X5XlXrXxXOXi.G.s 9.w.R ].,Xi.r 8.j.k.Z x.n.",
"2 B.{.oXi.( 2.) } {.U.K Y 9 d.~.=Xg.s.x.C N D T 2X].=X'.{.m.b.g.j.q hX4X4XV d.oX3X].5XhX'.<XxXtXwXXXk.R M.m.l.J.r.#.m.c.U.gXT 5 ",
"C.{.|.{.w.q.C 7.x.P.@X].).j.' Y.lX=X=XR.<.y 8 d..XXXOX7 F.OX.Xz.9.w.OXXX{.9XdXOXO.[.%XkX) {.*X3XyX{.M.c.E E c.P.|.m.c.V x.- : ; ",
"V l.{.x.a.x.Z w.w.).Z v l.S J.hXhX2X;XD g.L.c.J.U C 7.S ( c.u.J f.j.9.r E kXlXdX`.{ kX=X<XcX4X*XXXx.w.W D.e.Z.W v.OXc.0.5 s &.B.",
"{.OXh. X|.T ;.:.8.w.q 5 ( o o o o o o o o P.<XOX-.&.8.x.s U d.A ,.m 1 t U +XXX}.l.f o.I.).<XI.K h.P.{.}.@X_.+X8X{.Z p T V V a 7.",
"tX_.@X) ( U V V R r B o o o o o o o o o o o o o V.Z M.r.V.R p.-X~.b.< >.k U d.F ) =.' rXpXeXP.s.D L.B.Z.].eXXXzX@X.Xa.T h.E.e.x.",
",X_.@Xx.y B y + @ 9 o o o o o o o o o o o o o o ........{.-Xm.x.l.a.4.N.M.u 1., 6 F .XpX....................tX@X<X4XXX'.l.c.j.c.",
"<XXXXXx.B 6 > m o o o o o o o d d d o o o o o o o ................q ;.-.i.M 3.9.R rX......d d ....d d d ......tXvX$XXX) K.} *XXX",
"J.lX-X!.d.K > o o o o o o o o o d d d o o o o o o ..o ....d ..............B M.p ..............o X ..d ..d d ..d ..).}.<X].=X<X).",
"z.XX3XL D k o o o o o o d d d d o o d d d o o o o o o o d d ..d d d ..........................o X ..d d d d d ......3X1X3X].<X<X",
"( x.rX3.>.o o o o o o o o o d d d d d d d d d o o o o o d d d d ................................o X d d d d d d d d ....=X].;Xl.",
"Y d./.:X3.o o o o o o o o o d d d d o o d d d o o o o o o o d ....d d d d ................d ......o d d . . . d d o o X X o I.Y ",
"R.:X) Q.o o o o o o d o o o o d d o o d d d o o o o o o o o o d d d d d ....d d ........d ....d d d d d d d d d o o o X       8 ",
"XX].l.*Xo o o o o o o d d d d d d d d d d d d d d d o o d d o d d d d d ..d d ....d d d d ....d d d d d d o o d o o X X X   X g.",
"=XwX*Xo o o o o o o d d d d d d d d d d d d d d d d o o o d d d d d d d d d d ......d d d d ....d d d d d d o o o X X X X . X ].",
"'.U.jXo o o o o o d d d d o o o d d d o o d d d o o o o o d d d d d d d d d d d ..d d d d d d d d d d d d d o o o X X X X . X 3X",
"E.OXo o o o o o o o o o o o d d d d o o d d d d o d o o d d d d d d d d d d d d ..d d d d d d d d d d d o d d o o X X X X . X |.",
"XX>Xo o o o o o o o o o o d d d d d d d d d d d d d o o d o d d d d d d d d d d d d d d d d d d d d d d o o o o X X X . . . X D.",
"' o o o X X o o o o o o d d d d d d d d d d d d d o o o o o d d d d d d d d d d d d d d d d d d o o d o o o X X X X X X X X pXpX",
"P.X o X X o o o o o o d d d o d d d d o d d d d d d d o d d d d d d d d d d d d d d d d d d d d d o o X X X X X X X X X X jXXX].",
"kXX X X o o o o o o o d d o d d d d o o d d d o o d o o o o d d d d d d d d d d d d d d d o d o o X X X X *X).<X<X, g.rX3X-X#X<X",
"hXX X X o X X o o o o o o o d d d o o d d d d d o o o o o o o d d d d d d d d d d d d d d o o o X X Z W ^ | J.S x.2.T rX].=XhX<X",
"OXhXX X X X X o o o o o o o d d d d d d d d d d d d o o o o o d d d d d d d d d d d d o d d o o X *X| } [ [ .Xl.{.g.x.XX_.)._._.",
"7XhXXXX X X X o X X o o o d d d d d d d d d d d d o o o o d d d o d d d d d d d d o d d o o o o / ~ } } (.} K.z.l.l.c._.).).<XR.",
"E.<X).eXX X o X X o o o d d d o d o o d o o d d o X X X o d o o o d d d d d d o d o o d o o o K.8Xh.( h.U.I.J.P.Y S + A.[ / P.g.",
"U ) z.aXtXX X X X o o d d d o o o o d d o o d o X X X X X o o o d d d o d d d o o d o o o o J ! Y T F B d.XXz.d.Z i.8 l.{.>.N E ",
"U l T -X{.X X X X o o o o o o o o o d d o o o o X X X X X X o o d o o o d d d d o d o o ^ i.g.c R..Xp.>.V / }.^ i.B p c.d.T y T ",
"E.N u.A c.m.X X X o o o o o o o o o o o X o o X X X ( E.X X X o d o o d d o o o o o o U ( -X!.R.P.(.) L.R c.) u.V C B ) } s.C g.",
"E.~.D p.P.{.X X X X o o X o o X o o o X X X X X X u.Q E.u.^ X X X X o o o o d o o *X} i.j.x.<X:X;X;Xu.x q I Y F 4 $ N.T i.x D c.",
"<XlX>X) J.v.J.  X X o X X o o X X X X X X X X =X~.m L.f U.d.g.j X X X X o o o o o o x.4 p d.:XhX`.L.n.t <.w 7 8 t K Z.V V x D {.",
"}.-X*XJ.z.).      X X X o o X . . OX-XL.XX4XlXhX].P.x.N ^ K.].,X    X X X o o o o o o p 9XOX$X$X{ rX8Xb.b.N.,.-.D q.Z >.a.i.+ 6 ",
"[ P.l.) P.        . X X X X . . hX3XjXK.b ' O.;X,XE.p.,.2.x % hX        X X X X o o o . ;XhX%XI.Q *X=XB Y Y F B B h.#XI z s.p.M ",
"P.z.P..X            . X X X . @X'.2X,XJ.d.k >Xo.*X>.,.y 8 q..XvX          X X X X X o o . o.` U.c.b j D E.u.L.2.j.* x.% I  .6 ,.",
"P.XXXXOX            i . X X . {.kX`.3X.XK.G K.$XP.J.R.N < i.*XvX          U.%X. X X X X . c J =X).U.g.| U.K n L.7 # 6 @ V j.M x.",
"@XXX-X          ) |.5.. . X . OX(.`.2XO.].XXP.` d.k u.3.g.T.L hX        J x.G O.. . . X . . K ).'.[.).} { b.p.Q.C t M , 7.7.1. X",
"K.-XJ.        z.%.E.0X. . . . kX`.%Xf | >X1XtXeXrX2.g.J.l.J.s.          m c A L.s.. . . . . . O.(.`.! (.iXg.L.^ P.qXf.t D j.x.h.",
").K.=X        B } P.4X4X. . . . 1X) p.c *XpXrXQ.3XtX4X`..X.XrX        m N B C K H._ . . . . . =XK.^._ ].( d.u.N G '.{.2.M ) Y v.",
"A.z.}       L.e c ;.V OX. . . . . x k s.lXtX_.| +XlX;X;X=X;XK.      J./.'.7Xd.' D A & >.. . . . ' ] K..X.X3XQ.b.^ =X-Xg.m 8 c.}.",
"+X=Xz.=X3X'.7.=.x.T e.c.e . . . . y 6 W.).Q.[.`.2XdX2X;X=XsX.X      K.XX=Xj.).l.Q # N K . . . . Q | J.<X`.(.tX<XoXXXXXH.K l.<X}.",
"3X].XX'.,XP.{.N.].J.2.D ; < D 9.t <.u.H.L.U.X. .dX2X%X'.=X} 1X].l.o./ *X3X-X=X.Xl.x.s.L.-X].P.x b b j =X].*XXXP.*X)..X*XJ.$XI.4X",
"*XJ.=X'.*XU.V.oXi.c f.<.f.3.j.j.-.S.s L.Y.U.z.+XvXdX;X5XJ.z.) J._.z.].J.=XtX.Xz.; d.-X).)._.tX2.u.S K l.L.x.]..X=X%X$X$XU.]._.).",
"^ } ).'.3Xx y E.T u.-XJ.x.-.$.N.=.0.y.:X*X{ h.( U./.*X} .X*Xb.S % c.' K.*X).<XXXb.M @XXX).z.' Y V x h f.B h.P.z.P.Y._ o.$Xo.].I.",
"/ I.*X{.].7.) V 0.a.j.S.U 4 C V.p.j.0.j.O.S u.V.N 6X{ _ I.;Xi.l.9.l.h.(.;X(.o.J.E.x.B.A. .( D >.u.d.3.p.>.z.z.z.P.*XJ.o.} } ].} ",
"| K.*Xd.C %.0.h.m.XXi.o.` y T r.B.OXw.e.rX& 1 x.n S v ) U.2X.X=XE.z.~ / | | P.x..Xl.x k c.E.i.9 D XXE.OXrXP.K.XXtXwX).J./ b I.$X",
"*X=X_.c.r $.M.h.).Y ( ' <.9 ^ Z y.k.D.:.7.;.,.O > = O R.U.3X).'.o.} ,.R } [ [ (.Y E h.8 R } z.u.F ).XX<X=X' ) .X} P.*Xj 9.P.( >X",
"K.`.+X).E.9.-.9.U l.p Z :.2 y r t.B.D.j.|.M - a.O , -.P.2X$X'.h.) ;XJ.| | K.} ).z.2.i.B V / Y Y # F T ).).} -X<XOXB.i.u , d.M L."
};
