/* XPM */
static const char *player_up1[] = {
/* columns rows colors chars-per-pixel */
"64 64 232 2 ",
"   c #090A14",
".  c #241527",
"X  c #341C27",
"o  c #4D2B32",
"O  c #394820",
"+  c #4B5728",
"@  c #53592D",
"#  c #5B5C32",
"$  c #585C34",
"%  c #494C2A",
"&  c #675D3B",
"*  c #765D3A",
"=  c #4E6529",
"-  c #5B642C",
";  c #58682B",
":  c #5B722A",
">  c #596633",
",  c #5C6C33",
"<  c #586837",
"1  c #5C7438",
"2  c #666F2F",
"3  c #66792D",
"4  c #626334",
"5  c #6A6B35",
"6  c #65643C",
"7  c #6B653D",
"8  c #656D3C",
"9  c #6B6D3C",
"0  c #656A35",
"q  c #74693C",
"w  c #657C35",
"e  c #6D7B36",
"r  c #62723C",
"t  c #6B733C",
"y  c #6C7A3B",
"u  c #677535",
"i  c #73743D",
"p  c #717B39",
"a  c #7C783C",
"s  c #7A4841",
"d  c #6D5D43",
"f  c #5D6F42",
"g  c #6D6545",
"h  c #6C6D43",
"j  c #676844",
"k  c #726C42",
"l  c #7A6B45",
"z  c #7B644B",
"x  c #7D6C4B",
"c  c #776647",
"v  c #657440",
"b  c #6C7343",
"n  c #6C7A42",
"m  c #687C49",
"M  c #737443",
"N  c #7B7444",
"B  c #737C44",
"V  c #7C7B44",
"C  c #73754A",
"Z  c #7C744B",
"A  c #747B4A",
"S  c #7C7C4C",
"D  c #7B6D51",
"F  c #7D7C52",
"G  c #787753",
"H  c #82763C",
"J  c #826A48",
"K  c #827C45",
"L  c #83754C",
"P  c #837B4D",
"I  c #8B7C4C",
"U  c #847446",
"Y  c #927A4E",
"T  c #846C52",
"R  c #886D53",
"E  c #847353",
"W  c #8B7554",
"Q  c #847C52",
"!  c #8A7C55",
"~  c #8B745B",
"^  c #857C5A",
"/  c #8B7B5A",
"(  c #847359",
")  c #927C54",
"_  c #937C5C",
"`  c #997D5E",
"'  c #957758",
"]  c #AD7757",
"[  c #8C7B62",
"{  c #947D62",
"}  c #9A7E62",
"|  c #987C69",
" . c #A37F65",
".. c #6C843A",
"X. c #7A843C",
"o. c #768739",
"O. c #6B8C32",
"+. c #6D8647",
"@. c #7D8443",
"#. c #7C8A44",
"$. c #7C834B",
"%. c #7A8A4C",
"&. c #748546",
"*. c #7D8352",
"=. c #798756",
"-. c #768E50",
";. c #83993B",
":. c #828A3E",
">. c #858446",
",. c #8A8247",
"<. c #84834C",
"1. c #8B844C",
"2. c #848A4B",
"3. c #8C8C4B",
"4. c #838945",
"5. c #92884E",
"6. c #889548",
"7. c #95964D",
"8. c #848353",
"9. c #8C8353",
"0. c #848C54",
"q. c #8C8B54",
"w. c #85835A",
"e. c #8C835A",
"r. c #8C8B5B",
"t. c #868B59",
"y. c #938554",
"u. c #9B8555",
"i. c #938C54",
"p. c #9A8C54",
"a. c #93845B",
"s. c #9A835D",
"d. c #948B5C",
"f. c #9A8C5C",
"g. c #8C9255",
"h. c #8D925B",
"j. c #859356",
"k. c #949354",
"l. c #9C9453",
"z. c #94925D",
"x. c #9C925B",
"c. c #989A59",
"v. c #A3845D",
"b. c #A28D5B",
"n. c #A4895A",
"m. c #A1935D",
"M. c #A29C5E",
"N. c #A59559",
"B. c #A4964E",
"V. c #99A55A",
"C. c #A0A35D",
"Z. c #8B8963",
"A. c #958362",
"S. c #9B8463",
"D. c #958B62",
"F. c #9D8B63",
"G. c #9D856A",
"H. c #9D8B6B",
"J. c #96846A",
"K. c #899562",
"L. c #959263",
"P. c #9C9363",
"I. c #9C9966",
"U. c #9C946C",
"Y. c #9C996B",
"T. c #969768",
"R. c #9D8572",
"E. c #9F9476",
"W. c #A18665",
"Q. c #A28B64",
"!. c #A98D65",
"~. c #A1856C",
"^. c #A48C6B",
"/. c #AA8D6C",
"(. c #A88768",
"). c #A39364",
"_. c #AB9466",
"`. c #A59A65",
"'. c #AA9A64",
"]. c #A5936C",
"[. c #AB936C",
"{. c #A49A6C",
"}. c #AC9A6D",
"|. c #B2946C",
" X c #B29A6D",
".X c #B79B6C",
"XX c #A58C72",
"oX c #AA8D73",
"OX c #A98E79",
"+X c #A38976",
"@X c #A59373",
"#X c #AB9373",
"$X c #AD9B73",
"%X c #AD957A",
"&X c #AD9C7A",
"*X c #A59B75",
"=X c #B29573",
"-X c #B39B74",
";X c #BA9C74",
":X c #B2957C",
">X c #B39C7B",
",X c #BA9D7C",
"<X c #9BA270",
"1X c #ADA36D",
"2X c #A6A369",
"3X c #B1A26C",
"4X c #B9A16E",
"5X c #ADA178",
"6X c #ABA472",
"7X c #B4A275",
"8X c #BCA375",
"9X c #B4A17B",
"0X c #BBA37B",
"qX c #BAAA79",
"wX c #A5B26C",
"eX c #C39C75",
"rX c #C2A47D",
"tX c #C4A87A",
"yX c #B59B83",
"uX c #BA9E82",
"iX c #B19782",
"pX c #AD9E84",
"aX c #BCA484",
"sX c #BBA783",
"dX c #AAA381",
"fX c #C2A484",
"gX c #C4AB84",
"hX c #C6A888",
"jX c #C9B287",
"kX c #D4B696",
"lX c #D1B390",
"zX c #EEC790",
/* pixels */
"g A.~.%XoXz.j.q.V 6 i i #.3 : : t }.I V Z i @.9 ! t.V P D D | [.F.H.XXs.W Q./ Q.v._ w.<.r z.Q L 8.# t A ) ^.).[.a.}.B p 9 @ > 6 ",
"A a.@X:X^.e.S u # ; 3 3 &.e :.o.wXV p K <.9 V - 9 9 S L F.).[.{ S.' c X X X X X   L M # % f.L S 9.t.b <.].Q.}.^.9.Z M u i 0 + = ",
"e.%X:XoXa.P.`.3.6.c.p : 3 o.6.N h.V.O.X.i i 2 5 M , r.A.^.:XW.6 _ W X . . . .     o B M v 9.<.L l v.N <.9. X$XF.1.1.6 >.4 ! B 4.",
"P [ H.^.A.#XS.2.4.6...4.8 o.o.= w f.X.9.i.I X.5 t 9 # w.@XG R 9.) X X . X X X X   X 7 n B V  X).& & x...).a.Q.[.L V 5 g.- M t.y ",
"/ M / G.G.J.H.T.P.q.6.0.t i u 0.! Z M Z K o.- 2 y y Y.$.h J.F.c W X X . X X X X X X ] $.i <.q 6 @ i 1.1.e.) s.s.a.y.e 1.S 6 0 E ",
"=X#X#XW.[.d.E {.t.y.<.$.&., q.x.a.L 0.@.- @.,.i...8 Z e.I.&X{.L.9.X X X X X X X o o ] P q.N ! h n 1 b 1Xa.Y |.;X^.f.p 4 M 9 <.^ ",
"oX{ S.k } Q.6Xd.^.^.< M 0.+.i.a.M Q L [.c.l.6.'.a i q.U.>X=X/ G E X X X X X X o o o s ] C I.> n 0.$.n < 8 )._.0X#X_.i.1.w u k w.",
"e.G T 8._ [.].^.%XH.%.d.0.x.).7X%.r.$X@Xe.f.Q.1.>.d.q.a.{ ~ F.8.t X X X o o o o o s s ] ] e.{.}.7XQ.t.*.*.Q.Q.-X#X_ Q.1.: 9 U.M ",
"A.$X) l L Q.q.g } j > 8.9.Q f.[.>X:X:X@Xa.6Xg.q.I i P.$.9.<.L e.d.X X o o o o s s s s ] s D.& E ~ -X].^ / @X/.Q._ ~ @Xy.4 e.Z.T.",
">XY.L.f.e.x P B + < h.i.p.r.q.Q.#X#XOX#X9X0XD.m.z.B d.5.).5.H F.N X X o s o o o s . s s ] ] &.0./ ].^.U.@XG././.s.W S.a.Q.a.U.sX",
"!.A.( W i.r.S %.w r 9.'.N.I.$X[ ~.{ ~.^.9X[.V I.).! -XQ.[.3Xd.).d.X o o s s s o s . s s s ] ] qX$X$XG.XXG.OXR ^.S.^.a.F.!.D.F.@X",
"~ H.k x Q.P.L.F.r.= `.rX7X>X,XC D.7XZ I aX@X$.d.y.k.a.A.-X_.-X3.X X o o o s s s s . s s s ] ] rX).^.%X{ T J.' z S.#XI.$.q.-XjXD.",
"/ e.z.k.).[.%XF.t t.XX>XaXlXyX*XD._ e.S uXaXL.r.Q.@XD.#X0X X8X'.X X o s s s s s s s s s ] s ] ^.f.x.! R.D.J.{ H.8.).F.l l XX| !.",
"uXG.x N q f.&X$Xz.&XfXlX%XuXyX@Xw.7 K.D.W.[ 5XH.F.P.a.:X0XyXd.}.X o s s s s s s s s s s s s ] F.M.qXQ T.$X}.{.z.L.d.V b.=X=XS. .",
"R f.9.i x.].%X@XA.{ XX~.G.kX9XU.r.b 8.q.^.L A.>XD.D.G.#X| ~.H.X X o o s s s s s s o X ] ] s ] :.tXrXF.i.).a #.l.p.F.].}.z T ` ' ",
"W.W.P d.=X0XoXH.S.OX%XL./ z g & t.g.I.L { [.Q ( ~ Z.H.~.R.+XX X o s o s s s s s s ] o X X ] ] qX2X,._.}.8Xm.C.p.l.d.{ F.x Z W ' ",
"S.F.A.oX@X{ [ J.^.XXoXG.Q r . . 8.S F.<XZ e.P.!.aX9X^.:X%Xo o o o s s s s s ] s s ] ] o o ] ] gX7.i.}.:X`.).7.].x.f.f.K d.8.w.T ",
"9.d.F.} ^._ D ^ R.{ { -X8.$.. . . . T E { S.@XJ uXG.G.>Xo o o o s s s s s s ] ] ] ] ] ] ] s ] x.N.N.u.a.5.p.;X,Xi.;.p 0X XI Q A ",
">.'.5.{.0XW b w.#X/ E / r.b . . . . . e.h S Z / iXoXXXo o o s o o s s s s s s ] ] s ] ] ] s ] }.9.C.a <.3.I /.=X9.e 4.i.p.V d.g.",
"2 x.).{.e.Q *.! _ ).H.F L 9 . . . . . . . m A P :X/.#Xo o o s s s s s s s s s s s ] ] ] ] ] ] 0X7X[.p.I l.i.a.A.5.O.k.f.H.pXP 5 ",
"7.).`.).3.2.B <.d.F. X^.Q.i./ J.. . X X o . 8 e.].[.o o s s o s s s s s s s s s ] ] ] ] ] ] @X>X0XQ.l.f.U K f.F.`.k.f.N d.- : ; ",
"N a.).d.q.d.V 3.3.Q.V x a.Z A.aX. . . X o o o A.P o o o o s s s s s s s s s s s ] ] ] ] ] ] ,X@X[.d.3.Y N.,.b.Y u.}.s.1.5 a o.x.",
").}.y.'.`.P @.#.4.3.q 5 Q r.[.~.H.. . X X o o o @.o s s o o s s s s s s s s ] s ] ] ] ] ] -XG.F a.F.)._. X!.}.3Xm.V i P N N a >.",
"0X/. X! Q P N N I e M 4.4.P.~ j h H.. X X o o o o o o o s s s s s s s s ] ] ] ] ] ] ] ] ] 8XF.w.A D.x.b.^.8X[.jX X].q.P y.P.,.d.",
"=X!. Xd.t M t @ # 9 V y.F.@X[.)./ / 9.. X X o o o o s o o s s s s s s s s s ] ] s ] ] ] ;XrX9XK.G t.z.).A./.0X X-X,X[.^.a.f.i.f.",
"-X[.[.d.M 6 > b , 9 1.N 1.{.F.).`.M.f.jXX X o o s o s s s s s s s s s s s s s s s ] ] ] 0XI.gXr.I.C t.].w.s.0X0XlXXX[.! S._ @X[.",
"S.gX$XY.e.F > > 8.U 5.K F.@X}.7.V.6.c.3XX X o o o o s s s s s s s s s s s s s s ] ] ] ] ` %XsXz.z.K.t.K.g.d._.-X:XQ.[.-X^.#X-XQ.",
"s.[.>XG A h B v & 5 7 A.>X:X-X1Xc.}.hX    X X o o s s s s s s s s s s s s s s ] ] s ] ] ] /.rXrX#XH.].T.+.*.].-X^.[.:X;X-X^.-X;X",
"Q d.9X=.=.w.8 4 9 @ + Q x.$X[.7X7.          X X o s o o s s s s s s s s s s s s s s ] ] ] %XhXoXG.@XQ D.f 8.J.r.Q.gX:XS.#X/.%Xa.",
"L e.E.&X=.b 1 q.1.#.g.2X$X#X7XrX            X X o o o s s s s s s s s s s s s s s s ] ] ] #XoXyXiX%X@X}.m =.Z.@X$X-X[.S.=XXXG.L ",
"L.&X! U.=.-.-.a.M.1.6Xd.:X=X                  X X o o s s s s s s s s s s s s s s s ] s ] yXyX^.=XXXA.hX-XU.Z.oX@XA.S.H.>X%XZ.8 ",
"[.^.a.@Xt.Z.&Xd.8X).f.^.oX,X                  X X s s s o o s s s s s s s s s s s ] ] s ] ] >X%XF.&Xe./ [.-XdX@X$XW.[.>XG.@X].r.",
"#X7X@XdX^ 5X&XgX-X$XS./.~.,X        >XtXF.C ~ ,XX o o o o s s s s s s s s s s s s ] s s ] ] E a.s.-X-X_ R S.%X@XW _ E -X-XgXfX^.",
"^.H.aX].6XqXaXQ._.,XS.oXG.,X).$XlX,X>X#X<.b x e.X X o o o s o o s s s s s s s o o s s ] ] ] S.%XZ F.^.a.H.S.%X&Xa.i 1.Q.rXtXlX>X",
"P.}.sX9X].].:XU.$XaXoXXXoXW.^.F.gXoXt / q.t O $ = X X o s s o o o s o o s s s s o o s s s ] XX^.8.! Q Q.T ` ^.^.qX8.9.d.tXzXzX`.",
"[.*X{.F.>XD.^.#X%X` F.<.g F.].;X}.^.F.Q q.0., <.x.X X X o o o o o s o s s o o s o o s s ] ] >X-XF.l l A.#XA.>X#Xf.v.[.^.>.0XkXN.",
"/ ^ >X$X$Xd.D.D.^.y.[.d.j A.gXrX8X*Xt.$.8 y y l.l.p.X X X o o o o o o o o o o o o o o o ] ] ] F.9Xc.f.Z A.{ %XaX}.-X;X0X{.gXrXrX",
"F.&X*Xa.].aX0XL x.1.4 S 8.#XrX;X0XgX{.r.h.r.H.0X7X`.X X X o o o o s o o o o o o o o o o o ] ] r.S.W s.s.W.^.^.].|.F.Q.#X>XaX[.^.",
"gX-XG.aX XsXH. XV 2.q d.1X-X;X}.I.sX].A.J.>XhXuXaXX X X X o s o s s o s s o s s o o o o ] ] ] f.W S.9.l ^.@XW.-X;X, r.9X>X$X.X-X",
"sXqX X[.3XQ.N P x.1.9 5X,.#.B.7.^.#XG.~.G.oXhXaXX X X X o s s o o s s s o o s s o o o o o o ] H.].%XV Y E ` A.Z d.*.P 9X^.#XsX-X",
"}.aXgX[.`.d.,.l.}.>.D.f.a V.i.F.f.W G.oXyXJ.A.OXX X o o s s s s o s s s s s s s o o o o o o o o { @X` _ ) ) ].a.).r.d.[.!.Q.!.!.",
"1XaX[.}.$X).-Xu.=Xb.2XqX_.y.M.[.m.k.{ ~ oXH.Q X X o o s s s s s s s s s s s s s o s s o o o o o E J _ _ W._ S.s.a.a.f.!.^.Q.-XL.",
"P.-XQ.8X_.i.L u.).m.=X,XM.l..XhX).<.Q ~ -XQ C X X o o o o s s s s s s s s s s s s s s o o o o o 2Xa.Q a.^.S.S.F.L Z @ v.) W F.r.",
"P ! s.tX0X1.f.a.m.Q.x.f.x.5.[./.1.`.z.D U.L.n X X X o o o s s s s s s s s o s s s s s s o o o o o P S M e.[.s.9.V 9.8 a.).$.b U ",
"P j P $X).d.M d.M.6.d.7X3Xi.y.k.P H.z.A Z $.= X X o s s s s s s o o s s o o s s s o s s o o o o o ].0.&.N W _.E 9.M i s.e.P t P ",
"P.m 8.C f.k.i.y.9.q.H.P ^.z.<.d.F.^.d r.t b +.X o o s s o s s o o s s s o s s s o o s s s o o o o W.! D.I f./ t.N B M ! _ w.B r.",
"P.T.A 0.F.).jX[.A.d.P.{.( 3.).^.:Xd.& b d.E U.X o o o o o s s o s s s s s s s s o s s o s s o o o %X8.k q J L $.4 % z.P 9.k A s.",
"-XgX*X/ A.u.S.).e._ ^.$Xm.m.. . ].P.S r./ J.. X o o o o s s s s s s s s s s s s s s s o s s o o o D.j.r %.q 7 8 r F b.N N k A ).",
"_.$X@XA.s.Q.A.[.d | } -X:X`.. . . }.$XD.[.. . X X o o o o s s s s s s s s o s s s s s s o s o o o 9X6Xh.h.z.$.&.A 2.V &.q.9.@ 6 ",
") F.a./ F.0X).F.fXS.W ` ,XF.. . . . . . . . X o o o o o s s s s s o s s s o s s o s s s o o o o o @X#XM L L S M M y..XJ c w.0.n ",
"F.s.F.].-Xs.7X;XW.x & 9.3X-X. . . . X X X X o o o o o s s s o o o s s s o o s s o o o s o o o o o l j S L.8.D.*.i.* d.& J ) 6 $.",
"F.[.[.}.[.[.S.,X_ k.u 1Xc.>X-X. . . . X X X o X X o o s s o o o s s s o o s s s o o o s o o o o ^.F.r.` H.F v D.7 # 7 $ N i.n d.",
" X[.$X^.S.x.! -X! `.;.q.1X9.q.}.W.. . . X X X X o o o s o o o o s s o o o s s s o o o o o o o o /.(.^._ ' j.0.P.B r n , <.>.#.'.",
"S.$XA.a.oXXXD.s.X.P.4XfXrXP &XfX~.oXd ` . X X o o o o o o o o o o o o o o s s o s o o o o o o } v.~.R W.eXr.D.E F.6Xt.r A i.d.y.",
"Q.S.#X~ OXA.I.M _ F.,X,X=X`.,XfX;X! j.    . X X X o o o o X o o o o o o o s o o o o o o o o ( #XS.R.~ ^.Q e.8.b D ^.).*.n ! L u.",
"v.S./ +X^.$XD.w x @.N }.a.N =X XS.k h         X X X X X X X o o o o o o o o o o o o o o o o < z ~ ( G.[.].>XU.h.E #X$Xr.v 8 f._.",
"|.#Xs.#X>X^.>.&.d.P ,.s.w u V 1.<.t             X X X X X o o o o o o o o o o o o o o o o d.C # T ` A.-X~.W.0X-X{.[.[.Z.F a.-X[.",
">X^.[.^.=XF.).z.^.A.*.A ; < A <.              ' X X X X o X X X o o o o o o o o o o o o $X/.F.h c z g #X^.@X[.F.@X^.].@XA.XXS.,X",
"@XS.#X^.@XH.c.{.9.x t.%.0.=.i.              s.|.lXuXX X X X X X o o X o o o o o o o o Q.Q.!.qX*.8.Z F a.D.d./.].#XoXXXXXG./.!.Q.",
"E _ ^./.>Xk u P.P 8.$XA.d.&...            ' a.Q H.E.@X_ X X X o o X X o o o o o o n  X[.Q.s./ L N k f t.M a.Q.s.F.J.~ { XX{ /.S.",
"W G.@X).^.>.! N 1.i.i.m.I 4 B         i.} Z 8.c.n <X_ W G.X X X X X o o o o o A.P.d.x.n.) Q A $.8.e.=.0.$.s.s.s.F.@XA.{ _ _ ^._ ",
"` S.@X9.B X.1.y.k.[.e.{ ^ t P 5.x.}.3.,.9X& , d.v Z x ! H.:XX X X o o o o ` F.d.).a.k h f.P.9.9 A ].P.}.5XF.S.[.0X7X^.A.E z G.XX",
"@X@X!.f.e ..l.y.Q.L Q / %.9 E V g.p.N.#.>.@.$.+ > = + L.H.:XQ.X X X o I _ ) ) W.L U y.8 P _ s.8.S ).[.-X#X/ ! ]._ F.@Xg <.F.Q *X",
"S.~. X^.P.<.&.1.P a.i V #.2 t e 6.x.M.i.`.n - q.+ , &.F.:XXX^.y.! %XS.` ` S._ Q.s.*.9.M N W L L $ S P Q.Q._ $X;X}.x.9.y , e.n D."
};
