/* XPM */
static const char *up2[] = {
/* columns rows colors chars-per-pixel */
"64 64 234 2 ",
"   c #090A14",
".  c #241527",
"X  c #341C27",
"o  c #4D2B32",
"O  c #394820",
"+  c #4B5728",
"@  c #53592D",
"#  c #5B5C32",
"$  c #595C35",
"%  c #514D32",
"&  c #625D3D",
"*  c #6C5C3B",
"=  c #695937",
"-  c #765D3A",
";  c #4E6529",
":  c #59692C",
">  c #5B722A",
",  c #596633",
"<  c #5C6C33",
"1  c #576837",
"2  c #5B7439",
"3  c #66792D",
"4  c #626334",
"5  c #6A6B35",
"6  c #6B643C",
"7  c #656D3D",
"8  c #6B6D3C",
"9  c #656639",
"0  c #74693C",
"q  c #657C35",
"w  c #6D7B36",
"e  c #62733C",
"r  c #6B743C",
"t  c #697738",
"y  c #73733D",
"u  c #717B39",
"i  c #7B7A3B",
"p  c #646E2E",
"a  c #7A4841",
"s  c #6D5D43",
"d  c #5D6F42",
"f  c #6D6545",
"g  c #6C6D42",
"h  c #676A44",
"j  c #7A6444",
"k  c #726C42",
"l  c #7A6B45",
"z  c #7B644B",
"x  c #7D6C4B",
"c  c #746849",
"v  c #657440",
"b  c #6C7343",
"n  c #6C7B43",
"m  c #687A48",
"M  c #737443",
"N  c #7B7444",
"B  c #737C44",
"V  c #7C7B44",
"C  c #73744A",
"Z  c #7C744C",
"A  c #747B4B",
"S  c #7C7C4B",
"D  c #7B6D51",
"F  c #7D7C52",
"G  c #7A7854",
"H  c #826A49",
"J  c #827B45",
"K  c #83744C",
"L  c #837B4D",
"P  c #8B7C4C",
"I  c #847446",
"U  c #927A4E",
"Y  c #846C52",
"T  c #896E53",
"R  c #826750",
"E  c #847353",
"W  c #8C7554",
"Q  c #847C53",
"!  c #8B7C55",
"~  c #8B755B",
"^  c #857C5B",
"/  c #8C7B5B",
"(  c #847459",
")  c #927C55",
"_  c #92765A",
"`  c #937C5C",
"'  c #997D5E",
"]  c #987756",
"[  c #AD7757",
"{  c #8C7D61",
"}  c #947D62",
"|  c #9A7E62",
" . c #977A67",
".. c #A37F65",
"X. c #62872D",
"o. c #7A843C",
"O. c #76863A",
"+. c #718A3C",
"@. c #6D8347",
"#. c #748343",
"$. c #7D8443",
"%. c #7C8A44",
"&. c #75844C",
"*. c #7B824B",
"=. c #7B8A4C",
"-. c #738B44",
";. c #7E8352",
":. c #798755",
">. c #7A9251",
",. c #83993B",
"<. c #828A3E",
"1. c #848345",
"2. c #83834C",
"3. c #8A834C",
"4. c #848A4B",
"5. c #8C8C4B",
"6. c #868646",
"7. c #93884E",
"8. c #879349",
"9. c #95954D",
"0. c #848353",
"q. c #8C8353",
"w. c #838B54",
"e. c #8B8B54",
"r. c #84835A",
"t. c #8C845A",
"y. c #858B5A",
"u. c #8C8C5C",
"i. c #938454",
"p. c #9B8555",
"a. c #938B54",
"s. c #9A8C54",
"d. c #94845B",
"f. c #9A835D",
"g. c #948B5B",
"h. c #9A8B5D",
"j. c #8C9255",
"k. c #8C925B",
"l. c #859356",
"z. c #949354",
"x. c #9C9454",
"c. c #94925D",
"v. c #9C925C",
"b. c #989A5A",
"n. c #A3845D",
"m. c #A28D5B",
"M. c #A4895A",
"N. c #A1935D",
"B. c #A39C5D",
"V. c #A59559",
"C. c #A4964E",
"Z. c #9AA45B",
"A. c #A0A35D",
"S. c #8D8C63",
"D. c #888762",
"F. c #958362",
"G. c #9B8463",
"H. c #958A62",
"J. c #9D8B63",
"K. c #96836A",
"L. c #9C856A",
"P. c #9E8B6B",
"I. c #978A69",
"U. c #879362",
"Y. c #959263",
"T. c #9C9363",
"R. c #9C9965",
"E. c #9D936B",
"W. c #9B9A6B",
"Q. c #969668",
"!. c #9E8771",
"~. c #9F9476",
"^. c #A18665",
"/. c #A38B64",
"(. c #A98D65",
"). c #A2856B",
"_. c #A48C6B",
"`. c #AA8D6C",
"'. c #A88768",
"]. c #A39364",
"[. c #AA9465",
"{. c #A59A65",
"}. c #A5936B",
"|. c #AB936C",
" X c #A39A6C",
".X c #AC9A6C",
"XX c #A99A61",
"oX c #B2946D",
"OX c #B29A6D",
"+X c #B79B6C",
"@X c #A58D72",
"#X c #AA8D73",
"$X c #A98D78",
"%X c #A59373",
"&X c #AC9473",
"*X c #AD9B73",
"=X c #AD947A",
"-X c #AD9C7A",
";X c #A59B76",
":X c #B29574",
">X c #B39B74",
",X c #BA9C74",
"<X c #B2957B",
"1X c #B49B7B",
"2X c #BA9C7C",
"3X c #B9977E",
"4X c #9BA270",
"5X c #ACA26D",
"6X c #A6A469",
"7X c #B3A16C",
"8X c #ACA375",
"9X c #B5A274",
"0X c #BBA375",
"qX c #B4A17B",
"wX c #BAA37B",
"eX c #BAAA79",
"rX c #A5B26C",
"tX c #C89B73",
"yX c #C2A47D",
"uX c #C4A87A",
"iX c #B49B82",
"pX c #BA9D83",
"aX c #AD9E84",
"sX c #AAA381",
"dX c #BCA584",
"fX c #BBA883",
"gX c #C2A483",
"hX c #C4AB84",
"jX c #C6A888",
"kX c #C7B189",
"lX c #CDB193",
"zX c #D3B697",
"xX c #D1B390",
"cX c #EEC790",
/* pixels */
"f F.).=X#Xc.l.e.V 9 y y %.3 > > r .XP V Z y $.8 ! e.V L D D G.|.J.P.@Xf.W /./ /.n.` r.2.e c.Q K 0.# r A ) _.].|.d..XB u 8 @ , 9 ",
"A d.%X<X_.t.S r # : w 3 #.w <.+.rXV u J 2.8 V : 8 8 Z K J.].|.} G._ j H K K ! G.f.K M # % h.K S q.y.b 2.}._..X_.q.Z M t y p + ; ",
"t.=X<X#Xd.T.{.5.8.b.u > 3 O.8.N k.Z.X.O.y y p 5 M < u.F._.<X^.9 ` W R. X0.B &.K f.}.B M v q.2.K j n.N 2.q.OX*XJ.3.3.6 1.4 ! B 6.",
"L { P._.F.&XG.4.1.8.q 6.7 O.o.; q h.o.q.a.P o.5 [ [ # r.%XG Y q.) G.^.Z T.g.Z G.0 - 6 n B V OX].= * x.+.].d./.|.K J 5 j.: M y.u ",
"/ M ^ L.L.K.P.Q.T.e.8.w.t y     X X [ [ [ [ a [ [ [ [ [ f K.J.j W E j r.}./.L 6 *.L 4.*.y 3.0 6 @ y 3.3.t.) f.f.d.i.w 3.S 9 4 E ",
":X&X&X^.|.g.E  Xy.i.2.&.-.<       X o o a a [ a a [ [ a [ -X XY.q.g.u.u.|.=XS.&.m R.! L e.N ! g n 2 b 5Xf.P oX,X_.h.u 4 M 8 0.^ ",
"#X} G.c | /.8Xg.`._.1 M w.X . X X X o o a a a a a a o [ a [ [ G E d. X%XiXG.E.6XR.8 r.r.C R., n w.*.n 1 7 ].[.wX=X[.a.3.q e k t.",
"t.G Y 0.` |.}._.=XP.>.g.X . . X X X o o a a . . . a X o [ [ [ [ [ ].G.}.1X`.G.1X/ F P.Q m t. X.X9X/.y.;.;././.>X%X` /.3.> 8 E.M ",
"F.*X) l K /.e.f | h , 0.X . X X X X o o a a a a a a X o [ [ a a [ [ S ) iX@XT } C t.' ^ y.H.& E ~ >X}.^ / %X`./.` ~ &Xi.4 e.S.Q.",
"1XW.Y.h.t.x L B + 1 k.a.X . . X X X o o o o o a a a a o a a a [ [ [ [ >X1XP.E.I.` H.} tXg.H.&.w.^ }._.E.%XL.`.`.f.W G.d./.d.W.fX",
"(.F.( W a.u.S =.q e q.XXX X X X X X o o o a a a a a a a a a [ [ [ [ [ [ L.^ &X>X^.' _ }.Q >XE.eX*X*XL.@XL.=XT _.G._.d.G./.H.I.%X",
"~ P.k x /.T.Y.J.u.; {.yX9XX X X X X o o a a a a a a a a a a [ [ [ [ [ [ t.F.x / .X}.~ ' &X@X_.yX].`.=X} Y L._ z G.&XR.*.e.>XkXH.",
"/ t.c.z.].|.=XJ.r y.@X1XdXlXiXX X X X o o o a a a a a a a a a [ a [ [ [ [ G.R.5XK.g.L.L.oX/.1X_.h.v.! !.H.K.} P.0.].J.l l @X .(.",
"pXL.x N 0 h.-X*Xc.-XgXxX=XpXiX%XX X X o o o a a a a a a a a a a a [ [ [ [ [ 5Xh.Q 5.a.H.f.f._.J.B.eXQ Q.*X.X Xc.Y.g.V m.:X:XG...",
"T h.q.y v.}.=X%XF.} @X).L.zXqXQ.u.b X X o o o a a a a a a a a a [ [ [ [ [ [ [ >X[.2..X%Xz.5.5.<.uXuXJ.a.].i #.x.a.J.}..Xj R ' _ ",
"^.^.L g.:XwX#XP.G.$X=XY./ z f & y.j.R.X X o a a a a a a a a a a a [ a a [ [ [ [ v.=X:X<XOXb.{.eX6X3.[..X0XN.A.s.x.g.} G.H Z W ` ",
"G.J.F.#X%X} { L._.@X$XL.Q e 1 w.0.S J.4XX X o o o o a a a a a a a a a [ [ [ [ [ [.&X].qX].Z.N.hX9.a.|.<X{.].9.}.v.h.h.J g.0.r.Y ",
"q.g.J.| _.` D ^ !.} } >X0.&.m ;.Z K Y E } X o o o a a a a a a a a a a [ [ [ [ [ [ .XqX>X0X>X8Xv.V.N.s.d.7.s.,X2Xa.,.u wXOXP Q A ",
"6.XX7. XwXW b r.=X/ E ^ u.b 2 &.F y.y.t.g X X o o o o o a a a a a a [ a a a [ [ [ [ 1X3XkXqXzX.Xq.A.i 2.5.P `.:Xq.w 6.a.s.V g.j.",
"p v.]. Xt.Q ;.! ` ].P.F K 6 t.Q.%Xu.r.g.B o X o o o a a a a a a a a a a a [ [ [ [ [ 3XdX`.>XlXwX9X|.s.P x.a.d.F.7.X.z.h.P.aXL 5 ",
"9.].{.].5.4.B 2.g.J.OX_./.. . K.jX&X&XY.. o o o o o a a a a a a a a a a [ [ [ [ [ [ #XgX! ].&X1XwX].x.h.I J h.J.{.z.h.N g.: > : ",
"N d.].g.e.c.V 5.5./.V x d.. . . dX<X. . . o o o o o o a a a a a a a a a a a a [ [ [ [ &X>XzX2X%X|.g.5.P V.3.m.P p..Xf.3.5 i O.v.",
"]..Xi.XX{.L $.%.6.5.0 5 Q . . . . . . o o o o o o o a a a a a a a a a a a a [ [ [ [ [ L./.>XL.F d.J.].[.OX(.oX5X].V y L N N i 1.",
"wX`.OX! Q J N N P w M 6.6.T.. . . X X o o o o o o a a a a a a a a a a a a [ [ [ a [ [ qXyX0XJ.r.A H.v.m._.0X|.kXOX}.e.L i.T.1.g.",
":X(.OXg.r M r @ # 8 V i.J.%X|.. . X X X o o o o a o a a a a a a a a a a a a a a a [ [ [ ,XyXqXU.A y.c.].F.`.wXOX>X2X|._.f.h.a.h.",
">X|.|.g.M 6 , b < 8 3.N 3. XJ.].. . . X X o o a a a a a a a a a a a a a a a a a a a [ [ wXR.hXu.W.C y.}.r.f.wXwXlX@X|.! G.` &X|.",
"G.hX*XW.t.F , , 0.I 7.J J.%X.X9.Z.. . . X X o o a o o a a a a a a a a a a a a a a a [ a [ =XfXc.c.U.y.U.j.g.[.>X<X/.|.>X_.=X>X/.",
"f.|.1XA A g B v & 5 6 F.1X<X>X5Xb..XjXX X X o o o o a a a a a a a a a a a a a a a [ [ a [ [ yXwX&XP.}.Q.@.;.}.>X_.|.<X,X>X`.>X,X",
"Q g.qX:.&.r.7 4 8 @ + Q v.*X|.9X9.g.uXx.v.X X o o o a a a a a a a a a a a a a a a [ a a [ [ jX#XL.}.Q H.d 0.K.u./.hX<XG.&X`.=Xd.",
"K t.~.-X:.b 2 e.3.%.j.6X*X&X9XyX*XeXx.s.[.OXX X o a a o o a a a a a a a a a a o o a a [ [ [ #XiX<X=X%X.Xm :.S.%X*X>X|.G.:X@XL.K ",
"Y.-X! W.&.:.>.d.B.3.5Xg.<X&XjXeXjXzX}.d.|.h.X X o o o o o a a a o a o o a a a a o o a a a [ pX_.:X@XF.jX>XE.D.#X%XF.G.P.1X=XS.7 ",
"|._.f.%Xy.S.-Xg.0X].h._.#X2X2X&XwXlXwX9X.XJ.9XX X o o o o a o o o a o a a o o a o o a a [ [ 1X<XJ.-Xt.^ |.1XsX%X*X^.|.1XK.%X}.u.",
"&X9X%XsX^ 8X-XhX>X*XG.`.).2X:Xa..X`.1XuXJ.C ~ X X X X o a a o o o o o a o o o o o o o o [ [ [ d.f.>X>X` T G.=X%XW / E >X>XhXgX`.",
"_.P.fX}.8XeXdX/.[.2XL.#XL.2X].*XlX2X1X=X2.b x X X X o o o o o o o o o o o o o o o o o o o [ [ =XZ J._.d.P.G.=X-Xf.y 2./.yXuXxX1X",
"T..XfXqX}.}.<XE.*XdX#X@X#X^._.L.hX#Xr / e.t O $ X X X X X o o o o a o o o o o o o o o o [ [ [ _.0.! Q /.Y ' `.`.eXr.q.g.uXcXcX{.",
"|.;X XJ.1XH._.%X=X' J.2.f J.}.,X.X`.I.Q e.w.< 2.X X X X o o a o a a o a a o a a o o o o o o [ >XG.l l F.&XF.1X&Xh.n.|._.1.wXxXV.",
"/ ^ 1X*X*Xg.H.H._.i.|.g.h F.hXyX0X;Xy.&.7 r t x.X X o o o a a o o a a a o o a a o o o o o o o o qXb.g.Z F.} =XdX.X>X,XwX XhXuXyX",
"J.-X;Xd.}.dXwXK v.3.4 Z 0.&XyX,XwXhX Xu.k.u.P.X X o o o a a a a o a a a a a a a o o o o o o o o G.W f.f.^._._.}.oXG./.&X1XdX|._.",
"hX>XL.fXOXfXP.OXV 4.0 g.5X>X,X.XW.fX}.F.K.1XjXX X o o a a a a a a a a a a a a a o a a o o o o o W G.q.l `.&X^.:X,X< u.qX1X*X+X>X",
"fXeXOX|.7X/.N L v.3.8 8X1.%.C.9._.&XL.).L.#XjXX X X o o o a a a a a a a a a a a a a a o o o o o o =XV U E ' F.Z g.;.L qX_.&XfX>X",
".XdXhX|.{.g.1.x..X1.H.h.i Z.a.J.h.W L.$XiXI.F.X X o o o o a a a a a a a a o a a a a a a o o o o o %X' ` ) ) }.d.].u.g..X/./././.",
"5XdX|..X*X].>Xp.:Xm.5XeX[.i.B.|.N.z.} ~ $XP.Q X o o a a a a a a o o a a o o a a a o a a o o o o o H ` ` ^.` G.f.d.d.h.(._./.>XT.",
"T.>X/.0X[.a.K p.].N.:X2XB.x.+XjX].2.Q ~ >XQ C X o a a a o a a o o a a a o a a a o o a a a o o o o d.Q d._.L.G.J.K Z # n.) W J.u.",
"J ! f.uXwX3.h.d.N./.v.h.v.7.|.`.3.XXc.D E.Y.X X o o o o o a a o a a a a a a a a o a a o a a o o o L S M t.|.f.q.V q.7 d.].&.b I ",
"J h L *X].g.M g.B.8.g.9X7Xa.i.z.L P.c.A Z X X X X o o o a a a a a a a a a a a a a a a o a a o o o }.w.&.N W [.E q.M y f.t.L r L ",
"T.m 0.C h.z.a.i.q.e.P.L _.. . g.J._.s u.X X X o o o o o o a a a a a a a a o a a a a a a o a o o o ^.! H.P h.! y.N B M ! ` r.B u.",
"T.R.A w.J.].kX|.F.g.T. X( . . . <Xg.& . X X o o o o o o a a a a a o a a a o a a o a a a o o o o o =X0.k 0 H K *.4 % c.L q.k A f.",
">XhX;X/ F.p.G.].t.` _.*XN.. . . . . . . X o o X X o o a a a o o o a a a o o a a o o o a o o o o ).H.l.e *.0 6 7 e F m.N N g A ].",
"[.*X&XF.f./.F.|.s  .| >X<X. . . . X X X X X X X o o o a a o o o a a a o o a a a o o o a o o o o _ qX6Xk.k.c.*.#.A 4.S &.e.q.@ 9 ",
") J.d.! J.wX].J.gXG.W ' 2XJ.. . . . . X X X X o o o o a o o o o a a o o o a a a o o o o o o o L.Y &X%XM K K Z M M i.+XH j r.w.n ",
"J.f.J.}.>Xf.9X,X^.l * q.7X>XeX. . . . . X X X X X o o o o X o o o o o o o a a o a o o o o o ^ P.h.l f A T.r.H.;.a.- g.* H ] 6 *.",
"J.|.|..X|.|.G.1X' z.3 5Xb.1X>X].gX. . . . . . X X X X X X X o o o o o o o a o o o o o o o o G %X_.J.u.' P.F v H.6 $ 6 $ N a.n g.",
"OX|.*X_.G.v.! >X! {.,.e.5Xq.e..X^.).<X| `.|.. X X X X X X o o o o o o o o o o o o o o o o b F _.`.'._.` _ l.w.R.B e n < 2.6.-.XX",
"G.*XF.d.#X@XH.f.o.T.7XgXyXL -XgX).$Xs ' *X,XwX0XX X X X o X X X o o o o o o o o o o o o y.A ~ | n.).T ^.tXu.H.E J.8Xe.e A a.g.i.",
"/.G.&X~ $XF.R.M ` I.2X2X:X{.2XgX,X! l.c &XuXqXE.1XwXX X X X X X o o X o o o o o o o o % C r.E &XG.!.~ _.Q t.0.b D _.].;.n ! K p.",
"n.G./ $X`.*XH.q c $.N .Xd.N :XoXG.k g r.jXwX/.' oXjX=X=XX X X o o X X o o o o o o C & ;.F h 1 z ~ ( L.|.}.1XW.k.E %X*Xu.b 7 h.[.",
"oX&Xf.&X1X_.1.#.g.L 3.f.q t V 3.2.t 6 R._.E.'.).<XpX<X=X=XX X X X X o o o o o d.Y $ m F E.g.C # Y ' F.>X).^.wX>X X|.|.D.F d.>X[.",
"1X_.|._.:XJ.].c._.F.;.A : 1 A 3.e =.0.D.H.P.} ] pX<X$X_.&X` X X X o o o o *X&X}.d.g.r.H.*X`.J.k c z f &X_.&X|.J.%X_.}.%XF.@XL.2X",
"%XG.&X_.&XP.b. Xq.c y.=.w.:.a.a.#.N.i H.K.P.f.oXxXpX=X3XF.f.! X X X o F.=XwX}.f.: t.*X/././.eX;.0.Z F d.H.g.`.}.&X#X@X@XL.`.(./.",
"E ` _.`.1Xk t T.L 0.*XF.g.#.+.c.@.3.9.*X%X_ d.Q P.~.%X` }.%Xk.Z * h./ L.%X/.>X|.k.n OX|./.f./ K N k d y.M d./.f.J.K.~ } @X} `.L.",
"W L.&X]._.1.! N 3.a.a.N.J 4 B b.w.a.3.7.| Z 0.b.v W._ W L.=Xq.d.2.d.i.^.=X^.} F.T.g.v.M.] Q A &.0.t.:.w.&.f.f.f.J.%XF.} ` ` `.` ",
"' G.&Xq.B O.3.i.z.|.t.} Q r L 7.v..X5.6.qX* < g.v Z x ! P.<X}.&XT.f.H W ' ' J.g.].d.k g h.T.q.8 A }.T..X8XI.G.|.wX9X_.F.W z L.@X",
"%X%X/.h.w O.x.i./.K Q / =.8 E V j.s.V.%.6.$.*.+ , ; + Y.P.<X_._.} ` *.P ` ) ) ^.K I i.7 L ` f.0.S /.|.>X&X/ ! }.` G.%Xf 2.J.Q ;X",
"G.).oX_.T.2.#.2.L d.y V %.p r w 8.v.B.a.{.n : e.+ < #.G.<X@X_.i.! =XG.' ' G.` /.f.;.q.M N W K K $ S L /./.` *X,X.Xv.q.u < t.n H."
};
