/* XPM */
static const char *wall[] = {
/* columns rows colors chars-per-pixel */
"64 64 43 1 ",
"  c #ACC0C1",
". c #A7B9BA",
"X c #A4B5B6",
"o c #A3B4B4",
"O c #A9BDBE",
"+ c #AABEBF",
"@ c #A1B1B1",
"# c #A3B3B4",
"$ c #AABDBE",
"% c #A2B3B3",
"& c #ADC1C2",
"* c #AEC1C2",
"= c #B0C3C4",
"- c #BACBCC",
"; c #BBCBCC",
": c #B7C8C9",
"> c #B5C7C8",
", c #A2B3B4",
"< c #A6B8B9",
"1 c #ABBFC0",
"2 c #B3C5C6",
"3 c #BACACB",
"4 c #B1C4C5",
"5 c #B2C4C5",
"6 c #AFC2C3",
"7 c #A5B6B6",
"8 c #A5B7B8",
"9 c #ABBEBF",
"0 c #A7BABB",
"q c #A5B6B7",
"w c #A8BBBC",
"e c #B2C5C6",
"r c #A8BABB",
"t c #B4C6C7",
"y c #B6C7C8",
"u c #B1C3C4",
"i c #B8C8C9",
"p c #B9C9CA",
"a c #A9BCBD",
"s c #A5B7B7",
"d c #A7BABA",
"f c #A9BBBC",
"g c #A6B8B8",
/* pixels */
"                                                                ",
"                                                                ",
"                                                                ",
"                                                                ",
"                                                                ",
"                                                                ",
"                                                                ",
"                      .XoooooooXO                               ",
"                     +@@@@@@@@@@#                               ",
"                     $@@@@@@@@@@%                               ",
"       &**********   +@@@@@@@@@@%                               ",
"     =-;;;;;;;;;;;;: +@@@@@@@@@@%                               ",
"     >;;;;;;;;;;;;;;&+@@@@@@@@@@%                               ",
"     >;;;;;;;;;;;;;;&+@@@@@@@@@@%                               ",
"     >;;;;;;;;;;;;;;&+@@@@@@@@@@%                               ",
"     >;;;;;;;;;;;;;;&+@@@@@@@@@@%                               ",
"     >;;;;;;;;;;;;;;&+@@@@@@@@@@%                               ",
"     >;;;;;;;;;;;;;;& ,@@@@@@@@@<                               ",
"     >;;;;;;;;;;;;;;& 1$$$$$$$$$                                ",
"     >;;;;;;;;;;;;;;&                                           ",
"     >;;;;;;;;;;;;;;&                                           ",
"     >;;;;;;;;;;;;;;&                                           ",
"     >;;;;;;;;;;;;;;&                                           ",
"     >;;;;;;;;;;;;;;&                                           ",
"     2;;;;;;;;;;;;;3                                            ",
"      45555555555556                                            ",
"                                                                ",
"               <7XXXXX89                                        ",
"              0@@@@@@@@q                                        ",
"              .@@@@@@@@X                                        ",
"              .@@@@@@@@X                                        ",
"              .@@@@@@@@X                                        ",
"              .@@@@@@@@X                                        ",
"              .@@@@@@@@X                                        ",
"              .@@@@@@@@X                        &======&        ",
"              w@@@@@@@@8                       e;;;;;;;;4       ",
"               wrrrrrrr1                       >;;;;;;;;t       ",
"                                               >;;;;;;;;t       ",
"                                     tyyyyyyt& >;;;;;;;;t       ",
"                                    u;;;;;;;;2 >;;;;;;;;t       ",
"                                    2;;;;;;;;y >;;;;;;;;t       ",
"                                    2;;;;;;;;y >;;;;;;;;t       ",
"                                    2;;;;;;;;y t;;;;;;;;2       ",
"                                    2;;;;;;;;y *ippppppi*       ",
"                                    2;;;;;;;;y                  ",
"                                    2;;;;;;;;y  1awwwwwwa1      ",
"                                    u;;;;;;;;t r@@@@@@@@@@a     ",
"                                     45555555& s@@@@@@@@@@d     ",
"                                               s@@@@@@@@@@r     ",
"                                               s@@@@@@@@@@r     ",
"                                               s@@@@@@@@@@r     ",
"                                               s@@@@@@@@@@r     ",
"                                               s@@@@@@@@@@r     ",
"                                               s@@@@@@@@@@r     ",
"                                               s@@@@@@@@@@r     ",
"                                               .@@@@@@@@@@f     ",
"                                                .ggggggggd      ",
"                                                                ",
"                                                                ",
"                                                                ",
"                                                                ",
"                                                                ",
"                                                                ",
"                                                                "
};
