/* XPM */
static const char *water[] = {
/* columns rows colors chars-per-pixel */
"64 64 247 2 ",
"   c #1B0403",
".  c #130302",
"X  c #090101",
"o  c #240504",
"O  c #2B0504",
"+  c #240806",
"@  c #2C0807",
"#  c #2C0B09",
"$  c #240A08",
"%  c #330504",
"&  c #3B0605",
"*  c #340907",
"=  c #3C0907",
"-  c #350B09",
";  c #3B0B09",
":  c #3B110C",
">  c #381810",
",  c #430505",
"<  c #4B0605",
"1  c #440906",
"2  c #4B0906",
"3  c #430C0A",
"4  c #4B0C0A",
"5  c #540605",
"6  c #5C0605",
"7  c #530906",
"8  c #5B0907",
"9  c #540C0A",
"0  c #5C0C0A",
"q  c #4B110D",
"w  c #42120E",
"e  c #51110D",
"r  c #5B110E",
"t  c #481611",
"y  c #581713",
"u  c #640605",
"i  c #6B0605",
"p  c #650906",
"a  c #6B0906",
"s  c #640C0A",
"d  c #6B0D0A",
"f  c #730906",
"g  c #7C0A07",
"h  c #740C0A",
"j  c #7B0D0A",
"k  c #780605",
"l  c #64110E",
"z  c #6C110E",
"x  c #7D110D",
"c  c #75110E",
"v  c #681813",
"b  c #761512",
"n  c #52261C",
"m  c #68231C",
"M  c #830B07",
"N  c #8B0A07",
"B  c #830C0A",
"V  c #8B0D0A",
"C  c #840705",
"Z  c #940D0A",
"A  c #9B0E0A",
"S  c #970905",
"D  c #83110D",
"F  c #8B110D",
"G  c #93110D",
"H  c #9C110D",
"J  c #851311",
"K  c #8C1511",
"L  c #861A15",
"P  c #941411",
"I  c #9B1511",
"U  c #9D1914",
"Y  c #971D16",
"T  c #A30E0A",
"R  c #AC0E0A",
"E  c #A80B06",
"W  c #B40E09",
"Q  c #BA0E09",
"!  c #B70C06",
"~  c #A4120D",
"^  c #AB130D",
"/  c #A61007",
"(  c #B3140D",
")  c #BC130D",
"_  c #BA170C",
"`  c #A51511",
"'  c #AB1512",
"]  c #A41914",
"[  c #AC1913",
"{  c #AB1D18",
"}  c #B41612",
"|  c #BC1612",
" . c #B31A14",
".. c #BC1A14",
"X. c #BB1E19",
"o. c #B31D19",
"O. c #9A211A",
"+. c #AD231B",
"@. c #A52119",
"#. c #B4221A",
"$. c #BB221A",
"%. c #B7251B",
"&. c #B02721",
"*. c #CA0E09",
"=. c #C4140D",
"-. c #CA130B",
";. c #C3190E",
":. c #CB190E",
">. c #C51406",
",. c #D41B0E",
"<. c #DB1B0D",
"1. c #D3150B",
"2. c #C31612",
"3. c #C41B14",
"4. c #CB1B13",
"5. c #C41E19",
"6. c #CB1E19",
"7. c #CC1710",
"8. c #D31C13",
"9. c #DB1E13",
"0. c #D31C17",
"q. c #E31C0E",
"w. c #E01E15",
"e. c #DA240C",
"r. c #C32116",
"t. c #CD2216",
"y. c #C4231B",
"u. c #CC241B",
"i. c #CB2A1B",
"p. c #D32216",
"a. c #DB2214",
"s. c #D3231B",
"d. c #DB241B",
"f. c #D52A1E",
"g. c #DC2A1C",
"h. c #DC2C13",
"j. c #DD3518",
"k. c #D02D0D",
"l. c #E8270E",
"z. c #E8380D",
"x. c #E32314",
"c. c #E42B14",
"v. c #EC2A14",
"b. c #E3261A",
"n. c #E42B1C",
"m. c #EB2D1B",
"M. c #EA2515",
"N. c #F22D16",
"B. c #E5321D",
"V. c #EC331C",
"C. c #E93817",
"Z. c #F1331C",
"A. c #F33B1C",
"S. c #F43715",
"D. c #F2300C",
"F. c #CA2A22",
"G. c #D42B22",
"H. c #DC2B21",
"J. c #DA2521",
"K. c #D93325",
"L. c #C73725",
"P. c #E42C22",
"I. c #EA2E23",
"U. c #E62720",
"Y. c #E43324",
"T. c #EC3423",
"R. c #EC3A23",
"E. c #ED3D2B",
"W. c #E63827",
"Q. c #F23521",
"!. c #F33C22",
"~. c #F33B2A",
"^. c #F73F31",
"/. c #EC491D",
"(. c #F4441C",
"). c #F44B1D",
"_. c #F74815",
"`. c #F9561A",
"'. c #F24F15",
"]. c #FA651C",
"[. c #F9751C",
"{. c #DE452E",
"}. c #EB4323",
"|. c #EB4928",
" X c #F44423",
".X c #F44B24",
"XX c #F4432B",
"oX c #F54B2A",
"OX c #F84928",
"+X c #ED5827",
"@X c #FB5C23",
"#X c #F65C2D",
"$X c #F75628",
"%X c #E94832",
"&X c #F75934",
"*X c #F25033",
"=X c #FB6C2B",
"-X c #F86625",
";X c #FC7524",
":X c #FB7B2D",
">X c #FB7527",
",X c #F76635",
"<X c #FB7736",
"1X c #ED6C3F",
"2X c #D44110",
"3X c #FB7843",
"4X c #FA6741",
"5X c #FD921D",
"6X c #FC8224",
"7X c #FC8B2B",
"8X c #FB8629",
"9X c #FD922C",
"0X c #FD982B",
"qX c #FB843C",
"wX c #FB8835",
"eX c #FC9837",
"rX c #FDA434",
"tX c #FDAB34",
"yX c #FDAB3C",
"uX c #FCA23C",
"iX c #FDBD3D",
"pX c #FDB43A",
"aX c #FDAB2A",
"sX c #FDC63A",
"dX c #FB8745",
"fX c #FA9648",
"gX c #FDA846",
"hX c #FDB845",
"jX c #FCA95B",
"kX c #FCB758",
"lX c #FDBE66",
"zX c #FDC749",
"xX c #FDD848",
"cX c #FDC656",
"vX c #FDDB54",
"bX c #FDD659",
"nX c #FDE558",
"mX c #FDE24C",
"MX c #FDD967",
"NX c #FDDA77",
"BX c #FDC971",
"VX c #FDE866",
"CX c #FEF167",
"ZX c #FEE777",
"AX c #FEF378",
"SX c #FEF785",
"DX c #FEFA94",
/* pixels */
"3.6.A h H a ..| T } ) S j.rXbXnXzXgX%Xy.` 9 + , & O ' +X`.9XvXvXMXtXhXa.g & O o f ^ 6.6.3.#.P 4.5.} H | ^ 2.3.| T 5 * % 9 % ' 2.",
"J.P 6.4.H 5 j } 3.s.~.Z.#XgXMXNXjX%X` e ; G l 9   d 0.*XlXZXvXVXxXVXcXg.Z f a , O 7 A ).v.E G [ K A T ( V 3.d.oXi.j s 4 c & P 0.",
"' I 4.^ ( 5 , & G | 4.I.S.8XgX3XG.~ < 4 9 0 h F 4 < G N L 1XZXbXAXAXkXa.u.) ` f u W B.6XgXW.#.` p . % - % h G.oXoX3.0 6 V O p 2.",
"` V J.6...g O % & p f p. XdXY.L   1 < B 4 <   p o % p 8 a i.ZXvXvXbXqXh.9.g.Q ( '.`.:XgX$Xs.r.P 0 % 7 o ; h A E.T.5   % a 9 d  .",
"f D < } ` B 1 F ,   O H ^.P.o.8 h d h V g   o 1 l v B ) ( p.&XZXDXjXm.8.,.-.<._.tXkXdX%XT.} Z ~ B o p 9 < M H t.a.T 5   O & & G ",
"g 5 ; % , & 6 A < o O a p 7 < < h K I f < + 4 d h h I ( ;.~ p.gXjX%X:.~ E x.N.;XbX1XG 7 1 < 7 Z A 7   4 O & , y.m.P.2.g < O   p ",
"o o < 0 & Z 9.0.M j * 1 9 x h r F B G A 6 8 F ] } o...~ A ~ :.P.K.G 5 u k +X[.nXvXc.4.% O a 7 M B 9 1 4 9 3 6 T 9.l.0.2.( 6 i s ",
"< % p p | 4.d.d.J.H 8 4 & B H a G B B f 1 Z ( } } 6.' } ~ ~ ) W A ( i i W 8XzXAXCX;XE a @ O O M x & O 7 = % A -.).#X8.;.x.#X*X` ",
"5 O % , F ` s.0.] h ' % o Z ..g % 6 * 8 % p.g.^ ' o.' ' [ } d.V.S.h.b.7.R. XNXVXSXzXh.a 0 7 h ( F o < 4 = A 6.8.!.$XB.) Y.~.d. .",
"% % O o O & O H 6., F V % P X.~ 8 , % O 1 y.U B a N H N [ ^ } s.<X.X0.C./.M.<XbXVXSX8XT < 9 5 Z ) , 5 , < ) m.m.Q.H.s.N 3.5.[ G ",
"P o   . . o . ; h I K j 8 | d O 0 - # V ` f 2 = 3 2 8 h B < < G | $X,.C.&X:.3.zXxXVXyXc.A 4 a 7.s.) E R 2.x. X;.s.Q f 7 u 8 9 G ",
"' O < O . . & l p d 9 % O u 5 ,   < V ..G...f < = @ < % ; + & H s.W.Y.P.^ ~ a.qXAXCXrXD._ f k ..4.-.x.A..X$XN.) ~ a.7.8 0 ` ..6.",
"s < 7 o % & j x B h ^ u , 5 % N V 7.) u.| B h j 0 8 #.8 v 4 L 1 < 2.2.a < ;.5.Z.kXNXtXsX].z.A.n.1.c.#XR.(.-X,Xd.,.%Xu. .F ~ ^ ~ ",
"j V h ; d j 5 p p j W T N Q e.@X|.~ | ( 2.V a < r l ` d z 1 < % & < 8 9 s O 5 r.@X}.hXxXzXiX].v.$X&Xc.1.(.@XR.M.~.( g o o o < , ",
"Z B P 2 O G j 9 , p ( S.;X9XtXeX].E *.<.p. .=.C , 0 O d d v t 8 ^ f < 8 h O , ] a.q.eXmXVXhX,X}.i.) c.@X Xg.Q.XX[ 9   p i   < i ",
"} +.] o.V ~ [ f.d.4.W..XrX0X7XsXuXS.A.B...G y. X| < w 3 7 4 6 o. .K M N p < ! S.7X+X+XSXVXgX X`.C._.=X>Xx.,.3.| s 1 6 V  .p * V ",
"- V  .5.Z j } P 4.p.$.B.:XrXpXAXwXR.#Xn.2.N ..W.P.9 * $ : 4 ~ G G ~ ;.m.H a T.-X0X).'.iXbX$Xl.).<XeX=X&Xb.^ a = O & 6 j u & s % ",
"& 8 5.) 3.A G o.H H ' | !.8XCXbXzX`.c.:.^ s B  .p ; # 4 ; c 4.6.u.8.1.l.'.2XQ |.+X'.sXVXVXhX9X_.<.L.+.H k M d & o = O * % 0 O % ",
"  % a K.^ B f ) p.d.p.3.V.-XhXrXzXsX+XA a , 7 f P w 8 h * s ....t.b.A.;X6XtX[._.6XVXvXCXbXrX>XdX#X4.Z 0 G | [ } h , 3 , < 4 o . ",
"h % B d.6...6 O 9 a s.Q m.!.:X>XwXgX-Xr.4.p e v & ; - o h D I d.d.R.$X7XrXgXyXpXiXrXiXrXzXwX.X8.s.B d   o ^ 5.Z N x 9 5 J 9 = 4 ",
"P I R b.s.E.^ f 1 9 s.Z.m.c.Q.!.V.9X-X8.x 9 d 4 r * b ~ } a ~ d.m.m._.yXhXiXiXiX;X`.rXxXpX(.m.p.6.( 8 i & | } R 0.` ~ X.0 o w & ",
"j N 8.8.u.6.( I % ; g b.m.^ ^ e.V.9XwX| 6 s 5 4 q q h ] ~ 8.;.^ 7.z.0XtXzXxXnX5X:X;XtXVXkXj.^ ;.V 5 O V +.8 g d.d.F | $.u.p - p ",
"[ | m.8.4.g 5 M < 7 6.b.!.,.Q n.;XhX].( = = - y q v j F ~ x.M.R ( ;XhXsXxXAXVXrX6X].8XwX.X;.f 8 5 # 8 y.< 5 ( G.d.u.I 4.H.V u P ",
"H F.T.m.T.i * 4 O 8 a.XX.XC.!.<.eXfXwXB.p * 4 4 4 ; p Z h.A.T.).A.}.`.nXSXDXSXhXzX<XfXV.M.;.k , @ : , 5.B k } ..^ f.5.G ` P.Y...",
"D ..T.8.1.4 = ; h ] p.OX=Xj.W. XXX,X$Xt.& a & 4 2 k A x.`.;Xz.;XC.<.-XCXSXDXDXnXzX/.x.b.b.n.f j ; - a ..G Z 3.G.7.u.) f [ 4.H.G ",
"+.5.T.OX1.6 O q l Z ^ 3.!.,X+XC.m.@Xb.n.) ) ;.~ i R -.D.9XyXhX,X>XC.C.ZXMXBXNXMXzX|.}.) f.8.%., * ; p f 0 T p.d.4.=.w.T p A u.j ",
"2.p.4.P.T.Z O - v g ] t.n.m.=X=X}.&XY.OXb.T.8.<.!..X>X:X=X=X-Xb.V.T.=XMXNX&X4XkXqXp.8.n.( d.K...h % 4 ..J.5.t.^ =.m.^.f.y.2.u.| ",
"6.s ` H.[ ` i 5 p ^ 8.N M 4.,XdX&Xu.2.^ d.OXOX,X}.g.B.M.m.m.).4.e.c.n.dX%XG f $.r.M ^ =.-.G.f.p 5 ) k G f ^ )  ...6.f.f.y.J.5.5.",
"A O % % % a 8.p.R ( ' H s i ..[ } ^ i a ~ $X!.@X X;.4.8.c.A.>X<.,.c.Y.f.V 2 q 8 k f d ~ oXs.-.^ ) n.} U A 9.d.N 5 ~ ~ ~ Z U F.s.",
", o o o 0 ] 0.Z.m.-.4.g.m.u.^ A ....} M 8.$X`.|.d.M.c.S.S._.@Xa.T.Q.XX( % : : < o.~ 9 g 2.H.!.-.*.*.) S A T.s.5 O % o d & 2 O = ",
"% < 4 * p ( m.Z.Q.S.x.A.!.[ % o @ g ( [ [ I.3X#X{.v.=XdX<XtX#X X8.XXd.( 0 : e 3 8 p ~ Y ^ [ 4.!.-X X!.m. XT.^ j 7 8 @ = 9 , O O ",
"A B O r c ( Z./.a.T.9.V.m.) % @ v 0 B ( ~ Z ' f.g..X$Xr.b.>X+XR. Xf.} k ; 2 y t w p s. ... .8.A.OX#XXX!.N.n.H K l o 9 = B V ^ A ",
" .j & w a W ~.A.S.D.v.M.A.b.& * 4 5 , d 7 , 0 & V R.K.A ( %Xf.p.f.` h H 4 d $ + h | K.%X~ ^ | T.b.m.T.d.$Xp.H [ K s = = m ` X.J.",
"= 8 @ o f Q b..X].rX8X,X Xd.a % 0 M ] d 7 V [ j j ~ ..8 G y.#.3.7.a ; l r 1 s p Z | H [ 3.T 3.I.n.a.I.n.T.H.j d d d j F 4 P j J ",
"% % & F 5.C.(.8XtXyXhX!.B.2.$.N ] ' Z 3 c K j s V d.8 2 M ~ k W } u.P e 1 4 l w t d '  .6.b.u.| ;.7.2.d.E.n.( & & h J 0 j u < - ",
"L K j G T ;X-XyXqX:Xm.a.W.t.f.2...u.p e h U J X.s.2.5., 3 g 6.d.d.j 1 y v K P z - * d Z 5 ( 8.M N #.M ^ a.d.8 O < b D p 1     , ",
"T R Z F a.tXhXrX=X).*.3.f G ` F p & t w 4 l c c F F d & # p B $.y.p v v < F I s L 8 o.L * 5 P.u.u.i 8 ^ R F b * 6 O.9 ; o ; M Z ",
"T.m.T h i.3X,XkXgX:X].x.( p % t 1 , n q 9 V ' H s l u f < % Z E.I G 9 r d 3 4 F h s N k < k -.7.u.A i M ) I x = , , @ 9 - % 2.~.",
").).:.S Z ~ | R.#X<X:XV.C ] a - z h 3 % q Z 5.~ S W 5.( p f H ^ ] 1 - h L % ; 4 @ j | u.p.2.d.n.Y.H.0.Y.y.4 l O o o 0 0 0 j | C.",
",X=X.X9.:.-.( 2.B..X:X|.) f % 3 4 2 - G 5 j Z C.`._.8.Z A ^ H p F P 6 e z s t 9 3 D @.F H b.^. .d N | E.P.6.h s u 1 # 4 1 j ..{.",
"Y.<X.X`.A.) Z M 9.<.-Xp.S C O ; o 1 % j I { v.;XhX0Xf.7.*Xu.x J = g F 3 3 z y 4 P ] V A $.f...~ s h [ ^ 5.B Y G P s 1 3 ; % M ..",
"2.g.#XqXoX:.S k / _.@XB.W.6.% % % * 4 e ^ ~ u.<XgX<Xa.E.Y.p.K D + O + t ; r l q 7 J H | 5.[ 4 % = u S J 8 H , M ..j 0 ; u i ` | ",
"~ 2..XS.e.-.T >.6XrX<Xg._ ~ 8 T N 4 @ n < ^ a.XX,X.Xa.E.` @.L a s 9 & % * e + 3 4 8 5 T s.+.f * g 2.G.r.Z ~ A A T j j < < | P I ",
"F 0.E.=X>X1.z.aXwX#Xb.<.(.`.-.8.Q i & , g ( R.K.n.XXY.~ A 8 D F f ` 5.E u 8 4 1 = b F 4.} ~  .J 6.7.7.) c.) ^ M.S.:.) H d 8 2 < ",
"L 3.f.XXgX7X@XbXrX_.f.V.-XwX:X0X).( x } d.n.a.g.g.g.n.( R *.j C Y r.p.N.x.' , 1 = d 0 } F.[ X.r.i.4.p.1.l.`.`.].wX-XC.;.h 8 o 0 ",
"1 x [ ) %X1X&X<XqX0Xe.,.}.OX|.gX,XI H +.] u.9.b.:._ G W q.`.D.-Xh.F i.<X,XP 0 9 - o h K X.u.) S S ) -.q.6X9X:X8X(.,X.X4.( k p 0 ",
"@ o * ( a.<._.`.S.wX6X:X.X1.V.}...A F M ' F.T.) ^ 6 6 ( ;X0XxXcXeX4.~ s.F.d 3 1 , , @ ` D ( 4.n.m.x.v.`.5XpX8XfX#XV.`.C.M.p.N & ",
"O 4 = ) ;.|.qXaXaX7XeX>Xx.9.B.4.( i S ( y.g.8.;.^ 4.l.z.yXMXAXxXgX,.r.j 0 l @ 5 d ` F F X. .u.s.v..X;XsXnXzXwXa.c.`.=X!.$X0.| c ",
"&   o 7 T a.V.MXAX8X`..X`.D.e.W S ,.A.=.-.y.a.Z.F ( #X XwX:XcXgX&Xd.[ M < ; 7 x D Y s 4 N 2 8 f Y.-X6XnXgX9X-X$XR.W.<X^ P.b.4.Y ",
"o & %   a ;./.MXbXMXxX6X-X#Xx.! j.@XZ.T.[ ^ ) 9.Q #.p.i.,X<X<X&X,.Q T ~ N q r 0 l j l 4 3 + & A 8.&XeXnXvX5X8Xn.<.a.q.8.} d.6.G ",
"& R R u , h r.-XrX-XkXMXeX_.`.A.H.oX,Xp.N j 9. X&X .^ F } g.C.1X=X@Xd.p + * 0 4 y m w 9 K r z B a.n.,XcXnXvXsX'.v.`.(.n.B | ' 8 ",
"&.(.;Xk.! ! T ,XgX:XyXzXrXtX-Xt.d.8.oXV.e.T [ *X%X+.p & = y.&Xn. X,XH.G 9 @ ; y t - < B I P 0 4 a _ k.cXCXzXuX=X`.;Xg.Z 2 ~ A i ",
"| .XuXVX0X).3._ |.9X=X0XeXyX=X,.t.s.T.&XW.f.j [ i.u.X.f & y.` b.!.F.B 9 3 5 & 3 = & M ] P @.p @ % a e.7XzXhX:X-X=X<X^ p O Z 5.N ",
"..W.qXeXkX(.G k p.eXS.eX8X$X Xg.r.f.3.4.u.$.d.T N a G p O h 6.*XP.8 @   $ z < $ # & B h 0 4 - @ , A A.=XeX:X_.8X).`.( 8 6 u y.2.",
"f.;.9..X&XwX-.N ;.T.wX:X,XoXb.~ 8 7 G O.%.P H J.( & @ o > * d U ] u u S 6 r = o o & - O 8 & O % p 8.n.V._.-XwXeXeX,XA S k D A 5.",
"6.H.K.%XXXwX-X9.=./ {.$XoX~.9.V F a a Y ] < 3 < % @ : - : # u 8 A F.8.Q.^ 7 < b h ; 3 9 b j 0 4 5 | ) x.=X<Xm.u.B.Z.J.K.$.5 K X.",
"H.Y Y +.G }.=Xq.b.S ^ }.V.a.g.T x N Z < d < + $ 4 1 4 o   j ~ ( Q 2.P.I.3.p K d 9 u ; h b O 0 , % N W m.@X|...R 4.I.F.K.G.G A P ",
"j y.F ..n.oX!.a.<.;.j.)..Xn.3.T ^ 1.S I l *   O e 3 % :   * F d.P.( } | G B B Z R ( x G 0 0 x s 6 H 9.Q. X3.R ,.( ^ [ s < % O d ",
"h 6.G.Y.s.g.:.b.E.T.M.$X@Xa...;.Z g.6.5 q v q - = e 9   4 O % Z  .p 8 0 q 8 ^ G.s.{ e 4 4 % o , V B | 7.b.S.!.!.=.~ h V j 3   O ",
"8 d V | 4.a./.c.c./.gX4X%Xp.W S D Y.Q.4.1 * e p % 3 l O , E l.>XuX-X| 7 + * j ` &.9 1 e * : $ & 6 & 5 R Z.&XK.Y.5.j 7 % o %     ",
"9 z H *.-.#X!.<X,X3Xg.F [ ^ V.( R q.N.~   & O d O $ * 1 9 V.@X7XrXhXa.N = ; % b z * 4 < = % C 3.} I 2.P.%X' ( ^ F v % % d M Z , ",
"i 4 j b.K.G.7.9.t.| X.U j ( .X_._.].=Xj o 9 z 4   9 z e u `.yXVXCXbX/.g     , 6 9 o   6 u 5  .W.f.G ;.4.-.5.u.I.z 1 % ` J A ] j ",
"G u u.} 8.T.a.A.d.b.#.8 D j.`.:XpXiXoXH ; 2   ; O @ 1 g z.;XgXzXMXbX+XT 5 % j f 6 % 5 Q  .o.U P j N d.w.Q.;.f x O o   < 4 T f u ",
"g Z Z y.I.s.f.P.0.6...+.n.8X8XzXbXcXK.R < l % % O % i h.gXcX9XvXVXcXwXd.Z , ; d ' J | Q.Y.o.x S X.3.} U.J.G.X...d o X % 9 5.' I "
};
